<svg xmlns="http://www.w3.org/2000/svg" viewBox="0 0 301.5 110.2" enable-background="new 0 0 301.5 110.2"><style type="text/css">.st0{fill:#E1E0DB;} .st1{fill:#FFFF99;stroke:#F7931E;stroke-miterlimit:10;}</style><path d="M210.8 62.2c0 .1 0 .2.1.2s.1.1.2.1.2 0 .3.1.2 0 .2.1c.1 0 .2.1.2.1s.1.1.2.2.2.1.2.2.1.1.1.2.1.2.1.2.1.2.1.3c.1.2.1.3.2.5s.2.4.2.6c0 .1 0 .2 0 .4s-.1.3-.1.4-.1.3-.2.4-.1.2-.2.3c-.3.2-.6.5-1 .7s-.8.4-1.2.6c-.1 0-.2.1-.2.1s-.2.1-.2.1c-.1 0-.2 0-.3 0s-.2 0-.3 0c-.1 0-.2 0-.2.1s-.1.1-.2.1c-.2.1-.3.1-.6.1s-.4 0-.6.1c-.1 0-.2 0-.2 0s-.2 0-.2 0c-.2 0-.4.1-.6.1s-.4.1-.7.1c-.3 0-.7 0-1 0s-.6 0-1 0c-.2 0-.3 0-.5 0s-.3 0-.5 0c-.3 0-.6 0-.8.1s-.4 0-.7.1-.4 0-.7.1-.5 0-.8.1c-.2 0-.4 0-.7 0s-.4-.1-.5-.3c0-.1.1-.1.1-.1s.1-.1.1-.1c.3-.1.6-.2.8-.4s.4-.5.6-1c0-.1.1-.2.1-.3s.1-.2.1-.2c.1-.1.1-.2.1-.2s0-.1.1-.2c0-.1.1-.2.1-.3s0-.2 0-.3 0-.2.1-.3.1-.2.2-.2c0-.2 0-.3 0-.5s0-.3.1-.5c0-.1.1-.2.1-.2s.1-.1.1-.2 0-.2 0-.4 0-.3 0-.4c0-.1.1-.3.2-.4s.2-.3.2-.4c.1-.2.1-.5.1-.7s0-.5.1-.8c0-.1.1-.1.1-.2s.1-.1.1-.2c.1-.2.1-.4.1-.6s0-.4.1-.6c.1-.3.1-.5.2-.7s.1-.4 0-.7c0-.2-.1-.4-.3-.6s-.2-.3-.3-.4c-.1-.1-.3-.2-.4-.2s-.3-.1-.4-.2c-.1 0-.2 0-.3-.1s-.1-.1-.1-.2.1-.1.1-.2.2-.1.3-.1.2 0 .3 0 .1.1.2.1.3 0 .5 0 .4 0 .5.1c.2 0 .5 0 .8-.1s.6 0 .9.1c.1 0 .1 0 .2.1s.1.1.2.1.2-.1.3-.2.2-.2.3-.2c.2 0 .5 0 .8 0s.6-.1.9-.1c.2 0 .4 0 .7 0s.5 0 .7 0c.2 0 .3 0 .5 0s.4 0 .6.1c.3 0 .5.1.8.1s.5.1.8.2c.1.1.3.1.4.2s.3.2.5.2c.2.1.4.1.6.2s.4.1.5.1c.1 0 .1.1.1.1s.1.1.1.1.1 0 .1 0 .1 0 .2 0c.1.1.3.2.4.4s.2.4.2.6c0 .1.1.3.1.5s0 .4 0 .6 0 .4-.1.6-.1.4-.3.5c0 0-.1 0-.1.1s-.1.1-.1.1c-.1.1-.3.2-.4.4s-.4.2-.6.3c0 .1-.1.2-.2.3s-.2.1-.3.2-.2.1-.3.1-.2.1-.4.1c-.2.1-.4.2-.6.3s0 .3-.2.3zm-5.7 1.4c-.1.2-.1.3-.1.6s0 .4-.1.6c0 .2-.1.3-.2.5s-.1.3-.1.4c0 .1 0 .1 0 .2s0 .1 0 .2-.1.2-.2.4-.1.3-.1.4c0 .1.1.1.2.2s.2.1.4.1.3 0 .4.1.3 0 .3 0c.1 0 .2 0 .3 0s.2-.1.3-.1.2-.1.3-.1.2-.1.3-.1c.1 0 .2 0 .3 0s.2 0 .4 0c.3 0 .6-.1.8-.3s.5-.4.6-.6c.1-.3.2-.6.3-.9s0-.7 0-1c0-.1-.1-.3-.2-.4s-.2-.3-.3-.3c0 0-.1 0-.2-.1s-.1 0-.2-.1c0 0-.1-.1-.1-.1s-.1-.1-.1-.1c-.1 0-.2 0-.3 0s-.3 0-.4 0c-.1 0-.1-.1-.2-.1s-.1-.1-.2-.1-.2 0-.3 0-.2 0-.3 0c-.1 0-.2 0-.4 0s-.2 0-.3 0c-.2 0-.4.1-.4.3s-.1.2-.2.4zm1.6-2.4c.1 0 .2-.1.4-.1s.3-.1.4-.1c.1 0 .2 0 .3 0s.2 0 .3 0c.1 0 .3 0 .4-.1s.3-.1.5-.2.3-.1.4-.2.3-.2.4-.3c.1-.1.2-.2.3-.3s.2-.2.2-.4.1-.3.2-.4 0-.3 0-.4c0-.1-.1-.2-.1-.3s-.1-.3-.2-.3c-.1-.1-.2-.2-.5-.4s-.4-.3-.6-.4c0 0-.1 0-.1 0s-.1 0-.2 0-.2-.1-.3-.2-.2-.1-.2-.2c-.3-.1-.5-.1-.8 0s-.4.2-.5.3c0 .1 0 .1 0 .2s0 .1 0 .2-.1.1-.1.1-.1.1-.1.2c.1.1.1.3.1.4s-.1.3-.2.5c-.1.3-.2.7-.3 1s-.2.7-.3 1c.1.1.2.2.3.3s.1.1.3.1zM214.7 67.5c0-.3.1-.5.3-.7s.3-.4.4-.7c0-.2.1-.3.1-.5s0-.3 0-.5 0-.3 0-.5.1-.3.1-.5c-.1-.1-.1-.2-.1-.4s0-.3 0-.4c.1-.1.1-.2.1-.3s.1-.2.2-.2c.1-.3.2-.5.2-.8s0-.6.1-.9c0-.1 0-.1.1-.2s.1-.1.1-.2c.1-.2.1-.5.1-.8s0-.5.1-.8c.1 0 .2-.1.3-.1s.2-.1.3-.2.2-.1.3-.1.2 0 .3 0c.1 0 .1.1.2.1s.1.1.2.1.1.1.2.1.1.1.2.1c0 0 .1 0 .2.1s.1 0 .1.1c0 0 0 .1.1.1s.1.1.2.2.1.2.2.2.1.1.1.1c0 .1 0 .1 0 .2s-.1.2-.1.3-.1.2-.1.3-.1.2-.1.2c0 .1-.1.3-.1.4s-.1.2-.1.4c-.1.2-.1.3-.2.5s-.1.4-.1.6c0 .2-.1.3-.2.4s-.2.2-.2.4c0 .1 0 .2 0 .3s0 .2 0 .3 0 .2 0 .3 0 .2-.1.3c0 .1-.1.1-.2.1s-.1.1-.2.1c-.1.1-.1.3-.2.4s-.1.4-.1.6 0 .4 0 .6 0 .4.1.5c-.1.2-.2.4-.3.5s-.3.2-.5.3-.4.1-.6.1-.5 0-.7-.1c-.1-.1-.2-.3-.3-.4s-.3.2-.4 0zM231 58.6c.1.3.1.5.1.7s-.1.4-.2.5c0 0-.1.1-.2.1s-.1 0-.2.1-.1.2-.2.3-.1.2-.1.3c-.3.2-.7.4-.9.6s-.6.4-.9.6c-.2.1-.3.2-.4.3s-.3.2-.4.3c-.1.1-.1.1-.2.2s-.1.1-.2.2-.2.1-.3.1-.2 0-.3.1c-.1.1-.2.2-.3.3s-.2.2-.3.4c0 .3 0 .6.1.8s.2.4.3.6.2.4.3.6.2.4.2.7c.2.1.3.2.4.4s.2.3.3.5c0 0 .1.1.1.1s.1 0 .2.1c.1 0 .1.1.1.2s.1.1.1.2c.1.1.2.2.3.2s.2.1.3.2.2.2.3.3.2.2.4.2c.1.2.2.4.4.5s.3.3.5.4c0 .1.1.2.2.2s.1.1.1.2-.1.2-.3.2-.4 0-.6 0-.5-.1-.7-.1-.4-.1-.5-.1c0 0 0 0-.1-.1s-.1 0-.1-.1c-.3 0-.5-.1-.7-.2s-.4-.2-.5-.3c-.1-.2-.2-.3-.3-.4s-.2-.3-.3-.4c0-.1 0-.2 0-.2s0-.2 0-.3c-.1-.1-.2-.1-.3-.2s-.2-.1-.4-.1c-.1-.2-.2-.3-.2-.5s-.2-.4-.3-.5c0 0-.1-.1-.1-.1s-.1-.1-.1-.1c0-.1 0-.1 0-.2s0-.1 0-.2c0-.2-.1-.3-.2-.4s-.2-.3-.2-.4c0-.3-.1-.4-.2-.4s-.3 0-.4.1-.3.2-.5.3-.3.2-.4.3c-.1.1-.1.3-.2.5s-.1.4-.2.6c0 0-.1.1-.1.1s-.1.1-.1.2c-.1.2-.2.4-.2.7s-.1.6-.2.8c-.1.2-.2.4-.5.4s-.5 0-.7-.2c-.1.1-.2.1-.3.2s-.2.1-.3.1c-.1 0-.3-.1-.4-.2s-.2-.2-.3-.2c0-.2 0-.4 0-.5s.1-.4.1-.5c0-.2.1-.3.1-.5s.1-.3.1-.5c0-.1 0-.2.1-.2s0-.2.1-.2.1-.1.1-.2.1-.1.1-.2 0-.1 0-.2 0-.1 0-.2.1-.3.1-.4.1-.2.2-.3c0-.3 0-.5.1-.7s.1-.4.2-.7.1-.4.2-.6.1-.4.1-.7c.1-.2.3-.5.4-.9.1-.2.1-.3.1-.5s.1-.3.1-.5.1-.3.2-.4.2-.2.3-.3c.1-.2.2-.4.3-.5s.4-.2.6-.1c0 0 .1.1.1.2s.1.2.1.2 0 .1.1.2.1.1.1.2c.1.1.2.1.3.1s.2 0 .3.1c.1.2.1.3.1.4s0 .3-.1.4-.1.2-.2.4-.1.2-.1.4c0 .1 0 .1 0 .2s0 .1 0 .2 0 .1-.1.2 0 .1-.1.2c0 .2-.1.4-.1.5s-.1.3-.3.4c.1.2.1.3 0 .4s-.1.2-.1.3c.2-.1.3-.2.5-.3s.3-.2.4-.4.3-.2.4-.4.3-.2.5-.3c.1 0 .1 0 .2 0s.1 0 .2 0c.1-.1.2-.1.2-.2s.1-.2.2-.2c.1-.1.1-.1.2-.2s.1-.2.2-.3c.1-.1.2-.2.4-.3s.3-.2.4-.2.2-.2.3-.3.2-.2.3-.3c.2-.1.4-.3.6-.4s.4-.2.6-.4.4-.3.7-.4.5-.2.7-.4c.1 0 .1 0 .2 0s.4-.3.5-.3zM239.2 60.2c-.3.2-.6.2-.9.2s-.7 0-1.1 0c-.1 0-.2 0-.3 0s-.2 0-.3 0c-.6.1-1 .3-1.4.6s-.7.8-.8 1.3c-.1.2-.1.4-.1.5s0 .3.2.3c.1 0 .2 0 .4 0s.2-.1.4-.1.2-.1.4-.1.2-.1.4-.1c0 0 .1 0 .1 0s.1 0 .1 0c.2 0 .4 0 .6 0s.4-.1.6 0c0 0 .1 0 .1.1s.1.1.1.1c.2.1.3.1.5.1s.4.1.5.1c.1 0 .1.1.2.1s.1.1.1.1c0 .1-.1.2-.2.2s-.3.1-.4.1c-.1 0-.2 0-.3 0s-.2 0-.3 0c-.2 0-.3.1-.5.1s-.3.1-.5.1c-.2.1-.4.2-.6.3s-.4.2-.6.2c-.2 0-.3 0-.4 0s-.3 0-.5 0c-.1 0-.1 0-.2.1s-.1 0-.2.1c-.1 0-.2 0-.2 0s-.1 0-.1 0-.1.1-.1.1-.1.1-.1.2c-.1.2-.2.4-.2.7s0 .5-.1.8c.1.1.3.2.4.3s.3.1.5.1c.1 0 .2 0 .3 0s.2 0 .3-.1c.1 0 .3 0 .4 0s.3 0 .4 0c.3 0 .6-.1.9-.1s.5-.1.9-.1c.1 0 .2 0 .4 0s.4 0 .6 0 .4 0 .5.1.2.1.2.1c0 .1 0 .1-.1.2s-.2.1-.3.2-.2.1-.3.2-.2.1-.2.1c-.2.1-.4.1-.6 0s-.4 0-.6 0c-.2 0-.3.1-.4.1s-.3.1-.4.1-.3.1-.4.2-.3.1-.5.1-.4 0-.6.1-.4.1-.6.1c-.1 0-.2 0-.3.1s-.2.1-.3.1c-.3.1-.7.1-1.1 0s-.8 0-1.3 0c-.3 0-.6.1-.8.1s-.5.1-.7 0c-.1 0-.2 0-.2 0s-.1 0-.2-.1c0-.1.1-.2.2-.2s.2-.1.2-.2c.1-.1.2-.1.2-.2s.1-.1.2-.2.1-.2.2-.3.1-.3.1-.4.1-.3.1-.4.1-.2.2-.3c-.1-.2-.1-.5 0-.7s.2-.6.3-.8c0-.1 0-.1 0-.2s0-.1 0-.2.1-.2.2-.3.1-.2.2-.3c0-.1 0-.1 0-.2s0-.1 0-.2c0-.2.1-.3.1-.5s.1-.3.1-.4c0-.1 0-.2 0-.3s0-.2 0-.3c0-.2.1-.5.1-.7s.1-.4.1-.6c0-.1 0-.3-.1-.4s.2 0 .2 0c0-.1-.1-.1-.2-.2s-.1-.1-.2-.2-.1-.1-.2-.2-.1-.1-.1-.1c0-.1.1-.2.2-.2s.2 0 .3-.1c.4 0 .8.1 1.2.1s.8.1 1.2.2c.2 0 .3 0 .5 0s.3 0 .5-.1c.2 0 .5 0 .8.1s.6.1.9.1c.4 0 .8 0 1.2 0s.7 0 1.1 0c.1.1.2.1.3.1s.3 0 .4 0 .3 0 .4 0 .2.1.3.2c.1.2.1.3 0 .4s-.2.2-.4.2c0 0-.1 0-.2 0s-.2 0-.3 0-.2 0-.3 0-.1-.1-.2-.1zM247.6 59.3c.1 0 .2 0 .3 0s.2 0 .3 0c0 0 .1 0 .1 0s.1 0 .1.1.1 0 .1 0 .1 0 .1 0c.3.1.5.2.7.3s.3.3.5.5c.1.1.2.3.3.4s.2.3.3.5.1.4.1.6 0 .4-.1.6c0 .1-.1.1-.1.2s-.1.2-.1.3c-.1.1-.2.3-.3.4s-.2.2-.3.3c-.1.1-.2.1-.2.2s-.1.1-.2.1c-.2.1-.3.1-.5.3s-.3.2-.5.3c-.1 0-.1 0-.2 0s-.1 0-.2 0-.1.1-.2.2-.1.1-.3.2c.3.1.6.2.8.5s.4.5.6.8c.1.2.1.3.2.4s.2.3.1.4c.1.1.1.2.2.3s.1.2.1.4.1.3.1.4.1.3.1.4c.1.2.1.3.2.4s.2.2.3.3.2.2.3.3.2.2.2.4c0 0 .1 0 .1 0s.1 0 .1 0c.2.1.4.2.6.3s.5.1.8.2c.3 0 .5.1.8 0s.5 0 .7-.1c.1 0 .2 0 .3-.1s.2-.1.4-.1.2 0 .3 0 .1.1.1.2-.1.2-.2.3-.2.2-.3.3c-.2.1-.4.3-.7.3s-.5.1-.8.2-.6.1-.9.1-.6 0-.8.1c-.2 0-.3 0-.4-.1s-.3-.1-.4-.1c-.2 0-.4-.1-.6-.1s-.4-.1-.5-.2c-.1-.1-.3-.2-.4-.3s-.3-.2-.4-.3c-.3-.3-.6-.5-.9-.8s-.5-.6-.7-1c-.1-.1-.1-.2-.2-.3s-.1-.2-.2-.3c0-.1-.1-.2-.1-.3s0-.2 0-.3c0-.1-.1-.3-.1-.4s-.1-.3-.1-.4c0 0 0-.1-.1-.1s0-.1-.1-.1c0-.1 0-.2-.1-.3s-.1-.2-.1-.2c-.1 0-.2-.1-.3-.2s-.2-.1-.3-.1c-.1 0-.3 0-.4 0s-.2.1-.3.1c-.2 0-.3 0-.4 0s-.3 0-.4 0c-.2.1-.3.2-.4.5s-.2.5-.2.8c0 .3-.1.5-.2.8s-.2.5-.2.7c0 .2-.1.3-.2.4s-.3.1-.4.1c-.1 0-.2 0-.2 0s-.1 0-.2-.1c-.1 0-.2.1-.3.2s-.2.1-.3.2c-.4.1-.6.1-.7-.1s0-.5.1-.8c.1-.2.1-.5.3-.7s.2-.4.3-.6c0-.1 0-.2 0-.3s0-.2 0-.3 0-.2 0-.2 0-.1.1-.2c0-.1 0-.2.1-.3s.1-.2.1-.3c0-.1.1-.2.1-.4s.1-.3.1-.4c0-.1 0-.3 0-.4s0-.3.1-.4c.1-.2.1-.3.2-.5s.1-.3.1-.5c0-.1 0-.2 0-.4s0-.2.1-.4c0-.1.1-.2.1-.2s.1-.1.1-.2 0-.1 0-.2 0-.1 0-.2c.1-.2.1-.4.1-.6s-.1-.2-.1-.3-.1-.2-.1-.3 0-.2 0-.3c.1 0 .1-.1.2-.1s.1-.1.2-.2c0 0 .1 0 .3 0s.3 0 .4 0 .3 0 .4 0 .3 0 .3 0c.1 0 .2 0 .4 0s.3 0 .4 0 .3 0 .4 0 .2 0 .3.1h2.3zm-2.6 4.4c.1 0 .2 0 .3-.1s.2-.1.3 0c.1 0 .2 0 .4.1s.2 0 .4.1c.1 0 .1 0 .2 0s.1 0 .2 0c.2-.1.4-.2.5-.3s.3-.2.4-.4c.1-.1.1-.2.2-.3s.1-.2.1-.3c.1-.3.1-.5 0-.7s-.2-.4-.3-.5c-.1-.2-.2-.3-.3-.4s-.3-.1-.5-.1-.4 0-.6 0-.4 0-.6 0-.4 0-.5.1-.3.2-.3.3c-.1.2-.1.4-.2.6s-.2.4-.2.6-.5.4-.5.6-.1.4-.1.7c.2 0 .4 0 .5 0s.4.1.6 0zM222.6 77.1c.3.2.6.5.9.7s.5.5.7.8c0 .1.1.1.1.2s.1.1.1.2c.1.1.2.3.3.4s.2.3.2.5c0 .1 0 .3 0 .4s0 .3 0 .5c0 .1 0 .1.1.2s.1.1.1.2c0 .2 0 .3 0 .5s-.1.4 0 .6c0 .1 0 .2.1.3s.1.2.1.3c0 .2 0 .3-.1.5s-.1.3-.1.5c-.1.5-.2.9-.3 1.2s-.2.7-.4 1c-.1.2-.2.3-.3.5s-.2.3-.3.5c-.2.4-.5.7-.8 1s-.6.6-.8.9c-.4.2-.9.4-1.3.6s-.8.4-1.4.5c-.1 0-.2.1-.3.1s-.2.1-.4.1-.3.1-.5.1-.3 0-.5.1c-.1 0-.2.1-.4.1s-.2.1-.4.1c-.1 0-.2 0-.4 0s-.2-.1-.4-.1c-.1 0-.2 0-.3 0s-.2 0-.3 0c-.1 0-.1 0-.2-.1s-.1-.1-.2-.1-.1-.1-.2-.1-.2 0-.2-.1c-.1 0-.2-.1-.3-.1s-.2-.1-.3-.1c-.1 0-.1 0-.2 0s-.1 0-.2 0-.2-.1-.2-.1-.1-.1-.2-.2-.2-.1-.3-.1-.2-.1-.2-.1c-.2-.1-.3-.3-.5-.5s-.3-.4-.4-.7c-.1-.2-.2-.4-.4-.7s-.3-.5-.3-.7c0-.1 0-.3-.1-.5s0-.3-.1-.5c0-.3 0-.7 0-1.1s0-.8.1-1.2c0-.1.1-.3.1-.4s.1-.2.2-.4c0-.1.1-.3.1-.4s.1-.3.1-.4c.1-.1.1-.2.2-.3s.2-.2.2-.3 0-.2 0-.4 0-.2 0-.4c0-.3.2-.5.4-.7s.4-.4.6-.7c.3-.3.5-.5.7-.7s.5-.4.8-.6c0 0 .1 0 .2-.1s.1-.1.2-.1.1-.1.2-.1.1-.1.2-.1.2 0 .3 0 .2 0 .3 0c.1 0 .2-.1.3-.1s.2-.1.3-.2.2-.2.2-.2.2-.1.2-.2c0 0 .1 0 .1 0s.1 0 .1 0c.3-.1.7-.2 1-.1s.7.1 1.1.1c.3 0 .6 0 .9.1s.6.1.8.1c.2 0 .3.1.5.2s.9-.1 1.1-.1zM219.5 88c.1-.1.2-.2.2-.3s.2-.3.3-.4c.2-.3.4-.6.5-1s.3-.7.5-1c.2-.3.3-.7.4-1.1s.2-.8.4-1.2c0-.1.1-.3.2-.4s.1-.3.1-.4c0-.1 0-.2-.1-.2s-.1-.1-.1-.2 0-.2 0-.2 0-.1 0-.2 0-.1 0-.2 0-.1-.1-.2c0-.1 0-.2-.1-.3s0-.2 0-.3c0-.1 0-.2 0-.3s0-.2 0-.3c-.1-.3-.2-.5-.4-.7s-.4-.4-.6-.5c-.1 0-.1-.1-.1-.1s-.1-.1-.1-.1c-.1 0-.2 0-.3-.1s-.2 0-.3 0c-.3 0-.5.1-.7.2s-.4.2-.7.2c-.4.2-.8.5-1.2.8s-.8.7-1 1.1c0 .1-.1.1-.1.2s0 .1-.1.2-.1.2-.2.2-.1.1-.2.2c-.1.2-.2.4-.3.6s-.2.4-.2.6c-.1.2-.1.5-.1.8s0 .5-.1.8c0 .3-.1.6-.1 1s-.1.6 0 .9c0 .1 0 .1 0 .2s0 .2.1.2c0 .3.1.6.1.8s.1.4.3.6c.1.1.1.1.2.2s.2.1.3.2c.1.1.1.1.1.2s.1.1.1.2c.4.3.9.5 1.7.5.2-.2.5-.3.8-.4s.7-.6.9-.8zM234.6 80.2c.1 0 .1.1.1.2s0 .2.1.3c.1-.1.3-.1.4-.2s.4-.1.6-.1c.1.1.1.3.1.4s0 .2 0 .4-.1.2-.1.4-.1.3-.1.4c0 .2-.1.4-.1.5s-.1.3-.1.5c-.1.2-.1.4-.1.6s-.1.4-.1.5-.1.3-.1.4-.1.3-.3.4c0 .5 0 1-.2 1.5s-.3.9-.4 1.3c0 .1-.1.2-.1.3s-.1.2-.1.3c0 .1-.1.1-.1.2s-.1.1-.2.2c-.2.3-.3.6-.5.9s-.4.5-.8.6c-.1 0-.2.1-.3.1s-.2.1-.2.1c-.1.1-.2.1-.4.2s-.3.2-.5.2c-.1 0-.2 0-.3-.1s-.2-.1-.3-.1c-.1 0-.2 0-.3 0s-.2 0-.4 0-.2 0-.3 0-.2-.1-.2-.2c-.1 0-.3 0-.4.1s-.2.1-.4.1c-.1 0-.3-.1-.4-.2s-.2-.2-.3-.2c-.1 0-.2.1-.2.1s-.1 0-.2 0-.1-.1-.2-.1-.1 0-.2-.1-.2-.2-.3-.4-.1-.4-.2-.5-.1-.4-.1-.6-.1-.3-.2-.5c0-.2.1-.5.2-.7s.1-.4.2-.6c0-.1.1-.3.1-.5s0-.3 0-.5 0-.3 0-.5.1-.3.1-.5c0-.1.1-.1.2-.2s.1-.1.2-.2c0-.1.1-.2.1-.3s0-.2.1-.3c0-.2 0-.3.1-.6s0-.4.1-.6c0-.3.1-.6.1-.9s.2-.5.4-.6c.2 0 .3-.1.5-.2s.3-.1.6-.1c.1 0 .1 0 .2.1s.2.1.2.1c.2 0 .3.1.4.1s.2.1.2.3c0 .1 0 .2 0 .3s-.1.2-.1.3c0 .1-.1.1-.1.2s-.1.1-.1.2c0 0 0 .1 0 .1s0 .1 0 .1c0 .1-.1.2-.1.3s-.1.2-.1.3c-.1.1-.1.3-.2.4s-.1.3-.2.5-.2.4-.2.7-.2.5-.2.7c0 .2-.1.5-.1.7s0 .4-.1.7c0 .1-.1.2-.1.3s0 .2 0 .3c-.1.1-.2.3-.1.4s.1.3.2.4c.1.1.1.2.2.2s.2.2.3.3.2.1.4.2.3 0 .5 0c.1 0 .2-.1.4-.1s.2-.1.4-.2.4-.2.6-.4.3-.3.4-.6c0-.1.1-.2.1-.3s0-.2 0-.3 0-.2 0-.4 0-.3.1-.4c.1-.1.1-.2.3-.4s.2-.2.2-.4c0-.1 0-.1 0-.2s0-.1 0-.2c0-.2 0-.3.1-.5s.1-.3.2-.5.1-.3.2-.5.1-.3.1-.5 0-.3 0-.4 0-.2 0-.3 0-.2.1-.3.1-.2.1-.3c.1-.1.1-.2.2-.3s.1-.3.1-.5c0-.1 0-.1 0-.2s0-.2.1-.2c0-.1.1-.2.2-.3s.2-.1.4-.1.3-.1.4-.1-.4.1-.2.1zM245.4 80.8c0 .2-.1.3-.2.4s-.2.1-.3.2c-.1.1-.1.1-.2.2s-.1.2-.1.2c-.1.1-.1.1-.3.1s-.2.1-.3.1c-.2.1-.4.1-.6.1s-.4 0-.6 0c-.1 0-.2.1-.3.2s-.2.1-.3.2c-.1 0-.2.1-.2.1s-.1.1-.1.1-.1.1-.1.1-.1.1-.1.2c-.1.1-.1.3-.1.5s0 .4-.1.5c0 .1-.1.2-.1.4s-.1.3-.1.5c0 .1 0 .2 0 .3s0 .2 0 .3c0 .1-.1.2-.2.3s-.1.2-.2.3c0 .1 0 .1 0 .2s0 .1 0 .2c0 .3-.1.6-.2.9s-.1.7-.2 1c-.1.3-.1.5-.2.8s-.1.5-.2.7c-.1 0-.2 0-.3.1s-.2.1-.3.1c-.1 0-.2 0-.2 0s-.1 0-.2.1-.2.2-.3.3-.2.2-.3.2c-.1 0-.2 0-.2 0s-.1 0-.2-.1c-.1 0-.2 0-.3 0s-.2 0-.3 0c0-.1-.1-.2-.1-.4s0-.3.1-.4.1-.3.1-.4.1-.2.1-.4c0-.1 0-.2 0-.3s0-.2.1-.3c0-.1.1-.2.2-.3s.1-.2.2-.3c0-.1.1-.3.2-.5s.1-.3.1-.4c0-.1 0-.3 0-.4s0-.3 0-.4c0-.1.1-.1.1-.2s.1-.1.1-.2.1-.3.1-.4 0-.3.1-.4c0-.1 0-.3.1-.4s.1-.2.1-.4.1-.3.1-.4.1-.3.1-.4 0-.3 0-.4 0-.3-.1-.4c-.1-.1-.2-.2-.3-.3s-.2-.1-.4-.1-.3 0-.5 0-.3 0-.5 0c-.1 0-.1-.1-.2-.2s-.1-.2-.2-.2-.3-.1-.5-.1-.3-.1-.4-.2c-.1-.2-.1-.3 0-.5s.1-.3.2-.4c.4-.1.9-.1 1.4 0s.9.1 1.4.1c.2 0 .4 0 .6-.1s.4-.1.6 0c.1 0 .2.1.3.1s.2.1.3.1c.1 0 .1 0 .2 0s.1 0 .2 0 .2 0 .3 0 .2 0 .3 0c.1 0 .2 0 .3 0s.1 0 .1 0 .1 0 .1 0 .1 0 .2 0 .2 0 .3 0 .2 0 .3 0c.3 0 .5 0 .7-.1s.5-.1.7-.1c.1 0 .3 0 .4 0s.2.3.3.3zM251.2 80.9c.1 0 .2 0 .3 0s.2 0 .3 0c0 0 .1 0 .1 0s.1 0 .1.1.1 0 .1 0 .1 0 .1 0c.3.1.5.2.7.3s.3.3.5.5c.1.1.2.3.3.4s.2.3.3.5.1.4.1.6 0 .4-.1.6c0 .1-.1.1-.1.2s-.1.2-.1.3c-.1.1-.2.3-.3.4s-.2.2-.3.3c-.1.1-.2.1-.2.2s-.1.1-.2.1c-.2.1-.3.1-.5.3s-.3.2-.5.3c-.1 0-.1 0-.2 0s-.1 0-.2 0-.1.1-.2.2-.1.1-.3.2c.3.1.6.2.8.5s.4.5.6.8c.1.2.1.3.2.4s.2.3.1.4c.1.1.1.2.2.3s.1.2.1.4.1.3.1.4.1.3.1.4c.1.2.1.3.2.4s.2.2.3.3.2.2.3.3.2.2.2.4c0 0 .1 0 .1 0s.1 0 .1 0c.2.1.4.2.6.3s.5.1.8.2c.3 0 .5.1.8 0s.5 0 .7-.1c.1 0 .2 0 .3-.1s.2-.1.4-.1.2 0 .3 0 .1.1.1.2-.1.2-.2.3-.2.2-.3.3c-.2.1-.4.3-.7.3s-.5.1-.8.2-.6.1-.9.1-.6 0-.8.1c-.2 0-.3 0-.4-.1s-.3-.1-.4-.1c-.2 0-.4-.1-.6-.1s-.4-.1-.5-.2c-.1-.1-.3-.2-.4-.3s-.3-.2-.4-.3c-.3-.3-.6-.5-.9-.8s-.5-.6-.7-1c-.1-.1-.1-.2-.2-.3s-.1-.2-.2-.3c0-.1-.1-.2-.1-.3s0-.2 0-.3c0-.1-.1-.3-.1-.4s-.1-.3-.1-.4c0 0 0-.1-.1-.1s0-.1-.1-.1c0-.1 0-.2-.1-.3s-.1-.2-.1-.2c-.1 0-.2-.1-.3-.2s-.2-.1-.3-.1c-.1 0-.3 0-.4 0s-.1-.2-.2-.2c-.2 0-.3 0-.4 0s-.3 0-.4 0c-.2.1-.3.2-.4.5s-.2.5-.2.8c0 .3-.1.5-.2.8s-.2.5-.2.7c0 .2-.1.3-.2.4s-.3.1-.4.1c-.1 0-.2 0-.2 0s-.1 0-.2-.1c-.1 0-.2.1-.3.2s-.2.1-.3.2c-.4.1-.6.1-.7-.1s0-.5.1-.8c.1-.2.1-.5.3-.7s.2-.4.3-.6c0-.1 0-.2 0-.3s0-.2 0-.3 0-.2 0-.2 0-.1.1-.2c0-.1 0-.2.1-.3s.1-.2.1-.3c0-.1.1-.2.1-.4s.1-.3.1-.4c0-.1 0-.3 0-.4s0-.3.1-.4c.1-.2.1-.3.2-.5s.1-.3.1-.5c0-.1 0-.2 0-.4s0-.2.1-.4c0-.1.1-.2.1-.2s.1-.1.1-.2 0-.1 0-.2 0-.1 0-.2c.1-.2.1-.4.1-.6s-.1-.2-.1-.3-.1-.2-.1-.3 0-.2 0-.3c.1 0 .1-.1.2-.1s.1-.1.2-.2c0 0 .1 0 .3 0s.3 0 .4 0 .3 0 .4 0 .3 0 .3 0c.1 0 .2 0 .4 0s.3 0 .4 0 .3 0 .4 0 .2 0 .3.1h2.2zm-2.7 4.4c.1 0 .2 0 .3-.1s.2-.1.3 0c.1 0 .2 0 .4.1s.2 0 .4.1c.1 0 .1 0 .2 0s.1 0 .2 0c.2-.1.4-.2.5-.3s.3-.2.4-.4c.1-.1.1-.2.2-.3s.1-.2.1-.3c.1-.3.1-.5 0-.7s-.2-.4-.3-.5c-.1-.2-.2-.3-.3-.4s-.3-.1-.5-.1-.4 0-.6 0-.4 0-.6 0-.4 0-.5.1-.3.2-.3.3c-.1.2-.1.4-.2.6s-.2.4-.2.6-.1.4-.2.7-.1.4-.1.7c.2 0 .4 0 .5 0s.1 0 .3-.1zM263.5 81.8c-.3.2-.6.2-.9.2s-.7 0-1.1 0c-.1 0-.2 0-.3 0s-.2 0-.3 0c-.6.1-1 .3-1.4.6s-.7.8-.8 1.3c-.1.2-.1.4-.1.5s0 .3.2.3c.1 0 .2 0 .4 0s.2-.1.4-.1.2-.1.4-.1.2-.1.4-.1c0 0 .1 0 .1 0s.1 0 .1 0c.2 0 .4 0 .6 0s.4-.1.6 0c0 0 .1 0 .1.1s.1.1.1.1c.2.1.3.1.5.1s.4.1.5.1c.1 0 .1.1.2.1s.1.1.1.1c0 .1-.1.2-.2.2s-.3.1-.4.1c-.1 0-.2 0-.3 0s-.2 0-.3 0c-.2 0-.3.1-.5.1s-.3.1-.5.1c-.2.1-.4.2-.6.3s-.4.2-.6.2c-.2 0-.3 0-.4 0s-.3 0-.5 0c-.1 0-.1 0-.2.1s-.1 0-.2.1c-.1 0-.2 0-.2 0s-.1 0-.1 0-.1.1-.1.1-.1.1-.1.2c-.1.2-.2.4-.2.7s0 .5-.1.8c.1.1.3.2.4.3s.3.1.5.1c.1 0 .2 0 .3 0s.2 0 .3-.1c.1 0 .3 0 .4 0s.3 0 .4 0c.3 0 .6-.1.9-.1s.5-.1.9-.1c.1 0 .2 0 .4 0s.4 0 .6 0 .4 0 .5.1.2.1.2.1c0 .1 0 .1-.1.2s-.2.1-.3.2-.2.1-.3.2-.2.1-.2.1c-.2.1-.4.1-.6 0s-.4 0-.6 0c-.2 0-.3.1-.4.1s-.3.1-.4.1-.3.1-.4.2-.3.1-.5.1-.4 0-.6.1-.4.1-.6.1c-.1 0-.2 0-.3.1s-.2.1-.3.1c-.3.1-.7.1-1.1 0s-.8 0-1.3 0c-.3 0-.6.1-.8.1s-.5.1-.7 0c-.1 0-.2 0-.2 0s-.1 0-.2-.1c0-.1.1-.2.2-.2s.2-.1.2-.2c.1-.1.2-.1.2-.2s.1-.1.2-.2.1-.2.2-.3.1-.3.1-.4.1-.3.1-.4.1-.2.2-.3c-.1-.2-.1-.5 0-.7s.2-.6.3-.8c0-.1 0-.1 0-.2s0-.1 0-.2.1-.2.2-.3.1-.2.2-.3c0-.1 0-.1 0-.2s0-.1 0-.2c0-.2.1-.3.1-.5.1-.2.1-.3.1-.4 0-.1 0-.2 0-.3s0-.2 0-.3c0-.2.1-.5.1-.7s.1-.4.1-.6c0-.1 0-.3-.1-.4s-.1-.3-.1-.4c0-.1-.1-.1-.2-.2s-.1-.1-.2-.2-.1-.1-.2-.2-.1-.1-.1-.1c0-.1.1-.2.2-.2s.2 0 .3-.1c.4 0 .8.1 1.2.1s.8.1 1.2.2c.2 0 .3 0 .5 0s.3 0 .5-.1c.2 0 .5 0 .8.1s.6.1.9.1c.4 0 .8 0 1.2 0s.7 0 1.1 0c.1.1.2.1.3.1s.3 0 .4 0 .3 0 .4 0 .2.1.3.2c.1.2.1.3 0 .4s-.2.2-.4.2c0 0-.1 0-.2 0s-.2 0-.3 0-.2 0-.3 0 .2.3.1.3zM268.1 82c.2-.2.4-.3.6-.5s.3-.4.5-.6c.1 0 .2 0 .2-.1s.1-.1.2-.1c.2 0 .3 0 .5 0s.3.1.5.1.4-.1.6-.2.4-.1.6-.1c.1 0 .2 0 .2.1s.1.1.2.1.2 0 .3 0 .2-.1.3-.1c.2 0 .3.1.4.2s.2.2.3.3c.1.3.1.5 0 .8s-.1.5 0 .8c0 .2 0 .3.1.5s0 .3 0 .5 0 .3 0 .5 0 .3 0 .5c0 .1 0 .1.1.2s0 .1 0 .2-.1.2-.2.3-.1.2-.1.3c0 .2 0 .3.1.5s.2.3.2.5c0 .1 0 .1 0 .2s0 .2 0 .2c0 .3 0 .5 0 .9s0 .6.1.9c0 .1 0 .2 0 .3s0 .2 0 .2c0 .1 0 .1-.1.1s-.1.1-.1.1c0 .1 0 .1 0 .2s0 .2 0 .3c0 .1 0 .2 0 .2s0 .1 0 .2c0 0 0 .1 0 .1s0 .1 0 .1c0 .1-.1.2-.2.3s-.3.2-.4.2c-.1 0-.2-.1-.3-.2s-.2-.2-.3-.2c-.1-.1-.2-.3-.2-.5s-.2-.3-.2-.5c0-.1-.1-.1-.1-.2s-.1-.1-.2-.2-.1-.3-.1-.4 0-.3 0-.4 0-.3 0-.4 0-.3-.1-.4c0 0-.1-.1-.1-.1s-.1-.1-.1-.1c-.1-.1-.1-.2-.1-.3s-.1-.1-.2-.2c-.4 0-.8 0-1.2 0s-.8 0-1.2 0c-.1 0-.2 0-.2.1s-.2 0-.2.1c0 0-.1 0-.1 0s-.1 0-.1 0c-.2 0-.3.1-.5.2s-.3.2-.4.4c0 .1-.1.2-.1.3s0 .2-.1.3-.1.2-.2.3-.1.2-.1.3c-.1.1-.2.2-.3.4s-.2.3-.3.4-.2.3-.3.4-.2.2-.4.3c-.1 0-.1.1-.2.1s-.1.1-.2.1-.1 0-.1-.1 0-.1-.1-.1-.2-.1-.3-.2-.3-.4-.4-.4-.2-.1-.3-.2-.1-.1-.2-.2c-.1-.2-.1-.3-.1-.4s.1-.2.2-.3c.1-.2.3-.4.4-.6s.3-.5.4-.7c.1-.1.1-.2.2-.3s.1-.2.2-.3c.1-.1.2-.2.4-.3s.2-.2.3-.3c0-.1 0-.1 0-.2s0-.1 0-.2c.1-.2.2-.4.4-.6s.4-.4.5-.6c0-.1 0-.1 0-.2s0-.1 0-.2c.2-.4.4-.8.7-1.2s.8-.8 1-1.2zm2.5 0c-.1.1-.3.2-.4.4s-.2.2-.4.3c0 .1-.1.2-.2.3s-.1.2-.3.2c0 .2-.1.3-.2.5s-.2.3-.3.4c0 0-.1.1-.1.1s-.1.1-.1.2c-.1.1-.1.1-.2.1s-.1.1-.2.1c-.1.1-.1.2-.2.4s-.2.3-.2.4c-.1.1-.1.1-.2.2s-.1.1-.1.2.1.2.2.2.2 0 .4.1.3 0 .4 0 .2 0 .3 0c.2 0 .3 0 .5 0s.3 0 .5 0 .3 0 .4-.1.2-.1.3-.2c.1-.4.1-.8.1-1.1s-.1-.8-.2-1.1c0-.1 0-.2-.1-.4s0-.2 0-.4c0-.1 0-.2.1-.3s.3-.3.2-.5zM284.7 80.8c0 .1 0 .2-.1.3s-.2.1-.3.2c0 .1.1.1.1.1s.1.1.1.1c-.1.2-.2.3-.5.4s-.4.2-.7.2c-.1 0-.3 0-.4 0s-.3 0-.4 0c-.2 0-.4-.1-.6-.2s-.3-.1-.5-.1c0 0-.1 0-.1.1s-.1.1-.2.1c-.1.1-.3.1-.4.2s-.3.1-.4.2c-.3.2-.5.3-.8.6s-.5.4-.7.6c-.1.2-.2.4-.3.6s-.2.4-.3.6c0 .1-.1.2-.1.3s-.1.2-.1.3 0 .2-.1.4 0 .3-.1.4c0 .1-.1.2-.1.2s-.1.2-.1.3c0 .1.1.2.1.2s.1.1.1.2c0 0 0 .1 0 .1s0 .1 0 .2c0 .2.1.4.3.5s.3.3.4.5c.2 0 .5.1.7.1s.4.1.6.1c.2-.1.4-.2.6-.2s.4-.1.7-.2c.2-.1.3-.1.5-.3s.3-.2.5-.2c0 0 .1 0 .1 0s.1 0 .1 0c.1 0 .2 0 .2-.1s.1-.1.2-.2.2-.1.2-.1.2 0 .3 0c.1.2.1.4.1.5s-.2.2-.3.3-.3.2-.4.3-.2.3-.2.5c-.1.1-.2.2-.4.4s-.3.2-.5.3c-.1 0-.2 0-.3.1s-.2 0-.2.1c-.2.1-.5.2-.7.3s-.5.2-.8.1c-.2 0-.4 0-.5-.1-.1 0-.2-.1-.4-.1s-.2-.1-.4-.1-.3 0-.5 0-.3 0-.5 0-.3-.1-.4-.2-.3-.2-.4-.3c-.2-.1-.3-.2-.4-.2s-.3-.1-.4-.2c-.2-.1-.3-.2-.4-.4s-.2-.3-.4-.4c-.1-.2-.1-.5-.1-.7s0-.5 0-.7c0-.2 0-.4-.1-.7s-.1-.4-.1-.6c0-.1.1-.2.1-.3s.1-.2.1-.3c0-.2 0-.3.1-.4s.1-.3.1-.4c0-.1.1-.2.2-.2s.1-.1.2-.2.1-.1.2-.2.1-.2.1-.3c.1-.1.2-.2.3-.2s.2-.1.2-.2.1-.1.1-.2 0-.1.1-.2.1-.1.3-.2.2-.2.3-.2c.2-.1.5-.2.7-.4s.5-.2.7-.4c.1 0 .3 0 .4-.1s.3-.1.4-.1.2-.1.4-.2.3-.1.4-.1c.1 0 .3 0 .4 0s.3 0 .4 0c.2 0 .4 0 .6 0s.4 0 .6 0c.1 0 .2 0 .2.1s.2.1.3.1c.1 0 .2 0 .3-.1s.2-.1.3-.1c.2 0 .5 0 .7 0s.8.1 1 .1zM296.2 80.4c0 .4 0 .8-.1 1.1s-.2.6-.4.8c0 .1-.1.1-.2.1s-.1.1-.1.1c-.1.1-.1.3-.1.4s0 .3-.1.5c0 .2 0 .3-.1.5s-.1.3-.1.4c0 .1-.1.2-.1.2s-.1.1-.1.2-.1.1-.1.2 0 .2 0 .3c0 0 0 .1 0 .2s0 .1 0 .1c0 .3-.1.6-.2.9s-.3.6-.4.9c0 .1-.1.2-.1.3s0 .2 0 .3c0 .1 0 .2-.1.4s-.1.3-.1.5-.1.3-.2.4-.1.2-.2.3c0 0-.1.1-.2.1s-.2.1-.3.1-.2 0-.3 0-.2 0-.2-.1c-.1 0-.2.1-.2.3s-.1.2-.3.3c-.1 0-.2.1-.4.1s-.3 0-.4 0-.1-.1-.2-.1-.1-.1-.2-.2c0-.2 0-.4 0-.6s.1-.3.2-.4c0-.3 0-.6.1-.8s.2-.5.3-.7c-.1-.1-.1-.2-.1-.4s.1-.3.1-.4c0-.1-.1-.2-.1-.3s-.2-.1-.3-.2-.3-.1-.4-.1-.3 0-.4-.1c-.2 0-.4 0-.5 0s-.2 0-.4 0-.4 0-.5 0-.3 0-.5 0-.3 0-.5 0-.3.1-.4.1c0 .1 0 .2-.1.3s-.1.2-.1.2-.1.2-.1.2-.1.2-.1.3c0 0 0 .1 0 .1s0 .1 0 .1c0 .2-.1.4-.3.6s-.3.5-.3.7c0 .1-.1.3-.1.4s-.1.2-.2.3c-.1 0-.1.1-.2.1s-.1 0-.2 0-.2.1-.2.2-.1.1-.2.1c0 0-.1 0-.2 0s-.2 0-.3 0-.2 0-.2 0-.1 0-.1 0c0-.1 0-.2 0-.2s0-.2 0-.3c.1-.2.2-.3.2-.5s.1-.4.2-.6.1-.4.2-.6.1-.3.2-.5c0-.2 0-.3.1-.4s.1-.3.1-.4.1-.2.1-.4 0-.3 0-.4c0-.1-.1-.2-.1-.3s-.2-.2-.2-.3-.2-.2-.2-.3-.1-.2-.1-.3c0 0 .1-.1.2-.1s.2-.1.3-.1.2 0 .3-.1.2 0 .2 0c.1-.1.2-.3.2-.5s0-.4.1-.5c0-.1.1-.2.1-.4s.1-.2.1-.4c0-.1 0-.2.1-.3s.1-.2.1-.3c0-.2 0-.3 0-.4s0-.3.1-.4c.2-.1.4-.2.7-.3s.5-.1.7-.1c.1 0 .2 0 .2-.1s.1-.1.2-.1.1-.1.2-.1.1 0 .2 0 .1.1.2.1.1.1.1.2 0 .2-.1.2-.1.1-.2.2-.1.3-.1.5-.1.4-.1.5c0 0-.1.1-.1.1s-.1.1-.1.1c0 .1 0 .2 0 .3s0 .2 0 .4-.1.3-.3.5-.2.4-.2.6c.1.1.1.2.3.2s.2.1.4.1c.3.1.5.1.9.2s.6.1 1 .1c.2 0 .4 0 .5 0s.3 0 .5.2c.2-.1.4-.3.5-.4s.2-.4.2-.7c.1-.1.2-.2.3-.4s.2-.3.3-.4c0-.1 0-.1-.1-.1s-.1-.1-.1-.2c0 0 0-.1 0-.1s.1-.1.1-.1c.1-.3.1-.5.1-.8s.1-.5.2-.8c.2-.2.5-.3.8-.4s.7 0 1.1.1c.2-.1.3-.2.5-.3s.3-.2.5-.3c.1 0 .1.1.2.1s0 .6 0 .7zM13.5 23.1c-.2.8-.5 1.6-.8 2.4-.3.8-.5 1.7-.7 2.7 0 .3 0 .5 0 .8 0 .3.1.6.1 1 0 .3 0 .8-.1 1.2 0 .5-.1 1 0 1.4 0 .5.1.9.2 1.2.1.4.3.6.6.7.4.1.8.2 1.3.1s1-.1 1.5-.3c.5-.1 1.1-.2 1.6-.4.5-.1 1.1-.2 1.6-.1.4 0 .9.1 1.4.2.5.1.9.1 1.4.1.2 0 .5-.1.8-.2.3-.1.5-.1.8-.2.3 0 .7 0 1.1 0 .4 0 .8 0 1.2 0 .4-.1.8-.1 1.2-.2.4-.1.8-.2 1.1-.2.5 0 1 0 1.5.1s1 .2 1.4.4c.5.1.9.3 1.4.4s.9.1 1.4.1c.3 0 .6-.1.8-.2.3-.1.5 0 .7.4-.1.3-.2.6-.4.8-.2.2-.3.4-.5.6-.7.3-1.4.4-2 .4-.6 0-1.3 0-2 .1-.9.1-2 .3-3 .6-1.1.3-2.1.6-3 .8-.5.2-1.1.3-1.6.5-.6.2-1.2.4-1.8.5-.8.3-1.5.5-2.2.7s-1.5.4-2.2.7c-.8.3-1.5.7-2.2 1-.7.4-1.5.7-2.3.8-.5.2-1 .3-1.5.4-.5.1-1 .2-1.5.2-.4 0-.8 0-1.1-.1-.4-.1-.8-.2-1.1-.4-.4-.2-.7-.3-1-.6s-.7-.2-.9-.5c-.3.2-.6.3-.9.4s-.6 0-.8 0-.6-.1-.8-.2-.6-.2-.9-.2c-.2-.3-.3-.5-.5-.8-.2-.2-.4-.5-.6-.7-.1-.6.1-1.2.4-1.7.3-.5.6-1 .8-1.6.3-.8.6-1.5.9-2.4.3-.8.5-1.6.7-2.5-.1-.5 0-1.3 0-2.2 0-.9.1-1.7.4-2.3l2.1-5.3c-.1-.5-.2-1-.1-1.4 0-.4.1-.8.2-1.2.1-.4.3-.8.4-1.2.2-.4.3-.9.5-1.4.2-.7.3-1.3.5-2s.3-1.4.4-2.3c.1-.7.1-1.4.1-2.1 0-.7-.2-1.3-.6-1.7-.1-.2-.3-.3-.5-.5-.2-.1-.5-.2-.7-.4-.2-.1-.4-.3-.5-.5-.2-.1-.3-.3-.3-.4 0-.3.1-.4.3-.6.2-.1.5-.2.8-.3.3-.1.6-.1.9-.1.3 0 .6 0 .9 0 .5 0 1.1.1 1.7.2.6.1 1.1.2 1.7.2.2 0 .3 0 .5 0s.3 0 .5 0 .5.1.7.2c.2.1.4.1.6.1.2 0 .4 0 .9 0s.5-.1.6-.1c.2 0 .4 0 .5.1.2.1.4.1.6.2.5.1 1 .1 1.5 0s1.1-.1 1.6-.2 1-.1 1.6-.2c.5 0 1.1 0 1.7.1 0 .4-.2.7-.5.9-.3.2-.6.4-.8.5-.1.1-.2.2-.4.4-.1.1-.2.2-.4.3-.2.1-.3.2-.4.3-.1.1-.3.2-.4.3-.4.4-.6.8-.8 1.2-.2.4-.4.9-.6 1.4-.1.2-.1.3-.3.4-.1.1-.2.3-.3.4-.1.2-.1.4-.2.6 0 .2-.1.4-.2.6-.1.2-.3.4-.5.5s-.4.3-.6.6c.1.4.2.7.1 1.1-.1.4-.1.7-.3 1-.1.3-.2.7-.4 1-.2.3-.3.6-.3 1l-1.7 4.6zM48.9 9.2h.1l.2.2v.2c-.7.8-2.2 3.2-4.5 6.9h.3l3.5-1 .2.2c.5-.4 1.3-.7 2.4-.7v.3c-.2.8-.7 1.7-1.7 2.7-1.1 1.5-1.8 2.2-1.9 2.2-.7 1-2 2.4-3.9 4.4v.1l2.2-.5.2.2.6-.3.2.4-.8 1h.1c.4-.3.7-.8.8-1.5h.8l.4.3c-.4 1.3-1.3 3.2-2.7 5.7l-3 4.9c-.7.8-2 2.7-4.1 5.9-1 1.3-1.9 2.7-2.6 4.2-.2 0-.7.9-1.5 2.6-.4 1.1-.7 1.7-.9 1.7l.1.1v.1l-.1.1h-.8l-.5-.4.3-.1V49c-.2 0-.3-.1-.3-.2l.1-.1.1.1h.2c0-.1-.1-.2-.3-.2l-.1-.1v-.1l.1-.1-.1-.1h-.1l.2-.3-.1-.1v-.2l.2-.2h.1l.4.3.1-.6-.3-.1.3-.5.1.1h.2v-.4h-.3V46l.5.1.1-.5-.2-.3v-.8c.1-.1.2-.5.3-1 .4-.5.7-.9.7-1.4.2 0 .4-1.4.8-4.2.2-1.6.4-2.4.6-2.4l.1.1-.8 4.4v.1h.1c.4-1.7.8-2.5 1-2.5v-.3c.4-1.6.8-2.9 1.2-3.8h.1l.1.1h.1l.1-.3-.1-.6.5-.8-.1.1.1-.1h.1l-.1-.5v-.2l.1-.1-.2-.3c-.4 0-.7.2-1 .5 0-.2-.1-.2-.4-.3l-1.7.3-.2-.3c1.7-3.6 3-6 3.8-7.1l.6-1.2h-.1l-.9.4-.2-.1v-.1L33.1 24h-.5v-.2c.4-1 .7-1.6.8-1.6l-.1-.1c.4-1.1 1.2-3.1 2.5-5.8.4-1.2.8-2.1 1.2-2.6 0-.4.2-.7.6-.7l-.2-.3c.3-.2.5-.6.7-1.1l.5-.1c0 .3-.2.8-.8 1.6v.1h.2l.9-1.7 3.5-.7h.3c.2-.2.8-.4 1.8-.6l.1.1h.1c.8-.3 1.5-.5 2.2-.5v.2h.3v-.2h.3l1.4-.6zM32.4 46.9l.1.4h-.1l-.2-.2.2-.2zm0 1.1l.2.1v-.3l-.2.2zm0 .3l.2.1v-.1h-.2zm0 .2l.2.1v-.1h-.2zm1.1-25.4v.2h.2l-.2-.2zm.1 23.2l-.1.4.1.1h.1l-.1-.5zm.9-23.6c.1-.1.3-.5.8-1v-.2c-.1.1-.4.5-.8 1.2zm.3 17.5v.3h.1l-.1-.3zm.6-17.7l.8-.8v-.1l-.8.9zm0 12.7h.2v.2h-.2v-.2zm1-6.6c-.6 1.1-.8 1.8-.8 2l.5-.2V30c-.1-.3.1-.7.3-1.4zm-.7 10.2v.2h.1l-.1-.2zm.5-1.3l-.3.5v.1l.3.1v-.7zm.4-4.9l.1.3-.1.4.1.3-.4.8.1.3-.3.2-.1-.1.1-.1v-.9l.4-.1-.1-.4.2-.7zm-.5-15.3c.1-.1.4-.6.9-1.4.2-.8.3-1.3.5-1.5v-.1h-.1c-.2.1-.6 1.1-1.3 3zm.1 3.3l.6-.7v-.1c-.4.3-.6.6-.6.8zm2.3 6.6c-.4.9-.8 1.4-.9 1.5-.6.8-.9 1.4-.9 1.6v.1h.3c0-.3.6-1.2 1.7-2.7l-.2-.5zm-1.5.3c.1-.2 1.1-1.9 3.1-5.2v-.2c-.6.7-1.6 2.5-3.1 5.4zm.1-7.8c.2-.1.9-.9 1.9-2.2v-.1h-.1c-.4 0-.7.3-1.1 1-.2.1-.5.5-.7 1.3zm.1 16.4l-.1.4c.2 0 .2-.1.1-.4zm0-13.9c2-2.2 3.5-3.5 4.4-4l.1-.1V18l-.1-.1h-.1c-2.3 2-3.7 3.5-4.3 4.3zm.1 11.6v.2h.1l-.1-.2zm.4-16.5l-.2.4v.1c.2-.1.3-.2.2-.5zm.6 11.8l-.7 1.2h.2c.1 0 .2-.3.5-1v-.2zm-.7 11.4c.1.1.4-.3.8-1v-.1l-.8 1.1zm.4-27.2h.4v-.2l-.4.2zm.2 6.2l1.3-1.3h-.1l-1.2 1.3zm0 13.1v.3l.2-.2v-.1h-.2zM40.4 12l.1.2-.5.5h.3v.1l-2 3.5v.1h.1l2.7-4.5h-.5l-.2.1zm-.8 8.6L38.4 22v.1l1.2-1.5zm-1.1 5.3l-.2.5v.1h.1l.1-.6zm-.1 6.1v.3l.3-.3h-.3zm.1-18.9c.7-.1 1-.4 1-.8h-.1c-.5 0-.9.3-.9.8zm0 15.5v.2h.1l-.1-.2zm.6 9.6l-.4.8h.1l.3-.8zm-.3-12.9v.2h.2v-.2h-.2zm0 5.8v.2h.1l-.1-.2zm.2-1.2v.2h.1l1.7-2.7v-.1h-.1c-.6.5-1.1 1.4-1.7 2.6zm1.3-7.1L39.2 25c.4-.5.9-1.2 1.3-2.2h-.2zm-.8-6.7c1.1-1.2 1.7-2.1 1.7-2.5l.6-.5h.1l-.1-.1c.6-.5.8-.9.8-1v-.2c.2 0 .3-.1.3-.2v-.2h-.1c-.6.3-1.1 1-1.5 1.9-.6.5-1.2 1.5-1.8 2.8zm.2-2.9l-.1.3v.1h.1v-.4zm.2 7.1l1.4-1.2h-.1l-1.3 1.2zm3.2-18.9c.9.1 1.6.3 2 .6.9.6 1.4 1.4 1.4 2.2l-.1.1v.1l.3.3c0 .6-.6 1.6-1.8 3l-1.4.6h-.8c-.9 0-1.6-.6-2.1-1.7-.4-.2-.7-.8-.7-1.6 0-1.3.7-2.4 2.1-3.4l1.1-.2zm-3.2 24.3c.1 0 .2-.2.4-.7-.1.1-.2.3-.4.7zm.3-4.7c.8-.6 1.2-1 1.2-1.3-.7.7-1.1 1.1-1.2 1.3zm.2 3.9l.6-.7h-.1c-.3.1-.5.3-.5.7zm.7 7.8l-.5.9v.1h.1l.4-1zm-.3-10.8c.1-.1.3-.4.7-.8V21c-.5.4-.7.7-.7.9zm3.5-10.3l-.1-.2.1-.3h-.1l-.8.7v.9c-1 1.2-1.8 2.4-2.4 3.5h.1c.1 0 .2-.2.5-.8.2 0 .5-.2.8-.6l.1.1v.1l-.3.3.1.1c.2 0 .4-.3.7-.9.3 0 .5-.3.8-.9l1.6-2c.2 0 .3-.3.6-.8h-.1c-.3 0-.7.2-1.2.8h-.4zm1.6 15.7c-.2.7-.8 1.6-1.7 2.8l-1.5 2.4-1.8 3v.1h.1l2.9-4.5 1.6-2.6c.1 0 .2-.2.4-.5h-.1l.1-.7zM41.6 3.7l-.5 1.2V5h.1l.4-1.3zm0 18.6l-.4.6v.1l.4-.7zm-.3 4.3h.2v-.2l-.2.2zm0 1.2v.2h.1l-.1-.2zm.2-24.9l-.2.2v.2l.2-.4zm-.1 3l-.1.7c.2-.1.3-.2.3-.6l-.2-.1zm0 17.5v.2l.2-.2h-.2zm.1-7.7l.2.1v-.1h-.2zm0 15.1l2.8-3.7V27c-1.6 1.5-2.5 2.7-2.6 3.5-.1 0-.2.1-.2.3zm.1-24v.3c.1.2.3.4.6.4v-.2c0-.3-.2-.5-.6-.5zm.1 15.3c.5.1 1-.6 1.6-2-.5.3-.9.7-1.1 1.2l-.5.8zm.4 5.6l-.3.5h.1l.2-.5zm-.2-1.1v.2h.2c0-.2.2-.4.5-.8h-.1c-.2.1-.4.2-.6.6zm.2-23.5c.3 0 .5-.2.7-.6-.2 0-.5.2-.7.6zm.1 2.5l1-2.1h-.1c-.6 1.1-.9 1.7-.9 2.1zm.3 10.5l.3.3c.1 0 .2-.2.2-.5l.3-.3v-.1c-.3 0-.6.2-.8.6zm.6-10.2l-.6 1.2h.1c.2 0 .4-.3.5-1.2zm-.3 1.6l.2.1v-.3l-.2.2zm.1 18.8h.1l.3-.3v-.1h-.1l-.3.4zm.7-22.5L43 4.9V5h.1l.5-1.2zm-.2 13.4c0 .2-.1.4-.3.7v.1c.4-.2.6-.3.7-.5l-.4-.3zM45.1 3c-.7 1.3-1.2 2.5-1.6 3.6v.1h.1c.5-1.3 1.1-2.3 1.7-3.1l.1.1V4c-.3.4-.7 1.2-1.1 2.3l.3-.2h.1v.1l-1.4 1.4h.1c1-.3 1.5-.6 1.5-.9l.1-.6-.1-.1v-.1l.6-.9-.3-.2c.1-.2.2-.4.5-.6h.1l-.3 1.6c.2 0 .3-.4.5-1.3-.1-1-.3-1.5-.7-1.5h-.2zm-1.9 12.3l.2.1v-.3l-.2.2zm.1-12.4l.3.2V3l-.1-.3.2-.2h-.1c-.1 0-.2.1-.3.4zm.1 2.4L44.7 3c-.1 0-.5.8-1.3 2.3zm0 10.7v.2h.2v-.4l-.2.2zm.3-1.4v.2l.2-.2h-.2zm.2-11.2c.2-.1.3-.2.3-.6-.2.1-.3.3-.3.6zm0 19.8l.8-.9v-.1l-.8 1zm.1-8v.3h.1l-.1-.3zm.1 6.1l.5-.7v-.1c-.4.2-.5.5-.5.8zm.4-4l.2.2.1-.1v-.1h-.3zm.1-3l.2.2h.1l-.3-.2zm.4 1.1l.2-.1v-.1l-.2.2zm0 1.8h.3V17h-.1l-.2.2zm.2-11.1v.2h.1l-.1-.2zm0 12.9c.2.1.4-.2.8-.7v-.1h-.1l-.7.8zm0 6.5l.5-.4V25c-.2.1-.4.3-.5.5zm.1-4l.8-.9v-.1l-.8 1zm.1-8.8l.2.1v-.1h-.2zm0 13.1l.2.1v-.1h-.2zm.5-6.7v.2c.6-.4.9-.7.9-.8v-.1c-.4.5-.7.7-.9.7zm.2-7.8h.2v-.2l-.2.2zm.4-.6l-.1.2h.1v-.2zm0 9.3l.5-.4v-.1h-.1l-.4.5zm.5-1.7l.5-.4h-.1l-.4.4zm.4-8l.3.2-.1.1v.2h.1l.4-.8H48l-.6.3zm.3 8.3v.2h.1l-.1-.2zm.1-1h.2v-.2l-.2.2zm.9 0c.1.1.4-.2.8-.8v-.1l-.8.9zM65 15.6c-.2.1-.3.1-.6.1-.2 0-.4.1-.6.2-.1.3-.1.5-.2.8 0 .3 0 .5 0 .8-.3.7-.7 1.4-1.1 2.2-.5.7-.9 1.4-1.3 1.9-.3 1.1-.6 2.2-.9 3.1-.3 1-.4 2.1-.4 3.5-.1.2-.1.3-.2.5s-.1.4-.1.7c0 .2.1.4.2.5.1.2.2.3.2.5.1.3 0 .6-.1.8s-.2.6-.2.8c0 .2 0 .4.1.6.1.2.1.3 0 .6.4.4.8.8 1.2 1 .4.3.8.6 1.1 1.2.1 0 .2.1.4.2s.4.3.7.4c.2.1.5.3.8.4.3.1.6.2.8.3.4 0 .7 0 1 0s.7-.1 1.2-.2c1.4-.2 2.6-.6 3.7-1.3 1.1-.7 1.9-1.5 2.5-2.3 0-.6.1-1.2.2-1.6.1-.4.3-.9.6-1.3.2-.2.3-.5.5-.6.2-.2.3-.4.3-.8 0-.2 0-.4 0-.6 0-.2 0-.5 0-.7 0-.2 0-.5-.2-.7-.2-.2-.3-.4-.3-.6-.1-.2-.3-.5-.7-.8-.4-.3-.7-.6-1-.8-.2-.2-.5-.3-.7-.5-.3-.2-.4-.4-.6-.6s-.2-.4-.2-.6c0-.2.2-.4.6-.5.7 0 1.4.1 2.1.2s1.5.2 2.3.3c.8.1 1.6.1 2.4.2.8.1 1.5.1 2.2 0 .4 0 .8-.1 1-.1.2 0 .5-.1.7-.1s.4-.1.6-.2c.2-.1.6-.1 1-.2.2 0 .5 0 .6 0 .2 0 .3 0 .5 0 .2-.1.4-.1.7-.3.2-.1.5-.2.7-.2.3 0 .6 0 .8 0 .2 0 .5.1.7.1.2.1.4.1.7.2.2.1.5.1.9.1.6.1 1 .1 1.3.2.3.1.4.3.4.8 0 .3-.1.5-.3.6-.2.1-.5.2-.8.3-.3 0-.6.1-.9.1-.3 0-.6 0-.9.1-.3.1-.5.1-.7.2-.2.1-.3.2-.4.3s-.2.2-.3.3c-.1.1-.2.2-.4.3-.2.1-.4.1-.5.2-.2.1-.3.1-.5.2-.4.2-.7.4-.8.8-.2.3-.4.7-.6 1.1-.3.3-.4.5-.4.7 0 .2-.1.4-.3.7-.3.5-.6 1.1-.9 1.8s-.5 1.4-.8 2c-.4 1-.6 2.1-.8 3.3-.1 1.1-.3 2.2-.6 3.3-.1.3-.1.7-.2 1.1 0 .4-.1.8-.1 1.1-.1.2-.2.5-.3.8-.1.3-.2.5-.2.8-.1.3-.1.6 0 .8 0 .3 0 .5-.1.8-.2.1-.3.1-.5.2s-.3.2-.4.3c-.2.2-.2.6-.2 1s-.1.8-.3 1.1c-.1.2-.3.3-.6.4-.3.1-.5.2-.7.3-.3.1-.5 0-.8 0-.3-.1-.6-.1-1-.1s-.8.2-1.1.5c-.3.3-.7.5-1.1.8-.3.2-.6.3-1.1.4-.5.1-.8.3-1.1.4-.2.1-.4.2-.6.4-.2.1-.4.2-.6.3s-.4.1-.6 0-.4-.2-.6-.4c-.2-.5-.2-1 0-1.4s.3-.7.6-1 .5-.6.7-.9c.2-.3.4-.7.6-1.1.2-.5.3-1 .3-1.5s.1-.9.3-1.3c.2-.5.6-1 .9-1.5s.6-1 .8-1.5c-.5.2-1.1.5-1.7.8s-1.3.5-2.1.6c-.1 0-.3 0-.4 0-.1 0-.3 0-.4 0-.3.1-.5.1-.8.2-.3.1-.5.1-.8.2-.3 0-.6 0-.8 0-.2 0-.4-.1-.7-.1-.7 0-1.2.1-1.7.2-.4.1-1 .1-1.5 0-.3-.1-.7-.2-1.1-.4-.4-.2-.8-.4-1.1-.5s-.8-.3-1.2-.4c-.4-.1-.8-.3-1.1-.4-.5-.2-1.1-.5-1.6-.9-.5-.3-1.1-.6-1.7-.8-.6-.8-1.2-1.8-1.8-3-.6-1.2-1-2.3-1.1-3.5 0-.3 0-.6 0-.9 0-.3 0-.6 0-.9-.1-.2-.1-.3-.3-.5-.1-.2-.2-.3-.3-.5-.1-.2-.2-.5-.3-.9-.1-.4-.1-.8-.2-1.1-.2-1.3-.1-2.6 0-3.9.2-1.3.5-2.5.9-3.5 0-.1.1-.2.2-.3.1-.1.2-.2.2-.3.1-.2.1-.3.1-.4s0-.3.1-.4c.2-.3.3-.7.5-1.1.1-.4.3-.8.6-1.1.2-.5.5-1 .8-1.5.2-.5.5-.9.9-1.1.2-.1.4-.2.7-.3s.5-.2.7-.3c.2-.1.4-.2.6-.4.2-.2.3-.4.4-.7 0-.2 0-.4-.1-.5-.1-.2-.1-.3 0-.5 1-1.2 2.2-2.2 3.8-3 .2-.1.3-.1.5-.2s.3-.1.5-.2.4-.3.6-.4c.2-.2.4-.3.7-.3.5-.2 1.1-.3 1.7-.4.6-.1 1.2-.3 1.8-.4.2 0 .4-.1.7-.1.2 0 .4-.1.6-.2.3 0 .8 0 1.3 0 .6 0 1.2 0 1.8.1.6 0 1.3.1 1.9.1.6 0 1.1 0 1.4-.1.2-.1.4-.1.6-.2.2-.1.4-.2.7-.2.5 0 1 0 1.3.1.4.1.9.1 1.5.2.4 0 .8.1 1.2.1.4.1.8.1 1.2.1.5 0 1.1 0 1.6 0 .6 0 1.1 0 1.6 0s1.1 0 1.6.1 1 .1 1.4 0c.3-.1.5-.2.8-.3.2-.1.5-.2.8-.1.2.1.5.2.8.4.3.2.4.5.4.7 0 .3-.2.6-.6.9-.4.3-.8.6-1.1.7-.9.4-1.9.7-3 .9-1.1.2-2.2.4-3.5.4-.4 0-.8 0-1.2 0-.4 0-.8 0-1.1.1-.2.1-.4.1-.5.2-.2.1-.3.1-.5.2-.4.1-.9.2-1.4.2-.5 0-1 0-1.4.1-.9.1-1.9.2-3 .4s-1.9.5-2.5 1c-.2.1-.4.3-.7.4-.3.1-.6.3-.8.4s-.6.3-.8.4c-.3.1-.5.3-.6.4-.4.4-.7.7-1 1-.1-.2-.3.3-.4.9zM107.9 5c0 .2-.1.4-.2.6-.1.2-.3.3-.4.5-.2.1-.3.3-.5.4-.2.2-.3.3-.4.5 0 .1 0 .2 0 .3 0 .1 0 .3-.1.4-.2.4-.4.9-.7 1.4s-.5 1-.8 1.6c-.1.3-.2.5-.3.8-.1.3-.2.5-.4.8-.1.3-.3.5-.4.8-.2.3-.3.5-.3.7 0 .2 0 .3.1.4.1.1.1.3.1.4-.1.3-.2.6-.3 1-.1.3-.2.7-.3 1-.1.4-.1.8-.2 1.1 0 .4-.1.7-.2 1-.2.4-.3.9-.5 1.5s-.3 1.2-.4 1.8c1.1 0 2.1-.1 3.2-.4 1-.3 2-.6 2.9-.9.2.1.5.1 1 .1.4 0 .9 0 1.4 0 .5 0 1 0 1.5 0s.9-.1 1.3-.1.8-.1 1.4-.3c.5-.1.9-.3 1-.5.2-.3.4-.8.5-1.5s.2-1.3.4-1.9c.2-.5.3-1 .6-1.5.2-.5.4-1 .5-1.5.1-.2.1-.4.1-.6 0-.2 0-.4.1-.6.2-.5.4-1 .7-1.5.3-.5.5-.9.6-1.3.1-.3.2-.7.2-1.1s.1-.7.1-1.1c0-.3.1-.7.2-1 .1-.3.2-.6.4-.8.1-.1.2-.1.4-.2.1-.1.2-.2.4-.3.4.1.8.2 1.1.2s.6 0 .9-.1.6-.1.9-.2.6-.2 1-.3c.3.3.5.5.7.8.2.3.5.5.9.5.2 0 .4-.1.6-.2.2-.1.4-.2.7-.3.4-.1 1-.3 1.6-.4.6-.2 1.2-.3 1.7-.3s1 0 1.5.1c.4.1.9.1 1.5-.1.1.1.2.3.3.4.1.2.1.4 0 .7-.3.3-.6.5-1 .6-.3.2-.7.3-1 .5-.3.2-.6.4-.9.5s-.6.4-.8.7c-.4.5-.8 1.1-1.1 1.8-.3.7-.6 1.3-1 2-.1.2-.3.4-.4.6-.2.2-.3.4-.3.5-.2.5-.3 1-.4 1.5-.1.5-.2 1.1-.3 1.6-.1.5-.3 1-.4 1.5-.2.5-.3 1-.3 1.5.4.2.8.2 1.2.1.4-.1.8-.1 1.3-.1.2 0 .5.1.8.1.2.1.5.1.8.1.5 0 .9 0 1.3 0s.8-.1 1.2 0c.2 0 .4 0 .6 0 .2 0 .5.1.7.1.2.1.4.1.6.3.2.1.3.3.3.4 0 .3-.2.5-.6.8-.4.3-.8.5-1.1.6-.5.3-1 .4-1.5.4s-1.1.1-1.8.3c-.4.1-.8.2-1.1.5-.3.3-.8.4-1.3.5s-1 .1-1.4.2c-.4 0-.9.1-1.5.1-.6.8-1 1.8-1.2 2.8s-.4 2.2-.5 3.3c-.1.8-.3 1.6-.5 2.5-.2.8-.4 1.6-.7 2.3-.1.4-.3.8-.5 1.1s-.5.7-.8 1.2c-.2.3-.3.7-.4 1-.1.3-.3.6-.4.8-.2.3-.6.4-1 .6-.4.1-.8.3-1.1.5-.4.3-.7.6-.9.9s-.6.6-1 .8c-.3 0-.6 0-.8 0-.2 0-.4 0-.5 0-.2 0-.3-.1-.4-.2s-.3-.2-.5-.4c-.1-.2-.1-.4 0-.5 0-.1 0-.3 0-.5-.2-.1-.3 0-.4.2-.1.2-.3.3-.5.3-.3 0-.5-.1-.8-.4-.3-.3-.4-.6-.3-.9 0-.2.1-.5.2-.8.1-.3.2-.6.3-1 .1-.3.1-.6.2-.9s.1-.6.2-.9c.1-.2.1-.3.2-.5s.2-.3.2-.5c.1-.5.1-1 .1-1.4 0-.5 0-.9.1-1.3.1-.2.1-.3.2-.4.1-.1.1-.3.2-.4.2-.5.4-1 .6-1.5.2-.5.4-1 .5-1.5.2-.5.3-1.1.5-1.6s.3-1 .2-1.5c-.4 0-.8 0-1.2.1s-.8.2-1.1.3c-.4.1-.8.2-1.2.4-.4.1-.8.2-1.3.2-.2 0-.4 0-.8 0-.3 0-.7-.1-1.1-.1-.4 0-.7 0-1.1 0-.4 0-.6 0-.9.1-.4.1-.8.2-1.1.4-.4.2-.8.3-1.2.5-.4.1-.8.2-1.2.4-.4.2-.7.3-1.1.3-.3.2-.6.5-.8 1-.2.4-.3.9-.4 1.3-.1.5-.3.9-.4 1.3-.2.4-.5.7-.9.8.2.2.3.6.2 1.1 0 .6-.1 1.1-.2 1.6-.2.8-.4 1.6-.6 2.4-.3.8-.6 1.4-.9 2-.5.2-1 .4-1.4.7-.5.2-1 .4-1.6.4-.2-.1-.3-.2-.3-.4s-.1-.4-.1-.5c-.2.4-.4.7-.6.9-.3.2-.6.4-.9.6-.3.2-.6.4-.9.6-.3.2-.5.4-.7.8-.7 0-1.3 0-1.9 0s-1-.1-1.5-.4c-.2-.5-.2-1 0-1.5s.2-.9.3-1.4c0-.2 0-.4 0-.6 0-.2 0-.4 0-.6.1-.5.2-1 .4-1.7s.4-1.3.6-1.8c.1-.2.2-.5.4-.6.2-.2.3-.4.4-.6.1-.3.2-.6.2-.9 0-.3.1-.5.2-.8.1-.3.2-.5.3-.8s.2-.5.3-.7c.1-.2.1-.4.1-.7 0-.2 0-.5.1-.7 0-.2.1-.3.2-.4.1-.1.2-.3.2-.4 0-.3 0-.7-.2-1s-.4-.6-.5-1c-.2-.3-.3-.6-.3-1 0-.3.1-.7.5-1.1.3-.1.6-.2 1-.3.3-.1.6-.2.8-.4.2-.6.3-1.2.4-1.8.1-.6.2-1.2.4-1.8.1-.3.2-.6.3-.9s.2-.5.3-.8c.1-.3.1-.6 0-.9 0-.3 0-.6.1-.8.1-.2.2-.5.4-.6.2-.2.3-.4.4-.6-.3-.4-.4-.8-.3-1.4s.2-1.2.3-1.8c.2-.6.4-1.3.6-1.9.2-.6.4-1.3.5-1.9.2-.7.3-1.2.5-1.7-.7.4-.4.1.2 0 1.1.1 2.2.1 3.3-.2 1.1-.2 2.2-.5 3.3-.8.2 0 .2 0 .3.2 0 .1.1.2.2.3.2-.2.5-.4.8-.5.3-.1.7-.2 1.1-.1.4 0 .7.1 1.1.2.3 0 .6.2.8.3zM164 4.4c0 .2 0 .3 0 .5s0 .3 0 .5c-.2.2-.5.4-.6.4-.2.1-.3.2-.4.5-.1.2-.1.3-.1.5s0 .4-.1.5c-.1.2-.3.4-.7.7s-.6.4-.8.4c-.2.1-.4.2-.6.2-.2.1-.4.1-.6.2-.3.1-.5.2-.7.3-.2.1-.4.1-.5.1-.2 0-.4 0-.6 0-.2 0-.5.1-.8.1-.1 0-.2 0-.2.1s-.1.1-.2.2-.2.1-.4.2-.7.2-1.1.2c-.3 0-.6.1-.8.1-.2 0-.4.1-.8.1-.2.1-.4.2-.6.3-.2.1-.4.2-.6.3-.4.3-.8.5-1 .7s-.4.4-.5.6c-.2.3-.3.7-.3 1.1 0 .4-.1.8-.2 1.2-.1.3-.3.6-.6.9-.3.3-.5.6-.6 1 0 .2 0 .3 0 .5s0 .4 0 .6c-.1.4-.2.8-.4 1.2s-.4.9-.6 1.3c-.1.3-.1.5-.1.8 0 .3 0 .5-.1.8-.1.6-.2 1.2-.4 1.9s-.4 1.3-.5 2c-.1.4-.1.8-.1 1.1 0 .4 0 .7-.1 1-.1.3-.2.5-.4.8-.2.3-.3.5-.5.8-.1.3-.2.5-.3.8 0 .3 0 .6.2 1-.1 1.2-.2 2.3-.5 3.5-.2 1.2-.5 2.3-.8 3.4-.1.3-.2.8-.4 1.4s-.4.9-.6 1.1-.4.3-.7.3-.6 0-.9 0-.6-.2-.8-.3-.4-.3-.5-.6c-.2.1-.4.3-.5.5s-.3.4-.6.5c-.3.2-.6.2-1 .2s-.7 0-1 .2c-.3.1-.6.3-.8.4s-.5.3-.8.4c-.2.1-.3.1-.4.1s-.3 0-.4.1c-.2.1-.3.2-.4.5s-.2.4-.4.5c-.2-.1-.5-.1-.8-.1s-.5-.1-.7-.3c-.1-.8.1-1.5.4-2.1s.5-1.2.7-1.8c.1-.3.2-.7.3-1 0-.3.1-.7.2-1.1.1-.4.3-.9.5-1.4.2-.5.3-1 .4-1.5.1-.3.1-.7.2-1.1 0-.4.1-.7.2-1.1.1-.2.2-.5.5-.8.2-.3.4-.6.6-1 .1-.3.2-.7.3-1.2.1-.4.2-.9.4-1.3.2-.5.4-1 .7-1.4s.4-.8.4-1.3c0-.2 0-.4-.1-.5-.1-.1-.1-.3-.1-.4 0-.2 0-.6.1-1s.2-.8.3-1.2c.2-.7.3-1.2.5-1.8.2-.5.3-1.1.5-1.6.1-.2.1-.5.2-.7s.1-.4.2-.6c.1-.2.2-.5.3-.6.1-.2.2-.4.3-.5.1-.2.1-.5.2-.8 0-.3.1-.6.2-.9.1-.2.2-.4.3-.6s.2-.4.2-.6c.1-.4 0-.8-.2-1.1-.2-.3-.3-.7-.3-1.1-.3-.2-.8-.4-1.2-.4s-.9-.1-1.4 0c-.4 0-.8.1-1.2.1-.3 0-.7 0-1.2.1-.7 0-1.3.1-1.9.2s-1 .2-1.5.3-1 .2-1.5.2-1.1.1-1.7 0c.1-.3.1-.7.1-1.1 0-.4.1-.7.2-1 .2-.2.4-.2.6-.3.2 0 .4 0 .6-.1-.1-.2-.2-.4-.2-.5 0-.2 0-.3.1-.4s.1-.3.2-.4.1-.3.2-.4c.1-.3.1-.6.1-.9 0-.3.1-.6.4-.8.4 0 .8 0 1.2 0 .3 0 .7.1 1 .1s.6.1 1 .1c.3 0 .7 0 1.1 0 1-.1 1.8-.1 2.5-.2s1.4-.2 2.4-.2c.7 0 1.3 0 1.9 0 .6 0 1.2.1 1.7.1.6.1 1 .1 1.2.1s.5 0 .7 0c.2 0 .5 0 .7-.1.2 0 .6 0 1.1 0 .5 0 1 0 1.5-.1s1-.1 1.5-.1c.6 0 1 0 1.2.1.2.1.4.1.6.2.2.1.3.1.5.2s.5 0 1 0c.3-.1.6-.1.7-.2.1-.1.3-.1.7-.2.3 0 .6 0 .9 0 .3 0 .6 0 1 0 .9-.1 1.9-.3 2.8-.5s1.7-.2 2.7-.1zM201 4.2c-.3.5-.6.9-1 1.2-.4.3-.8.6-1.2.9-.4.3-.8.6-1.3.9-.5.3-.9.6-1.2.9-.7.7-1.2 1.6-1.7 2.6s-.9 2.1-1.4 3.1c-.1.3-.3.5-.5.8-.2.3-.4.5-.5.8-.3.8-.6 1.7-.9 2.7s-.5 1.9-.7 2.8c-.2 1-.4 1.9-.6 2.9-.2 1-.5 1.9-.8 2.8-.2.2-.3.3-.6.4-.2.1-.4.3-.5.5 0 .2.1.3.2.4s.2.3.2.5c0 .3 0 .5-.1.8-.1.3-.2.5-.3.8-.2.9-.4 1.9-.7 3s-.7 1.9-1.2 2.6c-.3.9-.5 1.9-.8 2.9-.2 1-.6 1.8-1.1 2.5-.3.1-.5.2-.8.4s-.5.2-.9.2c-.2 0-.3 0-.5-.1s-.4-.2-.6-.2c-.2-.1-.5-.1-.8-.2s-.6-.1-.9-.2c-.3-.1-.6-.1-.8-.2s-.5-.1-.8-.1c-.3 0-.7 0-1.1 0s-.8 0-1.1-.1c-.1-.3-.2-.6-.4-.9-.2-.3-.3-.6-.4-.9-.1-.3-.3-.6-.4-.9-.2-.3-.2-.7-.3-1 0-.2 0-.3 0-.5s.1-.4 0-.5c-.1-.2-.2-.5-.4-.8-.2-.2-.3-.5-.4-.8 0-.2 0-.3 0-.5s0-.3 0-.5-.1-.4-.2-.5c-.1-.1-.2-.3-.3-.5-.1-.1-.1-.2 0-.3 0-.1 0-.2 0-.3-.1-.2-.2-.4-.3-.6-.1-.2-.2-.4-.3-.6-.1-.5-.2-1-.2-1.6 0-.5 0-1.1-.1-1.6-.1-.4-.2-.9-.3-1.3s0-.9 0-1.4c0-.2 0-.5.1-.7s.1-.4.1-.6c0-.2 0-.5-.1-.7s-.1-.3-.1-.5c-.1-.2-.2-.4-.4-.5s-.4-.2-.6-.3c-.2-.9-.6-1.9-1-3.1s-.8-2.2-1-3.2c0-.1 0 0-.1.3 0 .2-.1.5-.2.9-.1.3-.2.7-.3 1.1s-.3.7-.5.9c.2.4.3 1 0 1.6-.2.6-.4 1.2-.6 1.9-.2.9-.4 1.8-.6 2.7-.2.9-.4 1.8-.8 2.7-.1.2-.1.4-.2.6-.1.2-.2.3-.2.5-.1.3-.1.6-.1 1 0 .3 0 .7-.1 1-.1.3-.1.7-.2 1 0 .3-.1.6-.2.9-.1.6-.2 1.2-.3 1.9-.1.7-.2 1.4-.4 2-.2.6-.4 1.2-.7 1.7s-.6.9-1.1 1.1c-.3.2-.6.3-.9.2-.3-.1-.5-.2-.8-.4-.2 0-.2.1-.3.3 0 .2-.1.3-.2.4-.4 0-.8 0-1.1.2-.3.2-.6.3-.9.4-.1 0-.2 0-.3 0-.1 0-.2 0-.3.1-.3.1-.5.2-.8.4s-.4.3-.6.4-.4.3-.6.4-.5.1-.7 0c-.4-.1-.6-.3-.8-.6s-.4-.6-.6-.8c.1-.4.2-.9.3-1.5.1-.5.3-1.1.5-1.6s.4-1.1.5-1.6.4-1 .5-1.4c.1-.3.2-.7.3-1 .1-.3.2-.6.3-1 .1-.3.2-.6.4-.9.2-.3.3-.6.3-.9.1-.3.1-.7 0-1s0-.7 0-1c.1-.3.2-.7.3-1s.3-.7.4-1.1c.3-1.1.6-2.1 1-3.1s.8-1.9 1.5-2.6c0-.4.1-.8.2-1.2s.2-.7.4-1.1c.1-.3.2-.7.2-1s0-.7-.2-1.1c.1-.6.3-1.1.5-1.6s.4-1.1.5-1.7c0-.2 0-.3 0-.5s0-.4.1-.5c.1-.3.2-.6.4-.9s.4-.7.6-1 .4-.6.6-1c.2-.3.3-.6.4-.8.3-.1.7-.1 1-.2.3-.1.7-.1 1.1-.1.2 0 .4 0 .6.1s.4.1.6 0c.3-.1.6-.2.8-.5.2-.2.4-.4.6-.6.4-.1.9-.1 1.3-.1s.8-.1 1.2-.2c.2-.1.4-.1.7-.2s.5-.1.7-.1c.4 0 .7.1.9.4s.4.6.6 1c.2.4.3.8.4 1.2.1.4.3.7.5.9 0 .9 0 1.8.1 2.6s.2 1.6.2 2.6c.1 1.1.3 2 .5 2.9s.5 1.8.7 2.7c.1.4.2.8.2 1.2 0 .4.1.8.3 1.1.2.6.5 1.2.8 1.7.3.5.4 1.1.5 1.7.1.7.1 1.4.1 2 0 .6 0 1.3.2 1.9.2.5.3.9.5 1.2.2.3.5.7.8 1.1.3-.4.5-.9.6-1.4.1-.5.1-1 .2-1.5s.2-1 .4-1.5.3-1 .5-1.5c.2-.8.4-1.5.6-2.3.3-.8.5-1.5.8-2.2.1-.2.2-.4.3-.6.2-.2.3-.4.4-.7.2-.3.2-.7.1-1.2s-.1-.9-.1-1.3c.1-.3.1-.6.3-1 .1-.4.2-.7.3-1.1.2-.9.4-1.9.4-2.9s.2-1.9.4-2.7c.1-.2.2-.6.4-1s.2-.8.2-1.1c0-.2-.1-.4-.3-.6-.2-.1-.3-.3-.3-.6 0-.2.1-.5.4-.7s.5-.3.8-.5c.3-.1.7-.2 1-.3.4-.1.7-.1.9-.1.3 0 .5 0 .8.1.2.1.5.1.7.2.2.1.5.1.7.2s.6.1.9 0c.5-.1 1.1-.1 1.8-.2s1.3-.1 1.9-.2c.3 0 .6-.1.9-.1.3 0 .6-.1.8-.1.3-.1.6-.2.9-.3.3-.1.7-.2 1.1-.3.4-.1.7-.1 1.1-.3.4-.1.7-.2.9-.3.1-.1.2-.1.3-.1.2.3.3.3.5.5zM209.3 9.2h.2l.2.2v.2c-.7.8-2.2 3.2-4.5 6.9h.3l3.5-1 .2.2c.5-.4 1.3-.7 2.4-.7v.3c-.2.8-.7 1.7-1.7 2.7-1.1 1.5-1.8 2.2-1.9 2.2-.7 1-2 2.4-3.9 4.4v.1l2.2-.5.2.2.6-.3.2.4-.7.9h.1c.4-.3.7-.8.8-1.5h.8l.4.3c-.4 1.3-1.3 3.2-2.7 5.7l-3 4.9c-.7.8-2 2.7-4.1 5.9-1 1.3-1.9 2.7-2.6 4.2-.2 0-.7.9-1.5 2.6-.4 1.1-.7 1.7-.9 1.7l.1.1v.1l-.1.1h-.8l-.4-.4.3-.1c-.2 0-.3-.1-.3-.2l.1-.1.1.1h.2c0-.1-.1-.2-.3-.2l-.1-.1v-.1l.1-.1-.1-.1h-.1l.2-.3-.1-.1v-.2l.2-.2h.1l.4.3.1-.6-.5-.1.3-.5.1.1h.2v-.4h-.3V46l.5.1.1-.5-.2-.3v-.8c.1-.1.2-.5.3-1 .4-.5.7-.9.7-1.4.2 0 .4-1.4.8-4.2.2-1.6.4-2.4.6-2.4l.1.1-.8 4.4v.1h.1c.4-1.7.8-2.5 1-2.5v-.3c.4-1.6.8-2.9 1.2-3.8h.1l.1.1h.1l.1-.3-.1-.6.5-.8-.1-.1.1-.1h.1l-.1-.5V31l.1-.1-.2-.3c-.4 0-.7.2-1 .5 0-.2-.1-.2-.4-.3l-1.7.3-.2-.3c1.7-3.6 3-6 3.8-7.1l.6-1.2h-.1l-.9.4-.1-.1v-.1l-4.7 1.1h-.5v-.2c.4-1 .7-1.6.8-1.6l-.1-.1c.4-1.1 1.2-3.1 2.5-5.8.4-1.2.8-2.1 1.2-2.6 0-.4.2-.7.6-.7l-.2-.3c.3-.2.5-.6.7-1.1l.5-.1c0 .3-.2.8-.8 1.6v.1h.1l.9-1.7 3.5-.7h.3c.2-.2.8-.4 1.8-.6l.1.1h.1c.8-.3 1.5-.5 2.2-.5v.2h.6l1.3-.6zm-16.5 37.7l.1.4h-.1l-.2-.2.2-.2zm0 1.1l.2.1v-.3l-.2.2zm0 .3l.2.1v-.1h-.2zm0 .2l.2.1v-.1h-.2zm1.1-25.4v.2h.2l-.2-.2zm.1 23.2l-.1.4.1.1h.1l-.1-.5zm1-23.6c.1-.1.3-.5.8-1v-.2c-.2.1-.5.5-.8 1.2zm.2 17.5v.3h.1l-.1-.3zm.6-17.7l.8-.8v-.1l-.8.9zm.1 12.7h.2v.2h-.2v-.2zm.9-6.6c-.6 1.1-.8 1.8-.8 2l.5-.2V30c0-.3.1-.7.3-1.4zm-.6 10.2v.2h.1l-.1-.2zm.5-1.3l-.3.5v.1l.3.1v-.7zm.3-4.9l.1.3-.1.4.1.3-.4.8.1.3-.3.2-.1-.1.1-.1v-.9l.4-.1-.1-.4.2-.7zm-.4-15.3c.1-.1.4-.6.9-1.4.2-.8.3-1.3.5-1.5v-.1h-.1c-.2.1-.7 1.1-1.3 3zm.1 3.3l.6-.7v-.1c-.5.3-.6.6-.6.8zm2.3 6.6c-.4.9-.8 1.4-.9 1.5-.6.8-.9 1.4-.9 1.6v.1h.3c0-.3.6-1.2 1.7-2.7l-.2-.5zm-1.5.3c.1-.2 1.1-1.9 3.1-5.2v-.2c-.7.7-1.7 2.5-3.1 5.4zm.1-7.8c.2-.1.9-.9 1.9-2.2v-.1h-.1c-.4 0-.7.3-1.1 1-.3.1-.5.5-.7 1.3zm.1 16.4l-.1.4c.1 0 .2-.1.1-.4zm0-13.9c2-2.2 3.5-3.5 4.4-4l.1-.1V18l-.1-.1h-.1c-2.3 2-3.8 3.5-4.3 4.3zm.1 11.6v.2h.1l-.1-.2zm.4-16.5l-.2.4v.1c.2-.1.2-.2.2-.5zm.5 11.8l-.7 1.2h.2c.1 0 .2-.3.5-1v-.2zm-.6 11.4c.1.1.4-.3.8-1v-.1l-.8 1.1zm.3-27.2h.4v-.2l-.4.2zm.2 6.2l1.3-1.3h-.1l-1.2 1.3zm0 13.1v.3l.2-.2v-.1h-.2zm2.3-20.6l.1.2-.5.5h.3v.1l-2 3.5v.1h.1l2.7-4.5h-.5l-.2.1zm-.9 8.6l-1.2 1.3v.1l1.2-1.4zm-1 5.3l-.2.5v.1h.1l.1-.6zm-.2 6.1v.3l.3-.3h-.3zm.2-18.9c.7-.1 1-.4 1-.8h-.1c-.6 0-.9.3-.9.8zm0 15.5v.2h.1l-.1-.2zm.6 9.6l-.4.8h.1l.3-.8zm-.3-12.9v.2h.2v-.2h-.2zm0 5.8v.2h.1l-.1-.2zm.2-1.2v.2h.1l1.7-2.7v-.1h-.1c-.6.5-1.2 1.4-1.7 2.6zm1.3-7.1l-1.1 2.2c.4-.5.9-1.2 1.3-2.2h-.2zm-.9-6.7c1.1-1.2 1.7-2.1 1.7-2.5l.6-.5h.1l-.1-.1c.6-.5.8-.9.8-1v-.2c.2 0 .3-.1.3-.2v-.2h-.1c-.6.3-1.1 1-1.5 1.9-.6.5-1.2 1.5-1.8 2.8zm.2-2.9l-.1.3v.1h.1v-.4zm.2 7.1l1.4-1.2h-.1l-1.3 1.2zm3.3-18.9c.9.1 1.6.3 2 .6.9.6 1.4 1.4 1.4 2.2l-.1.1v.1l.3.3c0 .6-.6 1.6-1.8 3l-1.4.6h-.8c-.9 0-1.6-.6-2.1-1.7-.4-.2-.7-.8-.7-1.6 0-1.3.7-2.4 2.1-3.4l1.1-.2zm-3.2 24.3c.1 0 .2-.2.4-.7-.1.1-.3.3-.4.7zm.3-4.7c.8-.6 1.2-1 1.2-1.3-.7.7-1.1 1.1-1.2 1.3zm.2 3.9l.6-.7h-.1c-.4.1-.5.3-.5.7zm.6 7.8l-.5.9v.1h.1l.4-1zm-.3-10.8c.1-.1.3-.4.7-.8V21c-.4.4-.7.7-.7.9zm3.5-10.3l-.1-.2.1-.3h-.1l-.8.7v.9c-1 1.2-1.8 2.4-2.4 3.5h.1c.1 0 .2-.2.5-.8.2 0 .5-.2.8-.6l.1.1v.1l-.3.3.1.1c.2 0 .4-.3.7-.9.3 0 .5-.3.8-.9l1.6-2c.2 0 .3-.3.6-.8h-.1c-.3 0-.7.2-1.2.8h-.4zm1.7 15.7c-.2.7-.8 1.6-1.7 2.8l-1.5 2.4-1.8 3v.1h.1l2.9-4.5 1.6-2.6c.1 0 .2-.2.4-.5l-.1-.1h-.1l.2-.6zm-4.3-23.6l-.5 1.2V5h.1l.4-1.3zm0 18.6l-.4.6v.1l.4-.7zm-.4 4.3h.2v-.2l-.2.2zm0 1.2v.2h.1l-.1-.2zm.3-24.9l-.2.2v.2l.2-.4zm-.1 3l-.1.7c.2-.1.3-.2.3-.6l-.2-.1zm-.1 17.5v.2l.2-.2h-.2zm.2-7.7l.2.1v-.1h-.2zm0 15.1l2.8-3.7V27c-1.6 1.5-2.5 2.7-2.6 3.5-.1 0-.2.1-.2.3zm.1-24v.3c.1.2.3.4.6.4v-.2c-.1-.3-.3-.5-.6-.5zm.1 15.3c.5.1 1-.6 1.6-2-.5.3-.9.7-1.1 1.2l-.5.8zm.4 5.6l-.3.5h.1l.2-.5zm-.2-1.1v.2h.2c0-.2.2-.4.5-.8h-.1c-.3.1-.5.2-.6.6zm.2-23.5c.3 0 .5-.2.7-.6-.3 0-.5.2-.7.6zm.1 2.5l1-2.1h-.1c-.6 1.1-.9 1.7-.9 2.1zm.2 10.5l.3.3c.1 0 .2-.2.2-.5l.3-.3v-.1c-.3 0-.5.2-.8.6zm.7-10.2l-.6 1.2h.1c.2 0 .3-.3.5-1.2zm-.4 1.6l.2.1v-.3l-.2.2zm.1 18.8h.2l.3-.3v-.1h-.1l-.4.4zm.8-22.5l-.6 1.1V5h.1l.5-1.2zm-.2 13.4c0 .2-.1.4-.3.7v.1c.4-.2.6-.3.7-.5l-.4-.3zM205.6 3c-.7 1.3-1.2 2.5-1.6 3.6v.1h.1c.5-1.3 1.1-2.3 1.7-3.1l.1.1V4c-.3.4-.7 1.2-1.1 2.3l.3-.2h.1v.1l-1.4 1.4h.1c1-.3 1.5-.6 1.5-.9l.2-.6-.2-.1v-.1l.6-.9-.3-.2c.1-.2.2-.4.5-.6h.1l-.3 1.6c.2 0 .3-.4.5-1.3-.1-1-.3-1.5-.7-1.5h-.2zm-1.9 12.3l.2.1v-.3l-.2.2zm.1-12.4l.3.2V3l-.1-.3.2-.2h-.1c-.2 0-.3.1-.3.4zm.1 2.4l1.3-2.3c-.2 0-.6.8-1.3 2.3zm0 10.7v.2h.2v-.4l-.2.2zm.3-1.4v.2l.2-.2h-.2zm.1-11.2c.2-.1.3-.2.3-.6-.2.1-.3.3-.3.6zm0 19.8l.8-.9v-.1l-.8 1zm.1-8v.3h.1l-.1-.3zm.1 6.1l.5-.7v-.1c-.3.2-.5.5-.5.8zm.5-4l.2.2.1-.1v-.1h-.3zm.1-3l.2.2h.1l-.3-.2zm.4 1.1l.2-.1v-.1l-.2.2zm0 1.8h.3V17h-.1l-.2.2zm.2-11.1v.2h.1l-.1-.2zm0 12.9c.2.1.4-.2.8-.7v-.1h-.1l-.7.8zm0 6.5l.5-.4V25c-.3.1-.4.3-.5.5zm0-4l.8-.9v-.1l-.8 1zm.1-8.8l.2.1v-.1h-.2zm0 13.1l.2.1v-.1h-.2zm.6-6.7v.2c.6-.4.9-.7.9-.8v-.1c-.5.5-.8.7-.9.7zm.2-7.8h.2v-.2l-.2.2zm.4-.6l-.1.2h.1v-.2zm0 9.3l.5-.4v-.1h-.1l-.4.5zm.4-1.7l.5-.4h-.1l-.4.4zm.5-8l.3.2-.1.1v.2h.1l.4-.8h-.1l-.6.3zm.3 8.3v.2h.1l-.1-.2zm.1-1h.2v-.2l-.2.2zm.8 0c.1.1.4-.2.8-.8v-.1l-.8.9zM254.9 4.2c-.3.5-.6.9-1 1.2-.4.3-.8.6-1.2.9-.4.3-.8.6-1.3.9-.5.3-.9.6-1.2.9-.7.7-1.2 1.6-1.7 2.6s-.9 2.1-1.4 3.1c-.1.3-.3.5-.5.8-.2.3-.4.5-.5.8-.3.8-.6 1.7-.9 2.7s-.5 1.9-.7 2.8c-.2 1-.4 1.9-.6 2.9-.2 1-.5 1.9-.8 2.8-.2.2-.3.3-.6.4-.2.1-.4.3-.5.5 0 .2.1.3.2.4s.2.3.2.5c0 .3 0 .5-.1.8-.1.3-.2.5-.3.8-.2.9-.4 1.9-.7 3s-.7 1.9-1.2 2.6c-.3.9-.5 1.9-.8 2.9-.2 1-.6 1.8-1.1 2.5-.3.1-.5.2-.8.4s-.5.2-.9.2c-.2 0-.3 0-.5-.1s-.4-.2-.6-.2c-.2-.1-.5-.1-.8-.2s-.6-.1-.9-.2c-.3-.1-.6-.1-.8-.2s-.5-.1-.8-.1c-.3 0-.7 0-1.1 0s-.8 0-1.1-.1c-.1-.3-.2-.6-.4-.9-.2-.3-.3-.6-.4-.9-.1-.3-.3-.6-.4-.9-.2-.3-.2-.7-.3-1 0-.2 0-.3 0-.5s.1-.4 0-.5c-.1-.2-.2-.5-.4-.8-.2-.2-.3-.5-.4-.8 0-.2 0-.3 0-.5s0-.3 0-.5-.1-.4-.2-.5c-.1-.1-.2-.3-.3-.5-.1-.1-.1-.2 0-.3 0-.1 0-.2 0-.3-.1-.2-.2-.4-.3-.6-.1-.2-.2-.4-.3-.6-.1-.5-.2-1-.2-1.6 0-.5 0-1.1-.1-1.6-.1-.4-.2-.9-.3-1.3s-.2-.9-.2-1.3c0-.2 0-.5.1-.7s.1-.4.1-.6c0-.2 0-.5-.1-.7s-.2-.4-.2-.7c-.1-.2-.2-.4-.4-.5s-.4-.2-.6-.3c-.2-.9-.6-1.9-1-3.1s-.8-2.2-1-3.2c0-.1 0 0-.1.3 0 .2-.1.5-.2.9-.1.3-.2.7-.3 1.1s-.3.7-.5.9c.2.4.3 1 0 1.6-.2.6-.4 1.2-.6 1.9-.2.9-.4 1.8-.6 2.7-.2.9-.4 1.8-.8 2.7-.1.2-.1.4-.2.6-.1.2-.2.3-.2.5-.1.3-.1.6-.1 1 0 .3 0 .7-.1 1-.1.3-.1.7-.2 1 0 .3-.1.6-.2.9-.1.6-.2 1.2-.3 1.9-.1.7-.2 1.4-.4 2-.2.6-.4 1.2-.7 1.7s-.6.9-1.1 1.1c-.3.2-.6.3-.9.2-.3-.1-.5-.2-.8-.4-.2 0-.2.1-.3.3 0 .2-.1.3-.2.4-.4 0-.8 0-1.1.2-.3.2-.6.3-.9.4-.1 0-.2 0-.3 0-.1 0-.2 0-.3.1-.3.1-.5.2-.8.4s-.4.3-.6.4-.4.3-.6.4-.5.1-.7 0c-.4-.1-.6-.3-.8-.6s-.4-.6-.6-.8c.1-.4.2-.9.3-1.5.1-.5.3-1.1.5-1.6s.4-1.1.5-1.6.4-1 .5-1.4c.1-.3.2-.7.3-1 .1-.3.2-.6.3-1 .1-.3.2-.6.4-.9.2-.3.3-.6.3-.9.1-.3.1-.7 0-1s0-.7 0-1c.1-.3.2-.7.3-1s.3-.7.4-1.1c.3-1.1.6-2.1 1-3.1s.8-1.9 1.5-2.6c0-.4.1-.8.2-1.2s.2-.7.4-1.1c.1-.3.2-.7.2-1s0-.7-.2-1.1c.1-.6.3-1.1.5-1.6s.4-1.1.5-1.7c0-.2 0-.3 0-.5s0-.4.1-.5c.1-.3.2-.6.4-.9s.4-.7.6-1 .4-.6.6-1c.2-.3.3-.6.4-.8.3-.1.7-.1 1-.2.3-.1.7-.1 1.1-.1.2 0 .4 0 .6.1s.4.1.6 0c.3-.1.6-.2.8-.5.2-.2.4-.4.6-.6.4-.1.9-.1 1.3-.1s.8-.1 1.2-.2c.2-.1.4-.1.7-.2s.5-.1.7-.1c.4 0 .7.1.9.4s.4.6.6 1c.2.4.3.8.4 1.2.1.4.3.7.5.9 0 .9 0 1.8.1 2.6s.2 1.6.2 2.6c.1 1.1.3 2 .5 2.9s.5 1.8.7 2.7c.1.4.2.8.2 1.2 0 .4.1.8.3 1.1.2.6.5 1.2.8 1.7.3.5.4 1.1.5 1.7.1.7.1 1.4.1 2 0 .6 0 1.3.2 1.9.2.5.3.9.5 1.2.2.3.5.7.8 1.1.3-.4.5-.9.6-1.4.1-.5.1-1 .2-1.5s.2-1 .4-1.5.3-1 .5-1.5c.2-.8.4-1.5.6-2.3.3-.8.5-1.5.8-2.2.1-.2.2-.4.3-.6.2-.2.3-.4.4-.7.2-.3.2-.7.1-1.2s-.1-.9-.1-1.3c.1-.3.1-.6.3-1 .1-.4.2-.7.3-1.1.2-.9.4-1.9.4-2.9s.2-1.9.4-2.7c.1-.2.2-.6.4-1s.2-.8.2-1.1c0-.2-.1-.4-.3-.6-.2-.1-.3-.3-.3-.6 0-.2.1-.5.4-.7s.5-.3.8-.5c.3-.1.7-.2 1-.3.4-.1.7-.1.9-.1.3 0 .5 0 .8.1.2.1.5.1.7.2.2.1.5.1.7.2s.6.1.9 0c.5-.1 1.1-.1 1.8-.2s1.3-.1 1.9-.2c.3 0 .6-.1.9-.1.3 0 .6-.1.8-.1.3-.1.6-.2.9-.3.3-.1.7-.2 1.1-.3.4-.1.7-.1 1.1-.3.4-.1.7-.2.9-.3.1-.1.2-.1.3-.1.5.4.6.4.8.6zM263.4 15.6c-.2.1-.3.1-.6.1-.2 0-.4.1-.6.2-.1.3-.1.5-.2.8 0 .3 0 .5 0 .8-.3.7-.7 1.4-1.1 2.2-.5.7-.9 1.4-1.3 1.9-.3 1.1-.6 2.2-.9 3.1-.3 1-.4 2.1-.4 3.5-.1.2-.1.3-.2.5s-.1.4-.1.7c0 .2.1.4.2.5.1.2.2.3.2.5.1.3 0 .6-.1.8s-.2.6-.2.8c0 .2 0 .4.1.6.1.2.1.3 0 .6.4.4.8.8 1.2 1 .4.3.8.6 1.1 1.2.1 0 .2.1.4.2s.4.3.7.4.5.3.8.4.6.2.8.3c.4 0 .7 0 1 0s.7-.1 1.2-.2c1.4-.2 2.6-.6 3.7-1.3 1.1-.7 1.9-1.5 2.5-2.3 0-.6.1-1.2.2-1.6.1-.4.3-.9.6-1.3.2-.2.3-.5.5-.6.2-.2.3-.4.3-.8 0-.2 0-.4 0-.6s0-.5 0-.7c0-.2 0-.5-.2-.7s-.3-.4-.3-.6c-.1-.2-.3-.5-.7-.8-.4-.3-.7-.6-1-.8-.2-.2-.5-.3-.7-.5s-.4-.4-.6-.6-.2-.4-.2-.6c0-.2.2-.4.6-.5.7 0 1.4.1 2.1.2s1.5.2 2.3.3c.8.1 1.6.1 2.4.2.8.1 1.5.1 2.2 0 .4 0 .8-.1 1-.1s.5-.1.7-.1.4-.1.6-.2c.2-.1.6-.1 1-.2.2 0 .5 0 .6 0 .2 0 .3 0 .5 0 .2-.1.4-.1.7-.3.2-.1.5-.2.7-.2.3 0 .6 0 .8 0 .2 0 .5.1.7.1.2.1.4.1.7.2.2.1.5.1.9.1.6.1 1 .1 1.3.2.3.1.4.3.4.8 0 .3-.1.5-.3.6-.2.1-.5.2-.8.3s-.6.1-.9.1c-.3 0-.6 0-.9.1-.3.1-.5.1-.7.2-.2.1-.3.2-.4.3s-.2.2-.3.3c-.1.1-.2.2-.4.3-.2.1-.4.1-.5.2-.2.1-.3.1-.5.2-.4.2-.7.4-.8.8-.2.3-.4.7-.6 1.1-.2.3-.4.5-.4.7 0 .2-.1.4-.3.7-.3.5-.6 1.1-.9 1.8s-.5 1.4-.8 2c-.4 1-.6 2.1-.8 3.3-.1 1.1-.3 2.2-.6 3.3-.1.3-.1.7-.2 1.1s-.1.8-.1 1.1c-.1.2-.2.5-.3.8s-.2.5-.2.8c-.1.3-.1.6 0 .8s0 .5-.1.8c-.2.1-.3.1-.5.2s-.3.2-.4.3c-.2.2-.2.6-.2 1s-.1.8-.3 1.1c-.1.2-.3.3-.6.4s-.5.2-.7.3c-.2.1-.5 0-.8 0s-.6-.1-1-.1-.8.2-1.1.5-.7.5-1.1.8c-.2.2-.6.3-1.1.4s-.8.3-1.1.4c-.2.1-.4.2-.6.4s-.4.2-.6.3-.4.1-.6 0-.4-.2-.6-.4c-.2-.5-.2-1 0-1.4s.3-.7.6-1 .5-.6.7-.9.4-.7.6-1.1c.2-.5.3-1 .3-1.5s.1-.9.3-1.3c.2-.5.6-1 .9-1.5s.6-1 .8-1.5c-.5.2-1.1.5-1.7.8s-1.3.5-2.1.6c-.1 0-.2 0-.4 0s-.2 0-.4 0c-.3.1-.5.1-.8.2s-.5.1-.8.2c-.3 0-.6 0-.8 0s-.4-.1-.7-.1c-.7 0-1.2.1-1.7.2s-1 .1-1.5 0c-.3-.1-.7-.2-1.1-.4s-.8-.4-1.1-.5-.8-.3-1.2-.4-.8-.3-1.1-.4c-.5-.2-1.1-.5-1.6-.9-.5-.3-1.1-.6-1.7-.8-.6-.8-1.2-1.8-1.8-3-.6-1.2-1-2.3-1.1-3.5 0-.3 0-.6 0-.9 0-.3 0-.6 0-.9-.1-.2-.1-.3-.3-.5-.1-.2-.2-.3-.3-.5-.1-.2-.2-.5-.3-.9-.1-.4-.1-.8-.2-1.1-.2-1.3-.1-2.6 0-3.9.2-1.3.5-2.5.9-3.5 0-.1.1-.2.2-.3.1-.1.2-.2.2-.3.1-.2.1-.3.1-.4s0-.3.1-.4c.2-.3.3-.7.5-1.1s.3-.8.6-1.1c.2-.5.5-1 .8-1.5s.5-.9.9-1.1c.2-.1.4-.2.7-.3s.5-.2.7-.3c.2-.1.4-.2.6-.4.2-.2.3-.4.4-.7 0-.2 0-.4-.1-.5-.1-.2-.1-.3 0-.5 1-1.2 2.2-2.2 3.8-3 .2-.1.3-.1.5-.2s.3-.1.5-.2.4-.3.6-.4c.2-.2.4-.3.7-.3.5-.2 1.1-.3 1.7-.4s1.2-.3 1.8-.4c.2 0 .4-.1.7-.1s.4-.1.6-.2c.3 0 .8 0 1.3 0 .6 0 1.2 0 1.8.1.6 0 1.3.1 1.9.1.6 0 1.1 0 1.4-.1.2-.1.4-.1.6-.2s.4-.2.7-.2c.5 0 1 0 1.3.1.4.1.9.1 1.5.2.4 0 .8.1 1.2.1.4.1.8.1 1.2.1.5 0 1.1 0 1.6 0 .6 0 1.1 0 1.6 0s1.1 0 1.6.1 1 .1 1.4 0c.3-.1.5-.2.8-.3.2-.1.5-.2.8-.1.2.1.5.2.8.4.3.2.4.5.4.7 0 .3-.2.6-.6.9-.4.3-.8.6-1.1.7-.9.4-1.9.7-3 .9-1.1.2-2.2.4-3.5.4-.4 0-.8 0-1.2 0s-.8 0-1.1.1c-.2.1-.4.1-.5.2-.2.1-.3.1-.5.2-.4.1-.9.2-1.4.2s-1 0-1.4.1c-.9.1-1.9.2-3 .4s-1.9.5-2.5 1c-.2.1-.4.3-.7.4-.3.1-.6.3-.8.4s-.6.3-.8.4-.5.3-.6.4c-.4.4-.7.7-1 1s-.3.3-.4.9zM60.4 85.1c.7.5 1.4 1.1 2.1 1.6.7.5 1.3 1.2 1.8 1.9-.1.3-.1.5 0 .7.1.2.2.3.3.5s.3.3.4.4.2.3.3.5c.1.4.1.9-.1 1.4-.2.5-.3 1-.3 1.5-.1.2-.1.5-.1.8 0 .3-.1.5-.1.8-.1.7-.2 1.3-.3 1.9-.1.6 0 1.2.2 1.9.2.5.4 1.1.8 1.7.4.6.8 1 1.2 1.2.2.1.3.1.4.1.1 0 .2 0 .4.1s.3.2.4.4c.1.2.3.3.6.4.4-.3.9-.4 1.5-.2.5.1 1.1.2 1.6.2.2 0 .3 0 .4-.1.1-.1.2-.1.4-.1.7-.1 1.5-.1 2.2-.2.8-.1 1.5-.2 2.2-.4.3-.1.7-.3 1.1-.5.4-.2.8-.4 1.1-.7.5-.3 1-.6 1.5-1 .5-.3 1.1-.4 1.8-.2 0 .6-.1 1.1-.3 1.4-.2.4-.5.7-.8.9-.3.3-.7.5-1.1.8-.4.2-.7.5-.9.8-.6.2-1 .4-1.4.6-.3.3-.7.5-1.2.8-.3.1-.5.2-.7.3-.2.1-.5.2-.7.3-.3.1-.5.3-.7.5-.2.2-.4.4-.6.6-.3.2-.5.3-.9.3s-.6.1-.9.2c-.8.2-1.7.5-2.7.6-.9.2-1.9.3-2.8.3-1 0-1.9 0-2.8-.1s-1.8-.4-2.7-.8c-.5-.2-.9-.4-1.1-.7-.3-.3-.6-.6-1-1-.4-.3-.8-.7-1.3-1.2s-.8-.9-1.1-1.3c-.1-.3-.2-.5-.3-.9-.1-.3-.2-.7-.3-1-.1-.3-.2-.7-.4-1.1s-.2-.9-.2-1.3c0-.8 0-1.6.2-2.5.2-.9.3-1.7.5-2.5s.2-1.6.2-2.4-.2-1.4-.5-2c-.1-.2-.2-.4-.4-.5-.2-.2-.3-.4-.5-.6-.3-.4-.7-.8-1.1-1.2-.4-.4-1-.6-1.7-.7-.5-.1-1.1-.1-1.7 0-.6 0-1.1.2-1.4.4-.4.2-.7.6-.7 1.2s-.1 1.1-.3 1.7c-.2.7-.4 1.4-.6 2-.3.6-.4 1.3-.3 2 .1.3.2.7.3 1.1.1.4.2.8.4 1 .1.2.2.5.5.8.2.3.2.6.1.8-.2.2-.5.3-.9.3-.4-.1-.9-.1-1.3-.1-.5 0-1-.1-1.3-.1-.4 0-.7 0-1 0-.3 0-.6 0-1 .1-.3 0-.8.1-1.3.2-.3 0-.4.1-.6.1-.1 0-.3.1-.4.1-.1 0-.2.1-.3.1-.1 0-.3.1-.5.2s-.4.1-.5.3c-.2.1-.3.2-.5.3-.5.2-1.1.3-1.7.3s-1-.1-1.6-.1c-.5 0-1.1 0-1.6 0s-1-.1-1.5-.3c.1-.4.2-.6.5-.8.3-.1.5-.3.7-.5.8-.2 1.6-.5 2.5-1.1.8-.5 1.4-1.2 1.6-2 .1-.3.2-.6.2-.9 0-.3.1-.6.1-1 .2-.8.3-1.6.5-2.5.2-.8.4-1.7.6-2.5.1-.2.1-.3.2-.4s.2-.3.2-.4c.2-.5.3-1.1.4-1.7s.1-1.1.3-1.7c.2-.4.3-.8.5-1.1.2-.4.3-.7.4-1.1.1-.4.2-.8.3-1.2.1-.4.2-.7.4-1 .1-.5.1-1 .2-1.5s.1-1 0-1.6c.3-.4.7-.8 1-1.3.3-.5.5-1 .6-1.6.1-.3.1-.7 0-1-.1-.3-.1-.7-.1-1 0-.8.1-1.5.2-2.2.1-.6.2-1.4.3-2.2-.3-.6-.6-.9-1.1-1.1s-1.1-.5-1.7-.9c-.1 0-.2-.1-.4-.2s-.3-.2-.5-.3c-.2-.1-.3-.2-.4-.4-.1-.1-.2-.2-.2-.3 0-.2.2-.4.4-.5s.5-.2.8-.3c.3 0 .6-.1.9 0 .3 0 .6 0 .8.1.8.2 1.5.3 2.2.5.7.2 1.5.3 2.2.4.8.1 1.6.2 2.4.2.9 0 1.8 0 2.9-.1.4 0 .8-.1 1.1-.2.3-.1.6-.1 1-.2.5 0 1.1-.1 1.6-.2s1-.1 1.6 0c1 .1 1.8.1 2.6 0s1.5-.1 2.4 0c.4.1.8.2 1.1.4.4.2.7.4 1.1.5.4.2.7.4 1.1.5.4.1.7.2 1.1.3.6.3 1.1.8 1.6 1.3s1 1.1 1.4 1.8c.3.5.7 1.1 1 1.8.3.7.5 1.3.7 1.7.2.6.3 1.1.3 1.7 0 .5-.1 1.1-.2 1.6-.3.9-.6 1.7-.9 2.4s-.8 1.4-1.2 2c-.5.6-.9 1.3-1.4 1.9-.5.6-.9 1.3-1.3 2-.3.1-.5.1-.7.2s-.5.1-.7.2c-.3.2-.6.4-.9.7-.3.3-.6.5-1 .6-.2.1-.3.1-.5 0-.2 0-.3 0-.5 0-.3.1-.7.2-1 .4-.4 0-.8.1-1.2.2zm-2.7-4c.5-.6 1-1.2 1.6-1.8.6-.5 1.1-1.2 1.4-1.9.2-.3.3-.8.4-1.2.1-.5.2-.9.3-1.4.2-.9.2-1.8 0-2.5-.1-.7-.3-1.4-.7-1.9-.3-.6-.7-1-1.2-1.5s-1-.8-1.5-1.1c-.4-.2-.9-.5-1.3-.8-.5-.3-1-.4-1.7-.2-.5.3-.9.7-1.1 1.4-.3.6-.6 1.2-.8 1.7-.1.2-.2.4-.3.7-.1.2-.2.4-.3.6 0 .2 0 .4 0 .7 0 .2 0 .5 0 .7-.1.2-.2.4-.5.4-.3.1-.4.2-.4.4s.1.4.3.6c.2.2.3.4.3.6 0 .4-.2.8-.4 1.3s-.4 1-.4 1.5c-.1.5-.2.9-.3 1.4s-.3.9-.4 1.3-.3.9-.4 1.3c-.1.5-.1.9-.1 1.4.6.1 1.3.2 2 .1.7 0 1.4-.1 2.1-.3.7-.2 1.3-.4 1.9-.6s1.1-.5 1.5-.9zM102.3 63.2c.8.7 1.5 1.3 2.3 1.9s1.5 1.3 2 2c.1.2.2.3.3.5.1.2.2.4.3.5.2.3.5.7.8 1.1s.5.9.6 1.4c.1.4.1.8 0 1.2-.1.4-.1.9 0 1.3 0 .2.1.3.3.4.2.1.3.3.4.5.1.4.1.9-.1 1.3s-.2.9-.1 1.5c0 .3.1.6.3.9.2.2.3.5.3.8 0 .4 0 .9-.1 1.3s-.2.8-.3 1.2c-.3 1.3-.5 2.4-.7 3.3-.2.9-.6 1.8-1.1 2.8-.3.4-.5.9-.7 1.4-.2.5-.4.9-.7 1.3-.7 1-1.4 1.9-2.2 2.7-.8.8-1.5 1.7-2.2 2.5-1.2.5-2.3 1-3.4 1.5s-2.3 1-3.6 1.4c-.3.1-.6.2-.9.3-.3.1-.6.2-1 .3-.4.1-.8.2-1.3.2-.4 0-.9.1-1.3.1-.3.1-.6.1-.9.3-.3.1-.6.2-1 .2-.3.1-.7 0-1 0-.3-.1-.6-.2-1-.2-.3-.1-.5-.1-.8 0-.3 0-.6.1-.8 0-.2 0-.3-.1-.5-.2s-.3-.2-.6-.3c-.2-.1-.4-.2-.6-.2-.2 0-.4-.1-.6-.1-.3-.1-.5-.2-.7-.4-.2-.1-.5-.2-.7-.3-.2-.1-.4-.1-.6-.1s-.4 0-.5-.1c-.2-.1-.4-.2-.6-.4-.2-.2-.4-.4-.6-.5-.3-.2-.5-.3-.8-.4-.3-.1-.5-.2-.6-.3-.4-.3-.9-.8-1.3-1.3-.5-.6-.9-1.2-1.2-1.8-.3-.6-.6-1.1-1-1.7-.4-.6-.7-1.2-.9-1.9-.1-.4-.1-.8-.1-1.2 0-.5-.1-.9-.1-1.4-.1-.9-.1-1.8-.1-2.8 0-1 .1-2 .3-3.2.1-.3.2-.7.3-1 .2-.3.3-.7.5-1 .1-.3.2-.7.4-1 .1-.3.2-.7.4-1 .2-.3.4-.5.7-.8s.5-.5.6-.9.1-.7 0-.9c-.1-.3-.1-.6-.1-1 .1-.8.4-1.4 1.1-2s1.2-1.2 1.7-1.8c.7-.8 1.3-1.4 2-1.9.6-.5 1.4-1.1 2.2-1.7.1-.1.3-.1.5-.2s.4-.2.6-.3c.2-.1.3-.3.5-.4.2-.1.3-.2.4-.3.3-.1.6-.1.9 0 .3 0 .6 0 .9 0 .2-.1.5-.2.7-.4s.5-.4.7-.6c.2-.2.4-.4.7-.7.2-.2.4-.4.7-.5.1-.1.2-.1.4-.1s.3-.1.4-.1c.9-.4 1.8-.5 2.8-.4s2 .2 3 .3c.8.1 1.5.1 2.3.2.8 0 1.5.2 2.1.4.4.1.9.3 1.3.5-.1 0 .3.2.7.3zm-8.2 29c.2-.2.4-.5.7-.9.2-.4.5-.7.7-1.1.5-.8 1-1.7 1.4-2.6.4-.9.9-1.8 1.3-2.7.4-.9.8-1.9 1.1-2.9.3-1 .6-2 1-3.1.1-.3.3-.7.6-1.1.3-.4.4-.8.4-1 0-.2 0-.4-.2-.6s-.2-.4-.3-.5c0-.2 0-.4 0-.6 0-.2 0-.4 0-.5 0-.2 0-.4-.1-.5-.1-.2-.1-.3-.2-.5-.1-.3-.1-.6-.1-.9 0-.3 0-.6 0-.9 0-.2 0-.5 0-.7 0-.2 0-.5 0-.7-.2-.8-.5-1.4-1-1.9s-1-1-1.5-1.4c-.2-.1-.3-.3-.4-.4s-.2-.2-.3-.3c-.2-.1-.5-.1-.7-.1-.3 0-.5 0-.7 0-.7.1-1.3.2-1.9.4-.5.2-1.2.4-1.9.6-1 .7-2.1 1.4-3.2 2.2-1.1.8-2.1 1.8-2.8 2.9-.1.2-.2.3-.2.5s-.1.3-.2.5c-.2.2-.3.5-.5.6s-.4.4-.5.6c-.3.5-.6 1-.8 1.5s-.5 1.1-.6 1.5c-.2.6-.3 1.3-.3 2s-.1 1.4-.2 2.2c-.1.9-.2 1.7-.3 2.6-.1.8-.2 1.6-.1 2.3 0 .2 0 .4.1.6.1.2.1.4.1.6.1.8.2 1.5.3 2.1s.3 1.1.8 1.6c.2.2.4.4.7.5s.5.3.7.5c.2.2.3.3.4.5.1.2.2.3.4.4 1 .8 2.5 1.2 4.4 1.2.6-.4 1.3-.8 2.1-1.1s1.3-.8 1.8-1.4zM119.2 96.4c-.6 0-1.1.1-1.4.4s-.5.6-.6 1c-.4-.1-.8-.1-1.3 0s-1 .1-1.5.2-1 .1-1.4.1c-.5 0-.8-.1-1.1-.3-.2-.1-.3-.2-.4-.4-.1-.2-.2-.3-.3-.5-.1-.2-.3-.4-.4-.5s-.2-.3-.3-.5c-.1-.2 0-.5.1-.8.2-.4.3-.6.4-.8.1-.1.3-.2.4-.2.2-.1.3-.2.5-.3.4-.3.8-.8 1-1.3.2-.5.4-.9.5-1.2.2-.2.5-.3.8-.5.3-.2.4-.4.4-.7-.3-.2-.6-.2-1-.2s-.8 0-1.1 0c-.6 0-1.2 0-1.9-.1s-1.2-.2-1.7-.2c-.8-.2-1.5-.5-2.1-1.1s-.9-1.3-.8-2.2c.2-.1.5-.1.7-.1.3 0 .5 0 .8 0 .3 0 .6.1.9.1.3 0 .6 0 .8-.1.3.2.5.3.8.3s.5 0 .7-.1c.2-.1.4-.2.6-.3s.4-.2.5-.2c.2 0 .3 0 .4 0 .1 0 .3 0 .4 0 .2 0 .5 0 .8-.1.2-.1.5-.1.9-.2.5-.1 1-.1 1.5-.1s.9-.1 1.3-.3c.2-.1.5-.3.8-.5s.5-.4.6-.6c.1-.2.1-.3.1-.4s0-.3.1-.4c.2-.5.4-1 .8-1.4.4-.4.7-.9 1-1.4.1-.2.2-.4.2-.6s.1-.2.1-.3.1-.2.1-.3.1-.3.3-.6c.3-.4.6-.9.9-1.3s.6-.8 1.1-1.2c0-.2 0-.4.1-.5s.1-.3.2-.4c.8-.3 1.5-.8 2.1-1.4s1.1-1.2 1.6-1.8c0-.3 0-.5.2-.7s.2-.4.2-.7c0-.2-.1-.3-.2-.5s-.2-.4-.2-.6c0-.2.1-.5.3-.8s.4-.5.5-.7c.2-.2.4-.5.6-.8s.3-.5.4-.7c.2-.3.5-.5.8-.8s.5-.5.8-.8c.1-.2.2-.4.3-.6s.2-.4.4-.5c.3-.2.7-.3 1.2-.3s1-.1 1.5-.1c.6 0 1.2-.1 1.9-.2s1.4-.2 2.1-.4 1.4-.2 2.1-.4 1.3-.2 1.9-.2c.6-.1 1.1-.1 1.6 0s.9 0 1.2-.1c.4.4.9.7 1.3 1.1s.9.7 1.3 1.1c.1.6.2 1.2.3 1.7s.1 1.1 0 1.6c-.1.2-.2.5-.3.7s-.2.5-.2.8c0 .5.1.9.4 1.4s.5.9.6 1.5c0 .2 0 .5-.1.7s-.2.5-.2.7 0 .5 0 .8.1.6.2.9c0 .4 0 .8 0 1.1s0 .8 0 1.2.1.8.2 1.2.1.9.1 1.3c-.1.4-.1.8-.3 1.2s-.2.8-.2 1.2c0 .6 0 1.1.1 1.6s.1 1-.1 1.6c.2.3.4.6.4.9s0 .6-.1.9-.1.6-.2 1 0 .7.1 1c.1.2.2.4.4.6s.3.4.4.6c.1.3.1.7.2 1.1s0 .9 0 1.3c0 1-.1 1.9-.3 2.7s-.3 1.6-.4 2.5c0 .4 0 .9 0 1.4 0 .5-.1.9-.3 1.2-.2.2-.4.4-.8.6-.3.2-.6.3-.9.4-.5 0-1-.1-1.6-.4s-1.1-.6-1.4-.9c-.3-.3-.5-.7-.8-1s-.5-.8-.7-1.2c-.2-.4-.5-.8-.7-1.1s-.5-.7-.8-.9c-.2-.1-.3-.2-.5-.3s-.3-.2-.4-.3c-.2-.3-.3-.7-.3-1.1s0-.8 0-1.2.1-.8.1-1.2 0-.8-.1-1.1-.2-.6-.4-.7-.4-.3-.6-.4-.5-.1-.8-.1-.6 0-1.1-.1c-1.5-.1-3-.2-4.5-.3s-3.2-.1-4.8-.1c-.3 0-.6 0-.8 0s-.3.1-.4.1-.2 0-.4.1-.3 0-.6 0c-.6 0-1.2.1-1.7.1s-.9.2-1.3.5c-.2.2-.5.5-.7.9s-.4.8-.6 1.1c-.2.4-.3.8-.4 1.2s-.2.8-.3 1.2-.2.8-.4 1.1c.3.1.1.4-.2.7zM131.1 84c1.1 0 2.1-.1 3.1-.1s1.9-.1 2.8-.1c.1-.1.2-.1.4-.1s.3 0 .5 0c0-.2.1-.2.2-.3s.3-.1.4-.1c.1-.2.2-.4.2-.5s0-.3-.1-.4-.1-.2-.2-.4-.1-.3-.1-.6 0-.5.1-.8.1-.5.2-.8c0-.2 0-.5-.1-.7s-.1-.5-.1-.8c0-.2.1-.4.3-.6s.2-.4.2-.6c0-.1 0-.3-.1-.4s-.1-.3-.1-.5 0-.4 0-.7 0-.4-.1-.6c-.1-.2-.2-.5-.5-.7s-.4-.5-.5-.7c-.1-.3-.1-.7 0-1.1s.1-.8.1-1.1c0-.5-.1-1-.1-1.5s-.2-.9-.5-1.3c-.3-.2-.6-.3-.8-.2s-.3.2-.4.3-.2.4-.3.6-.2.4-.4.6c-.8.8-1.5 1.5-2 2.3s-1 1.6-1.7 2.5c-.3.3-.6.7-.9 1s-.6.7-.8 1.1-.4.8-.5 1.3-.2.9-.1 1.5c-.2.2-.3.4-.4.5s-.2.2-.4.3-.3.2-.4.3-.3.3-.5.5c-.3.4-.7.9-1.1 1.3s-.7.9-.8 1.5c.6.2 1 .2 1.5.2s.8 0 1.2-.1.8-.1 1.2-.2 1.1.2 1.6.2zM154.9 90.7c.1-.2.3-.4.5-.4s.4-.2.4-.5c.1-.2 0-.4 0-.6s-.1-.4-.1-.6c0-.1 0-.3.1-.4s.1-.3.2-.4c.1-.4.2-.8.2-1.1s.1-.8.2-1.1.2-.7.3-1 .3-.6.6-.8c.1-.6.2-1.1.5-1.6s.4-1.1.5-1.7c0-.2 0-.3 0-.5s0-.4 0-.5c.1-.3.2-.7.3-1s.2-.6.3-1c.2-.8.4-1.6.6-2.4s.4-1.5.5-2.2c.1-.3.1-.7.1-1s0-.6 0-.9c.1-.6.2-1.2.3-1.8s.1-1.1 0-1.6c-.1-.2-.2-.4-.3-.6s-.2-.4-.3-.7c-.1-.2-.1-.3-.1-.4s0-.3-.1-.4c-.1-.3-.3-.5-.5-.6s-.5-.3-.7-.4-.4-.4-.5-.6-.2-.6-.1-1c.2-.2.5-.4.8-.4s.6 0 1 0 .7.1 1.1.2.7.2 1.1.3c.5.1 1 .1 1.5.1s1.1 0 1.7-.1 1.2 0 1.7 0 1.1 0 1.7.1c.2 0 .3.1.4.1s.2.1.3.1c.2 0 .5-.1.6-.2s.4-.2.6-.3c1.2-.2 2.3-.1 3.3.2s2.1.5 3.1.6c1 .2 2 .3 3 .4s1.9.3 2.5.8c.3.2.7.5.9.8s.6.5.9.7c.5.3 1.1.5 1.7.7s1.2.4 1.7.7c.2.1.3.1.4.3s.3.2.4.3c.2.2.5.3.7.3s.4.2.7.4c.2.2.4.4.5.6s.3.5.4.8c.3.4.6.8.9 1.1s.6.7.8 1.3c.1.3.1.6.2.8s.1.5.2.8c.2.7.4 1.5.6 2.5s.1 1.9-.2 2.9c-.1.2-.2.4-.3.6s-.2.4-.3.6c-.4 1.1-.9 2.2-1.5 3.3s-1.3 2.1-2.3 3.1c-.3 0-.6.1-.9.2-.2.3-.4.7-.5 1.1s-.3.7-.6 1c-.1.2-.3.3-.5.4s-.4.3-.5.5c-.7.8-1.4 1.6-2.2 2.5s-1.6 1.6-2.5 2.1c-.2.2-.5.3-.8.5s-.6.3-.8.4c-.2.1-.3.1-.4.1s-.3 0-.4.1c-.3.2-.6.4-.9.6s-.5.5-.8.7c-.7-.1-1.3 0-1.9.2s-1.2.3-1.9.3c-1 0-2.2 0-3.4.1-1.2.1-2.5.1-3.7.2-.4 0-.9.1-1.3.1s-.9 0-1.4 0c-.8 0-1.6 0-2.3 0-.8 0-1.5 0-2.2 0-.9 0-1.7 0-2.5.2s-1.6.3-2.6.4c-.6.1-1.2.2-1.8.4s-1.1.3-1.5.3c-.2 0-.3 0-.5-.1s-.4-.1-.5-.2-.3-.2-.4-.3c-.1-.1-.1-.3-.1-.5 0-.1.1-.3.3-.4s.3-.3.6-.4.4-.2.7-.4.4-.2.6-.3c.7-.5 1.3-1 1.7-1.4s.8-1 1.3-1.8c.2-.3.3-.5.4-.7s.3-.4.4-.6.2-.4.2-.6-.1-1.1-.1-1.4zm13.8 2.6c.3 0 .6.1.9.2s.5.2.8.2c.6 0 1.2-.1 1.6-.4s.9-.6 1.2-.8c.3-.2.6-.3.9-.4s.6-.2.8-.4c.7-.4 1.3-.9 1.8-1.5s1.1-1.3 1.5-2.1.9-1.5 1.3-2.3.8-1.6 1.1-2.3c.2-.4.4-.9.7-1.3s.4-.8.6-1.2c.2-.5.2-1 .2-1.5s0-1 .1-1.4c.1-.2.2-.3.4-.5s.3-.4.3-.6c0-.3-.1-.5-.3-.7s-.3-.4-.4-.6c0-.2 0-.4 0-.6s.1-.4.1-.6c0-.4-.1-.9-.2-1.4s-.3-1-.4-1.4-.4-.9-.7-1.2-.6-.7-.9-.9-.8-.4-1.4-.7-1.2-.4-1.9-.5-1.4-.2-2-.3-1.2 0-1.6.1c-.5.2-.8.4-1.1.7s-.4.7-.6 1.1-.3.8-.5 1.2-.4.8-.7 1.1c-.1.1-.3.2-.6.4s-.4.3-.5.5c-.1.2 0 .4.1.6s.2.4.2.6c0 .3-.1.5-.2.7s-.2.4-.3.7c-.2.5-.3 1.1-.4 1.6s-.3 1.1-.5 1.7c-.2.5-.4 1.1-.6 1.6s-.4 1.1-.4 1.6c-.2.9-.3 1.9-.4 3s-.3 2-.5 2.9c-.2.6-.4 1.2-.7 1.8s-.4 1.2-.3 1.7c0 .3.2.6.4.9s.4.6.6.9c.4 0 .8 0 1.2-.1s.9-.1 1.3-.1z" class="st0"/><path d="M299.9 86.8h-2.4c-1.6-.4-3.1-.9-4.6-1.5-1.6-.6-3.5-1.6-5.6-2.8 0 .9.1 1.6.2 2.1s.2.9.2 1.1c0 .2 0 .6 0 1.1-1.1-1.9-2-3.5-2.5-4.8-.3-.6-.4-1.3-.4-2l-3.4-2.1c-1.5-1-3.1-2.3-4.8-4.1-.8-1.9-1.9-3.7-3.3-5.4-1.4-1.8-3.4-3.6-5.9-5.2-1.3 1.4-2.2 4.3-2.7 8.6-.4 4.3-.8 6.9-1.2 7.7 0-3.1.2-6.1.6-9 .3-2 .7-3.9 1.2-5.9l.6-2.2c0-.3-.8-1.1-2.4-2.5l-2.4-2.1c-.9-1.2-1.5-2.3-1.9-3.6l-.6-3.6c-1.2-.5-2.4-1.3-3.6-2.4-1.2-1.1-2.2-2.9-3.2-5.3v-3.8c.7.5 1.2 1.3 1.6 2.4l.8 3.4 3.1 2.3 3.2 2.5c.1.2 0 .5 0 1l-.1 1.1c0 .7.2 1.3.7 1.9.6.8 1.7 1.6 3.3 2.3 2.3 1.1 4.4 2.2 6.1 3.5l1.1.8c.7.3 1.7.5 3 .7 1.3.2 2.7.3 4.3.3 3.3 0 5.3.2 6.2.5-.5 0-1 .1-1.4.2l-1 .3c4.1 2.5 7.4 4.3 9.9 5.5 2.9 1.3 4.4 2.1 4.5 2.2-1-.6-2.1-1.1-3.4-1.4v4.3l1.5 2.3 1.9 3c-1.4-1.5-2.3-2.9-2.8-4.4-.4-1.1-.6-2.3-.6-3.6v-2c-2.3 0-4.1-.4-5.6-1.3l-4-2.6c-2-.9-4.9-1.4-8.7-1.4-.5 0-2.4-1-5.7-2.9-1.6-.9-3.2-1.4-4.8-1.4 1.7 1.7 2.8 2.8 3.4 3.2l3.8 2.6c.7.5 2.1 2.4 4.2 5.7 1.2 1.9 2.7 3.7 4.5 5.4 3.6 3.4 6.8 5.7 9.8 6.9 1.5.5 3.3.8 5.4.8h1c.4 0 .8.2 1.1.5h-1c-.4 0-1 .1-1.9.4 1 .4 1.9.8 2.5 1.2 1.1.3 1.7.8 2.2 1.5z" class="st1"/></svg>