<?xml version="1.0" encoding="utf-8"?>
<!-- Generator: Adobe Illustrator 20.1.0, SVG Export Plug-In . SVG Version: 6.00 Build 0)  -->
<svg version="1.1" id="Layer_1" xmlns="http://www.w3.org/2000/svg" xmlns:xlink="http://www.w3.org/1999/xlink" x="0px" y="0px"
	 viewBox="0 0 301.5 110.2" style="enable-background:new 0 0 301.5 110.2;" xml:space="preserve">
<style type="text/css">
	.st0{fill:#E1E0DB;}
	.st1{fill:#FFFF99;stroke:#F7931E;stroke-miterlimit:10;}
</style>
<g>
	<path class="st0" d="M210.8,62.2c0,0.1,0,0.2,0.1,0.2s0.1,0.1,0.2,0.1s0.2,0,0.3,0.1s0.2,0,0.2,0.1c0.1,0,0.2,0.1,0.2,0.1
		s0.1,0.1,0.2,0.2c0.1,0.1,0.2,0.1,0.2,0.2s0.1,0.1,0.1,0.2s0.1,0.2,0.1,0.2s0.1,0.2,0.1,0.3c0.1,0.2,0.1,0.3,0.2,0.5
		s0.2,0.4,0.2,0.6c0,0.1,0,0.2,0,0.4s-0.1,0.3-0.1,0.4s-0.1,0.3-0.2,0.4s-0.1,0.2-0.2,0.3c-0.3,0.2-0.6,0.5-1,0.7s-0.8,0.4-1.2,0.6
		c-0.1,0-0.2,0.1-0.2,0.1s-0.2,0.1-0.2,0.1c-0.1,0-0.2,0-0.3,0s-0.2,0-0.3,0c-0.1,0-0.2,0-0.2,0.1s-0.1,0.1-0.2,0.1
		c-0.2,0.1-0.3,0.1-0.6,0.1s-0.4,0-0.6,0.1c-0.1,0-0.2,0-0.2,0s-0.2,0-0.2,0c-0.2,0-0.4,0.1-0.6,0.1s-0.4,0.1-0.7,0.1
		c-0.3,0-0.7,0-1,0s-0.6,0-1,0c-0.2,0-0.3,0-0.5,0s-0.3,0-0.5,0c-0.3,0-0.6,0-0.8,0.1s-0.4,0-0.7,0.1s-0.4,0-0.7,0.1s-0.5,0-0.8,0.1
		c-0.2,0-0.4,0-0.7,0s-0.4-0.1-0.5-0.3c0-0.1,0.1-0.1,0.1-0.1s0.1-0.1,0.1-0.1c0.3-0.1,0.6-0.2,0.8-0.4s0.4-0.5,0.6-1
		c0-0.1,0.1-0.2,0.1-0.3s0.1-0.2,0.1-0.2c0.1-0.1,0.1-0.2,0.1-0.2s0-0.1,0.1-0.2c0-0.1,0.1-0.2,0.1-0.3s0-0.2,0-0.3s0-0.2,0.1-0.3
		s0.1-0.2,0.2-0.2c0-0.2,0-0.3,0-0.5s0-0.3,0.1-0.5c0-0.1,0.1-0.2,0.1-0.2s0.1-0.1,0.1-0.2c0-0.1,0-0.2,0-0.4s0-0.3,0-0.4
		c0-0.1,0.1-0.3,0.2-0.4s0.2-0.3,0.2-0.4c0.1-0.2,0.1-0.5,0.1-0.7s0-0.5,0.1-0.8c0-0.1,0.1-0.1,0.1-0.2s0.1-0.1,0.1-0.2
		c0.1-0.2,0.1-0.4,0.1-0.6s0-0.4,0.1-0.6c0.1-0.3,0.1-0.5,0.2-0.7s0.1-0.4,0-0.7c0-0.2-0.1-0.4-0.3-0.6s-0.2-0.3-0.3-0.4
		c-0.1-0.1-0.3-0.2-0.4-0.2s-0.3-0.1-0.4-0.2c-0.1,0-0.2,0-0.3-0.1s-0.1-0.1-0.1-0.2c0-0.1,0.1-0.1,0.1-0.2s0.2-0.1,0.3-0.1
		s0.2,0,0.3,0s0.1,0.1,0.2,0.1c0.1,0,0.3,0,0.5,0s0.4,0,0.5,0.1c0.2,0,0.5,0,0.8-0.1s0.6,0,0.9,0.1c0.1,0,0.1,0,0.2,0.1
		s0.1,0.1,0.2,0.1c0.1,0,0.2-0.1,0.3-0.2s0.2-0.2,0.3-0.2c0.2,0,0.5,0,0.8,0s0.6-0.1,0.9-0.1c0.2,0,0.4,0,0.7,0s0.5,0,0.7,0
		c0.2,0,0.3,0,0.5,0s0.4,0,0.6,0.1c0.3,0,0.5,0.1,0.8,0.1s0.5,0.1,0.8,0.2c0.1,0.1,0.3,0.1,0.4,0.2s0.3,0.2,0.5,0.2
		c0.2,0.1,0.4,0.1,0.6,0.2s0.4,0.1,0.5,0.1c0.1,0,0.1,0.1,0.1,0.1s0.1,0.1,0.1,0.1c0,0,0.1,0,0.1,0s0.1,0,0.2,0
		c0.1,0.1,0.3,0.2,0.4,0.4s0.2,0.4,0.2,0.6c0,0.1,0.1,0.3,0.1,0.5s0,0.4,0,0.6s0,0.4-0.1,0.6s-0.1,0.4-0.3,0.5c0,0-0.1,0-0.1,0.1
		s-0.1,0.1-0.1,0.1c-0.1,0.1-0.3,0.2-0.4,0.4s-0.4,0.2-0.6,0.3c0,0.1-0.1,0.2-0.2,0.3s-0.2,0.1-0.3,0.2s-0.2,0.1-0.3,0.1
		s-0.2,0.1-0.4,0.1c-0.2,0.1-0.4,0.2-0.6,0.3S211,62.2,210.8,62.2z M205.1,63.6c-0.1,0.2-0.1,0.3-0.1,0.6s0,0.4-0.1,0.6
		c0,0.2-0.1,0.3-0.2,0.5s-0.1,0.3-0.1,0.4c0,0.1,0,0.1,0,0.2s0,0.1,0,0.2c0,0.1-0.1,0.2-0.2,0.4s-0.1,0.3-0.1,0.4
		c0,0.1,0.1,0.1,0.2,0.2s0.2,0.1,0.4,0.1s0.3,0,0.4,0.1s0.3,0,0.3,0c0.1,0,0.2,0,0.3,0s0.2-0.1,0.3-0.1s0.2-0.1,0.3-0.1
		s0.2-0.1,0.3-0.1c0.1,0,0.2,0,0.3,0s0.2,0,0.4,0c0.3,0,0.6-0.1,0.8-0.3s0.5-0.4,0.6-0.6c0.1-0.3,0.2-0.6,0.3-0.9s0-0.7,0-1
		c0-0.1-0.1-0.3-0.2-0.4s-0.2-0.3-0.3-0.3c0,0-0.1,0-0.2-0.1s-0.1,0-0.2-0.1c0,0-0.1-0.1-0.1-0.1s-0.1-0.1-0.1-0.1
		c-0.1,0-0.2,0-0.3,0s-0.3,0-0.4,0c-0.1,0-0.1-0.1-0.2-0.1s-0.1-0.1-0.2-0.1c-0.1,0-0.2,0-0.3,0s-0.2,0-0.3,0c-0.1,0-0.2,0-0.4,0
		s-0.2,0-0.3,0c-0.2,0-0.4,0.1-0.4,0.3S205.2,63.4,205.1,63.6z M206.7,61.2c0.1,0,0.2-0.1,0.4-0.1s0.3-0.1,0.4-0.1
		c0.1,0,0.2,0,0.3,0s0.2,0,0.3,0c0.1,0,0.3,0,0.4-0.1s0.3-0.1,0.5-0.2s0.3-0.1,0.4-0.2s0.3-0.2,0.4-0.3c0.1-0.1,0.2-0.2,0.3-0.3
		s0.2-0.2,0.2-0.4s0.1-0.3,0.2-0.4s0-0.3,0-0.4c0-0.1-0.1-0.2-0.1-0.3s-0.1-0.3-0.2-0.3c-0.1-0.1-0.2-0.2-0.5-0.4s-0.4-0.3-0.6-0.4
		c0,0-0.1,0-0.1,0s-0.1,0-0.2,0c-0.1,0-0.2-0.1-0.3-0.2s-0.2-0.1-0.2-0.2c-0.3-0.1-0.5-0.1-0.8,0s-0.4,0.2-0.5,0.3
		c0,0.1,0,0.1,0,0.2s0,0.1,0,0.2c0,0.1-0.1,0.1-0.1,0.1s-0.1,0.1-0.1,0.2c0.1,0.1,0.1,0.3,0.1,0.4s-0.1,0.3-0.2,0.5
		c-0.1,0.3-0.2,0.7-0.3,1s-0.2,0.7-0.3,1c0.1,0.1,0.2,0.2,0.3,0.3S206.5,61.2,206.7,61.2z"/>
	<path class="st0" d="M214.7,67.5c0-0.3,0.1-0.5,0.3-0.7s0.3-0.4,0.4-0.7c0-0.2,0.1-0.3,0.1-0.5s0-0.3,0-0.5s0-0.3,0-0.5
		s0.1-0.3,0.1-0.5c-0.1-0.1-0.1-0.2-0.1-0.4s0-0.3,0-0.4c0.1-0.1,0.1-0.2,0.1-0.3s0.1-0.2,0.2-0.2c0.1-0.3,0.2-0.5,0.2-0.8
		s0-0.6,0.1-0.9c0-0.1,0-0.1,0.1-0.2s0.1-0.1,0.1-0.2c0.1-0.2,0.1-0.5,0.1-0.8s0-0.5,0.1-0.8c0.1,0,0.2-0.1,0.3-0.1s0.2-0.1,0.3-0.2
		s0.2-0.1,0.3-0.1s0.2,0,0.3,0c0.1,0,0.1,0.1,0.2,0.1s0.1,0.1,0.2,0.1c0.1,0,0.1,0.1,0.2,0.1s0.1,0.1,0.2,0.1c0,0,0.1,0,0.2,0.1
		s0.1,0,0.1,0.1c0,0,0,0.1,0.1,0.1s0.1,0.1,0.2,0.2s0.1,0.2,0.2,0.2s0.1,0.1,0.1,0.1c0,0.1,0,0.1,0,0.2s-0.1,0.2-0.1,0.3
		s-0.1,0.2-0.1,0.3s-0.1,0.2-0.1,0.2c0,0.1-0.1,0.3-0.1,0.4s-0.1,0.2-0.1,0.4c-0.1,0.2-0.1,0.3-0.2,0.5s-0.1,0.4-0.1,0.6
		c0,0.2-0.1,0.3-0.2,0.4s-0.2,0.2-0.2,0.4c0,0.1,0,0.2,0,0.3s0,0.2,0,0.3s0,0.2,0,0.3s0,0.2-0.1,0.3c0,0.1-0.1,0.1-0.2,0.1
		s-0.1,0.1-0.2,0.1c-0.1,0.1-0.1,0.3-0.2,0.4s-0.1,0.4-0.1,0.6s0,0.4,0,0.6s0,0.4,0.1,0.5c-0.1,0.2-0.2,0.4-0.3,0.5
		s-0.3,0.2-0.5,0.3s-0.4,0.1-0.6,0.1s-0.5,0-0.7-0.1c-0.1-0.1-0.2-0.3-0.3-0.4S214.8,67.7,214.7,67.5z"/>
	<path class="st0" d="M231,58.6c0.1,0.3,0.1,0.5,0.1,0.7s-0.1,0.4-0.2,0.5c0,0-0.1,0.1-0.2,0.1s-0.1,0-0.2,0.1
		c-0.1,0.1-0.1,0.2-0.2,0.3s-0.1,0.2-0.1,0.3c-0.3,0.2-0.7,0.4-0.9,0.6s-0.6,0.4-0.9,0.6c-0.2,0.1-0.3,0.2-0.4,0.3s-0.3,0.2-0.4,0.3
		c-0.1,0.1-0.1,0.1-0.2,0.2s-0.1,0.1-0.2,0.2c-0.1,0.1-0.2,0.1-0.3,0.1s-0.2,0-0.3,0.1c-0.1,0.1-0.2,0.2-0.3,0.3s-0.2,0.2-0.3,0.4
		c0,0.3,0,0.6,0.1,0.8s0.2,0.4,0.3,0.6s0.2,0.4,0.3,0.6s0.2,0.4,0.2,0.7c0.2,0.1,0.3,0.2,0.4,0.4s0.2,0.3,0.3,0.5
		c0,0,0.1,0.1,0.1,0.1s0.1,0,0.2,0.1c0.1,0,0.1,0.1,0.1,0.2s0.1,0.1,0.1,0.2c0.1,0.1,0.2,0.2,0.3,0.2s0.2,0.1,0.3,0.2
		s0.2,0.2,0.3,0.3s0.2,0.2,0.4,0.2c0.1,0.2,0.2,0.4,0.4,0.5s0.3,0.3,0.5,0.4c0,0.1,0.1,0.2,0.2,0.2s0.1,0.1,0.1,0.2
		c0,0.1-0.1,0.2-0.3,0.2s-0.4,0-0.6,0s-0.5-0.1-0.7-0.1s-0.4-0.1-0.5-0.1c0,0,0,0-0.1-0.1s-0.1,0-0.1-0.1c-0.3,0-0.5-0.1-0.7-0.2
		s-0.4-0.2-0.5-0.3c-0.1-0.2-0.2-0.3-0.3-0.4s-0.2-0.3-0.3-0.4c0-0.1,0-0.2,0-0.2s0-0.2,0-0.3c-0.1-0.1-0.2-0.1-0.3-0.2
		s-0.2-0.1-0.4-0.1c-0.1-0.2-0.2-0.3-0.2-0.5s-0.2-0.4-0.3-0.5c0,0-0.1-0.1-0.1-0.1s-0.1-0.1-0.1-0.1c0-0.1,0-0.1,0-0.2s0-0.1,0-0.2
		c0-0.2-0.1-0.3-0.2-0.4s-0.2-0.3-0.2-0.4c0-0.3-0.1-0.4-0.2-0.4s-0.3,0-0.4,0.1s-0.3,0.2-0.5,0.3s-0.3,0.2-0.4,0.3
		c-0.1,0.1-0.1,0.3-0.2,0.5s-0.1,0.4-0.2,0.6c0,0-0.1,0.1-0.1,0.1s-0.1,0.1-0.1,0.2c-0.1,0.2-0.2,0.4-0.2,0.7s-0.1,0.6-0.2,0.8
		c-0.1,0.2-0.2,0.4-0.5,0.4s-0.5,0-0.7-0.2c-0.1,0.1-0.2,0.1-0.3,0.2s-0.2,0.1-0.3,0.1c-0.1,0-0.3-0.1-0.4-0.2s-0.2-0.2-0.3-0.2
		c0-0.2,0-0.4,0-0.5s0.1-0.4,0.1-0.5c0-0.2,0.1-0.3,0.1-0.5s0.1-0.3,0.1-0.5c0-0.1,0-0.2,0.1-0.2s0-0.2,0.1-0.2s0.1-0.1,0.1-0.2
		s0.1-0.1,0.1-0.2s0-0.1,0-0.2s0-0.1,0-0.2c0-0.1,0.1-0.3,0.1-0.4s0.1-0.2,0.2-0.3c0-0.3,0-0.5,0.1-0.7s0.1-0.4,0.2-0.7
		s0.1-0.4,0.2-0.6s0.1-0.4,0.1-0.7c0.1-0.2,0.3-0.5,0.4-0.9c0.1-0.2,0.1-0.3,0.1-0.5s0.1-0.3,0.1-0.5s0.1-0.3,0.2-0.4
		s0.2-0.2,0.3-0.3c0.1-0.2,0.2-0.4,0.3-0.5s0.4-0.2,0.6-0.1c0,0,0.1,0.1,0.1,0.2s0.1,0.2,0.1,0.2s0,0.1,0.1,0.2s0.1,0.1,0.1,0.2
		c0.1,0.1,0.2,0.1,0.3,0.1s0.2,0,0.3,0.1c0.1,0.2,0.1,0.3,0.1,0.4s0,0.3-0.1,0.4s-0.1,0.2-0.2,0.4s-0.1,0.2-0.1,0.4
		c0,0.1,0,0.1,0,0.2s0,0.1,0,0.2s0,0.1-0.1,0.2s0,0.1-0.1,0.2c0,0.2-0.1,0.4-0.1,0.5s-0.1,0.3-0.3,0.4c0.1,0.2,0.1,0.3,0,0.4
		s-0.1,0.2-0.1,0.3c0.2-0.1,0.3-0.2,0.5-0.3s0.3-0.2,0.4-0.4s0.3-0.2,0.4-0.4s0.3-0.2,0.5-0.3c0.1,0,0.1,0,0.2,0s0.1,0,0.2,0
		c0.1-0.1,0.2-0.1,0.2-0.2s0.1-0.2,0.2-0.2c0.1-0.1,0.1-0.1,0.2-0.2s0.1-0.2,0.2-0.3c0.1-0.1,0.2-0.2,0.4-0.3s0.3-0.2,0.4-0.2
		s0.2-0.2,0.3-0.3s0.2-0.2,0.3-0.3c0.2-0.1,0.4-0.3,0.6-0.4s0.4-0.2,0.6-0.4s0.4-0.3,0.7-0.4s0.5-0.2,0.7-0.4c0.1,0,0.1,0,0.2,0
		S230.9,58.6,231,58.6z"/>
	<path class="st0" d="M239.2,60.2c-0.3,0.2-0.6,0.2-0.9,0.2s-0.7,0-1.1,0c-0.1,0-0.2,0-0.3,0s-0.2,0-0.3,0c-0.6,0.1-1,0.3-1.4,0.6
		s-0.7,0.8-0.8,1.3c-0.1,0.2-0.1,0.4-0.1,0.5s0,0.3,0.2,0.3c0.1,0,0.2,0,0.4,0s0.2-0.1,0.4-0.1s0.2-0.1,0.4-0.1s0.2-0.1,0.4-0.1
		c0,0,0.1,0,0.1,0s0.1,0,0.1,0c0.2,0,0.4,0,0.6,0s0.4-0.1,0.6,0c0,0,0.1,0,0.1,0.1s0.1,0.1,0.1,0.1c0.2,0.1,0.3,0.1,0.5,0.1
		s0.4,0.1,0.5,0.1c0.1,0,0.1,0.1,0.2,0.1s0.1,0.1,0.1,0.1c0,0.1-0.1,0.2-0.2,0.2s-0.3,0.1-0.4,0.1c-0.1,0-0.2,0-0.3,0s-0.2,0-0.3,0
		c-0.2,0-0.3,0.1-0.5,0.1s-0.3,0.1-0.5,0.1c-0.2,0.1-0.4,0.2-0.6,0.3s-0.4,0.2-0.6,0.2c-0.2,0-0.3,0-0.4,0s-0.3,0-0.5,0
		c-0.1,0-0.1,0-0.2,0.1s-0.1,0-0.2,0.1c-0.1,0-0.2,0-0.2,0s-0.1,0-0.1,0s-0.1,0.1-0.1,0.1s-0.1,0.1-0.1,0.2
		c-0.1,0.2-0.2,0.4-0.2,0.7s0,0.5-0.1,0.8c0.1,0.1,0.3,0.2,0.4,0.3s0.3,0.1,0.5,0.1c0.1,0,0.2,0,0.3,0s0.2,0,0.3-0.1
		c0.1,0,0.3,0,0.4,0s0.3,0,0.4,0c0.3,0,0.6-0.1,0.9-0.1s0.5-0.1,0.9-0.1c0.1,0,0.2,0,0.4,0s0.4,0,0.6,0s0.4,0,0.5,0.1
		s0.2,0.1,0.2,0.1c0,0.1,0,0.1-0.1,0.2s-0.2,0.1-0.3,0.2s-0.2,0.1-0.3,0.2s-0.2,0.1-0.2,0.1c-0.2,0.1-0.4,0.1-0.6,0s-0.4,0-0.6,0
		c-0.2,0-0.3,0.1-0.4,0.1s-0.3,0.1-0.4,0.1s-0.3,0.1-0.4,0.2s-0.3,0.1-0.5,0.1c-0.2,0-0.4,0-0.6,0.1s-0.4,0.1-0.6,0.1
		c-0.1,0-0.2,0-0.3,0.1s-0.2,0.1-0.3,0.1c-0.3,0.1-0.7,0.1-1.1,0s-0.8,0-1.3,0c-0.3,0-0.6,0.1-0.8,0.1s-0.5,0.1-0.7,0
		c-0.1,0-0.2,0-0.2,0s-0.1,0-0.2-0.1c0-0.1,0.1-0.2,0.2-0.2s0.2-0.1,0.2-0.2c0.1-0.1,0.2-0.1,0.2-0.2s0.1-0.1,0.2-0.2
		c0.1-0.1,0.1-0.2,0.2-0.3s0.1-0.3,0.1-0.4s0.1-0.3,0.1-0.4s0.1-0.2,0.2-0.3c-0.1-0.2-0.1-0.5,0-0.7s0.2-0.6,0.3-0.8
		c0-0.1,0-0.1,0-0.2s0-0.1,0-0.2c0-0.1,0.1-0.2,0.2-0.3s0.1-0.2,0.2-0.3c0-0.1,0-0.1,0-0.2s0-0.1,0-0.2c0-0.2,0.1-0.3,0.1-0.5
		s0.1-0.3,0.1-0.4c0-0.1,0-0.2,0-0.3s0-0.2,0-0.3c0-0.2,0.1-0.5,0.1-0.7s0.1-0.4,0.1-0.6c0-0.1,0-0.3-0.1-0.4S232,60,232,60
		c0-0.1-0.1-0.1-0.2-0.2s-0.1-0.1-0.2-0.2s-0.1-0.1-0.2-0.2s-0.1-0.1-0.1-0.1c0-0.1,0.1-0.2,0.2-0.2s0.2,0,0.3-0.1
		c0.4,0,0.8,0.1,1.2,0.1s0.8,0.1,1.2,0.2c0.2,0,0.3,0,0.5,0s0.3,0,0.5-0.1c0.2,0,0.5,0,0.8,0.1s0.6,0.1,0.9,0.1c0.4,0,0.8,0,1.2,0
		s0.7,0,1.1,0c0.1,0.1,0.2,0.1,0.3,0.1s0.3,0,0.4,0s0.3,0,0.4,0s0.2,0.1,0.3,0.2c0.1,0.2,0.1,0.3,0,0.4s-0.2,0.2-0.4,0.2
		c0,0-0.1,0-0.2,0s-0.2,0-0.3,0s-0.2,0-0.3,0S239.3,60.2,239.2,60.2z"/>
	<path class="st0" d="M247.6,59.3c0.1,0,0.2,0,0.3,0s0.2,0,0.3,0c0,0,0.1,0,0.1,0s0.1,0,0.1,0.1s0.1,0,0.1,0s0.1,0,0.1,0
		c0.3,0.1,0.5,0.2,0.7,0.3s0.3,0.3,0.5,0.5c0.1,0.1,0.2,0.3,0.3,0.4s0.2,0.3,0.3,0.5s0.1,0.4,0.1,0.6s0,0.4-0.1,0.6
		c0,0.1-0.1,0.1-0.1,0.2s-0.1,0.2-0.1,0.3c-0.1,0.1-0.2,0.3-0.3,0.4s-0.2,0.2-0.3,0.3c-0.1,0.1-0.2,0.1-0.2,0.2s-0.1,0.1-0.2,0.1
		c-0.2,0.1-0.3,0.1-0.5,0.3s-0.3,0.2-0.5,0.3c-0.1,0-0.1,0-0.2,0s-0.1,0-0.2,0c-0.1,0-0.1,0.1-0.2,0.2s-0.1,0.1-0.3,0.2
		c0.3,0.1,0.6,0.2,0.8,0.5s0.4,0.5,0.6,0.8c0.1,0.2,0.1,0.3,0.2,0.4s0.2,0.3,0.1,0.4c0.1,0.1,0.1,0.2,0.2,0.3s0.1,0.2,0.1,0.4
		s0.1,0.3,0.1,0.4s0.1,0.3,0.1,0.4c0.1,0.2,0.1,0.3,0.2,0.4s0.2,0.2,0.3,0.3s0.2,0.2,0.3,0.3s0.2,0.2,0.2,0.4c0,0,0.1,0,0.1,0
		s0.1,0,0.1,0c0.2,0.1,0.4,0.2,0.6,0.3s0.5,0.1,0.8,0.2c0.3,0,0.5,0.1,0.8,0s0.5,0,0.7-0.1c0.1,0,0.2,0,0.3-0.1s0.2-0.1,0.4-0.1
		s0.2,0,0.3,0s0.1,0.1,0.1,0.2c0,0.1-0.1,0.2-0.2,0.3s-0.2,0.2-0.3,0.3c-0.2,0.1-0.4,0.3-0.7,0.3s-0.5,0.1-0.8,0.2s-0.6,0.1-0.9,0.1
		s-0.6,0-0.8,0.1c-0.2,0-0.3,0-0.4-0.1s-0.3-0.1-0.4-0.1c-0.2,0-0.4-0.1-0.6-0.1s-0.4-0.1-0.5-0.2c-0.1-0.1-0.3-0.2-0.4-0.3
		s-0.3-0.2-0.4-0.3c-0.3-0.3-0.6-0.5-0.9-0.8s-0.5-0.6-0.7-1c-0.1-0.1-0.1-0.2-0.2-0.3s-0.1-0.2-0.2-0.3c0-0.1-0.1-0.2-0.1-0.3
		s0-0.2,0-0.3c0-0.1-0.1-0.3-0.1-0.4s-0.1-0.3-0.1-0.4c0,0,0-0.1-0.1-0.1s0-0.1-0.1-0.1c0-0.1,0-0.2-0.1-0.3s-0.1-0.2-0.1-0.2
		c-0.1,0-0.2-0.1-0.3-0.2s-0.2-0.1-0.3-0.1c-0.1,0-0.3,0-0.4,0s-0.2,0.1-0.3,0.1c-0.2,0-0.3,0-0.4,0s-0.3,0-0.4,0
		c-0.2,0.1-0.3,0.2-0.4,0.5s-0.2,0.5-0.2,0.8c0,0.3-0.1,0.5-0.2,0.8s-0.2,0.5-0.2,0.7c0,0.2-0.1,0.3-0.2,0.4s-0.3,0.1-0.4,0.1
		c-0.1,0-0.2,0-0.2,0s-0.1,0-0.2-0.1c-0.1,0-0.2,0.1-0.3,0.2s-0.2,0.1-0.3,0.2c-0.4,0.1-0.6,0.1-0.7-0.1s0-0.5,0.1-0.8
		c0.1-0.2,0.1-0.5,0.3-0.7s0.2-0.4,0.3-0.6c0-0.1,0-0.2,0-0.3s0-0.2,0-0.3s0-0.2,0-0.2s0-0.1,0.1-0.2c0-0.1,0-0.2,0.1-0.3
		s0.1-0.2,0.1-0.3c0-0.1,0.1-0.2,0.1-0.4s0.1-0.3,0.1-0.4c0-0.1,0-0.3,0-0.4s0-0.3,0.1-0.4c0.1-0.2,0.1-0.3,0.2-0.5s0.1-0.3,0.1-0.5
		c0-0.1,0-0.2,0-0.4s0-0.2,0.1-0.4c0-0.1,0.1-0.2,0.1-0.2s0.1-0.1,0.1-0.2c0-0.1,0-0.1,0-0.2s0-0.1,0-0.2c0.1-0.2,0.1-0.4,0.1-0.6
		s-0.1-0.2-0.1-0.3s-0.1-0.2-0.1-0.3s0-0.2,0-0.3c0.1,0,0.1-0.1,0.2-0.1s0.1-0.1,0.2-0.2c0,0,0.1,0,0.3,0s0.3,0,0.4,0s0.3,0,0.4,0
		s0.3,0,0.3,0c0.1,0,0.2,0,0.4,0s0.3,0,0.4,0s0.3,0,0.4,0s0.2,0,0.3,0.1H247.6z M245,63.7c0.1,0,0.2,0,0.3-0.1s0.2-0.1,0.3,0
		c0.1,0,0.2,0,0.4,0.1s0.2,0,0.4,0.1c0.1,0,0.1,0,0.2,0s0.1,0,0.2,0c0.2-0.1,0.4-0.2,0.5-0.3s0.3-0.2,0.4-0.4
		c0.1-0.1,0.1-0.2,0.2-0.3s0.1-0.2,0.1-0.3c0.1-0.3,0.1-0.5,0-0.7s-0.2-0.4-0.3-0.5c-0.1-0.2-0.2-0.3-0.3-0.4s-0.3-0.1-0.5-0.1
		c-0.2,0-0.4,0-0.6,0s-0.4,0-0.6,0s-0.4,0-0.5,0.1s-0.3,0.2-0.3,0.3c-0.1,0.2-0.1,0.4-0.2,0.6s-0.2,0.4-0.2,0.6S244,62.8,244,63
		s-0.1,0.4-0.1,0.7c0.2,0,0.4,0,0.5,0S244.8,63.8,245,63.7z"/>
	<path class="st0" d="M222.6,77.1c0.3,0.2,0.6,0.5,0.9,0.7s0.5,0.5,0.7,0.8c0,0.1,0.1,0.1,0.1,0.2s0.1,0.1,0.1,0.2
		c0.1,0.1,0.2,0.3,0.3,0.4s0.2,0.3,0.2,0.5c0,0.1,0,0.3,0,0.4s0,0.3,0,0.5c0,0.1,0,0.1,0.1,0.2s0.1,0.1,0.1,0.2c0,0.2,0,0.3,0,0.5
		s-0.1,0.4,0,0.6c0,0.1,0,0.2,0.1,0.3s0.1,0.2,0.1,0.3c0,0.2,0,0.3-0.1,0.5s-0.1,0.3-0.1,0.5c-0.1,0.5-0.2,0.9-0.3,1.2
		s-0.2,0.7-0.4,1c-0.1,0.2-0.2,0.3-0.3,0.5s-0.2,0.3-0.3,0.5c-0.2,0.4-0.5,0.7-0.8,1s-0.6,0.6-0.8,0.9c-0.4,0.2-0.9,0.4-1.3,0.6
		s-0.8,0.4-1.4,0.5c-0.1,0-0.2,0.1-0.3,0.1s-0.2,0.1-0.4,0.1c-0.2,0-0.3,0.1-0.5,0.1s-0.3,0-0.5,0.1c-0.1,0-0.2,0.1-0.4,0.1
		s-0.2,0.1-0.4,0.1c-0.1,0-0.2,0-0.4,0s-0.2-0.1-0.4-0.1c-0.1,0-0.2,0-0.3,0s-0.2,0-0.3,0c-0.1,0-0.1,0-0.2-0.1s-0.1-0.1-0.2-0.1
		c-0.1,0-0.1-0.1-0.2-0.1s-0.2,0-0.2-0.1c-0.1,0-0.2-0.1-0.3-0.1s-0.2-0.1-0.3-0.1c-0.1,0-0.1,0-0.2,0s-0.1,0-0.2,0
		c-0.1,0-0.2-0.1-0.2-0.1s-0.1-0.1-0.2-0.2s-0.2-0.1-0.3-0.1s-0.2-0.1-0.2-0.1c-0.2-0.1-0.3-0.3-0.5-0.5s-0.3-0.4-0.4-0.7
		c-0.1-0.2-0.2-0.4-0.4-0.7s-0.3-0.5-0.3-0.7c0-0.1,0-0.3-0.1-0.5s0-0.3-0.1-0.5c0-0.3,0-0.7,0-1.1s0-0.8,0.1-1.2
		c0-0.1,0.1-0.3,0.1-0.4s0.1-0.2,0.2-0.4c0-0.1,0.1-0.3,0.1-0.4s0.1-0.3,0.1-0.4c0.1-0.1,0.1-0.2,0.2-0.3s0.2-0.2,0.2-0.3
		s0-0.2,0-0.4s0-0.2,0-0.4c0-0.3,0.2-0.5,0.4-0.7s0.4-0.4,0.6-0.7c0.3-0.3,0.5-0.5,0.7-0.7s0.5-0.4,0.8-0.6c0,0,0.1,0,0.2-0.1
		s0.1-0.1,0.2-0.1c0.1,0,0.1-0.1,0.2-0.1s0.1-0.1,0.2-0.1c0.1,0,0.2,0,0.3,0s0.2,0,0.3,0c0.1,0,0.2-0.1,0.3-0.1s0.2-0.1,0.3-0.2
		s0.2-0.2,0.2-0.2s0.2-0.1,0.2-0.2c0,0,0.1,0,0.1,0s0.1,0,0.1,0c0.3-0.1,0.7-0.2,1-0.1s0.7,0.1,1.1,0.1c0.3,0,0.6,0,0.9,0.1
		s0.6,0.1,0.8,0.1c0.2,0,0.3,0.1,0.5,0.2S222.4,77.1,222.6,77.1z M219.5,88c0.1-0.1,0.2-0.2,0.2-0.3s0.2-0.3,0.3-0.4
		c0.2-0.3,0.4-0.6,0.5-1s0.3-0.7,0.5-1c0.2-0.3,0.3-0.7,0.4-1.1s0.2-0.8,0.4-1.2c0-0.1,0.1-0.3,0.2-0.4s0.1-0.3,0.1-0.4
		c0-0.1,0-0.2-0.1-0.2s-0.1-0.1-0.1-0.2c0-0.1,0-0.2,0-0.2s0-0.1,0-0.2c0-0.1,0-0.1,0-0.2s0-0.1-0.1-0.2c0-0.1,0-0.2-0.1-0.3
		s0-0.2,0-0.3c0-0.1,0-0.2,0-0.3s0-0.2,0-0.3c-0.1-0.3-0.2-0.5-0.4-0.7s-0.4-0.4-0.6-0.5c-0.1,0-0.1-0.1-0.1-0.1s-0.1-0.1-0.1-0.1
		c-0.1,0-0.2,0-0.3-0.1s-0.2,0-0.3,0c-0.3,0-0.5,0.1-0.7,0.2s-0.4,0.2-0.7,0.2c-0.4,0.2-0.8,0.5-1.2,0.8s-0.8,0.7-1,1.1
		c0,0.1-0.1,0.1-0.1,0.2s0,0.1-0.1,0.2c-0.1,0.1-0.1,0.2-0.2,0.2s-0.1,0.1-0.2,0.2c-0.1,0.2-0.2,0.4-0.3,0.6s-0.2,0.4-0.2,0.6
		c-0.1,0.2-0.1,0.5-0.1,0.8s0,0.5-0.1,0.8c0,0.3-0.1,0.6-0.1,1s-0.1,0.6,0,0.9c0,0.1,0,0.1,0,0.2s0,0.2,0.1,0.2
		c0,0.3,0.1,0.6,0.1,0.8s0.1,0.4,0.3,0.6c0.1,0.1,0.1,0.1,0.2,0.2s0.2,0.1,0.3,0.2c0.1,0.1,0.1,0.1,0.1,0.2s0.1,0.1,0.1,0.2
		c0.4,0.3,0.9,0.5,1.7,0.5c0.2-0.2,0.5-0.3,0.8-0.4S219.3,88.2,219.5,88z"/>
	<path class="st0" d="M234.6,80.2c0.1,0,0.1,0.1,0.1,0.2s0,0.2,0.1,0.3c0.1-0.1,0.3-0.1,0.4-0.2s0.4-0.1,0.6-0.1
		c0.1,0.1,0.1,0.3,0.1,0.4s0,0.2,0,0.4s-0.1,0.2-0.1,0.4s-0.1,0.3-0.1,0.4c0,0.2-0.1,0.4-0.1,0.5s-0.1,0.3-0.1,0.5
		c-0.1,0.2-0.1,0.4-0.1,0.6s-0.1,0.4-0.1,0.5s-0.1,0.3-0.1,0.4s-0.1,0.3-0.3,0.4c0,0.5,0,1-0.2,1.5s-0.3,0.9-0.4,1.3
		c0,0.1-0.1,0.2-0.1,0.3s-0.1,0.2-0.1,0.3c0,0.1-0.1,0.1-0.1,0.2s-0.1,0.1-0.2,0.2c-0.2,0.3-0.3,0.6-0.5,0.9s-0.4,0.5-0.8,0.6
		c-0.1,0-0.2,0.1-0.3,0.1s-0.2,0.1-0.2,0.1c-0.1,0.1-0.2,0.1-0.4,0.2s-0.3,0.2-0.5,0.2c-0.1,0-0.2,0-0.3-0.1s-0.2-0.1-0.3-0.1
		c-0.1,0-0.2,0-0.3,0s-0.2,0-0.4,0s-0.2,0-0.3,0s-0.2-0.1-0.2-0.2c-0.1,0-0.3,0-0.4,0.1s-0.2,0.1-0.4,0.1c-0.1,0-0.3-0.1-0.4-0.2
		s-0.2-0.2-0.3-0.2c-0.1,0-0.2,0.1-0.2,0.1s-0.1,0-0.2,0c-0.1,0-0.1-0.1-0.2-0.1s-0.1,0-0.2-0.1c-0.1-0.1-0.2-0.2-0.3-0.4
		s-0.1-0.4-0.2-0.5s-0.1-0.4-0.1-0.6s-0.1-0.3-0.2-0.5c0-0.2,0.1-0.5,0.2-0.7s0.1-0.4,0.2-0.6c0-0.1,0.1-0.3,0.1-0.5s0-0.3,0-0.5
		s0-0.3,0-0.5s0.1-0.3,0.1-0.5c0-0.1,0.1-0.1,0.2-0.2s0.1-0.1,0.2-0.2c0-0.1,0.1-0.2,0.1-0.3s0-0.2,0.1-0.3c0-0.2,0-0.3,0.1-0.6
		s0-0.4,0.1-0.6c0-0.3,0.1-0.6,0.1-0.9s0.2-0.5,0.4-0.6c0.2,0,0.3-0.1,0.5-0.2s0.3-0.1,0.6-0.1c0.1,0,0.1,0,0.2,0.1s0.2,0.1,0.2,0.1
		c0.2,0,0.3,0.1,0.4,0.1s0.2,0.1,0.2,0.3c0,0.1,0,0.2,0,0.3s-0.1,0.2-0.1,0.3c0,0.1-0.1,0.1-0.1,0.2s-0.1,0.1-0.1,0.2
		c0,0,0,0.1,0,0.1s0,0.1,0,0.1c0,0.1-0.1,0.2-0.1,0.3s-0.1,0.2-0.1,0.3c-0.1,0.1-0.1,0.3-0.2,0.4s-0.1,0.3-0.2,0.5
		c-0.1,0.2-0.2,0.4-0.2,0.7s-0.2,0.5-0.2,0.7c0,0.2-0.1,0.5-0.1,0.7s0,0.4-0.1,0.7c0,0.1-0.1,0.2-0.1,0.3s0,0.2,0,0.3
		c-0.1,0.1-0.2,0.3-0.1,0.4s0.1,0.3,0.2,0.4c0.1,0.1,0.1,0.2,0.2,0.2s0.2,0.2,0.3,0.3s0.2,0.1,0.4,0.2s0.3,0,0.5,0
		c0.1,0,0.2-0.1,0.4-0.1s0.2-0.1,0.4-0.2c0.2-0.1,0.4-0.2,0.6-0.4s0.3-0.3,0.4-0.6c0-0.1,0.1-0.2,0.1-0.3s0-0.2,0-0.3s0-0.2,0-0.4
		s0-0.3,0.1-0.4c0.1-0.1,0.1-0.2,0.3-0.4s0.2-0.2,0.2-0.4c0-0.1,0-0.1,0-0.2s0-0.1,0-0.2c0-0.2,0-0.3,0.1-0.5s0.1-0.3,0.2-0.5
		s0.1-0.3,0.2-0.5s0.1-0.3,0.1-0.5c0-0.2,0-0.3,0-0.4s0-0.2,0-0.3s0-0.2,0.1-0.3s0.1-0.2,0.1-0.3c0.1-0.1,0.1-0.2,0.2-0.3
		s0.1-0.3,0.1-0.5c0-0.1,0-0.1,0-0.2s0-0.2,0.1-0.2c0-0.1,0.1-0.2,0.2-0.3s0.2-0.1,0.4-0.1s0.3-0.1,0.4-0.1S234.4,80.2,234.6,80.2z"
		/>
	<path class="st0" d="M245.4,80.8c0,0.2-0.1,0.3-0.2,0.4s-0.2,0.1-0.3,0.2c-0.1,0.1-0.1,0.1-0.2,0.2s-0.1,0.2-0.1,0.2
		c-0.1,0.1-0.1,0.1-0.3,0.1S244.1,82,244,82c-0.2,0.1-0.4,0.1-0.6,0.1s-0.4,0-0.6,0c-0.1,0-0.2,0.1-0.3,0.2s-0.2,0.1-0.3,0.2
		c-0.1,0-0.2,0.1-0.2,0.1s-0.1,0.1-0.1,0.1s-0.1,0.1-0.1,0.1s-0.1,0.1-0.1,0.2c-0.1,0.1-0.1,0.3-0.1,0.5s0,0.4-0.1,0.5
		c0,0.1-0.1,0.2-0.1,0.4s-0.1,0.3-0.1,0.5c0,0.1,0,0.2,0,0.3s0,0.2,0,0.3c0,0.1-0.1,0.2-0.2,0.3s-0.1,0.2-0.2,0.3c0,0.1,0,0.1,0,0.2
		s0,0.1,0,0.2c0,0.3-0.1,0.6-0.2,0.9s-0.1,0.7-0.2,1c-0.1,0.3-0.1,0.5-0.2,0.8s-0.1,0.5-0.2,0.7c-0.1,0-0.2,0-0.3,0.1
		s-0.2,0.1-0.3,0.1c-0.1,0-0.2,0-0.2,0s-0.1,0-0.2,0.1c-0.1,0.1-0.2,0.2-0.3,0.3s-0.2,0.2-0.3,0.2c-0.1,0-0.2,0-0.2,0
		s-0.1,0-0.2-0.1c-0.1,0-0.2,0-0.3,0s-0.2,0-0.3,0c0-0.1-0.1-0.2-0.1-0.4s0-0.3,0.1-0.4s0.1-0.3,0.1-0.4s0.1-0.2,0.1-0.4
		c0-0.1,0-0.2,0-0.3s0-0.2,0.1-0.3c0-0.1,0.1-0.2,0.2-0.3s0.1-0.2,0.2-0.3c0-0.1,0.1-0.3,0.2-0.5s0.1-0.3,0.1-0.4c0-0.1,0-0.3,0-0.4
		s0-0.3,0-0.4c0-0.1,0.1-0.1,0.1-0.2s0.1-0.1,0.1-0.2c0-0.1,0.1-0.3,0.1-0.4s0-0.3,0.1-0.4c0-0.1,0-0.3,0.1-0.4s0.1-0.2,0.1-0.4
		c0-0.2,0.1-0.3,0.1-0.4s0.1-0.3,0.1-0.4s0-0.3,0-0.4s0-0.3-0.1-0.4c-0.1-0.1-0.2-0.2-0.3-0.3s-0.2-0.1-0.4-0.1s-0.3,0-0.5,0
		s-0.3,0-0.5,0c-0.1,0-0.1-0.1-0.2-0.2s-0.1-0.2-0.2-0.2c-0.1,0-0.3-0.1-0.5-0.1s-0.3-0.1-0.4-0.2c-0.1-0.2-0.1-0.3,0-0.5
		s0.1-0.3,0.2-0.4c0.4-0.1,0.9-0.1,1.4,0s0.9,0.1,1.4,0.1c0.2,0,0.4,0,0.6-0.1s0.4-0.1,0.6,0c0.1,0,0.2,0.1,0.3,0.1s0.2,0.1,0.3,0.1
		c0.1,0,0.1,0,0.2,0s0.1,0,0.2,0c0.1,0,0.2,0,0.3,0s0.2,0,0.3,0c0.1,0,0.2,0,0.3,0s0.1,0,0.1,0s0.1,0,0.1,0s0.1,0,0.2,0
		c0.1,0,0.2,0,0.3,0s0.2,0,0.3,0c0.3,0,0.5,0,0.7-0.1s0.5-0.1,0.7-0.1c0.1,0,0.3,0,0.4,0S245.3,80.8,245.4,80.8z"/>
	<path class="st0" d="M251.2,80.9c0.1,0,0.2,0,0.3,0s0.2,0,0.3,0c0,0,0.1,0,0.1,0s0.1,0,0.1,0.1s0.1,0,0.1,0s0.1,0,0.1,0
		c0.3,0.1,0.5,0.2,0.7,0.3s0.3,0.3,0.5,0.5c0.1,0.1,0.2,0.3,0.3,0.4s0.2,0.3,0.3,0.5s0.1,0.4,0.1,0.6s0,0.4-0.1,0.6
		c0,0.1-0.1,0.1-0.1,0.2s-0.1,0.2-0.1,0.3c-0.1,0.1-0.2,0.3-0.3,0.4s-0.2,0.2-0.3,0.3c-0.1,0.1-0.2,0.1-0.2,0.2s-0.1,0.1-0.2,0.1
		c-0.2,0.1-0.3,0.1-0.5,0.3s-0.3,0.2-0.5,0.3c-0.1,0-0.1,0-0.2,0s-0.1,0-0.2,0c-0.1,0-0.1,0.1-0.2,0.2s-0.1,0.1-0.3,0.2
		c0.3,0.1,0.6,0.2,0.8,0.5s0.4,0.5,0.6,0.8c0.1,0.2,0.1,0.3,0.2,0.4s0.2,0.3,0.1,0.4c0.1,0.1,0.1,0.2,0.2,0.3s0.1,0.2,0.1,0.4
		s0.1,0.3,0.1,0.4s0.1,0.3,0.1,0.4c0.1,0.2,0.1,0.3,0.2,0.4s0.2,0.2,0.3,0.3s0.2,0.2,0.3,0.3s0.2,0.2,0.2,0.4c0,0,0.1,0,0.1,0
		s0.1,0,0.1,0c0.2,0.1,0.4,0.2,0.6,0.3s0.5,0.1,0.8,0.2c0.3,0,0.5,0.1,0.8,0s0.5,0,0.7-0.1c0.1,0,0.2,0,0.3-0.1s0.2-0.1,0.4-0.1
		s0.2,0,0.3,0s0.1,0.1,0.1,0.2c0,0.1-0.1,0.2-0.2,0.3s-0.2,0.2-0.3,0.3c-0.2,0.1-0.4,0.3-0.7,0.3s-0.5,0.1-0.8,0.2s-0.6,0.1-0.9,0.1
		s-0.6,0-0.8,0.1c-0.2,0-0.3,0-0.4-0.1s-0.3-0.1-0.4-0.1c-0.2,0-0.4-0.1-0.6-0.1s-0.4-0.1-0.5-0.2c-0.1-0.1-0.3-0.2-0.4-0.3
		s-0.3-0.2-0.4-0.3c-0.3-0.3-0.6-0.5-0.9-0.8s-0.5-0.6-0.7-1c-0.1-0.1-0.1-0.2-0.2-0.3s-0.1-0.2-0.2-0.3c0-0.1-0.1-0.2-0.1-0.3
		s0-0.2,0-0.3c0-0.1-0.1-0.3-0.1-0.4s-0.1-0.3-0.1-0.4c0,0,0-0.1-0.1-0.1s0-0.1-0.1-0.1c0-0.1,0-0.2-0.1-0.3s-0.1-0.2-0.1-0.2
		c-0.1,0-0.2-0.1-0.3-0.2s-0.2-0.1-0.3-0.1c-0.1,0-0.3,0-0.4,0S248.1,87,248,87c-0.2,0-0.3,0-0.4,0s-0.3,0-0.4,0
		c-0.2,0.1-0.3,0.2-0.4,0.5s-0.2,0.5-0.2,0.8c0,0.3-0.1,0.5-0.2,0.8s-0.2,0.5-0.2,0.7c0,0.2-0.1,0.3-0.2,0.4s-0.3,0.1-0.4,0.1
		c-0.1,0-0.2,0-0.2,0s-0.1,0-0.2-0.1c-0.1,0-0.2,0.1-0.3,0.2s-0.2,0.1-0.3,0.2c-0.4,0.1-0.6,0.1-0.7-0.1s0-0.5,0.1-0.8
		c0.1-0.2,0.1-0.5,0.3-0.7s0.2-0.4,0.3-0.6c0-0.1,0-0.2,0-0.3s0-0.2,0-0.3s0-0.2,0-0.2s0-0.1,0.1-0.2c0-0.1,0-0.2,0.1-0.3
		s0.1-0.2,0.1-0.3c0-0.1,0.1-0.2,0.1-0.4s0.1-0.3,0.1-0.4c0-0.1,0-0.3,0-0.4s0-0.3,0.1-0.4c0.1-0.2,0.1-0.3,0.2-0.5s0.1-0.3,0.1-0.5
		c0-0.1,0-0.2,0-0.4s0-0.2,0.1-0.4c0-0.1,0.1-0.2,0.1-0.2s0.1-0.1,0.1-0.2c0-0.1,0-0.1,0-0.2s0-0.1,0-0.2c0.1-0.2,0.1-0.4,0.1-0.6
		s-0.1-0.2-0.1-0.3s-0.1-0.2-0.1-0.3s0-0.2,0-0.3c0.1,0,0.1-0.1,0.2-0.1s0.1-0.1,0.2-0.2c0,0,0.1,0,0.3,0s0.3,0,0.4,0s0.3,0,0.4,0
		s0.3,0,0.3,0c0.1,0,0.2,0,0.4,0s0.3,0,0.4,0s0.3,0,0.4,0s0.2,0,0.3,0.1H251.2z M248.5,85.3c0.1,0,0.2,0,0.3-0.1s0.2-0.1,0.3,0
		c0.1,0,0.2,0,0.4,0.1s0.2,0,0.4,0.1c0.1,0,0.1,0,0.2,0s0.1,0,0.2,0c0.2-0.1,0.4-0.2,0.5-0.3s0.3-0.2,0.4-0.4
		c0.1-0.1,0.1-0.2,0.2-0.3s0.1-0.2,0.1-0.3c0.1-0.3,0.1-0.5,0-0.7s-0.2-0.4-0.3-0.5c-0.1-0.2-0.2-0.3-0.3-0.4s-0.3-0.1-0.5-0.1
		c-0.2,0-0.4,0-0.6,0s-0.4,0-0.6,0s-0.4,0-0.5,0.1s-0.3,0.2-0.3,0.3c-0.1,0.2-0.1,0.4-0.2,0.6s-0.2,0.4-0.2,0.6s-0.1,0.4-0.2,0.7
		s-0.1,0.4-0.1,0.7c0.2,0,0.4,0,0.5,0S248.3,85.4,248.5,85.3z"/>
	<path class="st0" d="M263.5,81.8c-0.3,0.2-0.6,0.2-0.9,0.2s-0.7,0-1.1,0c-0.1,0-0.2,0-0.3,0s-0.2,0-0.3,0c-0.6,0.1-1,0.3-1.4,0.6
		s-0.7,0.8-0.8,1.3c-0.1,0.2-0.1,0.4-0.1,0.5s0,0.3,0.2,0.3c0.1,0,0.2,0,0.4,0s0.2-0.1,0.4-0.1s0.2-0.1,0.4-0.1s0.2-0.1,0.4-0.1
		c0,0,0.1,0,0.1,0s0.1,0,0.1,0c0.2,0,0.4,0,0.6,0s0.4-0.1,0.6,0c0,0,0.1,0,0.1,0.1s0.1,0.1,0.1,0.1c0.2,0.1,0.3,0.1,0.5,0.1
		s0.4,0.1,0.5,0.1c0.1,0,0.1,0.1,0.2,0.1s0.1,0.1,0.1,0.1c0,0.1-0.1,0.2-0.2,0.2s-0.3,0.1-0.4,0.1c-0.1,0-0.2,0-0.3,0s-0.2,0-0.3,0
		c-0.2,0-0.3,0.1-0.5,0.1s-0.3,0.1-0.5,0.1c-0.2,0.1-0.4,0.2-0.6,0.3s-0.4,0.2-0.6,0.2c-0.2,0-0.3,0-0.4,0s-0.3,0-0.5,0
		c-0.1,0-0.1,0-0.2,0.1s-0.1,0-0.2,0.1c-0.1,0-0.2,0-0.2,0s-0.1,0-0.1,0s-0.1,0.1-0.1,0.1s-0.1,0.1-0.1,0.2
		c-0.1,0.2-0.2,0.4-0.2,0.7s0,0.5-0.1,0.8c0.1,0.1,0.3,0.2,0.4,0.3s0.3,0.1,0.5,0.1c0.1,0,0.2,0,0.3,0s0.2,0,0.3-0.1
		c0.1,0,0.3,0,0.4,0s0.3,0,0.4,0c0.3,0,0.6-0.1,0.9-0.1s0.5-0.1,0.9-0.1c0.1,0,0.2,0,0.4,0s0.4,0,0.6,0s0.4,0,0.5,0.1
		s0.2,0.1,0.2,0.1c0,0.1,0,0.1-0.1,0.2s-0.2,0.1-0.3,0.2s-0.2,0.1-0.3,0.2s-0.2,0.1-0.2,0.1c-0.2,0.1-0.4,0.1-0.6,0s-0.4,0-0.6,0
		c-0.2,0-0.3,0.1-0.4,0.1s-0.3,0.1-0.4,0.1s-0.3,0.1-0.4,0.2s-0.3,0.1-0.5,0.1c-0.2,0-0.4,0-0.6,0.1s-0.4,0.1-0.6,0.1
		c-0.1,0-0.2,0-0.3,0.1s-0.2,0.1-0.3,0.1c-0.3,0.1-0.7,0.1-1.1,0s-0.8,0-1.3,0c-0.3,0-0.6,0.1-0.8,0.1s-0.5,0.1-0.7,0
		c-0.1,0-0.2,0-0.2,0s-0.1,0-0.2-0.1c0-0.1,0.1-0.2,0.2-0.2s0.2-0.1,0.2-0.2c0.1-0.1,0.2-0.1,0.2-0.2s0.1-0.1,0.2-0.2
		c0.1-0.1,0.1-0.2,0.2-0.3s0.1-0.3,0.1-0.4s0.1-0.3,0.1-0.4s0.1-0.2,0.2-0.3c-0.1-0.2-0.1-0.5,0-0.7s0.2-0.6,0.3-0.8
		c0-0.1,0-0.1,0-0.2s0-0.1,0-0.2c0-0.1,0.1-0.2,0.2-0.3s0.1-0.2,0.2-0.3c0-0.1,0-0.1,0-0.2s0-0.1,0-0.2c0-0.2,0.1-0.3,0.1-0.5
		c0.1-0.2,0.1-0.3,0.1-0.4c0-0.1,0-0.2,0-0.3s0-0.2,0-0.3c0-0.2,0.1-0.5,0.1-0.7s0.1-0.4,0.1-0.6c0-0.1,0-0.3-0.1-0.4
		s-0.1-0.3-0.1-0.4c0-0.1-0.1-0.1-0.2-0.2s-0.1-0.1-0.2-0.2s-0.1-0.1-0.2-0.2s-0.1-0.1-0.1-0.1c0-0.1,0.1-0.2,0.2-0.2s0.2,0,0.3-0.1
		c0.4,0,0.8,0.1,1.2,0.1s0.8,0.1,1.2,0.2c0.2,0,0.3,0,0.5,0s0.3,0,0.5-0.1c0.2,0,0.5,0,0.8,0.1s0.6,0.1,0.9,0.1c0.4,0,0.8,0,1.2,0
		s0.7,0,1.1,0c0.1,0.1,0.2,0.1,0.3,0.1s0.3,0,0.4,0s0.3,0,0.4,0s0.2,0.1,0.3,0.2c0.1,0.2,0.1,0.3,0,0.4s-0.2,0.2-0.4,0.2
		c0,0-0.1,0-0.2,0s-0.2,0-0.3,0s-0.2,0-0.3,0S263.6,81.8,263.5,81.8z"/>
	<path class="st0" d="M268.1,82c0.2-0.2,0.4-0.3,0.6-0.5s0.3-0.4,0.5-0.6c0.1,0,0.2,0,0.2-0.1s0.1-0.1,0.2-0.1c0.2,0,0.3,0,0.5,0
		s0.3,0.1,0.5,0.1c0.2,0,0.4-0.1,0.6-0.2s0.4-0.1,0.6-0.1c0.1,0,0.2,0,0.2,0.1s0.1,0.1,0.2,0.1c0.1,0,0.2,0,0.3,0s0.2-0.1,0.3-0.1
		c0.2,0,0.3,0.1,0.4,0.2s0.2,0.2,0.3,0.3c0.1,0.3,0.1,0.5,0,0.8s-0.1,0.5,0,0.8c0,0.2,0,0.3,0.1,0.5s0,0.3,0,0.5c0,0.2,0,0.3,0,0.5
		s0,0.3,0,0.5c0,0.1,0,0.1,0.1,0.2s0,0.1,0,0.2c0,0.1-0.1,0.2-0.2,0.3s-0.1,0.2-0.1,0.3c0,0.2,0,0.3,0.1,0.5s0.2,0.3,0.2,0.5
		c0,0.1,0,0.1,0,0.2s0,0.2,0,0.2c0,0.3,0,0.5,0,0.9s0,0.6,0.1,0.9c0,0.1,0,0.2,0,0.3s0,0.2,0,0.2c0,0.1,0,0.1-0.1,0.1
		s-0.1,0.1-0.1,0.1c0,0.1,0,0.1,0,0.2s0,0.2,0,0.3c0,0.1,0,0.2,0,0.2s0,0.1,0,0.2c0,0,0,0.1,0,0.1s0,0.1,0,0.1
		c0,0.1-0.1,0.2-0.2,0.3s-0.3,0.2-0.4,0.2c-0.1,0-0.2-0.1-0.3-0.2s-0.2-0.2-0.3-0.2c-0.1-0.1-0.2-0.3-0.2-0.5S272,90,272,89.8
		c0-0.1-0.1-0.1-0.1-0.2s-0.1-0.1-0.2-0.2c-0.1-0.1-0.1-0.3-0.1-0.4s0-0.3,0-0.4s0-0.3,0-0.4s0-0.3-0.1-0.4c0,0-0.1-0.1-0.1-0.1
		s-0.1-0.1-0.1-0.1c-0.1-0.1-0.1-0.2-0.1-0.3s-0.1-0.1-0.2-0.2c-0.4,0-0.8,0-1.2,0s-0.8,0-1.2,0c-0.1,0-0.2,0-0.2,0.1
		s-0.2,0-0.2,0.1c0,0-0.1,0-0.1,0s-0.1,0-0.1,0c-0.2,0-0.3,0.1-0.5,0.2s-0.3,0.2-0.4,0.4c0,0.1-0.1,0.2-0.1,0.3s0,0.2-0.1,0.3
		s-0.1,0.2-0.2,0.3s-0.1,0.2-0.1,0.3c-0.1,0.1-0.2,0.2-0.3,0.4s-0.2,0.3-0.3,0.4s-0.2,0.3-0.3,0.4s-0.2,0.2-0.4,0.3
		c-0.1,0-0.1,0.1-0.2,0.1s-0.1,0.1-0.2,0.1c-0.1,0-0.1,0-0.1-0.1s0-0.1-0.1-0.1s-0.2-0.1-0.3-0.2S264.1,90,264,90s-0.2-0.1-0.3-0.2
		s-0.1-0.1-0.2-0.2c-0.1-0.2-0.1-0.3-0.1-0.4s0.1-0.2,0.2-0.3c0.1-0.2,0.3-0.4,0.4-0.6s0.3-0.5,0.4-0.7c0.1-0.1,0.1-0.2,0.2-0.3
		s0.1-0.2,0.2-0.3c0.1-0.1,0.2-0.2,0.4-0.3s0.2-0.2,0.3-0.3c0-0.1,0-0.1,0-0.2s0-0.1,0-0.2c0.1-0.2,0.2-0.4,0.4-0.6s0.4-0.4,0.5-0.6
		c0-0.1,0-0.1,0-0.2s0-0.1,0-0.2c0.2-0.4,0.4-0.8,0.7-1.2S267.9,82.4,268.1,82z M270.6,82c-0.1,0.1-0.3,0.2-0.4,0.4
		s-0.2,0.2-0.4,0.3c0,0.1-0.1,0.2-0.2,0.3s-0.1,0.2-0.3,0.2c0,0.2-0.1,0.3-0.2,0.5s-0.2,0.3-0.3,0.4c0,0-0.1,0.1-0.1,0.1
		s-0.1,0.1-0.1,0.2c-0.1,0.1-0.1,0.1-0.2,0.1s-0.1,0.1-0.2,0.1c-0.1,0.1-0.1,0.2-0.2,0.4s-0.2,0.3-0.2,0.4c-0.1,0.1-0.1,0.1-0.2,0.2
		s-0.1,0.1-0.1,0.2c0,0.1,0.1,0.2,0.2,0.2s0.2,0,0.4,0.1s0.3,0,0.4,0s0.2,0,0.3,0c0.2,0,0.3,0,0.5,0s0.3,0,0.5,0s0.3,0,0.4-0.1
		s0.2-0.1,0.3-0.2c0.1-0.4,0.1-0.8,0.1-1.1s-0.1-0.8-0.2-1.1c0-0.1,0-0.2-0.1-0.4s0-0.2,0-0.4c0-0.1,0-0.2,0.1-0.3
		S270.7,82.2,270.6,82L270.6,82z"/>
	<path class="st0" d="M284.7,80.8c0,0.1,0,0.2-0.1,0.3s-0.2,0.1-0.3,0.2c0,0.1,0.1,0.1,0.1,0.1s0.1,0.1,0.1,0.1
		c-0.1,0.2-0.2,0.3-0.5,0.4s-0.4,0.2-0.7,0.2c-0.1,0-0.3,0-0.4,0s-0.3,0-0.4,0c-0.2,0-0.4-0.1-0.6-0.2s-0.3-0.1-0.5-0.1
		c0,0-0.1,0-0.1,0.1s-0.1,0.1-0.2,0.1c-0.1,0.1-0.3,0.1-0.4,0.2s-0.3,0.1-0.4,0.2c-0.3,0.2-0.5,0.3-0.8,0.6s-0.5,0.4-0.7,0.6
		c-0.1,0.2-0.2,0.4-0.3,0.6s-0.2,0.4-0.3,0.6c0,0.1-0.1,0.2-0.1,0.3s-0.1,0.2-0.1,0.3s0,0.2-0.1,0.4s0,0.3-0.1,0.4
		c0,0.1-0.1,0.2-0.1,0.2s-0.1,0.2-0.1,0.3c0,0.1,0.1,0.2,0.1,0.2s0.1,0.1,0.1,0.2c0,0,0,0.1,0,0.1s0,0.1,0,0.2
		c0,0.2,0.1,0.4,0.3,0.5s0.3,0.3,0.4,0.5c0.2,0,0.5,0.1,0.7,0.1s0.4,0.1,0.6,0.1c0.2-0.1,0.4-0.2,0.6-0.2s0.4-0.1,0.7-0.2
		c0.2-0.1,0.3-0.1,0.5-0.3s0.3-0.2,0.5-0.2c0,0,0.1,0,0.1,0s0.1,0,0.1,0c0.1,0,0.2,0,0.2-0.1s0.1-0.1,0.2-0.2s0.2-0.1,0.2-0.1
		s0.2,0,0.3,0c0.1,0.2,0.1,0.4,0.1,0.5s-0.2,0.2-0.3,0.3s-0.3,0.2-0.4,0.3s-0.2,0.3-0.2,0.5c-0.1,0.1-0.2,0.2-0.4,0.4
		s-0.3,0.2-0.5,0.3c-0.1,0-0.2,0-0.3,0.1s-0.2,0-0.2,0.1c-0.2,0.1-0.5,0.2-0.7,0.3s-0.5,0.2-0.8,0.1c-0.2,0-0.4,0-0.5-0.1
		c-0.1,0-0.2-0.1-0.4-0.1s-0.2-0.1-0.4-0.1c-0.2,0-0.3,0-0.5,0s-0.3,0-0.5,0s-0.3-0.1-0.4-0.2s-0.3-0.2-0.4-0.3
		c-0.2-0.1-0.3-0.2-0.4-0.2s-0.3-0.1-0.4-0.2c-0.2-0.1-0.3-0.2-0.4-0.4s-0.2-0.3-0.4-0.4c-0.1-0.2-0.1-0.5-0.1-0.7s0-0.5,0-0.7
		c0-0.2,0-0.4-0.1-0.7s-0.1-0.4-0.1-0.6c0-0.1,0.1-0.2,0.1-0.3s0.1-0.2,0.1-0.3c0-0.2,0-0.3,0.1-0.4s0.1-0.3,0.1-0.4
		c0-0.1,0.1-0.2,0.2-0.2s0.1-0.1,0.2-0.2s0.1-0.1,0.2-0.2s0.1-0.2,0.1-0.3c0.1-0.1,0.2-0.2,0.3-0.2s0.2-0.1,0.2-0.2
		c0-0.1,0.1-0.1,0.1-0.2s0-0.1,0.1-0.2c0.1-0.1,0.1-0.1,0.3-0.2s0.2-0.2,0.3-0.2c0.2-0.1,0.5-0.2,0.7-0.4s0.5-0.2,0.7-0.4
		c0.1,0,0.3,0,0.4-0.1s0.3-0.1,0.4-0.1s0.2-0.1,0.4-0.2s0.3-0.1,0.4-0.1c0.1,0,0.3,0,0.4,0s0.3,0,0.4,0c0.2,0,0.4,0,0.6,0
		s0.4,0,0.6,0c0.1,0,0.2,0,0.2,0.1s0.2,0.1,0.3,0.1c0.1,0,0.2,0,0.3-0.1s0.2-0.1,0.3-0.1c0.2,0,0.5,0,0.7,0S284.5,80.8,284.7,80.8z"
		/>
	<path class="st0" d="M296.2,80.4c0,0.4,0,0.8-0.1,1.1s-0.2,0.6-0.4,0.8c0,0.1-0.1,0.1-0.2,0.1s-0.1,0.1-0.1,0.1
		c-0.1,0.1-0.1,0.3-0.1,0.4s0,0.3-0.1,0.5c0,0.2,0,0.3-0.1,0.5s-0.1,0.3-0.1,0.4c0,0.1-0.1,0.2-0.1,0.2s-0.1,0.1-0.1,0.2
		s-0.1,0.1-0.1,0.2s0,0.2,0,0.3c0,0,0,0.1,0,0.2s0,0.1,0,0.1c0,0.3-0.1,0.6-0.2,0.9s-0.3,0.6-0.4,0.9c0,0.1-0.1,0.2-0.1,0.3
		s0,0.2,0,0.3c0,0.1,0,0.2-0.1,0.4s-0.1,0.3-0.1,0.5s-0.1,0.3-0.2,0.4s-0.1,0.2-0.2,0.3c0,0-0.1,0.1-0.2,0.1s-0.2,0.1-0.3,0.1
		s-0.2,0-0.3,0s-0.2,0-0.2-0.1c-0.1,0-0.2,0.1-0.2,0.3s-0.1,0.2-0.3,0.3c-0.1,0-0.2,0.1-0.4,0.1s-0.3,0-0.4,0s-0.1-0.1-0.2-0.1
		s-0.1-0.1-0.2-0.2c0-0.2,0-0.4,0-0.6s0.1-0.3,0.2-0.4c0-0.3,0-0.6,0.1-0.8s0.2-0.5,0.3-0.7c-0.1-0.1-0.1-0.2-0.1-0.4
		s0.1-0.3,0.1-0.4c0-0.1-0.1-0.2-0.1-0.3s-0.2-0.1-0.3-0.2s-0.3-0.1-0.4-0.1s-0.3,0-0.4-0.1c-0.2,0-0.4,0-0.5,0s-0.2,0-0.4,0
		c-0.2,0-0.4,0-0.5,0s-0.3,0-0.5,0s-0.3,0-0.5,0s-0.3,0.1-0.4,0.1c0,0.1,0,0.2-0.1,0.3s-0.1,0.2-0.1,0.2s-0.1,0.2-0.1,0.2
		s-0.1,0.2-0.1,0.3c0,0,0,0.1,0,0.1s0,0.1,0,0.1c0,0.2-0.1,0.4-0.3,0.6s-0.3,0.5-0.3,0.7c0,0.1-0.1,0.3-0.1,0.4s-0.1,0.2-0.2,0.3
		c-0.1,0-0.1,0.1-0.2,0.1s-0.1,0-0.2,0c-0.1,0-0.2,0.1-0.2,0.2s-0.1,0.1-0.2,0.1c0,0-0.1,0-0.2,0s-0.2,0-0.3,0s-0.2,0-0.2,0
		s-0.1,0-0.1,0c0-0.1,0-0.2,0-0.2s0-0.2,0-0.3c0.1-0.2,0.2-0.3,0.2-0.5s0.1-0.4,0.2-0.6s0.1-0.4,0.2-0.6s0.1-0.3,0.2-0.5
		c0-0.2,0-0.3,0.1-0.4s0.1-0.3,0.1-0.4s0.1-0.2,0.1-0.4s0-0.3,0-0.4c0-0.1-0.1-0.2-0.1-0.3s-0.2-0.2-0.2-0.3s-0.2-0.2-0.2-0.3
		s-0.1-0.2-0.1-0.3c0,0,0.1-0.1,0.2-0.1s0.2-0.1,0.3-0.1s0.2,0,0.3-0.1s0.2,0,0.2,0c0.1-0.1,0.2-0.3,0.2-0.5s0-0.4,0.1-0.5
		c0-0.1,0.1-0.2,0.1-0.4s0.1-0.2,0.1-0.4c0-0.1,0-0.2,0.1-0.3s0.1-0.2,0.1-0.3c0-0.2,0-0.3,0-0.4s0-0.3,0.1-0.4
		c0.2-0.1,0.4-0.2,0.7-0.3s0.5-0.1,0.7-0.1c0.1,0,0.2,0,0.2-0.1s0.1-0.1,0.2-0.1s0.1-0.1,0.2-0.1s0.1,0,0.2,0c0.1,0,0.1,0.1,0.2,0.1
		s0.1,0.1,0.1,0.2c0,0.1,0,0.2-0.1,0.2s-0.1,0.1-0.2,0.2c-0.1,0.1-0.1,0.3-0.1,0.5s-0.1,0.4-0.1,0.5c0,0-0.1,0.1-0.1,0.1
		s-0.1,0.1-0.1,0.1c0,0.1,0,0.2,0,0.3s0,0.2,0,0.4c0,0.2-0.1,0.3-0.3,0.5s-0.2,0.4-0.2,0.6c0.1,0.1,0.1,0.2,0.3,0.2s0.2,0.1,0.4,0.1
		c0.3,0.1,0.5,0.1,0.9,0.2s0.6,0.1,1,0.1c0.2,0,0.4,0,0.5,0s0.3,0,0.5,0.2c0.2-0.1,0.4-0.3,0.5-0.4s0.2-0.4,0.2-0.7
		c0.1-0.1,0.2-0.2,0.3-0.4s0.2-0.3,0.3-0.4c0-0.1,0-0.1-0.1-0.1s-0.1-0.1-0.1-0.2c0,0,0-0.1,0-0.1s0.1-0.1,0.1-0.1
		c0.1-0.3,0.1-0.5,0.1-0.8s0.1-0.5,0.2-0.8c0.2-0.2,0.5-0.3,0.8-0.4s0.7,0,1.1,0.1c0.2-0.1,0.3-0.2,0.5-0.3s0.3-0.2,0.5-0.3
		c0.1,0,0.1,0.1,0.2,0.1S296.2,80.3,296.2,80.4z"/>
</g>
<g>
	<path class="st0" d="M13.5,23.1c-0.2,0.8-0.5,1.6-0.8,2.4c-0.3,0.8-0.5,1.7-0.7,2.7c0,0.3,0,0.5,0,0.8c0,0.3,0.1,0.6,0.1,1
		c0,0.3,0,0.8-0.1,1.2c0,0.5-0.1,1,0,1.4c0,0.5,0.1,0.9,0.2,1.2c0.1,0.4,0.3,0.6,0.6,0.7c0.4,0.1,0.8,0.2,1.3,0.1
		c0.5-0.1,1-0.1,1.5-0.3c0.5-0.1,1.1-0.2,1.6-0.4c0.5-0.1,1.1-0.2,1.6-0.1c0.4,0,0.9,0.1,1.4,0.2c0.5,0.1,0.9,0.1,1.4,0.1
		c0.2,0,0.5-0.1,0.8-0.2c0.3-0.1,0.5-0.1,0.8-0.2c0.3,0,0.7,0,1.1,0c0.4,0,0.8,0,1.2,0c0.4-0.1,0.8-0.1,1.2-0.2
		c0.4-0.1,0.8-0.2,1.1-0.2c0.5,0,1,0,1.5,0.1c0.5,0.1,1,0.2,1.4,0.4c0.5,0.1,0.9,0.3,1.4,0.4s0.9,0.1,1.4,0.1c0.3,0,0.6-0.1,0.8-0.2
		c0.3-0.1,0.5,0,0.7,0.4c-0.1,0.3-0.2,0.6-0.4,0.8c-0.2,0.2-0.3,0.4-0.5,0.6c-0.7,0.3-1.4,0.4-2,0.4c-0.6,0-1.3,0-2,0.1
		c-0.9,0.1-2,0.3-3,0.6c-1.1,0.3-2.1,0.6-3,0.8c-0.5,0.2-1.1,0.3-1.6,0.5c-0.6,0.2-1.2,0.4-1.8,0.5c-0.8,0.3-1.5,0.5-2.2,0.7
		s-1.5,0.4-2.2,0.7c-0.8,0.3-1.5,0.7-2.2,1c-0.7,0.4-1.5,0.7-2.3,0.8c-0.5,0.2-1,0.3-1.5,0.4c-0.5,0.1-1,0.2-1.5,0.2
		c-0.4,0-0.8,0-1.1-0.1c-0.4-0.1-0.8-0.2-1.1-0.4c-0.4-0.2-0.7-0.3-1-0.6S4.9,41.3,4.7,41c-0.3,0.2-0.6,0.3-0.9,0.4s-0.6,0-0.8,0
		s-0.6-0.1-0.8-0.2S1.6,41,1.3,41c-0.2-0.3-0.3-0.5-0.5-0.8c-0.2-0.2-0.4-0.5-0.6-0.7c-0.1-0.6,0.1-1.2,0.4-1.7
		c0.3-0.5,0.6-1,0.8-1.6c0.3-0.8,0.6-1.5,0.9-2.4c0.3-0.8,0.5-1.6,0.7-2.5C2.9,30.8,3,30,3,29.1c0-0.9,0.1-1.7,0.4-2.3l2.1-5.3
		c-0.1-0.5-0.2-1-0.1-1.4c0-0.4,0.1-0.8,0.2-1.2c0.1-0.4,0.3-0.8,0.4-1.2c0.2-0.4,0.3-0.9,0.5-1.4c0.2-0.7,0.3-1.3,0.5-2
		c0.2-0.7,0.3-1.4,0.4-2.3c0.1-0.7,0.1-1.4,0.1-2.1c0-0.7-0.2-1.3-0.6-1.7C6.8,8,6.6,7.9,6.4,7.7C6.2,7.6,5.9,7.5,5.7,7.3
		C5.5,7.2,5.3,7,5.2,6.8C5,6.7,4.9,6.5,4.9,6.4C4.9,6.1,5,6,5.2,5.8C5.4,5.7,5.7,5.6,6,5.5c0.3-0.1,0.6-0.1,0.9-0.1
		c0.3,0,0.6,0,0.9,0c0.5,0,1.1,0.1,1.7,0.2c0.6,0.1,1.1,0.2,1.7,0.2c0.2,0,0.3,0,0.5,0c0.2,0,0.3,0,0.5,0c0.2,0,0.5,0.1,0.7,0.2
		c0.2,0.1,0.4,0.1,0.6,0.1c0.2,0,0.4,0,0.9,0S14.9,6,15,6c0.2,0,0.4,0,0.5,0.1c0.2,0.1,0.4,0.1,0.6,0.2c0.5,0.1,1,0.1,1.5,0
		c0.5-0.1,1.1-0.1,1.6-0.2c0.5-0.1,1-0.1,1.6-0.2c0.5,0,1.1,0,1.7,0.1c0,0.4-0.2,0.7-0.5,0.9c-0.3,0.2-0.6,0.4-0.8,0.5
		c-0.1,0.1-0.2,0.2-0.4,0.4c-0.1,0.1-0.2,0.2-0.4,0.3c-0.2,0.1-0.3,0.2-0.4,0.3c-0.1,0.1-0.3,0.2-0.4,0.3c-0.4,0.4-0.6,0.8-0.8,1.2
		c-0.2,0.4-0.4,0.9-0.6,1.4c-0.1,0.2-0.1,0.3-0.3,0.4c-0.1,0.1-0.2,0.3-0.3,0.4c-0.1,0.2-0.1,0.4-0.2,0.6c0,0.2-0.1,0.4-0.2,0.6
		c-0.1,0.2-0.3,0.4-0.5,0.5s-0.4,0.3-0.6,0.6c0.1,0.4,0.2,0.7,0.1,1.1c-0.1,0.4-0.1,0.7-0.3,1c-0.1,0.3-0.2,0.7-0.4,1
		c-0.2,0.3-0.3,0.6-0.3,1L13.5,23.1z"/>
	<path class="st0" d="M48.9,9.2H49l0.2,0.2v0.2c-0.7,0.8-2.2,3.2-4.5,6.9H45l3.5-1l0.2,0.2c0.5-0.4,1.3-0.7,2.4-0.7v0.3
		c-0.2,0.8-0.7,1.7-1.7,2.7c-1.1,1.5-1.8,2.2-1.9,2.2c-0.7,1-2,2.4-3.9,4.4v0.1l2.2-0.5l0.2,0.2l0.6-0.3l0.2,0.4L46,25.5h0.1
		c0.4-0.3,0.7-0.8,0.8-1.5h0.8l0.4,0.3c-0.4,1.3-1.3,3.2-2.7,5.7l-3,4.9c-0.7,0.8-2,2.7-4.1,5.9c-1,1.3-1.9,2.7-2.6,4.2
		c-0.2,0-0.7,0.9-1.5,2.6c-0.4,1.1-0.7,1.7-0.9,1.7l0.1,0.1v0.1l-0.1,0.1h-0.8L32,49.2l0.3-0.1V49c-0.2,0-0.3-0.1-0.3-0.2l0.1-0.1
		l0.1,0.1h0.2c0-0.1-0.1-0.2-0.3-0.2L32,48.5v-0.1l0.1-0.1L32,48.2h-0.1l0.2-0.3L32,47.8v-0.2l0.2-0.2h0.1l0.4,0.3l0.1-0.6L32.5,47
		l0.3-0.5l0.1,0.1h0.2v-0.4h-0.3v-0.2l0.5,0.1l0.1-0.5l-0.2-0.3v-0.8c0.1-0.1,0.2-0.5,0.3-1c0.4-0.5,0.7-0.9,0.7-1.4
		c0.2,0,0.4-1.4,0.8-4.2c0.2-1.6,0.4-2.4,0.6-2.4l0.1,0.1l-0.8,4.4v0.1H35c0.4-1.7,0.8-2.5,1-2.5v-0.3c0.4-1.6,0.8-2.9,1.2-3.8h0.1
		l0.1,0.1h0.1l0.1-0.3l-0.1-0.6l0.5-0.8L37.9,32l0.1-0.1h0.1L38,31.4v-0.2l0.1-0.1l-0.2-0.3c-0.4,0-0.7,0.2-1,0.5
		c0-0.2-0.1-0.2-0.4-0.3l-1.7,0.3l-0.2-0.3c1.7-3.6,3-6,3.8-7.1l0.6-1.2h-0.1l-0.9,0.4L37.8,23v-0.1L33.1,24h-0.5v-0.2
		c0.4-1,0.7-1.6,0.8-1.6l-0.1-0.1c0.4-1.1,1.2-3.1,2.5-5.8c0.4-1.2,0.8-2.1,1.2-2.6c0-0.4,0.2-0.7,0.6-0.7l-0.2-0.3
		c0.3-0.2,0.5-0.6,0.7-1.1l0.5-0.1c0,0.3-0.2,0.8-0.8,1.6v0.1H38l0.9-1.7l3.5-0.7h0.3c0.2-0.2,0.8-0.4,1.8-0.6l0.1,0.1h0.1
		c0.8-0.3,1.5-0.5,2.2-0.5v0.2h0.3V9.8h0.3L48.9,9.2z M32.4,46.9L32.4,46.9l0.1,0.4h-0.1l-0.2-0.2L32.4,46.9z M32.4,48L32.4,48
		l0.2,0.1v-0.3L32.4,48z M32.4,48.3L32.4,48.3l0.2,0.1v-0.1H32.4z M32.4,48.5L32.4,48.5l0.2,0.1v-0.1H32.4z M33.5,23.1v0.2h0.2
		L33.5,23.1z M33.6,46.3l-0.1,0.4l0.1,0.1h0.1L33.6,46.3L33.6,46.3z M34.5,22.7L34.5,22.7L34.5,22.7c0.1-0.1,0.3-0.5,0.8-1v-0.2
		C35.2,21.6,34.9,22,34.5,22.7z M34.8,40.2v0.3h0.1L34.8,40.2L34.8,40.2z M35.4,22.5L35.4,22.5l0.8-0.8v-0.1L35.4,22.5z M35.4,35.2
		h0.2v0.2h-0.2V35.2z M36.4,28.6c-0.6,1.1-0.8,1.8-0.8,2l0.5-0.2V30C36,29.7,36.2,29.3,36.4,28.6L36.4,28.6L36.4,28.6z M35.7,38.8
		V39h0.1L35.7,38.8L35.7,38.8z M36.2,37.5L35.9,38v0.1l0.3,0.1V37.5L36.2,37.5L36.2,37.5z M36.6,32.6L36.6,32.6l0.1,0.3l-0.1,0.4
		l0.1,0.3l-0.4,0.8l0.1,0.3l-0.3,0.2L36,34.8l0.1-0.1v-0.9l0.4-0.1l-0.1-0.4L36.6,32.6z M36.1,17.3L36.1,17.3L36.1,17.3
		c0.1-0.1,0.4-0.6,0.9-1.4c0.2-0.8,0.3-1.3,0.5-1.5v-0.1h-0.1C37.2,14.4,36.8,15.4,36.1,17.3z M36.2,20.6l0.6-0.7v-0.1
		C36.4,20.1,36.2,20.4,36.2,20.6z M38.5,27.2c-0.4,0.9-0.8,1.4-0.9,1.5c-0.6,0.8-0.9,1.4-0.9,1.6v0.1h0.3c0-0.3,0.6-1.2,1.7-2.7
		L38.5,27.2L38.5,27.2z M37,27.5L37,27.5L37,27.5c0.1-0.2,1.1-1.9,3.1-5.2v-0.2C39.5,22.8,38.5,24.6,37,27.5z M37.1,19.7
		c0.2-0.1,0.9-0.9,1.9-2.2v-0.1h-0.1c-0.4,0-0.7,0.3-1.1,1C37.6,18.5,37.3,18.9,37.1,19.7z M37.2,36.1l-0.1,0.4
		C37.3,36.5,37.3,36.4,37.2,36.1L37.2,36.1L37.2,36.1z M37.2,22.2L37.2,22.2c2-2.2,3.5-3.5,4.4-4l0.1-0.1V18l-0.1-0.1h-0.1
		C39.2,19.9,37.8,21.4,37.2,22.2z M37.3,33.8V34h0.1L37.3,33.8L37.3,33.8z M37.7,17.3l-0.2,0.4v0.1C37.7,17.7,37.8,17.6,37.7,17.3
		L37.7,17.3L37.7,17.3z M38.3,29.1l-0.7,1.2h0.2c0.1,0,0.2-0.3,0.5-1V29.1L38.3,29.1L38.3,29.1z M37.6,40.5L37.6,40.5
		c0.1,0.1,0.4-0.3,0.8-1v-0.1L37.6,40.5z M38,13.3L38,13.3L38,13.3h0.4v-0.2L38,13.3z M38.2,19.5L38.2,19.5l1.3-1.3h-0.1L38.2,19.5z
		 M38.2,32.6v0.3l0.2-0.2v-0.1H38.2z M40.4,12L40.4,12l0.1,0.2L40,12.7h0.3v0.1l-2,3.5v0.1h0.1l2.7-4.5h-0.5L40.4,12z M39.6,20.6
		L38.4,22v0.1L39.6,20.6L39.6,20.6z M38.5,25.9l-0.2,0.5v0.1h0.1L38.5,25.9L38.5,25.9L38.5,25.9z M38.4,32v0.3l0.3-0.3H38.4z
		 M38.5,13.1L38.5,13.1c0.7-0.1,1-0.4,1-0.8h-0.1C38.9,12.3,38.5,12.6,38.5,13.1z M38.5,28.6v0.2h0.1L38.5,28.6L38.5,28.6z
		 M39.1,38.2l-0.4,0.8V39h0.1L39.1,38.2L39.1,38.2L39.1,38.2z M38.8,25.3v0.2H39v-0.2H38.8z M38.8,31.1v0.2h0.1L38.8,31.1L38.8,31.1
		z M39,29.9v0.2h0.1l1.7-2.7v-0.1h-0.1C40.1,27.8,39.6,28.7,39,29.9z M40.3,22.8L39.2,25c0.4-0.5,0.9-1.2,1.3-2.2H40.3z M39.5,16.1
		c1.1-1.2,1.7-2.1,1.7-2.5l0.6-0.5h0.1l-0.1-0.1V13c0.6-0.5,0.8-0.9,0.8-1v-0.2c0.2,0,0.3-0.1,0.3-0.2v-0.2h-0.1
		c-0.6,0.3-1.1,1-1.5,1.9C40.7,13.8,40.1,14.8,39.5,16.1z M39.7,13.2l-0.1,0.3v0.1h0.1V13.2L39.7,13.2L39.7,13.2z M39.9,20.3
		L39.9,20.3L39.9,20.3l1.4-1.2h-0.1L39.9,20.3z M43.1,1.4c0.9,0.1,1.6,0.3,2,0.6c0.9,0.6,1.4,1.4,1.4,2.2l-0.1,0.1v0.1l0.3,0.3
		c0,0.6-0.6,1.6-1.8,3l-1.4,0.6h-0.8c-0.9,0-1.6-0.6-2.1-1.7c-0.4-0.2-0.7-0.8-0.7-1.6c0-1.3,0.7-2.4,2.1-3.4L43.1,1.4z M39.9,25.7
		c0.1,0,0.2-0.2,0.4-0.7C40.2,25.1,40.1,25.3,39.9,25.7z M40.2,21L40.2,21c0.8-0.6,1.2-1,1.2-1.3C40.7,20.4,40.3,20.8,40.2,21z
		 M40.4,24.9L40.4,24.9L40.4,24.9l0.6-0.7h-0.1C40.6,24.3,40.4,24.5,40.4,24.9z M41.1,32.7l-0.5,0.9v0.1h0.1L41.1,32.7L41.1,32.7
		L41.1,32.7z M40.8,21.9L40.8,21.9L40.8,21.9c0.1-0.1,0.3-0.4,0.7-0.8V21C41,21.4,40.8,21.7,40.8,21.9z M44.3,11.6L44.3,11.6
		l-0.1-0.2l0.1-0.3h-0.1l-0.8,0.7v0.9c-1,1.2-1.8,2.4-2.4,3.5h0.1c0.1,0,0.2-0.2,0.5-0.8c0.2,0,0.5-0.2,0.8-0.6l0.1,0.1V15l-0.3,0.3
		l0.1,0.1c0.2,0,0.4-0.3,0.7-0.9c0.3,0,0.5-0.3,0.8-0.9l1.6-2c0.2,0,0.3-0.3,0.6-0.8h-0.1c-0.3,0-0.7,0.2-1.2,0.8L44.3,11.6z
		 M45.9,27.3c-0.2,0.7-0.8,1.6-1.7,2.8l-1.5,2.4l-1.8,3v0.1h0.1l2.9-4.5l1.6-2.6c0.1,0,0.2-0.2,0.4-0.5L45.9,28h-0.1L45.9,27.3
		L45.9,27.3L45.9,27.3z M41.6,3.7l-0.5,1.2V5h0.1L41.6,3.7L41.6,3.7L41.6,3.7z M41.6,22.3l-0.4,0.6V23L41.6,22.3L41.6,22.3
		L41.6,22.3z M41.3,26.6h0.2v-0.2L41.3,26.6z M41.3,27.8V28h0.1L41.3,27.8L41.3,27.8z M41.5,2.9l-0.2,0.2v0.2L41.5,2.9L41.5,2.9
		L41.5,2.9z M41.4,5.9L41.4,5.9l-0.1,0.7c0.2-0.1,0.3-0.2,0.3-0.6L41.4,5.9L41.4,5.9z M41.4,23.4v0.2l0.2-0.2H41.4z M41.5,15.7
		L41.5,15.7l0.2,0.1v-0.1H41.5z M41.5,30.8L41.5,30.8L41.5,30.8l2.8-3.7V27c-1.6,1.5-2.5,2.7-2.6,3.5C41.6,30.5,41.5,30.6,41.5,30.8
		z M41.6,6.8v0.3c0.1,0.2,0.3,0.4,0.6,0.4V7.3C42.2,7,42,6.8,41.6,6.8z M41.7,22.1L41.7,22.1c0.5,0.1,1-0.6,1.6-2
		c-0.5,0.3-0.9,0.7-1.1,1.2L41.7,22.1z M42.1,27.7l-0.3,0.5h0.1L42.1,27.7L42.1,27.7L42.1,27.7z M41.9,26.6v0.2h0.2
		c0-0.2,0.2-0.4,0.5-0.8h-0.1C42.3,26.1,42.1,26.2,41.9,26.6z M42.1,3.1c0.3,0,0.5-0.2,0.7-0.6V2.5C42.6,2.5,42.3,2.7,42.1,3.1z
		 M42.2,5.6L42.2,5.6L42.2,5.6l1-2.1h-0.1C42.5,4.6,42.2,5.2,42.2,5.6z M42.5,16.1l0.3,0.3c0.1,0,0.2-0.2,0.2-0.5l0.3-0.3v-0.1
		C43,15.5,42.7,15.7,42.5,16.1z M43.1,5.9l-0.6,1.2h0.1C42.8,7.1,43,6.8,43.1,5.9L43.1,5.9L43.1,5.9z M42.8,7.5L42.8,7.5l0.2,0.1
		V7.3L42.8,7.5z M42.9,26.3H43l0.3-0.3v-0.1h-0.1L42.9,26.3z M43.6,3.8L43,4.9V5h0.1L43.6,3.8L43.6,3.8L43.6,3.8z M43.4,17.2
		c0,0.2-0.1,0.4-0.3,0.7v0.1c0.4-0.2,0.6-0.3,0.7-0.5L43.4,17.2z M45.1,3c-0.7,1.3-1.2,2.5-1.6,3.6v0.1h0.1c0.5-1.3,1.1-2.3,1.7-3.1
		l0.1,0.1V4c-0.3,0.4-0.7,1.2-1.1,2.3l0.3-0.2h0.1v0.1l-1.4,1.4h0.1c1-0.3,1.5-0.6,1.5-0.9L45,6.1L44.9,6V5.9L45.5,5l-0.3-0.2
		c0.1-0.2,0.2-0.4,0.5-0.6h0.1l-0.3,1.6c0.2,0,0.3-0.4,0.5-1.3c-0.1-1-0.3-1.5-0.7-1.5H45.1z M43.2,15.3L43.2,15.3l0.2,0.1v-0.3
		L43.2,15.3z M43.3,2.9l0.3,0.2V3l-0.1-0.3l0.2-0.2V2.5h-0.1C43.5,2.5,43.4,2.6,43.3,2.9z M43.4,5.3L43.4,5.3L43.4,5.3l1.3-2.3
		C44.6,3,44.2,3.8,43.4,5.3z M43.4,16v0.2h0.2v-0.4L43.4,16z M43.7,14.6v0.2l0.2-0.2H43.7z M43.9,3.4c0.2-0.1,0.3-0.2,0.3-0.6
		C44,2.9,43.9,3.1,43.9,3.4z M43.9,23.2L43.9,23.2l0.8-0.9v-0.1L43.9,23.2z M44,15.2v0.3h0.1L44,15.2L44,15.2z M44.1,21.3l0.5-0.7
		v-0.1C44.2,20.7,44.1,21,44.1,21.3z M44.5,17.3l0.2,0.2l0.1-0.1v-0.1H44.5z M44.6,14.3l0.2,0.2h0.1L44.6,14.3L44.6,14.3z M45,15.4
		L45,15.4l0.2-0.1v-0.1L45,15.4z M45,17.2h0.3V17h-0.1L45,17.2z M45.2,6.1v0.2h0.1L45.2,6.1L45.2,6.1z M45.2,19L45.2,19
		c0.2,0.1,0.4-0.2,0.8-0.7v-0.1h-0.1L45.2,19z M45.2,25.5L45.2,25.5l0.5-0.4v-0.1C45.5,25.1,45.3,25.3,45.2,25.5z M45.3,21.5
		L45.3,21.5l0.8-0.9v-0.1L45.3,21.5z M45.4,12.7L45.4,12.7l0.2,0.1v-0.1H45.4z M45.4,25.8L45.4,25.8l0.2,0.1v-0.1H45.4z M45.9,19.1
		v0.2c0.6-0.4,0.9-0.7,0.9-0.8v-0.1C46.4,18.9,46.1,19.1,45.9,19.1z M46.1,11.3h0.2v-0.2L46.1,11.3z M46.5,10.7L46.5,10.7l-0.1,0.2
		h0.1V10.7L46.5,10.7L46.5,10.7z M46.5,20L46.5,20l0.5-0.4v-0.1h-0.1L46.5,20z M47,18.3L47,18.3l0.5-0.4h-0.1L47,18.3z M47.4,10.3
		L47.4,10.3l0.3,0.2l-0.1,0.1v0.2h0.1l0.4-0.8H48L47.4,10.3z M47.7,18.6v0.2h0.1L47.7,18.6L47.7,18.6z M47.8,17.6H48v-0.2L47.8,17.6
		z M48.7,17.6L48.7,17.6c0.1,0.1,0.4-0.2,0.8-0.8v-0.1L48.7,17.6z"/>
	<path class="st0" d="M65,15.6c-0.2,0.1-0.3,0.1-0.6,0.1c-0.2,0-0.4,0.1-0.6,0.2c-0.1,0.3-0.1,0.5-0.2,0.8c0,0.3,0,0.5,0,0.8
		c-0.3,0.7-0.7,1.4-1.1,2.2c-0.5,0.7-0.9,1.4-1.3,1.9c-0.3,1.1-0.6,2.2-0.9,3.1c-0.3,1-0.4,2.1-0.4,3.5c-0.1,0.2-0.1,0.3-0.2,0.5
		c-0.1,0.2-0.1,0.4-0.1,0.7c0,0.2,0.1,0.4,0.2,0.5c0.1,0.2,0.2,0.3,0.2,0.5c0.1,0.3,0,0.6-0.1,0.8s-0.2,0.6-0.2,0.8
		c0,0.2,0,0.4,0.1,0.6c0.1,0.2,0.1,0.3,0,0.6c0.4,0.4,0.8,0.8,1.2,1c0.4,0.3,0.8,0.6,1.1,1.2c0.1,0,0.2,0.1,0.4,0.2
		c0.2,0.1,0.4,0.3,0.7,0.4c0.2,0.1,0.5,0.3,0.8,0.4c0.3,0.1,0.6,0.2,0.8,0.3c0.4,0,0.7,0,1,0s0.7-0.1,1.2-0.2
		c1.4-0.2,2.6-0.6,3.7-1.3c1.1-0.7,1.9-1.5,2.5-2.3c0-0.6,0.1-1.2,0.2-1.6c0.1-0.4,0.3-0.9,0.6-1.3c0.2-0.2,0.3-0.5,0.5-0.6
		c0.2-0.2,0.3-0.4,0.3-0.8c0-0.2,0-0.4,0-0.6c0-0.2,0-0.5,0-0.7c0-0.2,0-0.5-0.2-0.7c-0.2-0.2-0.3-0.4-0.3-0.6
		c-0.1-0.2-0.3-0.5-0.7-0.8c-0.4-0.3-0.7-0.6-1-0.8c-0.2-0.2-0.5-0.3-0.7-0.5c-0.3-0.2-0.4-0.4-0.6-0.6s-0.2-0.4-0.2-0.6
		c0-0.2,0.2-0.4,0.6-0.5c0.7,0,1.4,0.1,2.1,0.2s1.5,0.2,2.3,0.3c0.8,0.1,1.6,0.1,2.4,0.2c0.8,0.1,1.5,0.1,2.2,0c0.4,0,0.8-0.1,1-0.1
		c0.2,0,0.5-0.1,0.7-0.1s0.4-0.1,0.6-0.2c0.2-0.1,0.6-0.1,1-0.2c0.2,0,0.5,0,0.6,0c0.2,0,0.3,0,0.5,0c0.2-0.1,0.4-0.1,0.7-0.3
		c0.2-0.1,0.5-0.2,0.7-0.2c0.3,0,0.6,0,0.8,0c0.2,0,0.5,0.1,0.7,0.1c0.2,0.1,0.4,0.1,0.7,0.2c0.2,0.1,0.5,0.1,0.9,0.1
		c0.6,0.1,1,0.1,1.3,0.2c0.3,0.1,0.4,0.3,0.4,0.8c0,0.3-0.1,0.5-0.3,0.6c-0.2,0.1-0.5,0.2-0.8,0.3c-0.3,0-0.6,0.1-0.9,0.1
		c-0.3,0-0.6,0-0.9,0.1c-0.3,0.1-0.5,0.1-0.7,0.2c-0.2,0.1-0.3,0.2-0.4,0.3s-0.2,0.2-0.3,0.3c-0.1,0.1-0.2,0.2-0.4,0.3
		c-0.2,0.1-0.4,0.1-0.5,0.2c-0.2,0.1-0.3,0.1-0.5,0.2c-0.4,0.2-0.7,0.4-0.8,0.8c-0.2,0.3-0.4,0.7-0.6,1.1c-0.3,0.3-0.4,0.5-0.4,0.7
		c0,0.2-0.1,0.4-0.3,0.7c-0.3,0.5-0.6,1.1-0.9,1.8s-0.5,1.4-0.8,2c-0.4,1-0.6,2.1-0.8,3.3c-0.1,1.1-0.3,2.2-0.6,3.3
		c-0.1,0.3-0.1,0.7-0.2,1.1c0,0.4-0.1,0.8-0.1,1.1c-0.1,0.2-0.2,0.5-0.3,0.8c-0.1,0.3-0.2,0.5-0.2,0.8c-0.1,0.3-0.1,0.6,0,0.8
		c0,0.3,0,0.5-0.1,0.8c-0.2,0.1-0.3,0.1-0.5,0.2c-0.2,0.1-0.3,0.2-0.4,0.3c-0.2,0.2-0.2,0.6-0.2,1s-0.1,0.8-0.3,1.1
		c-0.1,0.2-0.3,0.3-0.6,0.4c-0.3,0.1-0.5,0.2-0.7,0.3c-0.3,0.1-0.5,0-0.8,0c-0.3-0.1-0.6-0.1-1-0.1c-0.4,0-0.8,0.2-1.1,0.5
		c-0.3,0.3-0.7,0.5-1.1,0.8c-0.3,0.2-0.6,0.3-1.1,0.4c-0.5,0.1-0.8,0.3-1.1,0.4c-0.2,0.1-0.4,0.2-0.6,0.4c-0.2,0.1-0.4,0.2-0.6,0.3
		s-0.4,0.1-0.6,0s-0.4-0.2-0.6-0.4c-0.2-0.5-0.2-1,0-1.4s0.3-0.7,0.6-1s0.5-0.6,0.7-0.9c0.2-0.3,0.4-0.7,0.6-1.1
		c0.2-0.5,0.3-1,0.3-1.5s0.1-0.9,0.3-1.3c0.2-0.5,0.6-1,0.9-1.5s0.6-1,0.8-1.5c-0.5,0.2-1.1,0.5-1.7,0.8s-1.3,0.5-2.1,0.6
		c-0.1,0-0.3,0-0.4,0c-0.1,0-0.3,0-0.4,0c-0.3,0.1-0.5,0.1-0.8,0.2c-0.3,0.1-0.5,0.1-0.8,0.2c-0.3,0-0.6,0-0.8,0
		c-0.2,0-0.4-0.1-0.7-0.1c-0.7,0-1.2,0.1-1.7,0.2c-0.4,0.1-1,0.1-1.5,0c-0.3-0.1-0.7-0.2-1.1-0.4c-0.4-0.2-0.8-0.4-1.1-0.5
		s-0.8-0.3-1.2-0.4c-0.4-0.1-0.8-0.3-1.1-0.4c-0.5-0.2-1.1-0.5-1.6-0.9c-0.5-0.3-1.1-0.6-1.7-0.8c-0.6-0.8-1.2-1.8-1.8-3
		c-0.6-1.2-1-2.3-1.1-3.5c0-0.3,0-0.6,0-0.9c0-0.3,0-0.6,0-0.9c-0.1-0.2-0.1-0.3-0.3-0.5c-0.1-0.2-0.2-0.3-0.3-0.5
		c-0.1-0.2-0.2-0.5-0.3-0.9c-0.1-0.4-0.1-0.8-0.2-1.1c-0.2-1.3-0.1-2.6,0-3.9c0.2-1.3,0.5-2.5,0.9-3.5c0-0.1,0.1-0.2,0.2-0.3
		c0.1-0.1,0.2-0.2,0.2-0.3c0.1-0.2,0.1-0.3,0.1-0.4s0-0.3,0.1-0.4c0.2-0.3,0.3-0.7,0.5-1.1c0.1-0.4,0.3-0.8,0.6-1.1
		c0.2-0.5,0.5-1,0.8-1.5c0.2-0.5,0.5-0.9,0.9-1.1c0.2-0.1,0.4-0.2,0.7-0.3s0.5-0.2,0.7-0.3c0.2-0.1,0.4-0.2,0.6-0.4
		c0.2-0.2,0.3-0.4,0.4-0.7c0-0.2,0-0.4-0.1-0.5c-0.1-0.2-0.1-0.3,0-0.5c1-1.2,2.2-2.2,3.8-3c0.2-0.1,0.3-0.1,0.5-0.2
		c0.2-0.1,0.3-0.1,0.5-0.2c0.2-0.1,0.4-0.3,0.6-0.4c0.2-0.2,0.4-0.3,0.7-0.3c0.5-0.2,1.1-0.3,1.7-0.4c0.6-0.1,1.2-0.3,1.8-0.4
		c0.2,0,0.4-0.1,0.7-0.1c0.2,0,0.4-0.1,0.6-0.2c0.3,0,0.8,0,1.3,0c0.6,0,1.2,0,1.8,0.1c0.6,0,1.3,0.1,1.9,0.1c0.6,0,1.1,0,1.4-0.1
		c0.2-0.1,0.4-0.1,0.6-0.2c0.2-0.1,0.4-0.2,0.7-0.2c0.5,0,1,0,1.3,0.1c0.4,0.1,0.9,0.1,1.5,0.2c0.4,0,0.8,0.1,1.2,0.1
		c0.4,0.1,0.8,0.1,1.2,0.1c0.5,0,1.1,0,1.6,0c0.6,0,1.1,0,1.6,0c0.5,0,1.1,0,1.6,0.1c0.5,0.1,1,0.1,1.4,0c0.3-0.1,0.5-0.2,0.8-0.3
		c0.2-0.1,0.5-0.2,0.8-0.1c0.2,0.1,0.5,0.2,0.8,0.4c0.3,0.2,0.4,0.5,0.4,0.7c0,0.3-0.2,0.6-0.6,0.9c-0.4,0.3-0.8,0.6-1.1,0.7
		c-0.9,0.4-1.9,0.7-3,0.9c-1.1,0.2-2.2,0.4-3.5,0.4c-0.4,0-0.8,0-1.2,0c-0.4,0-0.8,0-1.1,0.1c-0.2,0.1-0.4,0.1-0.5,0.2
		c-0.2,0.1-0.3,0.1-0.5,0.2c-0.4,0.1-0.9,0.2-1.4,0.2c-0.5,0-1,0-1.4,0.1c-0.9,0.1-1.9,0.2-3,0.4c-1.1,0.2-1.9,0.5-2.5,1
		c-0.2,0.1-0.4,0.3-0.7,0.4c-0.3,0.1-0.6,0.3-0.8,0.4s-0.6,0.3-0.8,0.4c-0.3,0.1-0.5,0.3-0.6,0.4c-0.4,0.4-0.7,0.7-1,1
		C65.3,14.5,65.1,15,65,15.6z"/>
	<path class="st0" d="M107.9,5c0,0.2-0.1,0.4-0.2,0.6c-0.1,0.2-0.3,0.3-0.4,0.5c-0.2,0.1-0.3,0.3-0.5,0.4c-0.2,0.2-0.3,0.3-0.4,0.5
		c0,0.1,0,0.2,0,0.3c0,0.1,0,0.3-0.1,0.4c-0.2,0.4-0.4,0.9-0.7,1.4s-0.5,1-0.8,1.6c-0.1,0.3-0.2,0.5-0.3,0.8
		c-0.1,0.3-0.2,0.5-0.4,0.8c-0.1,0.3-0.3,0.5-0.4,0.8c-0.2,0.3-0.3,0.5-0.3,0.7c0,0.2,0,0.3,0.1,0.4c0.1,0.1,0.1,0.3,0.1,0.4
		c-0.1,0.3-0.2,0.6-0.3,1c-0.1,0.3-0.2,0.7-0.3,1c-0.1,0.4-0.1,0.8-0.2,1.1c0,0.4-0.1,0.7-0.2,1c-0.2,0.4-0.3,0.9-0.5,1.5
		c-0.2,0.6-0.3,1.2-0.4,1.8c1.1,0,2.1-0.1,3.2-0.4c1-0.3,2-0.6,2.9-0.9c0.2,0.1,0.5,0.1,1,0.1c0.4,0,0.9,0,1.4,0c0.5,0,1,0,1.5,0
		c0.5,0,0.9-0.1,1.3-0.1c0.4,0,0.8-0.1,1.4-0.3c0.5-0.1,0.9-0.3,1-0.5c0.2-0.3,0.4-0.8,0.5-1.5s0.2-1.3,0.4-1.9
		c0.2-0.5,0.3-1,0.6-1.5c0.2-0.5,0.4-1,0.5-1.5c0.1-0.2,0.1-0.4,0.1-0.6c0-0.2,0-0.4,0.1-0.6c0.2-0.5,0.4-1,0.7-1.5
		c0.3-0.5,0.5-0.9,0.6-1.3c0.1-0.3,0.2-0.7,0.2-1.1s0.1-0.7,0.1-1.1c0-0.3,0.1-0.7,0.2-1c0.1-0.3,0.2-0.6,0.4-0.8
		c0.1-0.1,0.2-0.1,0.4-0.2c0.1-0.1,0.2-0.2,0.4-0.3c0.4,0.1,0.8,0.2,1.1,0.2s0.6,0,0.9-0.1s0.6-0.1,0.9-0.2s0.6-0.2,1-0.3
		c0.3,0.3,0.5,0.5,0.7,0.8c0.2,0.3,0.5,0.5,0.9,0.5c0.2,0,0.4-0.1,0.6-0.2c0.2-0.1,0.4-0.2,0.7-0.3c0.4-0.1,1-0.3,1.6-0.4
		c0.6-0.2,1.2-0.3,1.7-0.3c0.5,0,1,0,1.5,0.1c0.4,0.1,0.9,0.1,1.5-0.1c0.1,0.1,0.2,0.3,0.3,0.4c0.1,0.2,0.1,0.4,0,0.7
		c-0.3,0.3-0.6,0.5-1,0.6c-0.3,0.2-0.7,0.3-1,0.5c-0.3,0.2-0.6,0.4-0.9,0.5s-0.6,0.4-0.8,0.7c-0.4,0.5-0.8,1.1-1.1,1.8
		c-0.3,0.7-0.6,1.3-1,2c-0.1,0.2-0.3,0.4-0.4,0.6c-0.2,0.2-0.3,0.4-0.3,0.5c-0.2,0.5-0.3,1-0.4,1.5c-0.1,0.5-0.2,1.1-0.3,1.6
		c-0.1,0.5-0.3,1-0.4,1.5c-0.2,0.5-0.3,1-0.3,1.5c0.4,0.2,0.8,0.2,1.2,0.1c0.4-0.1,0.8-0.1,1.3-0.1c0.2,0,0.5,0.1,0.8,0.1
		c0.2,0.1,0.5,0.1,0.8,0.1c0.5,0,0.9,0,1.3,0s0.8-0.1,1.2,0c0.2,0,0.4,0,0.6,0c0.2,0,0.5,0.1,0.7,0.1c0.2,0.1,0.4,0.1,0.6,0.3
		c0.2,0.1,0.3,0.3,0.3,0.4c0,0.3-0.2,0.5-0.6,0.8c-0.4,0.3-0.8,0.5-1.1,0.6c-0.5,0.3-1,0.4-1.5,0.4c-0.5,0-1.1,0.1-1.8,0.3
		c-0.4,0.1-0.8,0.2-1.1,0.5c-0.3,0.3-0.8,0.4-1.3,0.5s-1,0.1-1.4,0.2c-0.4,0-0.9,0.1-1.5,0.1c-0.6,0.8-1,1.8-1.2,2.8
		s-0.4,2.2-0.5,3.3c-0.1,0.8-0.3,1.6-0.5,2.5c-0.2,0.8-0.4,1.6-0.7,2.3c-0.1,0.4-0.3,0.8-0.5,1.1s-0.5,0.7-0.8,1.2
		c-0.2,0.3-0.3,0.7-0.4,1c-0.1,0.3-0.3,0.6-0.4,0.8c-0.2,0.3-0.6,0.4-1,0.6c-0.4,0.1-0.8,0.3-1.1,0.5c-0.4,0.3-0.7,0.6-0.9,0.9
		s-0.6,0.6-1,0.8c-0.3,0-0.6,0-0.8,0c-0.2,0-0.4,0-0.5,0c-0.2,0-0.3-0.1-0.4-0.2s-0.3-0.2-0.5-0.4c-0.1-0.2-0.1-0.4,0-0.5
		c0-0.1,0-0.3,0-0.5c-0.2-0.1-0.3,0-0.4,0.2c-0.1,0.2-0.3,0.3-0.5,0.3c-0.3,0-0.5-0.1-0.8-0.4c-0.3-0.3-0.4-0.6-0.3-0.9
		c0-0.2,0.1-0.5,0.2-0.8c0.1-0.3,0.2-0.6,0.3-1c0.1-0.3,0.1-0.6,0.2-0.9s0.1-0.6,0.2-0.9c0.1-0.2,0.1-0.3,0.2-0.5
		c0.1-0.2,0.2-0.3,0.2-0.5c0.1-0.5,0.1-1,0.1-1.4c0-0.5,0-0.9,0.1-1.3c0.1-0.2,0.1-0.3,0.2-0.4c0.1-0.1,0.1-0.3,0.2-0.4
		c0.2-0.5,0.4-1,0.6-1.5c0.2-0.5,0.4-1,0.5-1.5c0.2-0.5,0.3-1.1,0.5-1.6c0.2-0.5,0.3-1,0.2-1.5c-0.4,0-0.8,0-1.2,0.1
		s-0.8,0.2-1.1,0.3c-0.4,0.1-0.8,0.2-1.2,0.4c-0.4,0.1-0.8,0.2-1.3,0.2c-0.2,0-0.4,0-0.8,0c-0.3,0-0.7-0.1-1.1-0.1
		c-0.4,0-0.7,0-1.1,0c-0.4,0-0.6,0-0.9,0.1c-0.4,0.1-0.8,0.2-1.1,0.4c-0.4,0.2-0.8,0.3-1.2,0.5c-0.4,0.1-0.8,0.2-1.2,0.4
		c-0.4,0.2-0.7,0.3-1.1,0.3c-0.3,0.2-0.6,0.5-0.8,1c-0.2,0.4-0.3,0.9-0.4,1.3c-0.1,0.5-0.3,0.9-0.4,1.3c-0.2,0.4-0.5,0.7-0.9,0.8
		c0.2,0.2,0.3,0.6,0.2,1.1c0,0.6-0.1,1.1-0.2,1.6c-0.2,0.8-0.4,1.6-0.6,2.4c-0.3,0.8-0.6,1.4-0.9,2c-0.5,0.2-1,0.4-1.4,0.7
		c-0.5,0.2-1,0.4-1.6,0.4c-0.2-0.1-0.3-0.2-0.3-0.4s-0.1-0.4-0.1-0.5c-0.2,0.4-0.4,0.7-0.6,0.9c-0.3,0.2-0.6,0.4-0.9,0.6
		c-0.3,0.2-0.6,0.4-0.9,0.6c-0.3,0.2-0.5,0.4-0.7,0.8c-0.7,0-1.3,0-1.9,0s-1-0.1-1.5-0.4c-0.2-0.5-0.2-1,0-1.5s0.2-0.9,0.3-1.4
		c0-0.2,0-0.4,0-0.6c0-0.2,0-0.4,0-0.6c0.1-0.5,0.2-1,0.4-1.7c0.2-0.7,0.4-1.3,0.6-1.8c0.1-0.2,0.2-0.5,0.4-0.6
		c0.2-0.2,0.3-0.4,0.4-0.6c0.1-0.3,0.2-0.6,0.2-0.9c0-0.3,0.1-0.5,0.2-0.8c0.1-0.3,0.2-0.5,0.3-0.8s0.2-0.5,0.3-0.7
		c0.1-0.2,0.1-0.4,0.1-0.7c0-0.2,0-0.5,0.1-0.7c0-0.2,0.1-0.3,0.2-0.4c0.1-0.1,0.2-0.3,0.2-0.4c0-0.3,0-0.7-0.2-1s-0.4-0.6-0.5-1
		c-0.2-0.3-0.3-0.6-0.3-1c0-0.3,0.1-0.7,0.5-1.1c0.3-0.1,0.6-0.2,1-0.3c0.3-0.1,0.6-0.2,0.8-0.4c0.2-0.6,0.3-1.2,0.4-1.8
		c0.1-0.6,0.2-1.2,0.4-1.8c0.1-0.3,0.2-0.6,0.3-0.9s0.2-0.5,0.3-0.8c0.1-0.3,0.1-0.6,0-0.9c0-0.3,0-0.6,0.1-0.8
		c0.1-0.2,0.2-0.5,0.4-0.6c0.2-0.2,0.3-0.4,0.4-0.6c-0.3-0.4-0.4-0.8-0.3-1.4s0.2-1.2,0.3-1.8c0.2-0.6,0.4-1.3,0.6-1.9
		c0.2-0.6,0.4-1.3,0.5-1.9c0.2-0.7,0.3-1.2,0.5-1.7C96.1,6,96.4,5.7,97,5.6c1.1,0.1,2.2,0.1,3.3-0.2c1.1-0.2,2.2-0.5,3.3-0.8
		c0.2,0,0.2,0,0.3,0.2c0,0.1,0.1,0.2,0.2,0.3c0.2-0.2,0.5-0.4,0.8-0.5c0.3-0.1,0.7-0.2,1.1-0.1c0.4,0,0.7,0.1,1.1,0.2
		C107.4,4.7,107.7,4.9,107.9,5z"/>
	<path class="st0" d="M164,4.4c0,0.2,0,0.3,0,0.5c0,0.2,0,0.3,0,0.5c-0.2,0.2-0.5,0.4-0.6,0.4c-0.2,0.1-0.3,0.2-0.4,0.5
		c-0.1,0.2-0.1,0.3-0.1,0.5s0,0.4-0.1,0.5c-0.1,0.2-0.3,0.4-0.7,0.7s-0.6,0.4-0.8,0.4c-0.2,0.1-0.4,0.2-0.6,0.2
		c-0.2,0.1-0.4,0.1-0.6,0.2c-0.3,0.1-0.5,0.2-0.7,0.3c-0.2,0.1-0.4,0.1-0.5,0.1c-0.2,0-0.4,0-0.6,0c-0.2,0-0.5,0.1-0.8,0.1
		c-0.1,0-0.2,0-0.2,0.1s-0.1,0.1-0.2,0.2c-0.1,0.1-0.2,0.1-0.4,0.2S156,10,155.6,10c-0.3,0-0.6,0.1-0.8,0.1c-0.2,0-0.4,0.1-0.8,0.1
		c-0.2,0.1-0.4,0.2-0.6,0.3c-0.2,0.1-0.4,0.2-0.6,0.3c-0.4,0.3-0.8,0.5-1,0.7s-0.4,0.4-0.5,0.6c-0.2,0.3-0.3,0.7-0.3,1.1
		c0,0.4-0.1,0.8-0.2,1.2c-0.1,0.3-0.3,0.6-0.6,0.9c-0.3,0.3-0.5,0.6-0.6,1c0,0.2,0,0.3,0,0.5s0,0.4,0,0.6c-0.1,0.4-0.2,0.8-0.4,1.2
		s-0.4,0.9-0.6,1.3c-0.1,0.3-0.1,0.5-0.1,0.8c0,0.3,0,0.5-0.1,0.8c-0.1,0.6-0.2,1.2-0.4,1.9c-0.2,0.7-0.4,1.3-0.5,2
		c-0.1,0.4-0.1,0.8-0.1,1.1c0,0.4,0,0.7-0.1,1c-0.1,0.3-0.2,0.5-0.4,0.8c-0.2,0.3-0.3,0.5-0.5,0.8c-0.1,0.3-0.2,0.5-0.3,0.8
		c0,0.3,0,0.6,0.2,1c-0.1,1.2-0.2,2.3-0.5,3.5c-0.2,1.2-0.5,2.3-0.8,3.4c-0.1,0.3-0.2,0.8-0.4,1.4s-0.4,0.9-0.6,1.1
		s-0.4,0.3-0.7,0.3s-0.6,0-0.9,0s-0.6-0.2-0.8-0.3s-0.4-0.3-0.5-0.6c-0.2,0.1-0.4,0.3-0.5,0.5s-0.3,0.4-0.6,0.5
		c-0.3,0.2-0.6,0.2-1,0.2s-0.7,0-1,0.2c-0.3,0.1-0.6,0.3-0.8,0.4s-0.5,0.3-0.8,0.4c-0.2,0.1-0.3,0.1-0.4,0.1s-0.3,0-0.4,0.1
		c-0.2,0.1-0.3,0.2-0.4,0.5s-0.2,0.4-0.4,0.5c-0.2-0.1-0.5-0.1-0.8-0.1s-0.5-0.1-0.7-0.3c-0.1-0.8,0.1-1.5,0.4-2.1s0.5-1.2,0.7-1.8
		c0.1-0.3,0.2-0.7,0.3-1c0-0.3,0.1-0.7,0.2-1.1c0.1-0.4,0.3-0.9,0.5-1.4c0.2-0.5,0.3-1,0.4-1.5c0.1-0.3,0.1-0.7,0.2-1.1
		c0-0.4,0.1-0.7,0.2-1.1c0.1-0.2,0.2-0.5,0.5-0.8c0.2-0.3,0.4-0.6,0.6-1c0.1-0.3,0.2-0.7,0.3-1.2c0.1-0.4,0.2-0.9,0.4-1.3
		c0.2-0.5,0.4-1,0.7-1.4s0.4-0.8,0.4-1.3c0-0.2,0-0.4-0.1-0.5c-0.1-0.1-0.1-0.3-0.1-0.4c0-0.2,0-0.6,0.1-1c0.1-0.4,0.2-0.8,0.3-1.2
		c0.2-0.7,0.3-1.2,0.5-1.8c0.2-0.5,0.3-1.1,0.5-1.6c0.1-0.2,0.1-0.5,0.2-0.7s0.1-0.4,0.2-0.6c0.1-0.2,0.2-0.5,0.3-0.6
		c0.1-0.2,0.2-0.4,0.3-0.5c0.1-0.2,0.1-0.5,0.2-0.8c0-0.3,0.1-0.6,0.2-0.9c0.1-0.2,0.2-0.4,0.3-0.6s0.2-0.4,0.2-0.6
		c0.1-0.4,0-0.8-0.2-1.1c-0.2-0.3-0.3-0.7-0.3-1.1c-0.3-0.2-0.8-0.4-1.2-0.4s-0.9-0.1-1.4,0c-0.4,0-0.8,0.1-1.2,0.1
		c-0.3,0-0.7,0-1.2,0.1c-0.7,0-1.3,0.1-1.9,0.2s-1,0.2-1.5,0.3s-1,0.2-1.5,0.2s-1.1,0.1-1.7,0c0.1-0.3,0.1-0.7,0.1-1.1
		c0-0.4,0.1-0.7,0.2-1c0.2-0.2,0.4-0.2,0.6-0.3c0.2,0,0.4,0,0.6-0.1c-0.1-0.2-0.2-0.4-0.2-0.5c0-0.2,0-0.3,0.1-0.4s0.1-0.3,0.2-0.4
		s0.1-0.3,0.2-0.4c0.1-0.3,0.1-0.6,0.1-0.9c0-0.3,0.1-0.6,0.4-0.8c0.4,0,0.8,0,1.2,0c0.3,0,0.7,0.1,1,0.1s0.6,0.1,1,0.1
		c0.3,0,0.7,0,1.1,0c1-0.1,1.8-0.1,2.5-0.2s1.4-0.2,2.4-0.2c0.7,0,1.3,0,1.9,0c0.6,0,1.2,0.1,1.7,0.1c0.6,0.1,1,0.1,1.2,0.1
		s0.5,0,0.7,0c0.2,0,0.5,0,0.7-0.1c0.2,0,0.6,0,1.1,0c0.5,0,1,0,1.5-0.1c0.5-0.1,1-0.1,1.5-0.1c0.6,0,1,0,1.2,0.1
		c0.2,0.1,0.4,0.1,0.6,0.2c0.2,0.1,0.3,0.1,0.5,0.2s0.5,0,1,0c0.3-0.1,0.6-0.1,0.7-0.2c0.1-0.1,0.3-0.1,0.7-0.2c0.3,0,0.6,0,0.9,0
		c0.3,0,0.6,0,1,0c0.9-0.1,1.9-0.3,2.8-0.5S163,4.3,164,4.4z"/>
	<path class="st0" d="M201,4.2c-0.3,0.5-0.6,0.9-1,1.2c-0.4,0.3-0.8,0.6-1.2,0.9c-0.4,0.3-0.8,0.6-1.3,0.9c-0.5,0.3-0.9,0.6-1.2,0.9
		c-0.7,0.7-1.2,1.6-1.7,2.6c-0.5,1-0.9,2.1-1.4,3.1c-0.1,0.3-0.3,0.5-0.5,0.8c-0.2,0.3-0.4,0.5-0.5,0.8c-0.3,0.8-0.6,1.7-0.9,2.7
		s-0.5,1.9-0.7,2.8c-0.2,1-0.4,1.9-0.6,2.9c-0.2,1-0.5,1.9-0.8,2.8c-0.2,0.2-0.3,0.3-0.6,0.4c-0.2,0.1-0.4,0.3-0.5,0.5
		c0,0.2,0.1,0.3,0.2,0.4s0.2,0.3,0.2,0.5c0,0.3,0,0.5-0.1,0.8c-0.1,0.3-0.2,0.5-0.3,0.8c-0.2,0.9-0.4,1.9-0.7,3s-0.7,1.9-1.2,2.6
		c-0.3,0.9-0.5,1.9-0.8,2.9c-0.2,1-0.6,1.8-1.1,2.5c-0.3,0.1-0.5,0.2-0.8,0.4s-0.5,0.2-0.9,0.2c-0.2,0-0.3,0-0.5-0.1
		s-0.4-0.2-0.6-0.2c-0.2-0.1-0.5-0.1-0.8-0.2s-0.6-0.1-0.9-0.2c-0.3-0.1-0.6-0.1-0.8-0.2s-0.5-0.1-0.8-0.1c-0.3,0-0.7,0-1.1,0
		s-0.8,0-1.1-0.1c-0.1-0.3-0.2-0.6-0.4-0.9c-0.2-0.3-0.3-0.6-0.4-0.9c-0.1-0.3-0.3-0.6-0.4-0.9c-0.2-0.3-0.2-0.7-0.3-1
		c0-0.2,0-0.3,0-0.5s0.1-0.4,0-0.5c-0.1-0.2-0.2-0.5-0.4-0.8c-0.2-0.2-0.3-0.5-0.4-0.8c0-0.2,0-0.3,0-0.5c0-0.2,0-0.3,0-0.5
		c0-0.2-0.1-0.4-0.2-0.5c-0.1-0.1-0.2-0.3-0.3-0.5c-0.1-0.1-0.1-0.2,0-0.3c0-0.1,0-0.2,0-0.3c-0.1-0.2-0.2-0.4-0.3-0.6
		c-0.1-0.2-0.2-0.4-0.3-0.6c-0.1-0.5-0.2-1-0.2-1.6c0-0.5,0-1.1-0.1-1.6c-0.1-0.4-0.2-0.9-0.3-1.3S172,25,172,24.5
		c0-0.2,0-0.5,0.1-0.7s0.1-0.4,0.1-0.6c0-0.2,0-0.5-0.1-0.7S172,22.2,172,22c-0.1-0.2-0.2-0.4-0.4-0.5s-0.4-0.2-0.6-0.3
		c-0.2-0.9-0.6-1.9-1-3.1s-0.8-2.2-1-3.2c0-0.1,0,0-0.1,0.3c0,0.2-0.1,0.5-0.2,0.9c-0.1,0.3-0.2,0.7-0.3,1.1s-0.3,0.7-0.5,0.9
		c0.2,0.4,0.3,1,0,1.6c-0.2,0.6-0.4,1.2-0.6,1.9c-0.2,0.9-0.4,1.8-0.6,2.7c-0.2,0.9-0.4,1.8-0.8,2.7c-0.1,0.2-0.1,0.4-0.2,0.6
		c-0.1,0.2-0.2,0.3-0.2,0.5c-0.1,0.3-0.1,0.6-0.1,1c0,0.3,0,0.7-0.1,1c-0.1,0.3-0.1,0.7-0.2,1c0,0.3-0.1,0.6-0.2,0.9
		c-0.1,0.6-0.2,1.2-0.3,1.9c-0.1,0.7-0.2,1.4-0.4,2c-0.2,0.6-0.4,1.2-0.7,1.7s-0.6,0.9-1.1,1.1c-0.3,0.2-0.6,0.3-0.9,0.2
		c-0.3-0.1-0.5-0.2-0.8-0.4c-0.2,0-0.2,0.1-0.3,0.3c0,0.2-0.1,0.3-0.2,0.4c-0.4,0-0.8,0-1.1,0.2c-0.3,0.2-0.6,0.3-0.9,0.4
		c-0.1,0-0.2,0-0.3,0c-0.1,0-0.2,0-0.3,0.1c-0.3,0.1-0.5,0.2-0.8,0.4s-0.4,0.3-0.6,0.4s-0.4,0.3-0.6,0.4s-0.5,0.1-0.7,0
		c-0.4-0.1-0.6-0.3-0.8-0.6s-0.4-0.6-0.6-0.8c0.1-0.4,0.2-0.9,0.3-1.5c0.1-0.5,0.3-1.1,0.5-1.6c0.2-0.5,0.4-1.1,0.5-1.6
		s0.4-1,0.5-1.4c0.1-0.3,0.2-0.7,0.3-1c0.1-0.3,0.2-0.6,0.3-1c0.1-0.3,0.2-0.6,0.4-0.9c0.2-0.3,0.3-0.6,0.3-0.9c0.1-0.3,0.1-0.7,0-1
		s0-0.7,0-1c0.1-0.3,0.2-0.7,0.3-1s0.3-0.7,0.4-1.1c0.3-1.1,0.6-2.1,1-3.1s0.8-1.9,1.5-2.6c0-0.4,0.1-0.8,0.2-1.2s0.2-0.7,0.4-1.1
		c0.1-0.3,0.2-0.7,0.2-1s0-0.7-0.2-1.1c0.1-0.6,0.3-1.1,0.5-1.6s0.4-1.1,0.5-1.7c0-0.2,0-0.3,0-0.5s0-0.4,0.1-0.5
		c0.1-0.3,0.2-0.6,0.4-0.9s0.4-0.7,0.6-1s0.4-0.6,0.6-1c0.2-0.3,0.3-0.6,0.4-0.8c0.3-0.1,0.7-0.1,1-0.2c0.3-0.1,0.7-0.1,1.1-0.1
		c0.2,0,0.4,0,0.6,0.1s0.4,0.1,0.6,0c0.3-0.1,0.6-0.2,0.8-0.5c0.2-0.2,0.4-0.4,0.6-0.6c0.4-0.1,0.9-0.1,1.3-0.1
		c0.4,0,0.8-0.1,1.2-0.2c0.2-0.1,0.4-0.1,0.7-0.2s0.5-0.1,0.7-0.1c0.4,0,0.7,0.1,0.9,0.4s0.4,0.6,0.6,1c0.2,0.4,0.3,0.8,0.4,1.2
		c0.1,0.4,0.3,0.7,0.5,0.9c0,0.9,0,1.8,0.1,2.6c0.1,0.8,0.2,1.6,0.2,2.6c0.1,1.1,0.3,2,0.5,2.9s0.5,1.8,0.7,2.7
		c0.1,0.4,0.2,0.8,0.2,1.2c0,0.4,0.1,0.8,0.3,1.1c0.2,0.6,0.5,1.2,0.8,1.7c0.3,0.5,0.4,1.1,0.5,1.7c0.1,0.7,0.1,1.4,0.1,2
		c0,0.6,0,1.3,0.2,1.9c0.2,0.5,0.3,0.9,0.5,1.2c0.2,0.3,0.5,0.7,0.8,1.1c0.3-0.4,0.5-0.9,0.6-1.4c0.1-0.5,0.1-1,0.2-1.5
		c0.1-0.5,0.2-1,0.4-1.5c0.2-0.5,0.3-1,0.5-1.5c0.2-0.8,0.4-1.5,0.6-2.3c0.3-0.8,0.5-1.5,0.8-2.2c0.1-0.2,0.2-0.4,0.3-0.6
		c0.2-0.2,0.3-0.4,0.4-0.7c0.2-0.3,0.2-0.7,0.1-1.2c-0.1-0.5-0.1-0.9-0.1-1.3c0.1-0.3,0.1-0.6,0.3-1c0.1-0.4,0.2-0.7,0.3-1.1
		c0.2-0.9,0.4-1.9,0.4-2.9s0.2-1.9,0.4-2.7c0.1-0.2,0.2-0.6,0.4-1c0.2-0.4,0.2-0.8,0.2-1.1c0-0.2-0.1-0.4-0.3-0.6
		c-0.2-0.1-0.3-0.3-0.3-0.6c0-0.2,0.1-0.5,0.4-0.7s0.5-0.3,0.8-0.5c0.3-0.1,0.7-0.2,1-0.3c0.4-0.1,0.7-0.1,0.9-0.1
		c0.3,0,0.5,0,0.8,0.1c0.2,0.1,0.5,0.1,0.7,0.2c0.2,0.1,0.5,0.1,0.7,0.2s0.6,0.1,0.9,0c0.5-0.1,1.1-0.1,1.8-0.2
		c0.7-0.1,1.3-0.1,1.9-0.2c0.3,0,0.6-0.1,0.9-0.1c0.3,0,0.6-0.1,0.8-0.1c0.3-0.1,0.6-0.2,0.9-0.3c0.3-0.1,0.7-0.2,1.1-0.3
		c0.4-0.1,0.7-0.1,1.1-0.3c0.4-0.1,0.7-0.2,0.9-0.3c0.1-0.1,0.2-0.1,0.3-0.1C200.7,4,200.8,4,201,4.2z"/>
	<path class="st0" d="M209.3,9.2h0.2l0.2,0.2v0.2c-0.7,0.8-2.2,3.2-4.5,6.9h0.3l3.5-1l0.2,0.2c0.5-0.4,1.3-0.7,2.4-0.7v0.3
		c-0.2,0.8-0.7,1.7-1.7,2.7c-1.1,1.5-1.8,2.2-1.9,2.2c-0.7,1-2,2.4-3.9,4.4v0.1l2.2-0.5l0.2,0.2l0.6-0.3l0.2,0.4l-0.7,0.9h0.1
		c0.4-0.3,0.7-0.8,0.8-1.5h0.8l0.4,0.3c-0.4,1.3-1.3,3.2-2.7,5.7l-3,4.9c-0.7,0.8-2,2.7-4.1,5.9c-1,1.3-1.9,2.7-2.6,4.2
		c-0.2,0-0.7,0.9-1.5,2.6c-0.4,1.1-0.7,1.7-0.9,1.7l0.1,0.1v0.1l-0.1,0.1h-0.8l-0.4-0.4l0.3-0.1V49c-0.2,0-0.3-0.1-0.3-0.2l0.1-0.1
		l0.1,0.1h0.2c0-0.1-0.1-0.2-0.3-0.2l-0.1-0.1v-0.1l0.1-0.1l-0.1-0.1h-0.1l0.2-0.3l-0.1-0.1v-0.2l0.2-0.2h0.1l0.4,0.3l0.1-0.6
		L193,47l0.3-0.5l0.1,0.1h0.2v-0.4h-0.3v-0.2l0.5,0.1l0.1-0.5l-0.2-0.3v-0.8c0.1-0.1,0.2-0.5,0.3-1c0.4-0.5,0.7-0.9,0.7-1.4
		c0.2,0,0.4-1.4,0.8-4.2c0.2-1.6,0.4-2.4,0.6-2.4l0.1,0.1l-0.8,4.4v0.1h0.1c0.4-1.7,0.8-2.5,1-2.5v-0.3c0.4-1.6,0.8-2.9,1.2-3.8h0.1
		l0.1,0.1h0.1l0.1-0.3l-0.1-0.6l0.5-0.8l-0.1-0.1l0.1-0.1h0.1l-0.1-0.5v-0.2l0.1-0.1l-0.2-0.3c-0.4,0-0.7,0.2-1,0.5
		c0-0.2-0.1-0.2-0.4-0.3l-1.7,0.3l-0.2-0.3c1.7-3.6,3-6,3.8-7.1l0.6-1.2h-0.1l-0.9,0.4l-0.1-0.1v-0.1l-4.7,1.1h-0.5v-0.2
		c0.4-1,0.7-1.6,0.8-1.6l-0.1-0.1c0.4-1.1,1.2-3.1,2.5-5.8c0.4-1.2,0.8-2.1,1.2-2.6c0-0.4,0.2-0.7,0.6-0.7l-0.2-0.3
		c0.3-0.2,0.5-0.6,0.7-1.1l0.5-0.1c0,0.3-0.2,0.8-0.8,1.6v0.1h0.1l0.9-1.7l3.5-0.7h0.3c0.2-0.2,0.8-0.4,1.8-0.6l0.1,0.1h0.1
		c0.8-0.3,1.5-0.5,2.2-0.5v0.2h0.3V9.8h0.3L209.3,9.2z M192.8,46.9L192.8,46.9l0.1,0.4h-0.1l-0.2-0.2L192.8,46.9z M192.8,48
		L192.8,48l0.2,0.1v-0.3L192.8,48z M192.8,48.3L192.8,48.3l0.2,0.1v-0.1H192.8z M192.8,48.5L192.8,48.5l0.2,0.1v-0.1H192.8z
		 M193.9,23.1v0.2h0.2L193.9,23.1z M194,46.3l-0.1,0.4l0.1,0.1h0.1L194,46.3L194,46.3z M195,22.7L195,22.7L195,22.7
		c0.1-0.1,0.3-0.5,0.8-1v-0.2C195.6,21.6,195.3,22,195,22.7z M195.2,40.2v0.3h0.1L195.2,40.2L195.2,40.2z M195.8,22.5L195.8,22.5
		l0.8-0.8v-0.1L195.8,22.5z M195.9,35.2h0.2v0.2h-0.2V35.2z M196.8,28.6c-0.6,1.1-0.8,1.8-0.8,2l0.5-0.2V30
		C196.5,29.7,196.6,29.3,196.8,28.6L196.8,28.6L196.8,28.6z M196.2,38.8V39h0.1L196.2,38.8L196.2,38.8z M196.7,37.5l-0.3,0.5v0.1
		l0.3,0.1V37.5L196.7,37.5L196.7,37.5z M197,32.6L197,32.6l0.1,0.3l-0.1,0.4l0.1,0.3l-0.4,0.8l0.1,0.3l-0.3,0.2l-0.1-0.1l0.1-0.1
		v-0.9l0.4-0.1l-0.1-0.4L197,32.6z M196.6,17.3L196.6,17.3L196.6,17.3c0.1-0.1,0.4-0.6,0.9-1.4c0.2-0.8,0.3-1.3,0.5-1.5v-0.1h-0.1
		C197.7,14.4,197.2,15.4,196.6,17.3z M196.7,20.6l0.6-0.7v-0.1C196.8,20.1,196.7,20.4,196.7,20.6z M199,27.2
		c-0.4,0.9-0.8,1.4-0.9,1.5c-0.6,0.8-0.9,1.4-0.9,1.6v0.1h0.3c0-0.3,0.6-1.2,1.7-2.7L199,27.2L199,27.2z M197.5,27.5L197.5,27.5
		L197.5,27.5c0.1-0.2,1.1-1.9,3.1-5.2v-0.2C199.9,22.8,198.9,24.6,197.5,27.5z M197.6,19.7c0.2-0.1,0.9-0.9,1.9-2.2v-0.1h-0.1
		c-0.4,0-0.7,0.3-1.1,1C198,18.5,197.8,18.9,197.6,19.7z M197.7,36.1l-0.1,0.4C197.7,36.5,197.8,36.4,197.7,36.1L197.7,36.1
		L197.7,36.1z M197.7,22.2L197.7,22.2c2-2.2,3.5-3.5,4.4-4l0.1-0.1V18l-0.1-0.1H202C199.7,19.9,198.2,21.4,197.7,22.2z M197.8,33.8
		V34h0.1L197.8,33.8L197.8,33.8z M198.2,17.3l-0.2,0.4v0.1C198.2,17.7,198.2,17.6,198.2,17.3L198.2,17.3L198.2,17.3z M198.7,29.1
		l-0.7,1.2h0.2c0.1,0,0.2-0.3,0.5-1V29.1L198.7,29.1L198.7,29.1z M198.1,40.5L198.1,40.5c0.1,0.1,0.4-0.3,0.8-1v-0.1L198.1,40.5z
		 M198.4,13.3L198.4,13.3L198.4,13.3h0.4v-0.2L198.4,13.3z M198.6,19.5L198.6,19.5l1.3-1.3h-0.1L198.6,19.5z M198.6,32.6v0.3
		l0.2-0.2v-0.1H198.6z M200.9,12L200.9,12l0.1,0.2l-0.5,0.5h0.3v0.1l-2,3.5v0.1h0.1l2.7-4.5h-0.5L200.9,12z M200,20.6l-1.2,1.3v0.1
		L200,20.6L200,20.6z M199,25.9l-0.2,0.5v0.1h0.1L199,25.9L199,25.9L199,25.9z M198.8,32v0.3l0.3-0.3H198.8z M199,13.1L199,13.1
		c0.7-0.1,1-0.4,1-0.8h-0.1C199.3,12.3,199,12.6,199,13.1z M199,28.6v0.2h0.1L199,28.6L199,28.6z M199.6,38.2l-0.4,0.8V39h0.1
		L199.6,38.2L199.6,38.2L199.6,38.2z M199.3,25.3v0.2h0.2v-0.2H199.3z M199.3,31.1v0.2h0.1L199.3,31.1L199.3,31.1z M199.5,29.9v0.2
		h0.1l1.7-2.7v-0.1h-0.1C200.6,27.8,200,28.7,199.5,29.9z M200.8,22.8l-1.1,2.2c0.4-0.5,0.9-1.2,1.3-2.2H200.8z M199.9,16.1
		c1.1-1.2,1.7-2.1,1.7-2.5l0.6-0.5h0.1l-0.1-0.1V13c0.6-0.5,0.8-0.9,0.8-1v-0.2c0.2,0,0.3-0.1,0.3-0.2v-0.2h-0.1
		c-0.6,0.3-1.1,1-1.5,1.9C201.1,13.8,200.5,14.8,199.9,16.1z M200.1,13.2l-0.1,0.3v0.1h0.1V13.2L200.1,13.2L200.1,13.2z M200.3,20.3
		L200.3,20.3L200.3,20.3l1.4-1.2h-0.1L200.3,20.3z M203.6,1.4c0.9,0.1,1.6,0.3,2,0.6c0.9,0.6,1.4,1.4,1.4,2.2l-0.1,0.1v0.1l0.3,0.3
		c0,0.6-0.6,1.6-1.8,3L204,8.3h-0.8c-0.9,0-1.6-0.6-2.1-1.7c-0.4-0.2-0.7-0.8-0.7-1.6c0-1.3,0.7-2.4,2.1-3.4L203.6,1.4z M200.4,25.7
		c0.1,0,0.2-0.2,0.4-0.7C200.7,25.1,200.5,25.3,200.4,25.7z M200.7,21L200.7,21c0.8-0.6,1.2-1,1.2-1.3
		C201.2,20.4,200.8,20.8,200.7,21z M200.9,24.9L200.9,24.9L200.9,24.9l0.6-0.7h-0.1C201,24.3,200.9,24.5,200.9,24.9z M201.5,32.7
		l-0.5,0.9v0.1h0.1L201.5,32.7L201.5,32.7L201.5,32.7z M201.2,21.9L201.2,21.9L201.2,21.9c0.1-0.1,0.3-0.4,0.7-0.8V21
		C201.5,21.4,201.2,21.7,201.2,21.9z M204.7,11.6L204.7,11.6l-0.1-0.2l0.1-0.3h-0.1l-0.8,0.7v0.9c-1,1.2-1.8,2.4-2.4,3.5h0.1
		c0.1,0,0.2-0.2,0.5-0.8c0.2,0,0.5-0.2,0.8-0.6l0.1,0.1V15l-0.3,0.3l0.1,0.1c0.2,0,0.4-0.3,0.7-0.9c0.3,0,0.5-0.3,0.8-0.9l1.6-2
		c0.2,0,0.3-0.3,0.6-0.8h-0.1c-0.3,0-0.7,0.2-1.2,0.8L204.7,11.6z M206.4,27.3c-0.2,0.7-0.8,1.6-1.7,2.8l-1.5,2.4l-1.8,3v0.1h0.1
		l2.9-4.5l1.6-2.6c0.1,0,0.2-0.2,0.4-0.5l-0.1-0.1h-0.1L206.4,27.3L206.4,27.3L206.4,27.3z M202.1,3.7l-0.5,1.2V5h0.1L202.1,3.7
		L202.1,3.7L202.1,3.7z M202.1,22.3l-0.4,0.6V23L202.1,22.3L202.1,22.3L202.1,22.3z M201.7,26.6h0.2v-0.2L201.7,26.6z M201.7,27.8
		V28h0.1L201.7,27.8L201.7,27.8z M202,2.9l-0.2,0.2v0.2L202,2.9L202,2.9L202,2.9z M201.9,5.9L201.9,5.9l-0.1,0.7
		c0.2-0.1,0.3-0.2,0.3-0.6L201.9,5.9L201.9,5.9z M201.8,23.4v0.2l0.2-0.2H201.8z M202,15.7L202,15.7l0.2,0.1v-0.1H202z M202,30.8
		L202,30.8L202,30.8l2.8-3.7V27c-1.6,1.5-2.5,2.7-2.6,3.5C202.1,30.5,202,30.6,202,30.8z M202.1,6.8v0.3c0.1,0.2,0.3,0.4,0.6,0.4
		V7.3C202.6,7,202.4,6.8,202.1,6.8z M202.2,22.1L202.2,22.1c0.5,0.1,1-0.6,1.6-2c-0.5,0.3-0.9,0.7-1.1,1.2L202.2,22.1z M202.6,27.7
		l-0.3,0.5h0.1L202.6,27.7L202.6,27.7L202.6,27.7z M202.4,26.6v0.2h0.2c0-0.2,0.2-0.4,0.5-0.8h-0.1
		C202.7,26.1,202.5,26.2,202.4,26.6z M202.6,3.1c0.3,0,0.5-0.2,0.7-0.6V2.5C203,2.5,202.8,2.7,202.6,3.1z M202.7,5.6L202.7,5.6
		L202.7,5.6l1-2.1h-0.1C203,4.6,202.7,5.2,202.7,5.6z M202.9,16.1l0.3,0.3c0.1,0,0.2-0.2,0.2-0.5l0.3-0.3v-0.1
		C203.4,15.5,203.2,15.7,202.9,16.1z M203.6,5.9L203,7.1h0.1C203.3,7.1,203.4,6.8,203.6,5.9L203.6,5.9L203.6,5.9z M203.2,7.5
		L203.2,7.5l0.2,0.1V7.3L203.2,7.5z M203.3,26.3h0.2l0.3-0.3v-0.1h-0.1L203.3,26.3z M204.1,3.8l-0.6,1.1V5h0.1L204.1,3.8L204.1,3.8
		L204.1,3.8z M203.9,17.2c0,0.2-0.1,0.4-0.3,0.7v0.1c0.4-0.2,0.6-0.3,0.7-0.5L203.9,17.2z M205.6,3c-0.7,1.3-1.2,2.5-1.6,3.6v0.1
		h0.1c0.5-1.3,1.1-2.3,1.7-3.1l0.1,0.1V4c-0.3,0.4-0.7,1.2-1.1,2.3l0.3-0.2h0.1v0.1l-1.4,1.4h0.1c1-0.3,1.5-0.6,1.5-0.9l0.2-0.6
		L205.4,6V5.9l0.6-0.9l-0.3-0.2c0.1-0.2,0.2-0.4,0.5-0.6h0.1l-0.3,1.6c0.2,0,0.3-0.4,0.5-1.3c-0.1-1-0.3-1.5-0.7-1.5H205.6z
		 M203.7,15.3L203.7,15.3l0.2,0.1v-0.3L203.7,15.3z M203.8,2.9l0.3,0.2V3L204,2.7l0.2-0.2V2.5h-0.1C203.9,2.5,203.8,2.6,203.8,2.9z
		 M203.9,5.3L203.9,5.3L203.9,5.3l1.3-2.3C205,3,204.6,3.8,203.9,5.3z M203.9,16v0.2h0.2v-0.4L203.9,16z M204.2,14.6v0.2l0.2-0.2
		H204.2z M204.3,3.4c0.2-0.1,0.3-0.2,0.3-0.6C204.4,2.9,204.3,3.1,204.3,3.4z M204.3,23.2L204.3,23.2l0.8-0.9v-0.1L204.3,23.2z
		 M204.4,15.2v0.3h0.1L204.4,15.2L204.4,15.2z M204.5,21.3l0.5-0.7v-0.1C204.7,20.7,204.5,21,204.5,21.3z M205,17.3l0.2,0.2l0.1-0.1
		v-0.1H205z M205.1,14.3l0.2,0.2h0.1L205.1,14.3L205.1,14.3z M205.5,15.4L205.5,15.4l0.2-0.1v-0.1L205.5,15.4z M205.5,17.2h0.3V17
		h-0.1L205.5,17.2z M205.7,6.1v0.2h0.1L205.7,6.1L205.7,6.1z M205.7,19L205.7,19c0.2,0.1,0.4-0.2,0.8-0.7v-0.1h-0.1L205.7,19z
		 M205.7,25.5L205.7,25.5l0.5-0.4v-0.1C205.9,25.1,205.8,25.3,205.7,25.5z M205.7,21.5L205.7,21.5l0.8-0.9v-0.1L205.7,21.5z
		 M205.8,12.7L205.8,12.7l0.2,0.1v-0.1H205.8z M205.8,25.8L205.8,25.8l0.2,0.1v-0.1H205.8z M206.4,19.1v0.2c0.6-0.4,0.9-0.7,0.9-0.8
		v-0.1C206.8,18.9,206.5,19.1,206.4,19.1z M206.6,11.3h0.2v-0.2L206.6,11.3z M207,10.7L207,10.7l-0.1,0.2h0.1V10.7L207,10.7
		L207,10.7z M207,20L207,20l0.5-0.4v-0.1h-0.1L207,20z M207.4,18.3L207.4,18.3l0.5-0.4h-0.1L207.4,18.3z M207.9,10.3L207.9,10.3
		l0.3,0.2l-0.1,0.1v0.2h0.1l0.4-0.8h-0.1L207.9,10.3z M208.2,18.6v0.2h0.1L208.2,18.6L208.2,18.6z M208.3,17.6h0.2v-0.2L208.3,17.6z
		 M209.1,17.6L209.1,17.6c0.1,0.1,0.4-0.2,0.8-0.8v-0.1L209.1,17.6z"/>
	<path class="st0" d="M254.9,4.2c-0.3,0.5-0.6,0.9-1,1.2c-0.4,0.3-0.8,0.6-1.2,0.9c-0.4,0.3-0.8,0.6-1.3,0.9
		c-0.5,0.3-0.9,0.6-1.2,0.9c-0.7,0.7-1.2,1.6-1.7,2.6c-0.5,1-0.9,2.1-1.4,3.1c-0.1,0.3-0.3,0.5-0.5,0.8c-0.2,0.3-0.4,0.5-0.5,0.8
		c-0.3,0.8-0.6,1.7-0.9,2.7s-0.5,1.9-0.7,2.8c-0.2,1-0.4,1.9-0.6,2.9c-0.2,1-0.5,1.9-0.8,2.8c-0.2,0.2-0.3,0.3-0.6,0.4
		c-0.2,0.1-0.4,0.3-0.5,0.5c0,0.2,0.1,0.3,0.2,0.4s0.2,0.3,0.2,0.5c0,0.3,0,0.5-0.1,0.8c-0.1,0.3-0.2,0.5-0.3,0.8
		c-0.2,0.9-0.4,1.9-0.7,3s-0.7,1.9-1.2,2.6c-0.3,0.9-0.5,1.9-0.8,2.9c-0.2,1-0.6,1.8-1.1,2.5c-0.3,0.1-0.5,0.2-0.8,0.4
		s-0.5,0.2-0.9,0.2c-0.2,0-0.3,0-0.5-0.1s-0.4-0.2-0.6-0.2c-0.2-0.1-0.5-0.1-0.8-0.2s-0.6-0.1-0.9-0.2c-0.3-0.1-0.6-0.1-0.8-0.2
		s-0.5-0.1-0.8-0.1c-0.3,0-0.7,0-1.1,0s-0.8,0-1.1-0.1c-0.1-0.3-0.2-0.6-0.4-0.9c-0.2-0.3-0.3-0.6-0.4-0.9c-0.1-0.3-0.3-0.6-0.4-0.9
		c-0.2-0.3-0.2-0.7-0.3-1c0-0.2,0-0.3,0-0.5s0.1-0.4,0-0.5c-0.1-0.2-0.2-0.5-0.4-0.8c-0.2-0.2-0.3-0.5-0.4-0.8c0-0.2,0-0.3,0-0.5
		c0-0.2,0-0.3,0-0.5c0-0.2-0.1-0.4-0.2-0.5c-0.1-0.1-0.2-0.3-0.3-0.5c-0.1-0.1-0.1-0.2,0-0.3c0-0.1,0-0.2,0-0.3
		c-0.1-0.2-0.2-0.4-0.3-0.6c-0.1-0.2-0.2-0.4-0.3-0.6c-0.1-0.5-0.2-1-0.2-1.6c0-0.5,0-1.1-0.1-1.6c-0.1-0.4-0.2-0.9-0.3-1.3
		s-0.2-0.9-0.2-1.3c0-0.2,0-0.5,0.1-0.7s0.1-0.4,0.1-0.6c0-0.2,0-0.5-0.1-0.7s-0.2-0.4-0.2-0.7c-0.1-0.2-0.2-0.4-0.4-0.5
		s-0.4-0.2-0.6-0.3c-0.2-0.9-0.6-1.9-1-3.1s-0.8-2.2-1-3.2c0-0.1,0,0-0.1,0.3c0,0.2-0.1,0.5-0.2,0.9c-0.1,0.3-0.2,0.7-0.3,1.1
		s-0.3,0.7-0.5,0.9c0.2,0.4,0.3,1,0,1.6c-0.2,0.6-0.4,1.2-0.6,1.9c-0.2,0.9-0.4,1.8-0.6,2.7c-0.2,0.9-0.4,1.8-0.8,2.7
		c-0.1,0.2-0.1,0.4-0.2,0.6c-0.1,0.2-0.2,0.3-0.2,0.5c-0.1,0.3-0.1,0.6-0.1,1c0,0.3,0,0.7-0.1,1c-0.1,0.3-0.1,0.7-0.2,1
		c0,0.3-0.1,0.6-0.2,0.9c-0.1,0.6-0.2,1.2-0.3,1.9c-0.1,0.7-0.2,1.4-0.4,2c-0.2,0.6-0.4,1.2-0.7,1.7s-0.6,0.9-1.1,1.1
		c-0.3,0.2-0.6,0.3-0.9,0.2c-0.3-0.1-0.5-0.2-0.8-0.4c-0.2,0-0.2,0.1-0.3,0.3c0,0.2-0.1,0.3-0.2,0.4c-0.4,0-0.8,0-1.1,0.2
		c-0.3,0.2-0.6,0.3-0.9,0.4c-0.1,0-0.2,0-0.3,0c-0.1,0-0.2,0-0.3,0.1c-0.3,0.1-0.5,0.2-0.8,0.4s-0.4,0.3-0.6,0.4s-0.4,0.3-0.6,0.4
		s-0.5,0.1-0.7,0c-0.4-0.1-0.6-0.3-0.8-0.6s-0.4-0.6-0.6-0.8c0.1-0.4,0.2-0.9,0.3-1.5c0.1-0.5,0.3-1.1,0.5-1.6
		c0.2-0.5,0.4-1.1,0.5-1.6s0.4-1,0.5-1.4c0.1-0.3,0.2-0.7,0.3-1c0.1-0.3,0.2-0.6,0.3-1c0.1-0.3,0.2-0.6,0.4-0.9
		c0.2-0.3,0.3-0.6,0.3-0.9c0.1-0.3,0.1-0.7,0-1s0-0.7,0-1c0.1-0.3,0.2-0.7,0.3-1s0.3-0.7,0.4-1.1c0.3-1.1,0.6-2.1,1-3.1
		s0.8-1.9,1.5-2.6c0-0.4,0.1-0.8,0.2-1.2s0.2-0.7,0.4-1.1c0.1-0.3,0.2-0.7,0.2-1s0-0.7-0.2-1.1c0.1-0.6,0.3-1.1,0.5-1.6
		s0.4-1.1,0.5-1.7c0-0.2,0-0.3,0-0.5s0-0.4,0.1-0.5c0.1-0.3,0.2-0.6,0.4-0.9s0.4-0.7,0.6-1s0.4-0.6,0.6-1c0.2-0.3,0.3-0.6,0.4-0.8
		c0.3-0.1,0.7-0.1,1-0.2c0.3-0.1,0.7-0.1,1.1-0.1c0.2,0,0.4,0,0.6,0.1s0.4,0.1,0.6,0c0.3-0.1,0.6-0.2,0.8-0.5
		c0.2-0.2,0.4-0.4,0.6-0.6c0.4-0.1,0.9-0.1,1.3-0.1c0.4,0,0.8-0.1,1.2-0.2c0.2-0.1,0.4-0.1,0.7-0.2s0.5-0.1,0.7-0.1
		c0.4,0,0.7,0.1,0.9,0.4s0.4,0.6,0.6,1c0.2,0.4,0.3,0.8,0.4,1.2c0.1,0.4,0.3,0.7,0.5,0.9c0,0.9,0,1.8,0.1,2.6
		c0.1,0.8,0.2,1.6,0.2,2.6c0.1,1.1,0.3,2,0.5,2.9s0.5,1.8,0.7,2.7c0.1,0.4,0.2,0.8,0.2,1.2c0,0.4,0.1,0.8,0.3,1.1
		c0.2,0.6,0.5,1.2,0.8,1.7c0.3,0.5,0.4,1.1,0.5,1.7c0.1,0.7,0.1,1.4,0.1,2c0,0.6,0,1.3,0.2,1.9c0.2,0.5,0.3,0.9,0.5,1.2
		c0.2,0.3,0.5,0.7,0.8,1.1c0.3-0.4,0.5-0.9,0.6-1.4c0.1-0.5,0.1-1,0.2-1.5c0.1-0.5,0.2-1,0.4-1.5c0.2-0.5,0.3-1,0.5-1.5
		c0.2-0.8,0.4-1.5,0.6-2.3c0.3-0.8,0.5-1.5,0.8-2.2c0.1-0.2,0.2-0.4,0.3-0.6c0.2-0.2,0.3-0.4,0.4-0.7c0.2-0.3,0.2-0.7,0.1-1.2
		c-0.1-0.5-0.1-0.9-0.1-1.3c0.1-0.3,0.1-0.6,0.3-1c0.1-0.4,0.2-0.7,0.3-1.1c0.2-0.9,0.4-1.9,0.4-2.9s0.2-1.9,0.4-2.7
		c0.1-0.2,0.2-0.6,0.4-1c0.2-0.4,0.2-0.8,0.2-1.1c0-0.2-0.1-0.4-0.3-0.6c-0.2-0.1-0.3-0.3-0.3-0.6c0-0.2,0.1-0.5,0.4-0.7
		s0.5-0.3,0.8-0.5c0.3-0.1,0.7-0.2,1-0.3c0.4-0.1,0.7-0.1,0.9-0.1c0.3,0,0.5,0,0.8,0.1c0.2,0.1,0.5,0.1,0.7,0.2
		c0.2,0.1,0.5,0.1,0.7,0.2s0.6,0.1,0.9,0c0.5-0.1,1.1-0.1,1.8-0.2c0.7-0.1,1.3-0.1,1.9-0.2c0.3,0,0.6-0.1,0.9-0.1
		c0.3,0,0.6-0.1,0.8-0.1c0.3-0.1,0.6-0.2,0.9-0.3c0.3-0.1,0.7-0.2,1.1-0.3c0.4-0.1,0.7-0.1,1.1-0.3c0.4-0.1,0.7-0.2,0.9-0.3
		c0.1-0.1,0.2-0.1,0.3-0.1C254.6,4,254.7,4,254.9,4.2z"/>
	<path class="st0" d="M263.4,15.6c-0.2,0.1-0.3,0.1-0.6,0.1c-0.2,0-0.4,0.1-0.6,0.2c-0.1,0.3-0.1,0.5-0.2,0.8c0,0.3,0,0.5,0,0.8
		c-0.3,0.7-0.7,1.4-1.1,2.2c-0.5,0.7-0.9,1.4-1.3,1.9c-0.3,1.1-0.6,2.2-0.9,3.1c-0.3,1-0.4,2.1-0.4,3.5c-0.1,0.2-0.1,0.3-0.2,0.5
		s-0.1,0.4-0.1,0.7c0,0.2,0.1,0.4,0.2,0.5c0.1,0.2,0.2,0.3,0.2,0.5c0.1,0.3,0,0.6-0.1,0.8s-0.2,0.6-0.2,0.8c0,0.2,0,0.4,0.1,0.6
		c0.1,0.2,0.1,0.3,0,0.6c0.4,0.4,0.8,0.8,1.2,1c0.4,0.3,0.8,0.6,1.1,1.2c0.1,0,0.2,0.1,0.4,0.2c0.2,0.1,0.4,0.3,0.7,0.4
		s0.5,0.3,0.8,0.4s0.6,0.2,0.8,0.3c0.4,0,0.7,0,1,0s0.7-0.1,1.2-0.2c1.4-0.2,2.6-0.6,3.7-1.3c1.1-0.7,1.9-1.5,2.5-2.3
		c0-0.6,0.1-1.2,0.2-1.6c0.1-0.4,0.3-0.9,0.6-1.3c0.2-0.2,0.3-0.5,0.5-0.6c0.2-0.2,0.3-0.4,0.3-0.8c0-0.2,0-0.4,0-0.6s0-0.5,0-0.7
		c0-0.2,0-0.5-0.2-0.7s-0.3-0.4-0.3-0.6c-0.1-0.2-0.3-0.5-0.7-0.8c-0.4-0.3-0.7-0.6-1-0.8c-0.2-0.2-0.5-0.3-0.7-0.5
		s-0.4-0.4-0.6-0.6s-0.2-0.4-0.2-0.6c0-0.2,0.2-0.4,0.6-0.5c0.7,0,1.4,0.1,2.1,0.2s1.5,0.2,2.3,0.3c0.8,0.1,1.6,0.1,2.4,0.2
		c0.8,0.1,1.5,0.1,2.2,0c0.4,0,0.8-0.1,1-0.1s0.5-0.1,0.7-0.1s0.4-0.1,0.6-0.2c0.2-0.1,0.6-0.1,1-0.2c0.2,0,0.5,0,0.6,0
		c0.2,0,0.3,0,0.5,0c0.2-0.1,0.4-0.1,0.7-0.3c0.2-0.1,0.5-0.2,0.7-0.2c0.3,0,0.6,0,0.8,0c0.2,0,0.5,0.1,0.7,0.1
		c0.2,0.1,0.4,0.1,0.7,0.2c0.2,0.1,0.5,0.1,0.9,0.1c0.6,0.1,1,0.1,1.3,0.2c0.3,0.1,0.4,0.3,0.4,0.8c0,0.3-0.1,0.5-0.3,0.6
		c-0.2,0.1-0.5,0.2-0.8,0.3s-0.6,0.1-0.9,0.1c-0.3,0-0.6,0-0.9,0.1c-0.3,0.1-0.5,0.1-0.7,0.2c-0.2,0.1-0.3,0.2-0.4,0.3
		s-0.2,0.2-0.3,0.3c-0.1,0.1-0.2,0.2-0.4,0.3c-0.2,0.1-0.4,0.1-0.5,0.2c-0.2,0.1-0.3,0.1-0.5,0.2c-0.4,0.2-0.7,0.4-0.8,0.8
		c-0.2,0.3-0.4,0.7-0.6,1.1c-0.2,0.3-0.4,0.5-0.4,0.7c0,0.2-0.1,0.4-0.3,0.7c-0.3,0.5-0.6,1.1-0.9,1.8s-0.5,1.4-0.8,2
		c-0.4,1-0.6,2.1-0.8,3.3c-0.1,1.1-0.3,2.2-0.6,3.3c-0.1,0.3-0.1,0.7-0.2,1.1s-0.1,0.8-0.1,1.1c-0.1,0.2-0.2,0.5-0.3,0.8
		s-0.2,0.5-0.2,0.8c-0.1,0.3-0.1,0.6,0,0.8s0,0.5-0.1,0.8c-0.2,0.1-0.3,0.1-0.5,0.2s-0.3,0.2-0.4,0.3c-0.2,0.2-0.2,0.6-0.2,1
		s-0.1,0.8-0.3,1.1c-0.1,0.2-0.3,0.3-0.6,0.4s-0.5,0.2-0.7,0.3c-0.2,0.1-0.5,0-0.8,0s-0.6-0.1-1-0.1c-0.4,0-0.8,0.2-1.1,0.5
		s-0.7,0.5-1.1,0.8c-0.2,0.2-0.6,0.3-1.1,0.4s-0.8,0.3-1.1,0.4c-0.2,0.1-0.4,0.2-0.6,0.4s-0.4,0.2-0.6,0.3s-0.4,0.1-0.6,0
		s-0.4-0.2-0.6-0.4c-0.2-0.5-0.2-1,0-1.4s0.3-0.7,0.6-1s0.5-0.6,0.7-0.9s0.4-0.7,0.6-1.1c0.2-0.5,0.3-1,0.3-1.5s0.1-0.9,0.3-1.3
		c0.2-0.5,0.6-1,0.9-1.5s0.6-1,0.8-1.5c-0.5,0.2-1.1,0.5-1.7,0.8s-1.3,0.5-2.1,0.6c-0.1,0-0.2,0-0.4,0s-0.2,0-0.4,0
		c-0.3,0.1-0.5,0.1-0.8,0.2s-0.5,0.1-0.8,0.2c-0.3,0-0.6,0-0.8,0s-0.4-0.1-0.7-0.1c-0.7,0-1.2,0.1-1.7,0.2s-1,0.1-1.5,0
		c-0.3-0.1-0.7-0.2-1.1-0.4s-0.8-0.4-1.1-0.5s-0.8-0.3-1.2-0.4s-0.8-0.3-1.1-0.4c-0.5-0.2-1.1-0.5-1.6-0.9c-0.5-0.3-1.1-0.6-1.7-0.8
		c-0.6-0.8-1.2-1.8-1.8-3c-0.6-1.2-1-2.3-1.1-3.5c0-0.3,0-0.6,0-0.9c0-0.3,0-0.6,0-0.9c-0.1-0.2-0.1-0.3-0.3-0.5
		c-0.1-0.2-0.2-0.3-0.3-0.5c-0.1-0.2-0.2-0.5-0.3-0.9c-0.1-0.4-0.1-0.8-0.2-1.1c-0.2-1.3-0.1-2.6,0-3.9c0.2-1.3,0.5-2.5,0.9-3.5
		c0-0.1,0.1-0.2,0.2-0.3c0.1-0.1,0.2-0.2,0.2-0.3c0.1-0.2,0.1-0.3,0.1-0.4s0-0.3,0.1-0.4c0.2-0.3,0.3-0.7,0.5-1.1s0.3-0.8,0.6-1.1
		c0.2-0.5,0.5-1,0.8-1.5s0.5-0.9,0.9-1.1c0.2-0.1,0.4-0.2,0.7-0.3s0.5-0.2,0.7-0.3c0.2-0.1,0.4-0.2,0.6-0.4c0.2-0.2,0.3-0.4,0.4-0.7
		c0-0.2,0-0.4-0.1-0.5c-0.1-0.2-0.1-0.3,0-0.5c1-1.2,2.2-2.2,3.8-3c0.2-0.1,0.3-0.1,0.5-0.2c0.2-0.1,0.3-0.1,0.5-0.2
		c0.2-0.1,0.4-0.3,0.6-0.4c0.2-0.2,0.4-0.3,0.7-0.3c0.5-0.2,1.1-0.3,1.7-0.4s1.2-0.3,1.8-0.4c0.2,0,0.4-0.1,0.7-0.1s0.4-0.1,0.6-0.2
		c0.3,0,0.8,0,1.3,0c0.6,0,1.2,0,1.8,0.1c0.6,0,1.3,0.1,1.9,0.1c0.6,0,1.1,0,1.4-0.1c0.2-0.1,0.4-0.1,0.6-0.2s0.4-0.2,0.7-0.2
		c0.5,0,1,0,1.3,0.1c0.4,0.1,0.9,0.1,1.5,0.2c0.4,0,0.8,0.1,1.2,0.1c0.4,0.1,0.8,0.1,1.2,0.1c0.5,0,1.1,0,1.6,0c0.6,0,1.1,0,1.6,0
		s1.1,0,1.6,0.1c0.5,0.1,1,0.1,1.4,0c0.3-0.1,0.5-0.2,0.8-0.3c0.2-0.1,0.5-0.2,0.8-0.1c0.2,0.1,0.5,0.2,0.8,0.4
		c0.3,0.2,0.4,0.5,0.4,0.7c0,0.3-0.2,0.6-0.6,0.9c-0.4,0.3-0.8,0.6-1.1,0.7c-0.9,0.4-1.9,0.7-3,0.9c-1.1,0.2-2.2,0.4-3.5,0.4
		c-0.4,0-0.8,0-1.2,0s-0.8,0-1.1,0.1c-0.2,0.1-0.4,0.1-0.5,0.2c-0.2,0.1-0.3,0.1-0.5,0.2c-0.4,0.1-0.9,0.2-1.4,0.2s-1,0-1.4,0.1
		c-0.9,0.1-1.9,0.2-3,0.4c-1.1,0.2-1.9,0.5-2.5,1c-0.2,0.1-0.4,0.3-0.7,0.4c-0.3,0.1-0.6,0.3-0.8,0.4s-0.6,0.3-0.8,0.4
		s-0.5,0.3-0.6,0.4c-0.4,0.4-0.7,0.7-1,1S263.5,15,263.4,15.6z"/>
	<path class="st0" d="M60.4,85.1c0.7,0.5,1.4,1.1,2.1,1.6c0.7,0.5,1.3,1.2,1.8,1.9c-0.1,0.3-0.1,0.5,0,0.7c0.1,0.2,0.2,0.3,0.3,0.5
		s0.3,0.3,0.4,0.4s0.2,0.3,0.3,0.5c0.1,0.4,0.1,0.9-0.1,1.4c-0.2,0.5-0.3,1-0.3,1.5c-0.1,0.2-0.1,0.5-0.1,0.8c0,0.3-0.1,0.5-0.1,0.8
		c-0.1,0.7-0.2,1.3-0.3,1.9c-0.1,0.6,0,1.2,0.2,1.9c0.2,0.5,0.4,1.1,0.8,1.7c0.4,0.6,0.8,1,1.2,1.2c0.2,0.1,0.3,0.1,0.4,0.1
		c0.1,0,0.2,0,0.4,0.1c0.2,0.1,0.3,0.2,0.4,0.4c0.1,0.2,0.3,0.3,0.6,0.4c0.4-0.3,0.9-0.4,1.5-0.2c0.5,0.1,1.1,0.2,1.6,0.2
		c0.2,0,0.3,0,0.4-0.1c0.1-0.1,0.2-0.1,0.4-0.1c0.7-0.1,1.5-0.1,2.2-0.2c0.8-0.1,1.5-0.2,2.2-0.4c0.3-0.1,0.7-0.3,1.1-0.5
		c0.4-0.2,0.8-0.4,1.1-0.7c0.5-0.3,1-0.6,1.5-1c0.5-0.3,1.1-0.4,1.8-0.2c0,0.6-0.1,1.1-0.3,1.4c-0.2,0.4-0.5,0.7-0.8,0.9
		c-0.3,0.3-0.7,0.5-1.1,0.8c-0.4,0.2-0.7,0.5-0.9,0.8c-0.6,0.2-1,0.4-1.4,0.6c-0.3,0.3-0.7,0.5-1.2,0.8c-0.3,0.1-0.5,0.2-0.7,0.3
		c-0.2,0.1-0.5,0.2-0.7,0.3c-0.3,0.1-0.5,0.3-0.7,0.5c-0.2,0.2-0.4,0.4-0.6,0.6c-0.3,0.2-0.5,0.3-0.9,0.3s-0.6,0.1-0.9,0.2
		c-0.8,0.2-1.7,0.5-2.7,0.6c-0.9,0.2-1.9,0.3-2.8,0.3c-1,0-1.9,0-2.8-0.1s-1.8-0.4-2.7-0.8c-0.5-0.2-0.9-0.4-1.1-0.7
		c-0.3-0.3-0.6-0.6-1-1c-0.4-0.3-0.8-0.7-1.3-1.2c-0.5-0.5-0.8-0.9-1.1-1.3c-0.1-0.3-0.2-0.5-0.3-0.9c-0.1-0.3-0.2-0.7-0.3-1
		c-0.1-0.3-0.2-0.7-0.4-1.1s-0.2-0.9-0.2-1.3c0-0.8,0-1.6,0.2-2.5c0.2-0.9,0.3-1.7,0.5-2.5s0.2-1.6,0.2-2.4s-0.2-1.4-0.5-2
		c-0.1-0.2-0.2-0.4-0.4-0.5c-0.2-0.2-0.3-0.4-0.5-0.6c-0.3-0.4-0.7-0.8-1.1-1.2c-0.4-0.4-1-0.6-1.7-0.7c-0.5-0.1-1.1-0.1-1.7,0
		c-0.6,0-1.1,0.2-1.4,0.4c-0.4,0.2-0.7,0.6-0.7,1.2s-0.1,1.1-0.3,1.7c-0.2,0.7-0.4,1.4-0.6,2c-0.3,0.6-0.4,1.3-0.3,2
		c0.1,0.3,0.2,0.7,0.3,1.1c0.1,0.4,0.2,0.8,0.4,1c0.1,0.2,0.2,0.5,0.5,0.8c0.2,0.3,0.2,0.6,0.1,0.8c-0.2,0.2-0.5,0.3-0.9,0.3
		c-0.4-0.1-0.9-0.1-1.3-0.1c-0.5,0-1-0.1-1.3-0.1c-0.4,0-0.7,0-1,0c-0.3,0-0.6,0-1,0.1c-0.3,0-0.8,0.1-1.3,0.2
		c-0.3,0-0.4,0.1-0.6,0.1c-0.1,0-0.3,0.1-0.4,0.1c-0.1,0-0.2,0.1-0.3,0.1c-0.1,0-0.3,0.1-0.5,0.2c-0.2,0.1-0.4,0.1-0.5,0.3
		c-0.2,0.1-0.3,0.2-0.5,0.3c-0.5,0.2-1.1,0.3-1.7,0.3S36,99,35.4,99c-0.5,0-1.1,0-1.6,0c-0.5,0-1-0.1-1.5-0.3
		c0.1-0.4,0.2-0.6,0.5-0.8c0.3-0.1,0.5-0.3,0.7-0.5c0.8-0.2,1.6-0.5,2.5-1.1c0.8-0.5,1.4-1.2,1.6-2c0.1-0.3,0.2-0.6,0.2-0.9
		c0-0.3,0.1-0.6,0.1-1c0.2-0.8,0.3-1.6,0.5-2.5c0.2-0.8,0.4-1.7,0.6-2.5c0.1-0.2,0.1-0.3,0.2-0.4s0.2-0.3,0.2-0.4
		c0.2-0.5,0.3-1.1,0.4-1.7s0.1-1.1,0.3-1.7c0.2-0.4,0.3-0.8,0.5-1.1c0.2-0.4,0.3-0.7,0.4-1.1c0.1-0.4,0.2-0.8,0.3-1.2
		c0.1-0.4,0.2-0.7,0.4-1c0.1-0.5,0.1-1,0.2-1.5c0.1-0.5,0.1-1,0-1.6c0.3-0.4,0.7-0.8,1-1.3c0.3-0.5,0.5-1,0.6-1.6
		c0.1-0.3,0.1-0.7,0-1c-0.1-0.3-0.1-0.7-0.1-1c0-0.8,0.1-1.5,0.2-2.2c0.1-0.6,0.2-1.4,0.3-2.2c-0.3-0.6-0.6-0.9-1.1-1.1
		s-1.1-0.5-1.7-0.9c-0.1,0-0.2-0.1-0.4-0.2c-0.2-0.1-0.3-0.2-0.5-0.3c-0.2-0.1-0.3-0.2-0.4-0.4c-0.1-0.1-0.2-0.2-0.2-0.3
		c0-0.2,0.2-0.4,0.4-0.5s0.5-0.2,0.8-0.3c0.3,0,0.6-0.1,0.9,0c0.3,0,0.6,0,0.8,0.1c0.8,0.2,1.5,0.3,2.2,0.5c0.7,0.2,1.5,0.3,2.2,0.4
		c0.8,0.1,1.6,0.2,2.4,0.2c0.9,0,1.8,0,2.9-0.1c0.4,0,0.8-0.1,1.1-0.2c0.3-0.1,0.6-0.1,1-0.2c0.5,0,1.1-0.1,1.6-0.2s1-0.1,1.6,0
		c1,0.1,1.8,0.1,2.6,0s1.5-0.1,2.4,0c0.4,0.1,0.8,0.2,1.1,0.4c0.4,0.2,0.7,0.4,1.1,0.5c0.4,0.2,0.7,0.4,1.1,0.5
		c0.4,0.1,0.7,0.2,1.1,0.3c0.6,0.3,1.1,0.8,1.6,1.3s1,1.1,1.4,1.8c0.3,0.5,0.7,1.1,1,1.8c0.3,0.7,0.5,1.3,0.7,1.7
		c0.2,0.6,0.3,1.1,0.3,1.7c0,0.5-0.1,1.1-0.2,1.6c-0.3,0.9-0.6,1.7-0.9,2.4s-0.8,1.4-1.2,2c-0.5,0.6-0.9,1.3-1.4,1.9
		c-0.5,0.6-0.9,1.3-1.3,2c-0.3,0.1-0.5,0.1-0.7,0.2s-0.5,0.1-0.7,0.2c-0.3,0.2-0.6,0.4-0.9,0.7c-0.3,0.3-0.6,0.5-1,0.6
		c-0.2,0.1-0.3,0.1-0.5,0c-0.2,0-0.3,0-0.5,0c-0.3,0.1-0.7,0.2-1,0.4C61.2,84.9,60.8,85,60.4,85.1z M57.7,81.1
		c0.5-0.6,1-1.2,1.6-1.8c0.6-0.5,1.1-1.2,1.4-1.9c0.2-0.3,0.3-0.8,0.4-1.2c0.1-0.5,0.2-0.9,0.3-1.4c0.2-0.9,0.2-1.8,0-2.5
		c-0.1-0.7-0.3-1.4-0.7-1.9c-0.3-0.6-0.7-1-1.2-1.5s-1-0.8-1.5-1.1c-0.4-0.2-0.9-0.5-1.3-0.8c-0.5-0.3-1-0.4-1.7-0.2
		c-0.5,0.3-0.9,0.7-1.1,1.4c-0.3,0.6-0.6,1.2-0.8,1.7c-0.1,0.2-0.2,0.4-0.3,0.7c-0.1,0.2-0.2,0.4-0.3,0.6c0,0.2,0,0.4,0,0.7
		c0,0.2,0,0.5,0,0.7c-0.1,0.2-0.2,0.4-0.5,0.4c-0.3,0.1-0.4,0.2-0.4,0.4c0,0.2,0.1,0.4,0.3,0.6c0.2,0.2,0.3,0.4,0.3,0.6
		c0,0.4-0.2,0.8-0.4,1.3s-0.4,1-0.4,1.5c-0.1,0.5-0.2,0.9-0.3,1.4s-0.3,0.9-0.4,1.3s-0.3,0.9-0.4,1.3c-0.1,0.5-0.1,0.9-0.1,1.4
		c0.6,0.1,1.3,0.2,2,0.1c0.7,0,1.4-0.1,2.1-0.3c0.7-0.2,1.3-0.4,1.9-0.6S57.3,81.5,57.7,81.1z"/>
	<path class="st0" d="M102.3,63.2c0.8,0.7,1.5,1.3,2.3,1.9s1.5,1.3,2,2c0.1,0.2,0.2,0.3,0.3,0.5c0.1,0.2,0.2,0.4,0.3,0.5
		c0.2,0.3,0.5,0.7,0.8,1.1s0.5,0.9,0.6,1.4c0.1,0.4,0.1,0.8,0,1.2c-0.1,0.4-0.1,0.9,0,1.3c0,0.2,0.1,0.3,0.3,0.4
		c0.2,0.1,0.3,0.3,0.4,0.5c0.1,0.4,0.1,0.9-0.1,1.3s-0.2,0.9-0.1,1.5c0,0.3,0.1,0.6,0.3,0.9c0.2,0.2,0.3,0.5,0.3,0.8
		c0,0.4,0,0.9-0.1,1.3c-0.1,0.4-0.2,0.8-0.3,1.2c-0.3,1.3-0.5,2.4-0.7,3.3c-0.2,0.9-0.6,1.8-1.1,2.8c-0.3,0.4-0.5,0.9-0.7,1.4
		c-0.2,0.5-0.4,0.9-0.7,1.3c-0.7,1-1.4,1.9-2.2,2.7c-0.8,0.8-1.5,1.7-2.2,2.5c-1.2,0.5-2.3,1-3.4,1.5c-1.1,0.5-2.3,1-3.6,1.4
		c-0.3,0.1-0.6,0.2-0.9,0.3c-0.3,0.1-0.6,0.2-1,0.3c-0.4,0.1-0.8,0.2-1.3,0.2c-0.4,0-0.9,0.1-1.3,0.1c-0.3,0.1-0.6,0.1-0.9,0.3
		c-0.3,0.1-0.6,0.2-1,0.2c-0.3,0.1-0.7,0-1,0c-0.3-0.1-0.6-0.2-1-0.2c-0.3-0.1-0.5-0.1-0.8,0c-0.3,0-0.6,0.1-0.8,0
		c-0.2,0-0.3-0.1-0.5-0.2c-0.2-0.1-0.3-0.2-0.6-0.3c-0.2-0.1-0.4-0.2-0.6-0.2c-0.2,0-0.4-0.1-0.6-0.1c-0.3-0.1-0.5-0.2-0.7-0.4
		c-0.2-0.1-0.5-0.2-0.7-0.3c-0.2-0.1-0.4-0.1-0.6-0.1s-0.4,0-0.5-0.1c-0.2-0.1-0.4-0.2-0.6-0.4c-0.2-0.2-0.4-0.4-0.6-0.5
		c-0.3-0.2-0.5-0.3-0.8-0.4c-0.3-0.1-0.5-0.2-0.6-0.3c-0.4-0.3-0.9-0.8-1.3-1.3c-0.5-0.6-0.9-1.2-1.2-1.8c-0.3-0.6-0.6-1.1-1-1.7
		c-0.4-0.6-0.7-1.2-0.9-1.9c-0.1-0.4-0.1-0.8-0.1-1.2c0-0.5-0.1-0.9-0.1-1.4c-0.1-0.9-0.1-1.8-0.1-2.8c0-1,0.1-2,0.3-3.2
		c0.1-0.3,0.2-0.7,0.3-1c0.2-0.3,0.3-0.7,0.5-1c0.1-0.3,0.2-0.7,0.4-1c0.1-0.3,0.2-0.7,0.4-1c0.2-0.3,0.4-0.5,0.7-0.8
		s0.5-0.5,0.6-0.9s0.1-0.7,0-0.9c-0.1-0.3-0.1-0.6-0.1-1c0.1-0.8,0.4-1.4,1.1-2s1.2-1.2,1.7-1.8c0.7-0.8,1.3-1.4,2-1.9
		c0.6-0.5,1.4-1.1,2.2-1.7c0.1-0.1,0.3-0.1,0.5-0.2c0.2-0.1,0.4-0.2,0.6-0.3c0.2-0.1,0.3-0.3,0.5-0.4c0.2-0.1,0.3-0.2,0.4-0.3
		c0.3-0.1,0.6-0.1,0.9,0c0.3,0,0.6,0,0.9,0c0.2-0.1,0.5-0.2,0.7-0.4s0.5-0.4,0.7-0.6c0.2-0.2,0.4-0.4,0.7-0.7
		c0.2-0.2,0.4-0.4,0.7-0.5c0.1-0.1,0.2-0.1,0.4-0.1s0.3-0.1,0.4-0.1c0.9-0.4,1.8-0.5,2.8-0.4s2,0.2,3,0.3c0.8,0.1,1.5,0.1,2.3,0.2
		c0.8,0,1.5,0.2,2.1,0.4c0.4,0.1,0.9,0.3,1.3,0.5C101.5,62.9,101.9,63.1,102.3,63.2z M94.1,92.2c0.2-0.2,0.4-0.5,0.7-0.9
		c0.2-0.4,0.5-0.7,0.7-1.1c0.5-0.8,1-1.7,1.4-2.6c0.4-0.9,0.9-1.8,1.3-2.7c0.4-0.9,0.8-1.9,1.1-2.9c0.3-1,0.6-2,1-3.1
		c0.1-0.3,0.3-0.7,0.6-1.1c0.3-0.4,0.4-0.8,0.4-1c0-0.2,0-0.4-0.2-0.6s-0.2-0.4-0.3-0.5c0-0.2,0-0.4,0-0.6c0-0.2,0-0.4,0-0.5
		c0-0.2,0-0.4-0.1-0.5c-0.1-0.2-0.1-0.3-0.2-0.5c-0.1-0.3-0.1-0.6-0.1-0.9c0-0.3,0-0.6,0-0.9c0-0.2,0-0.5,0-0.7c0-0.2,0-0.5,0-0.7
		c-0.2-0.8-0.5-1.4-1-1.9c-0.5-0.5-1-1-1.5-1.4c-0.2-0.1-0.3-0.3-0.4-0.4s-0.2-0.2-0.3-0.3c-0.2-0.1-0.5-0.1-0.7-0.1
		c-0.3,0-0.5,0-0.7,0c-0.7,0.1-1.3,0.2-1.9,0.4c-0.5,0.2-1.2,0.4-1.9,0.6c-1,0.7-2.1,1.4-3.2,2.2c-1.1,0.8-2.1,1.8-2.8,2.9
		c-0.1,0.2-0.2,0.3-0.2,0.5s-0.1,0.3-0.2,0.5c-0.2,0.2-0.3,0.5-0.5,0.6s-0.4,0.4-0.5,0.6c-0.3,0.5-0.6,1-0.8,1.5s-0.5,1.1-0.6,1.5
		c-0.2,0.6-0.3,1.3-0.3,2c0,0.7-0.1,1.4-0.2,2.2c-0.1,0.9-0.2,1.7-0.3,2.6c-0.1,0.8-0.2,1.6-0.1,2.3c0,0.2,0,0.4,0.1,0.6
		c0.1,0.2,0.1,0.4,0.1,0.6c0.1,0.8,0.2,1.5,0.3,2.1s0.3,1.1,0.8,1.6c0.2,0.2,0.4,0.4,0.7,0.5s0.5,0.3,0.7,0.5
		c0.2,0.2,0.3,0.3,0.4,0.5c0.1,0.2,0.2,0.3,0.4,0.4c1,0.8,2.5,1.2,4.4,1.2c0.6-0.4,1.3-0.8,2.1-1.1S93.6,92.8,94.1,92.2z"/>
	<path class="st0" d="M119.2,96.4c-0.6,0-1.1,0.1-1.4,0.4s-0.5,0.6-0.6,1c-0.4-0.1-0.8-0.1-1.3,0c-0.5,0.1-1,0.1-1.5,0.2
		c-0.5,0.1-1,0.1-1.4,0.1c-0.5,0-0.8-0.1-1.1-0.3c-0.2-0.1-0.3-0.2-0.4-0.4c-0.1-0.2-0.2-0.3-0.3-0.5c-0.1-0.2-0.3-0.4-0.4-0.5
		s-0.2-0.3-0.3-0.5c-0.1-0.2,0-0.5,0.1-0.8c0.2-0.4,0.3-0.6,0.4-0.8c0.1-0.1,0.3-0.2,0.4-0.2c0.2-0.1,0.3-0.2,0.5-0.3
		c0.4-0.3,0.8-0.8,1-1.3c0.2-0.5,0.4-0.9,0.5-1.2c0.2-0.2,0.5-0.3,0.8-0.5c0.3-0.2,0.4-0.4,0.4-0.7c-0.3-0.2-0.6-0.2-1-0.2
		s-0.8,0-1.1,0c-0.6,0-1.2,0-1.9-0.1s-1.2-0.2-1.7-0.2c-0.8-0.2-1.5-0.5-2.1-1.1s-0.9-1.3-0.8-2.2c0.2-0.1,0.5-0.1,0.7-0.1
		c0.3,0,0.5,0,0.8,0c0.3,0,0.6,0.1,0.9,0.1c0.3,0,0.6,0,0.8-0.1c0.3,0.2,0.5,0.3,0.8,0.3s0.5,0,0.7-0.1c0.2-0.1,0.4-0.2,0.6-0.3
		s0.4-0.2,0.5-0.2c0.2,0,0.3,0,0.4,0c0.1,0,0.3,0,0.4,0c0.2,0,0.5,0,0.8-0.1c0.2-0.1,0.5-0.1,0.9-0.2c0.5-0.1,1-0.1,1.5-0.1
		c0.5,0,0.9-0.1,1.3-0.3c0.2-0.1,0.5-0.3,0.8-0.5s0.5-0.4,0.6-0.6c0.1-0.2,0.1-0.3,0.1-0.4s0-0.3,0.1-0.4c0.2-0.5,0.4-1,0.8-1.4
		c0.4-0.4,0.7-0.9,1-1.4c0.1-0.2,0.2-0.4,0.2-0.6s0.1-0.2,0.1-0.3s0.1-0.2,0.1-0.3s0.1-0.3,0.3-0.6c0.3-0.4,0.6-0.9,0.9-1.3
		s0.6-0.8,1.1-1.2c0-0.2,0-0.4,0.1-0.5s0.1-0.3,0.2-0.4c0.8-0.3,1.5-0.8,2.1-1.4s1.1-1.2,1.6-1.8c0-0.3,0-0.5,0.2-0.7
		s0.2-0.4,0.2-0.7c0-0.2-0.1-0.3-0.2-0.5s-0.2-0.4-0.2-0.6c0-0.2,0.1-0.5,0.3-0.8s0.4-0.5,0.5-0.7c0.2-0.2,0.4-0.5,0.6-0.8
		s0.3-0.5,0.4-0.7c0.2-0.3,0.5-0.5,0.8-0.8s0.5-0.5,0.8-0.8c0.1-0.2,0.2-0.4,0.3-0.6s0.2-0.4,0.4-0.5c0.3-0.2,0.7-0.3,1.2-0.3
		s1-0.1,1.5-0.1c0.6,0,1.2-0.1,1.9-0.2s1.4-0.2,2.1-0.4s1.4-0.2,2.1-0.4s1.3-0.2,1.9-0.2c0.6-0.1,1.1-0.1,1.6,0s0.9,0,1.2-0.1
		c0.4,0.4,0.9,0.7,1.3,1.1s0.9,0.7,1.3,1.1c0.1,0.6,0.2,1.2,0.3,1.7s0.1,1.1,0,1.6c-0.1,0.2-0.2,0.5-0.3,0.7s-0.2,0.5-0.2,0.8
		c0,0.5,0.1,0.9,0.4,1.4s0.5,0.9,0.6,1.5c0,0.2,0,0.5-0.1,0.7s-0.2,0.5-0.2,0.7s0,0.5,0,0.8s0.1,0.6,0.2,0.9c0,0.4,0,0.8,0,1.1
		s0,0.8,0,1.2s0.1,0.8,0.2,1.2s0.1,0.9,0.1,1.3c-0.1,0.4-0.1,0.8-0.3,1.2s-0.2,0.8-0.2,1.2c0,0.6,0,1.1,0.1,1.6s0.1,1-0.1,1.6
		c0.2,0.3,0.4,0.6,0.4,0.9s0,0.6-0.1,0.9s-0.1,0.6-0.2,1s0,0.7,0.1,1c0.1,0.2,0.2,0.4,0.4,0.6s0.3,0.4,0.4,0.6
		c0.1,0.3,0.1,0.7,0.2,1.1s0,0.9,0,1.3c0,1-0.1,1.9-0.3,2.7s-0.3,1.6-0.4,2.5c0,0.4,0,0.9,0,1.4c0,0.5-0.1,0.9-0.3,1.2
		c-0.2,0.2-0.4,0.4-0.8,0.6c-0.3,0.2-0.6,0.3-0.9,0.4c-0.5,0-1-0.1-1.6-0.4s-1.1-0.6-1.4-0.9c-0.3-0.3-0.5-0.7-0.8-1
		s-0.5-0.8-0.7-1.2c-0.2-0.4-0.5-0.8-0.7-1.1s-0.5-0.7-0.8-0.9c-0.2-0.1-0.3-0.2-0.5-0.3s-0.3-0.2-0.4-0.3c-0.2-0.3-0.3-0.7-0.3-1.1
		s0-0.8,0-1.2s0.1-0.8,0.1-1.2s0-0.8-0.1-1.1s-0.2-0.6-0.4-0.7s-0.4-0.3-0.6-0.4s-0.5-0.1-0.8-0.1s-0.6,0-1.1-0.1
		c-1.5-0.1-3-0.2-4.5-0.3s-3.2-0.1-4.8-0.1c-0.3,0-0.6,0-0.8,0s-0.3,0.1-0.4,0.1s-0.2,0-0.4,0.1s-0.3,0-0.6,0
		c-0.6,0-1.2,0.1-1.7,0.1s-0.9,0.2-1.3,0.5c-0.2,0.2-0.5,0.5-0.7,0.9s-0.4,0.8-0.6,1.1c-0.2,0.4-0.3,0.8-0.4,1.2s-0.2,0.8-0.3,1.2
		s-0.2,0.8-0.4,1.1C119.7,95.8,119.5,96.1,119.2,96.4z M131.1,84c1.1,0,2.1-0.1,3.1-0.1s1.9-0.1,2.8-0.1c0.1-0.1,0.2-0.1,0.4-0.1
		s0.3,0,0.5,0c0-0.2,0.1-0.2,0.2-0.3s0.3-0.1,0.4-0.1c0.1-0.2,0.2-0.4,0.2-0.5s0-0.3-0.1-0.4s-0.1-0.2-0.2-0.4s-0.1-0.3-0.1-0.6
		s0-0.5,0.1-0.8s0.1-0.5,0.2-0.8c0-0.2,0-0.5-0.1-0.7s-0.1-0.5-0.1-0.8c0-0.2,0.1-0.4,0.3-0.6s0.2-0.4,0.2-0.6c0-0.1,0-0.3-0.1-0.4
		s-0.1-0.3-0.1-0.5c0-0.2,0-0.4,0-0.7s0-0.4-0.1-0.6c-0.1-0.2-0.2-0.5-0.5-0.7s-0.4-0.5-0.5-0.7c-0.1-0.3-0.1-0.7,0-1.1
		s0.1-0.8,0.1-1.1c0-0.5-0.1-1-0.1-1.5s-0.2-0.9-0.5-1.3c-0.3-0.2-0.6-0.3-0.8-0.2s-0.3,0.2-0.4,0.3s-0.2,0.4-0.3,0.6
		s-0.2,0.4-0.4,0.6c-0.8,0.8-1.5,1.5-2,2.3s-1,1.6-1.7,2.5c-0.3,0.3-0.6,0.7-0.9,1s-0.6,0.7-0.8,1.1s-0.4,0.8-0.5,1.3
		s-0.2,0.9-0.1,1.5c-0.2,0.2-0.3,0.4-0.4,0.5s-0.2,0.2-0.4,0.3s-0.3,0.2-0.4,0.3s-0.3,0.3-0.5,0.5c-0.3,0.4-0.7,0.9-1.1,1.3
		s-0.7,0.9-0.8,1.5c0.6,0.2,1,0.2,1.5,0.2s0.8,0,1.2-0.1s0.8-0.1,1.2-0.2S130.6,84,131.1,84z"/>
	<path class="st0" d="M154.9,90.7c0.1-0.2,0.3-0.4,0.5-0.4s0.4-0.2,0.4-0.5c0.1-0.2,0-0.4,0-0.6s-0.1-0.4-0.1-0.6
		c0-0.1,0-0.3,0.1-0.4s0.1-0.3,0.2-0.4c0.1-0.4,0.2-0.8,0.2-1.1s0.1-0.8,0.2-1.1s0.2-0.7,0.3-1s0.3-0.6,0.6-0.8
		c0.1-0.6,0.2-1.1,0.5-1.6s0.4-1.1,0.5-1.7c0-0.2,0-0.3,0-0.5s0-0.4,0-0.5c0.1-0.3,0.2-0.7,0.3-1s0.2-0.6,0.3-1
		c0.2-0.8,0.4-1.6,0.6-2.4s0.4-1.5,0.5-2.2c0.1-0.3,0.1-0.7,0.1-1s0-0.6,0-0.9c0.1-0.6,0.2-1.2,0.3-1.8s0.1-1.1,0-1.6
		c-0.1-0.2-0.2-0.4-0.3-0.6s-0.2-0.4-0.3-0.7c-0.1-0.2-0.1-0.3-0.1-0.4s0-0.3-0.1-0.4c-0.1-0.3-0.3-0.5-0.5-0.6s-0.5-0.3-0.7-0.4
		s-0.4-0.4-0.5-0.6s-0.2-0.6-0.1-1c0.2-0.2,0.5-0.4,0.8-0.4s0.6,0,1,0s0.7,0.1,1.1,0.2s0.7,0.2,1.1,0.3c0.5,0.1,1,0.1,1.5,0.1
		s1.1,0,1.7-0.1s1.2,0,1.7,0s1.1,0,1.7,0.1c0.2,0,0.3,0.1,0.4,0.1s0.2,0.1,0.3,0.1c0.2,0,0.5-0.1,0.6-0.2s0.4-0.2,0.6-0.3
		c1.2-0.2,2.3-0.1,3.3,0.2s2.1,0.5,3.1,0.6c1,0.2,2,0.3,3,0.4s1.9,0.3,2.5,0.8c0.3,0.2,0.7,0.5,0.9,0.8s0.6,0.5,0.9,0.7
		c0.5,0.3,1.1,0.5,1.7,0.7s1.2,0.4,1.7,0.7c0.2,0.1,0.3,0.1,0.4,0.3s0.3,0.2,0.4,0.3c0.2,0.2,0.5,0.3,0.7,0.3s0.4,0.2,0.7,0.4
		c0.2,0.2,0.4,0.4,0.5,0.6s0.3,0.5,0.4,0.8c0.3,0.4,0.6,0.8,0.9,1.1s0.6,0.7,0.8,1.3c0.1,0.3,0.1,0.6,0.2,0.8s0.1,0.5,0.2,0.8
		c0.2,0.7,0.4,1.5,0.6,2.5s0.1,1.9-0.2,2.9c-0.1,0.2-0.2,0.4-0.3,0.6s-0.2,0.4-0.3,0.6c-0.4,1.1-0.9,2.2-1.5,3.3s-1.3,2.1-2.3,3.1
		c-0.3,0-0.6,0.1-0.9,0.2c-0.2,0.3-0.4,0.7-0.5,1.1s-0.3,0.7-0.6,1c-0.1,0.2-0.3,0.3-0.5,0.4s-0.4,0.3-0.5,0.5
		c-0.7,0.8-1.4,1.6-2.2,2.5s-1.6,1.6-2.5,2.1c-0.2,0.2-0.5,0.3-0.8,0.5s-0.6,0.3-0.8,0.4c-0.2,0.1-0.3,0.1-0.4,0.1s-0.3,0-0.4,0.1
		c-0.3,0.2-0.6,0.4-0.9,0.6s-0.5,0.5-0.8,0.7c-0.7-0.1-1.3,0-1.9,0.2s-1.2,0.3-1.9,0.3c-1,0-2.2,0-3.4,0.1c-1.2,0.1-2.5,0.1-3.7,0.2
		c-0.4,0-0.9,0.1-1.3,0.1c-0.4,0-0.9,0-1.4,0c-0.8,0-1.6,0-2.3,0c-0.8,0-1.5,0-2.2,0c-0.9,0-1.7,0-2.5,0.2c-0.8,0.2-1.6,0.3-2.6,0.4
		c-0.6,0.1-1.2,0.2-1.8,0.4s-1.1,0.3-1.5,0.3c-0.2,0-0.3,0-0.5-0.1s-0.4-0.1-0.5-0.2s-0.3-0.2-0.4-0.3c-0.1-0.1-0.1-0.3-0.1-0.5
		c0-0.1,0.1-0.3,0.3-0.4s0.3-0.3,0.6-0.4s0.4-0.2,0.7-0.4s0.4-0.2,0.6-0.3c0.7-0.5,1.3-1,1.7-1.4s0.8-1,1.3-1.8
		c0.2-0.3,0.3-0.5,0.4-0.7s0.3-0.4,0.4-0.6s0.2-0.4,0.2-0.6S154.9,91,154.9,90.7z M168.7,93.3c0.3,0,0.6,0.1,0.9,0.2
		s0.5,0.2,0.8,0.2c0.6,0,1.2-0.1,1.6-0.4s0.9-0.6,1.2-0.8c0.3-0.2,0.6-0.3,0.9-0.4s0.6-0.2,0.8-0.4c0.7-0.4,1.3-0.9,1.8-1.5
		s1.1-1.3,1.5-2.1s0.9-1.5,1.3-2.3s0.8-1.6,1.1-2.3c0.2-0.4,0.4-0.9,0.7-1.3s0.4-0.8,0.6-1.2c0.2-0.5,0.2-1,0.2-1.5s0-1,0.1-1.4
		c0.1-0.2,0.2-0.3,0.4-0.5s0.3-0.4,0.3-0.6c0-0.3-0.1-0.5-0.3-0.7s-0.3-0.4-0.4-0.6c0-0.2,0-0.4,0-0.6s0.1-0.4,0.1-0.6
		c0-0.4-0.1-0.9-0.2-1.4s-0.3-1-0.4-1.4s-0.4-0.9-0.7-1.2s-0.6-0.7-0.9-0.9s-0.8-0.4-1.4-0.7s-1.2-0.4-1.9-0.5s-1.4-0.2-2-0.3
		s-1.2,0-1.6,0.1c-0.5,0.2-0.8,0.4-1.1,0.7s-0.4,0.7-0.6,1.1s-0.3,0.8-0.5,1.2s-0.4,0.8-0.7,1.1c-0.1,0.1-0.3,0.2-0.6,0.4
		s-0.4,0.3-0.5,0.5c-0.1,0.2,0,0.4,0.1,0.6s0.2,0.4,0.2,0.6c0,0.3-0.1,0.5-0.2,0.7s-0.2,0.4-0.3,0.7c-0.2,0.5-0.3,1.1-0.4,1.6
		s-0.3,1.1-0.5,1.7c-0.2,0.5-0.4,1.1-0.6,1.6s-0.4,1.1-0.4,1.6c-0.2,0.9-0.3,1.9-0.4,3s-0.3,2-0.5,2.9c-0.2,0.6-0.4,1.2-0.7,1.8
		s-0.4,1.2-0.3,1.7c0,0.3,0.2,0.6,0.4,0.9s0.4,0.6,0.6,0.9c0.4,0,0.8,0,1.2-0.1S168.3,93.3,168.7,93.3z"/>
</g>
<g>
	<path class="st1" d="M299.9,86.8h-2.4c-1.6-0.4-3.1-0.9-4.6-1.5c-1.6-0.6-3.5-1.6-5.6-2.8c0,0.9,0.1,1.6,0.2,2.1
		c0.1,0.5,0.2,0.9,0.2,1.1c0,0.2,0,0.6,0,1.1c-1.1-1.9-2-3.5-2.5-4.8c-0.3-0.6-0.4-1.3-0.4-2l-3.4-2.1c-1.5-1-3.1-2.3-4.8-4.1
		c-0.8-1.9-1.9-3.7-3.3-5.4c-1.4-1.8-3.4-3.6-5.9-5.2c-1.3,1.4-2.2,4.3-2.7,8.6c-0.4,4.3-0.8,6.9-1.2,7.7c0-3.1,0.2-6.1,0.6-9
		c0.3-2,0.7-3.9,1.2-5.9l0.6-2.2c0-0.3-0.8-1.1-2.4-2.5l-2.4-2.1c-0.9-1.2-1.5-2.3-1.9-3.6l-0.6-3.6c-1.2-0.5-2.4-1.3-3.6-2.4
		c-1.2-1.1-2.2-2.9-3.2-5.3v-3.8c0.7,0.5,1.2,1.3,1.6,2.4l0.8,3.4l3.1,2.3l3.2,2.5c0.1,0.2,0,0.5,0,1l-0.1,1.1
		c0,0.7,0.2,1.3,0.7,1.9c0.6,0.8,1.7,1.6,3.3,2.3c2.3,1.1,4.4,2.2,6.1,3.5l1.1,0.8c0.7,0.3,1.7,0.5,3,0.7c1.3,0.2,2.7,0.3,4.3,0.3
		c3.3,0,5.3,0.2,6.2,0.5c-0.5,0-1,0.1-1.4,0.2l-1,0.3c4.1,2.5,7.4,4.3,9.9,5.5c2.9,1.3,4.4,2.1,4.5,2.2c-1-0.6-2.1-1.1-3.4-1.4v4.3
		l1.5,2.3l1.9,3c-1.4-1.5-2.3-2.9-2.8-4.4c-0.4-1.1-0.6-2.3-0.6-3.6v-1v-1c-2.3,0-4.1-0.4-5.6-1.3l-4-2.6c-2-0.9-4.9-1.4-8.7-1.4
		c-0.5,0-2.4-1-5.7-2.9c-1.6-0.9-3.2-1.4-4.8-1.4c1.7,1.7,2.8,2.8,3.4,3.2l3.8,2.6c0.7,0.5,2.1,2.4,4.2,5.7c1.2,1.9,2.7,3.7,4.5,5.4
		c3.6,3.4,6.8,5.7,9.8,6.9c1.5,0.5,3.3,0.8,5.4,0.8h1c0.4,0,0.8,0.2,1.1,0.5l-1,0c-0.4,0-1,0.1-1.9,0.4c1,0.4,1.9,0.8,2.5,1.2
		C298.8,85.6,299.4,86.1,299.9,86.8z"/>
</g>
</svg>
