<?xml version="1.0" encoding="utf-8"?>
<!-- Generator: Adobe Illustrator 20.1.0, SVG Export Plug-In . SVG Version: 6.00 Build 0)  -->
<svg version="1.1" id="Layer_1" xmlns="http://www.w3.org/2000/svg" xmlns:xlink="http://www.w3.org/1999/xlink" x="0px" y="0px"
	 viewBox="0 0 151.7 53.4" style="enable-background:new 0 0 151.7 53.4;" xml:space="preserve">
<style type="text/css">
	.st0{fill:#E1E0DB;}
	.st1{fill:#FFFF99;stroke:#F7931E;stroke-miterlimit:10;}
</style>
<g>
	<path class="st0" d="M105.3,30.4c0,0,0,0.1,0.1,0.1s0.1,0,0.1,0s0.1,0,0.2,0s0.1,0,0.1,0c0.1,0,0.1,0,0.1,0s0.1,0,0.1,0.1
		c0.1,0,0.1,0,0.1,0.1s0.1,0,0.1,0.1s0.1,0.1,0.1,0.1s0.1,0.1,0.1,0.1c0.1,0.1,0.1,0.1,0.1,0.2s0.1,0.2,0.1,0.3c0,0,0,0.1,0,0.2
		s-0.1,0.2-0.1,0.2s-0.1,0.2-0.1,0.2s-0.1,0.1-0.1,0.2c-0.2,0.1-0.3,0.2-0.5,0.3s-0.4,0.2-0.6,0.3c-0.1,0-0.1,0-0.1,0l-0.1,0
		c-0.1,0-0.1,0-0.2,0s-0.1,0-0.2,0s-0.1,0-0.1,0s-0.1,0-0.1,0c-0.1,0-0.2,0-0.3,0s-0.2,0-0.3,0c-0.1,0-0.1,0-0.1,0h-0.1
		c-0.1,0-0.2,0-0.3,0s-0.2,0-0.3,0s-0.3,0-0.5,0s-0.3,0-0.5,0c-0.1,0-0.2,0-0.2,0s-0.2,0-0.2,0c-0.2,0-0.3,0-0.4,0s-0.2,0-0.3,0
		s-0.2,0-0.3,0s-0.2,0-0.4,0c-0.1,0-0.2,0-0.3,0s-0.2,0-0.2-0.2c0,0,0.1,0,0.1,0l0.1,0c0.2,0,0.3-0.1,0.4-0.2s0.2-0.2,0.3-0.5
		c0,0,0.1-0.1,0.1-0.2s0.1-0.1,0.1-0.1c0.1,0,0.1-0.1,0.1-0.1s0,0,0.1-0.1c0,0,0.1-0.1,0.1-0.2s0-0.1,0-0.2s0-0.1,0.1-0.2
		s0.1-0.1,0.1-0.1c0-0.1,0-0.2,0-0.2s0-0.2,0.1-0.2c0,0,0.1-0.1,0.1-0.1s0.1,0,0.1-0.1c0,0,0-0.1,0-0.2s0-0.1,0-0.2
		c0,0,0.1-0.1,0.1-0.2s0.1-0.1,0.1-0.2c0.1-0.1,0.1-0.2,0.1-0.4s0-0.2,0.1-0.4c0,0,0.1,0,0.1-0.1s0.1,0,0.1-0.1
		c0.1-0.1,0.1-0.2,0.1-0.3s0-0.2,0.1-0.3c0.1-0.1,0.1-0.2,0.1-0.4s0.1-0.2,0-0.4c0-0.1-0.1-0.2-0.2-0.3s-0.1-0.1-0.2-0.2
		c-0.1,0-0.2-0.1-0.2-0.1s-0.2,0-0.2-0.1c-0.1,0-0.1,0-0.2,0s-0.1,0-0.1-0.1c0,0,0.1,0,0.1-0.1s0.1,0,0.2,0s0.1,0,0.2,0s0.1,0,0.1,0
		c0.1,0,0.2,0,0.2,0s0.2,0,0.2,0c0.1,0,0.2,0,0.4,0s0.3,0,0.4,0c0.1,0,0.1,0,0.1,0s0.1,0,0.1,0c0.1,0,0.1,0,0.2-0.1s0.1-0.1,0.2-0.1
		c0.1,0,0.2,0,0.4,0s0.3,0,0.4,0c0.1,0,0.2,0,0.3,0s0.2,0,0.3,0s0.2,0,0.2,0s0.2,0,0.3,0c0.2,0,0.2,0,0.4,0s0.2,0,0.4,0.1
		c0.1,0,0.2,0,0.2,0.1s0.2,0.1,0.2,0.1c0.1,0,0.2,0,0.3,0.1s0.2,0,0.2,0s0.1,0,0.1,0l0.1,0h0.1c0,0,0.1,0,0.1,0
		c0.1,0,0.2,0.1,0.2,0.2s0.1,0.2,0.1,0.3c0,0,0.1,0.1,0.1,0.2s0,0.2,0,0.3s0,0.2-0.1,0.3s-0.1,0.2-0.2,0.2c0,0-0.1,0-0.1,0
		s-0.1,0-0.1,0c-0.1,0-0.2,0.1-0.2,0.2s-0.2,0.1-0.3,0.1c0,0-0.1,0.1-0.1,0.1s-0.1,0-0.2,0.1s-0.1,0-0.2,0s-0.1,0-0.2,0
		c-0.1,0-0.2,0.1-0.3,0.1S105.4,30.4,105.3,30.4z M102.5,31.1c-0.1,0.1-0.1,0.1-0.1,0.3c0,0.2,0,0.2-0.1,0.3c0,0.1-0.1,0.2-0.1,0.2
		s-0.1,0.2-0.1,0.2s0,0,0,0.1s0,0,0,0.1s-0.1,0.1-0.1,0.2s-0.1,0.2-0.1,0.2s0.1,0,0.1,0.1s0.1,0,0.2,0s0.2,0,0.2,0s0.2,0,0.2,0
		c0.1,0,0.1,0,0.2,0s0.1,0,0.2,0s0.1,0,0.2,0s0.1,0,0.2,0s0.1,0,0.2,0s0.1,0,0.2,0c0.2,0,0.3,0,0.4-0.2s0.2-0.2,0.3-0.3
		c0.1-0.2,0.1-0.3,0.2-0.5s0-0.3,0-0.5c0,0-0.1-0.1-0.1-0.2s-0.1-0.1-0.2-0.1c0,0-0.1,0-0.1,0s-0.1,0-0.1,0l-0.1,0l-0.1,0
		c-0.1,0-0.1,0-0.2,0s-0.2,0-0.2,0c-0.1,0-0.1,0-0.1,0s-0.1,0-0.1,0c-0.1,0-0.1,0-0.2,0s-0.1,0-0.2,0s-0.1,0-0.2,0s-0.1,0-0.2,0
		c-0.1,0-0.2,0-0.2,0.1S102.5,31,102.5,31.1z M103.3,29.9c0.1,0,0.1,0,0.2,0s0.2,0,0.2,0c0.1,0,0.1,0,0.2,0s0.1,0,0.2,0s0.2,0,0.2,0
		s0.2,0,0.2-0.1s0.2,0,0.2-0.1s0.2-0.1,0.2-0.1c0.1,0,0.1-0.1,0.2-0.1s0.1-0.1,0.1-0.2s0.1-0.1,0.1-0.2s0-0.1,0-0.2
		c0,0-0.1-0.1-0.1-0.1s-0.1-0.1-0.1-0.1c-0.1,0-0.1-0.1-0.2-0.2s-0.2-0.1-0.3-0.2h-0.1c0,0-0.1,0-0.1,0c-0.1,0-0.1,0-0.2-0.1
		s-0.1,0-0.1-0.1c-0.2,0-0.2,0-0.4,0s-0.2,0.1-0.2,0.1c0,0,0,0,0,0.1s0,0,0,0.1c0,0-0.1,0-0.1,0s-0.1,0-0.1,0.1
		c0.1,0,0.1,0.1,0.1,0.2s-0.1,0.1-0.1,0.2c-0.1,0.1-0.1,0.4-0.2,0.5s-0.1,0.4-0.2,0.5c0.1,0,0.1,0.1,0.2,0.1S103.2,29.9,103.3,29.9z
		"/>
	<path class="st0" d="M107.3,33c0-0.2,0.1-0.2,0.2-0.3s0.2-0.2,0.2-0.3c0-0.1,0.1-0.2,0.1-0.2s0-0.2,0-0.2s0-0.2,0-0.2
		s0.1-0.2,0.1-0.2c-0.1,0-0.1-0.1-0.1-0.2s0-0.1,0-0.2c0.1,0,0.1-0.1,0.1-0.1s0.1-0.1,0.1-0.1c0.1-0.1,0.1-0.2,0.1-0.4
		s0-0.3,0.1-0.5c0,0,0,0,0.1-0.1s0.1,0,0.1-0.1c0.1-0.1,0.1-0.2,0.1-0.4s0-0.2,0.1-0.4c0.1,0,0.1,0,0.2,0s0.1,0,0.2-0.1s0.1,0,0.2,0
		s0.1,0,0.2,0s0.1,0,0.1,0s0.1,0,0.1,0c0.1,0,0.1,0,0.1,0s0.1,0,0.1,0c0,0,0.1,0,0.1,0s0.1,0,0.1,0c0,0,0,0,0.1,0s0.1,0,0.1,0.1
		s0.1,0.1,0.1,0.1s0.1,0,0.1,0c0,0,0,0,0,0.1s-0.1,0.1-0.1,0.1s-0.1,0.1-0.1,0.1s-0.1,0.1-0.1,0.1c0,0-0.1,0.1-0.1,0.2
		s-0.1,0.1-0.1,0.2c-0.1,0.1-0.1,0.1-0.1,0.2s-0.1,0.2-0.1,0.3c0,0.1-0.1,0.1-0.1,0.2S109,31,109,31.1c0,0,0,0.1,0,0.1s0,0.1,0,0.1
		s0,0.1,0,0.2s0,0.1-0.1,0.2c0,0-0.1,0-0.1,0s-0.1,0-0.1,0c-0.1,0-0.1,0.2-0.1,0.2s-0.1,0.2-0.1,0.3s0,0.2,0,0.3s0,0.2,0.1,0.2
		c-0.1,0.1-0.1,0.2-0.2,0.2s-0.2,0.1-0.2,0.2s-0.2,0-0.3,0s-0.2,0-0.3,0c-0.1,0-0.1-0.2-0.2-0.2S107.3,33.1,107.3,33z"/>
	<path class="st0" d="M115.4,28.6c0.1,0.1,0.1,0.2,0.1,0.4s-0.1,0.2-0.1,0.2c0,0-0.1,0-0.1,0s-0.1,0-0.1,0c-0.1,0-0.1,0.1-0.1,0.1
		s-0.1,0.1-0.1,0.1c-0.2,0.1-0.3,0.2-0.4,0.3s-0.3,0.2-0.4,0.3c-0.1,0-0.2,0.1-0.2,0.1s-0.2,0.1-0.2,0.1c-0.1,0-0.1,0-0.1,0.1
		s-0.1,0-0.1,0.1c-0.1,0-0.1,0-0.2,0s-0.1,0-0.2,0s-0.1,0.1-0.2,0.1s-0.1,0.1-0.2,0.2c0,0.1,0,0.3,0.1,0.4s0.1,0.2,0.2,0.3
		s0.1,0.2,0.2,0.3s0.1,0.2,0.1,0.3c0.1,0,0.2,0.1,0.2,0.2s0.1,0.2,0.2,0.2l0.1,0c0,0,0.1,0,0.1,0c0.1,0,0.1,0,0.1,0.1s0.1,0,0.1,0.1
		c0.1,0,0.1,0.1,0.2,0.1s0.1,0,0.2,0.1s0.1,0.1,0.2,0.2s0.1,0.1,0.2,0.1c0.1,0.1,0.1,0.2,0.2,0.2s0.2,0.2,0.2,0.2
		c0,0,0.1,0.1,0.1,0.1s0.1,0,0.1,0.1s-0.1,0.1-0.2,0.1s-0.2,0-0.3,0s-0.2,0-0.3,0s-0.2,0-0.2,0c0,0,0,0-0.1,0s-0.1,0-0.1,0
		c-0.2,0-0.2,0-0.3-0.1s-0.2-0.1-0.2-0.2c-0.1-0.1-0.1-0.2-0.2-0.2s-0.1-0.2-0.2-0.2c0,0,0-0.1,0-0.1s0-0.1,0-0.2
		c-0.1,0-0.1,0-0.2-0.1s-0.1,0-0.2,0c-0.1-0.1-0.1-0.2-0.1-0.2s-0.1-0.2-0.2-0.2l-0.1,0l-0.1,0c0,0,0,0,0-0.1s0,0,0-0.1
		c0-0.1-0.1-0.2-0.1-0.2s-0.1-0.2-0.1-0.2c0-0.2-0.1-0.2-0.1-0.2s-0.2,0-0.2,0s-0.2,0.1-0.2,0.2s-0.2,0.1-0.2,0.2
		c-0.1,0-0.1,0.2-0.1,0.2s-0.1,0.2-0.1,0.3l-0.1,0c0,0-0.1,0-0.1,0.1c-0.1,0.1-0.1,0.2-0.1,0.3s-0.1,0.3-0.1,0.4
		c-0.1,0.1-0.1,0.2-0.2,0.2s-0.2,0-0.3-0.1c-0.1,0-0.1,0-0.2,0.1s-0.1,0-0.2,0s-0.2,0-0.2-0.1s-0.1-0.1-0.2-0.1c0-0.1,0-0.2,0-0.2
		s0.1-0.2,0.1-0.2c0-0.1,0.1-0.2,0.1-0.2s0.1-0.2,0.1-0.2c0,0,0-0.1,0.1-0.1s0-0.1,0.1-0.1s0.1,0,0.1-0.1s0.1,0,0.1-0.1s0,0,0-0.1
		s0,0,0-0.1s0.1-0.2,0.1-0.2s0.1-0.1,0.1-0.2c0-0.2,0-0.2,0.1-0.3s0.1-0.2,0.1-0.4s0.1-0.2,0.1-0.3s0.1-0.2,0.1-0.4
		c0.1-0.1,0.2-0.2,0.2-0.5c0.1-0.1,0.1-0.1,0.1-0.2s0.1-0.1,0.1-0.2s0.1-0.1,0.1-0.2s0.1-0.1,0.2-0.1c0.1-0.1,0.1-0.2,0.2-0.2
		s0.2-0.1,0.3,0c0,0,0.1,0,0.1,0.1s0.1,0.1,0.1,0.1s0,0,0.1,0.1s0.1,0,0.1,0.1c0.1,0,0.1,0,0.2,0s0.1,0,0.2,0
		c0.1,0.1,0.1,0.1,0.1,0.2s0,0.1-0.1,0.2s-0.1,0.1-0.1,0.2s-0.1,0.1-0.1,0.2c0,0,0,0,0,0.1s0,0,0,0.1s0,0-0.1,0.1s0,0-0.1,0.1
		c0,0.1-0.1,0.2-0.1,0.2s-0.1,0.1-0.2,0.2c0.1,0.1,0.1,0.1,0,0.2s-0.1,0.1-0.1,0.1c0.1,0,0.2-0.1,0.2-0.1s0.2-0.1,0.2-0.2
		s0.2-0.1,0.2-0.2s0.2-0.1,0.2-0.1c0.1,0,0.1,0,0.1,0s0.1,0,0.1,0c0.1,0,0.1,0,0.1-0.1s0.1-0.1,0.1-0.1c0.1,0,0.1,0,0.1-0.1
		s0.1-0.1,0.1-0.1c0.1,0,0.1-0.1,0.2-0.1s0.2-0.1,0.2-0.1s0.1-0.1,0.2-0.1s0.1-0.1,0.2-0.1c0.1,0,0.2-0.1,0.3-0.2s0.2-0.1,0.3-0.2
		s0.2-0.1,0.3-0.2s0.2-0.1,0.3-0.2c0.1,0,0.1,0,0.1,0S115.4,28.6,115.4,28.6z"/>
	<path class="st0" d="M119.5,29.4c-0.2,0.1-0.3,0.1-0.4,0.1s-0.3,0-0.6,0c-0.1,0-0.1,0-0.2,0s-0.1,0-0.2,0c-0.3,0-0.5,0.1-0.7,0.3
		s-0.3,0.4-0.4,0.6c-0.1,0.1-0.1,0.2-0.1,0.2s0,0.1,0.1,0.1c0.1,0,0.1,0,0.2,0s0.1,0,0.2,0s0.1,0,0.2,0s0.1,0,0.2,0h0.1h0.1
		c0.1,0,0.2,0,0.3,0s0.2,0,0.3,0c0,0,0.1,0,0.1,0s0.1,0,0.1,0c0.1,0,0.2,0,0.2,0s0.2,0,0.2,0s0.1,0,0.1,0s0.1,0,0.1,0
		c0,0-0.1,0.1-0.1,0.1s-0.2,0-0.2,0c-0.1,0-0.1,0-0.2,0s-0.1,0-0.2,0c-0.1,0-0.2,0-0.2,0s-0.2,0-0.2,0c-0.1,0-0.2,0.1-0.3,0.1
		s-0.2,0.1-0.3,0.1c-0.1,0-0.2,0-0.2,0s-0.2,0-0.2,0c-0.1,0-0.1,0-0.1,0s-0.1,0-0.1,0c-0.1,0-0.1,0-0.1,0h-0.1l-0.1,0
		c0,0-0.1,0-0.1,0.1c-0.1,0.1-0.1,0.2-0.1,0.3s0,0.2-0.1,0.4c0.1,0,0.2,0.1,0.2,0.2s0.2,0,0.2,0c0.1,0,0.1,0,0.2,0s0.1,0,0.2,0
		c0.1,0,0.2,0,0.2,0s0.2,0,0.2,0c0.2,0,0.3,0,0.4,0s0.2,0,0.4,0c0.1,0,0.1,0,0.2,0s0.2,0,0.3,0s0.2,0,0.2,0s0.1,0,0.1,0
		c0,0,0,0-0.1,0.1s-0.1,0-0.2,0.1s-0.1,0-0.2,0.1s-0.1,0-0.1,0c-0.1,0-0.2,0-0.3,0s-0.2,0-0.3,0c-0.1,0-0.2,0-0.2,0s-0.2,0-0.2,0
		s-0.2,0-0.2,0.1s-0.2,0-0.2,0s-0.2,0-0.3,0s-0.2,0-0.3,0c-0.1,0-0.1,0-0.2,0s-0.1,0-0.2,0c-0.2,0-0.3,0-0.6,0s-0.4,0-0.7,0
		c-0.2,0-0.3,0-0.4,0s-0.2,0-0.3,0c-0.1,0-0.1,0-0.1,0s-0.1,0-0.1,0c0,0,0.1-0.1,0.1-0.1s0.1,0,0.1-0.1c0.1,0,0.1,0,0.1-0.1
		s0.1,0,0.1-0.1c0.1,0,0.1-0.1,0.1-0.2s0.1-0.2,0.1-0.2s0.1-0.2,0.1-0.2s0.1-0.1,0.1-0.2c-0.1-0.1-0.1-0.2,0-0.3s0.1-0.3,0.2-0.4
		c0,0,0,0,0-0.1s0,0,0-0.1s0.1-0.1,0.1-0.1s0.1-0.1,0.1-0.1c0,0,0,0,0-0.1s0,0,0-0.1c0-0.1,0.1-0.1,0.1-0.2s0.1-0.1,0.1-0.2
		c0,0,0-0.1,0-0.1s0-0.1,0-0.1c0-0.1,0.1-0.2,0.1-0.4s0.1-0.2,0.1-0.3c0,0,0-0.1-0.1-0.2s0.1,0,0.1,0c0,0-0.1,0-0.1-0.1
		s-0.1,0-0.1-0.1s-0.1,0-0.1-0.1s-0.1,0-0.1,0c0,0,0.1-0.1,0.1-0.1s0.1,0,0.2,0c0.2,0,0.4,0,0.6,0s0.4,0,0.6,0.1c0.1,0,0.2,0,0.2,0
		s0.2,0,0.2,0c0.1,0,0.2,0,0.4,0s0.3,0,0.4,0c0.2,0,0.4,0,0.6,0s0.3,0,0.6,0c0.1,0,0.1,0,0.2,0s0.2,0,0.2,0s0.2,0,0.2,0
		s0.1,0,0.2,0.1c0.1,0.1,0.1,0.1,0,0.2s-0.1,0.1-0.2,0.1c0,0-0.1,0-0.1,0s-0.1,0-0.2,0S119.7,29.4,119.5,29.4
		C119.6,29.4,119.6,29.4,119.5,29.4z"/>
	<path class="st0" d="M123.7,28.9c0.1,0,0.1,0,0.2,0s0.1,0,0.2,0h0.1c0,0,0.1,0,0.1,0s0.1,0,0.1,0h0.1c0.2,0,0.2,0.1,0.3,0.1
		s0.2,0.1,0.2,0.2c0.1,0,0.1,0.1,0.2,0.2s0.1,0.1,0.2,0.2s0.1,0.2,0.1,0.3s0,0.2-0.1,0.3c0,0-0.1,0-0.1,0.1s-0.1,0.1-0.1,0.1
		c-0.1,0-0.1,0.1-0.2,0.2s-0.1,0.1-0.2,0.1s-0.1,0-0.1,0.1s-0.1,0-0.1,0c-0.1,0-0.2,0-0.2,0.2s-0.2,0.1-0.2,0.2c-0.1,0-0.1,0-0.1,0
		s-0.1,0-0.1,0c-0.1,0-0.1,0-0.1,0.1s-0.1,0-0.2,0.1c0.2,0,0.3,0.1,0.4,0.2s0.2,0.2,0.3,0.4c0.1,0.1,0.1,0.2,0.1,0.2
		s0.1,0.2,0.1,0.2c0.1,0,0.1,0.1,0.1,0.2s0.1,0.1,0.1,0.2s0.1,0.2,0.1,0.2s0.1,0.2,0.1,0.2c0.1,0.1,0.1,0.2,0.1,0.2s0.1,0.1,0.2,0.2
		s0.1,0.1,0.2,0.2s0.1,0.1,0.1,0.2h0.1h0.1c0.1,0,0.2,0.1,0.3,0.2s0.2,0,0.4,0.1c0.2,0,0.2,0,0.4,0s0.2,0,0.3,0c0.1,0,0.1,0,0.2,0
		s0.1,0,0.2,0s0.1,0,0.2,0s0.1,0,0.1,0.1s-0.1,0.1-0.1,0.2s-0.1,0.1-0.2,0.2c-0.1,0-0.2,0.2-0.3,0.2s-0.2,0-0.4,0.1s-0.3,0-0.4,0
		s-0.3,0-0.4,0c-0.1,0-0.2,0-0.2,0s-0.2,0-0.2,0c-0.1,0-0.2,0-0.3,0s-0.2,0-0.2-0.1s-0.2-0.1-0.2-0.2s-0.2-0.1-0.2-0.2
		c-0.2-0.2-0.3-0.2-0.4-0.4s-0.2-0.3-0.3-0.5c-0.1,0-0.1-0.1-0.1-0.2s-0.1-0.1-0.1-0.2c0,0-0.1-0.1-0.1-0.2s0-0.1,0-0.2
		c0,0-0.1-0.2-0.1-0.2s-0.1-0.2-0.1-0.2c0,0,0,0-0.1,0s0,0-0.1,0c0,0,0-0.1-0.1-0.2s-0.1-0.1-0.1-0.1c-0.1,0-0.1,0-0.2-0.1
		s-0.1,0-0.2,0s-0.2,0-0.2,0s-0.1,0-0.2,0c-0.1,0-0.2,0-0.2,0s-0.2,0-0.2,0c-0.1,0-0.2,0.1-0.2,0.2s-0.1,0.2-0.1,0.4
		s-0.1,0.2-0.1,0.4s-0.1,0.2-0.1,0.3s-0.1,0.2-0.1,0.2s-0.2,0-0.2,0c-0.1,0-0.1,0-0.1,0s-0.1,0-0.1,0c-0.1,0-0.1,0-0.2,0.1
		s-0.1,0-0.2,0.1c-0.2,0-0.3,0-0.3,0s0-0.2,0.1-0.4c0.1-0.1,0.1-0.2,0.2-0.3s0.1-0.2,0.2-0.3c0,0,0-0.1,0-0.2s0-0.1,0-0.2
		s0-0.1,0-0.1s0,0,0.1-0.1c0,0,0-0.1,0.1-0.2s0.1-0.1,0.1-0.2c0,0,0.1-0.1,0.1-0.2s0.1-0.2,0.1-0.2s0-0.2,0-0.2s0-0.2,0.1-0.2
		c0.1-0.1,0.1-0.1,0.1-0.2s0.1-0.1,0.1-0.2c0,0,0-0.1,0-0.2s0-0.1,0.1-0.2c0,0,0.1-0.1,0.1-0.1s0.1,0,0.1-0.1c0,0,0,0,0-0.1
		s0,0,0-0.1c0.1-0.1,0.1-0.2,0.1-0.3s-0.1-0.1-0.1-0.1s-0.1-0.1-0.1-0.1s0-0.1,0-0.1c0.1,0,0.1,0,0.1,0s0.1,0,0.1-0.1
		c0,0,0.1,0,0.2,0s0.2,0,0.2,0s0.2,0,0.2,0s0.2,0,0.2,0c0.1,0,0.1,0,0.2,0s0.2,0,0.2,0s0.2,0,0.2,0s0.1,0,0.2,0h1.1V28.9z
		 M122.4,31.1c0.1,0,0.1,0,0.2,0s0.1,0,0.2,0c0.1,0,0.1,0,0.2,0s0.1,0,0.2,0c0.1,0,0.1,0,0.1,0s0.1,0,0.1,0c0.1,0,0.2-0.1,0.2-0.1
		s0.2-0.1,0.2-0.2c0.1,0,0.1-0.1,0.1-0.1s0.1-0.1,0.1-0.1c0.1-0.1,0.1-0.2,0-0.4s-0.1-0.2-0.2-0.2c-0.1-0.1-0.1-0.1-0.2-0.2
		s-0.2,0-0.2,0s-0.2,0-0.3,0s-0.2,0-0.3,0s-0.2,0-0.2,0s-0.2,0.1-0.2,0.1c-0.1,0.1-0.1,0.2-0.1,0.3s-0.1,0.2-0.1,0.3
		s-0.2,0.2-0.2,0.3s-0.1,0.2-0.1,0.4c0.1,0,0.2,0,0.2,0S122.3,31.2,122.4,31.1z"/>
	<path class="st0" d="M111.2,37.8c0.2,0.1,0.3,0.2,0.4,0.3s0.2,0.2,0.3,0.4c0,0,0.1,0,0.1,0.1s0.1,0,0.1,0.1c0.1,0,0.1,0.2,0.2,0.2
		s0.1,0.2,0.1,0.2c0,0,0,0.2,0,0.2s0,0.2,0,0.2c0,0,0,0,0.1,0.1s0.1,0,0.1,0.1c0,0.1,0,0.2,0,0.2s-0.1,0.2,0,0.3c0,0,0,0.1,0.1,0.2
		s0.1,0.1,0.1,0.2c0,0.1,0,0.2-0.1,0.2s-0.1,0.2-0.1,0.2c-0.1,0.2-0.1,0.5-0.2,0.6s-0.1,0.3-0.2,0.5c-0.1,0.1-0.1,0.2-0.2,0.2
		s-0.1,0.2-0.2,0.2c-0.1,0.2-0.2,0.3-0.4,0.5s-0.3,0.3-0.4,0.5c-0.2,0.1-0.4,0.2-0.7,0.3s-0.4,0.2-0.7,0.2c-0.1,0-0.1,0-0.2,0
		s-0.1,0-0.2,0s-0.2,0-0.2,0s-0.2,0-0.2,0c-0.1,0-0.1,0-0.2,0s-0.1,0-0.2,0c-0.1,0-0.1,0-0.2,0s-0.1,0-0.2,0c-0.1,0-0.1,0-0.2,0
		s-0.1,0-0.2,0s-0.1,0-0.1,0s-0.1,0-0.1,0c-0.1,0-0.1,0-0.1,0s-0.1,0-0.1,0c-0.1,0-0.1,0-0.2,0s-0.1,0-0.2,0s-0.1,0-0.1,0
		s-0.1,0-0.1,0c-0.1,0-0.1,0-0.1,0s-0.1,0-0.1-0.1s-0.1,0-0.2,0s-0.1,0-0.1,0c-0.1,0-0.2-0.2-0.2-0.2s-0.2-0.2-0.2-0.3
		c-0.1-0.1-0.1-0.2-0.2-0.3s-0.2-0.2-0.2-0.3c0,0,0-0.2-0.1-0.2s0-0.2-0.1-0.2c0-0.2,0-0.3,0-0.5s0-0.4,0.1-0.6c0,0,0.1-0.2,0.1-0.2
		s0.1-0.1,0.1-0.2c0,0,0.1-0.2,0.1-0.2s0.1-0.2,0.1-0.2c0.1,0,0.1-0.1,0.1-0.2s0.1-0.1,0.1-0.2s0-0.1,0-0.2s0-0.1,0-0.2
		c0-0.2,0.1-0.2,0.2-0.3s0.2-0.2,0.3-0.3c0.2-0.2,0.2-0.2,0.3-0.3s0.2-0.2,0.4-0.3c0,0,0.1,0,0.1,0s0.1,0,0.1,0c0.1,0,0.1,0,0.1,0
		s0.1,0,0.1,0c0.1,0,0.1,0,0.2,0s0.1,0,0.2,0s0.1,0,0.2,0s0.1,0,0.2-0.1s0.1-0.1,0.1-0.1s0.1,0,0.1-0.1h0.1h0.1c0.2,0,0.3-0.1,0.5,0
		s0.3,0,0.6,0c0.2,0,0.3,0,0.4,0s0.3,0,0.4,0s0.2,0,0.2,0.1S111.1,37.8,111.2,37.8z M109.7,43.3c0.1,0,0.1-0.1,0.1-0.2
		s0.1-0.2,0.2-0.2c0.1-0.2,0.2-0.3,0.2-0.5s0.2-0.3,0.2-0.5s0.2-0.3,0.2-0.5s0.1-0.4,0.2-0.6c0,0,0.1-0.2,0.1-0.2s0.1-0.2,0.1-0.2
		s0-0.1-0.1-0.1s-0.1,0-0.1-0.1s0-0.1,0-0.1s0,0,0-0.1s0,0,0-0.1s0,0-0.1-0.1c0,0,0-0.1-0.1-0.2s0-0.1,0-0.2c0,0,0-0.1,0-0.2
		s0-0.1,0-0.2c-0.1-0.2-0.1-0.2-0.2-0.3s-0.2-0.2-0.3-0.2c-0.1,0-0.1,0-0.1,0l-0.1,0c-0.1,0-0.1,0-0.2,0s-0.1,0-0.2,0
		c-0.2,0-0.2,0-0.3,0.1s-0.2,0.1-0.3,0.1c-0.2,0.1-0.4,0.2-0.6,0.4s-0.4,0.3-0.5,0.5c0,0-0.1,0-0.1,0.1s0,0-0.1,0.1
		s-0.1,0.1-0.1,0.1s-0.1,0-0.1,0.1c-0.1,0.1-0.1,0.2-0.2,0.3s-0.1,0.2-0.1,0.3c-0.1,0.1-0.1,0.2-0.1,0.4s0,0.2-0.1,0.4
		c0,0.2-0.1,0.3-0.1,0.5s-0.1,0.3,0,0.5c0,0,0,0,0,0.1s0,0.1,0.1,0.1c0,0.2,0.1,0.3,0.1,0.4s0.1,0.2,0.2,0.3c0.1,0,0.1,0,0.1,0.1
		s0.1,0,0.2,0.1s0.1,0,0.1,0.1s0.1,0,0.1,0.1c0.2,0.2,0.4,0.2,0.8,0.2c0.1-0.1,0.2-0.2,0.4-0.2S109.6,43.4,109.7,43.3z"/>
	<path class="st0" d="M117.2,39.4C117.3,39.4,117.3,39.4,117.2,39.4c0.1,0.1,0.1,0.2,0.1,0.2c0.1,0,0.2,0,0.2-0.1s0.2,0,0.3,0
		c0.1,0,0.1,0.2,0.1,0.2s0,0.1,0,0.2s-0.1,0.1-0.1,0.2s-0.1,0.2-0.1,0.2c0,0.1-0.1,0.2-0.1,0.2s-0.1,0.2-0.1,0.2
		c-0.1,0.1-0.1,0.2-0.1,0.3s-0.1,0.2-0.1,0.2s-0.1,0.2-0.1,0.2s-0.1,0.2-0.2,0.2c0,0.2,0,0.5-0.1,0.8s-0.2,0.5-0.2,0.7
		c0,0-0.1,0.1-0.1,0.2s-0.1,0.1-0.1,0.2c0,0-0.1,0-0.1,0.1s-0.1,0-0.1,0.1c-0.1,0.2-0.2,0.3-0.2,0.5s-0.2,0.2-0.4,0.3
		c-0.1,0-0.1,0-0.2,0s-0.1,0-0.1,0c-0.1,0-0.1,0-0.2,0.1s-0.2,0.1-0.2,0.1c-0.1,0-0.1,0-0.2,0s-0.1,0-0.2,0s-0.1,0-0.2,0
		s-0.1,0-0.2,0s-0.1,0-0.2,0s-0.1,0-0.1-0.1c-0.1,0-0.2,0-0.2,0s-0.1,0-0.2,0c-0.1,0-0.2,0-0.2-0.1s-0.1-0.1-0.2-0.1s-0.1,0-0.1,0
		s-0.1,0-0.1,0c-0.1,0-0.1,0-0.1,0s-0.1,0-0.1,0c-0.1,0-0.1-0.1-0.2-0.2s-0.1-0.2-0.1-0.2s-0.1-0.2-0.1-0.3s-0.1-0.2-0.1-0.2
		c0-0.1,0.1-0.2,0.1-0.3s0.1-0.2,0.1-0.3c0,0,0.1-0.2,0.1-0.2s0-0.2,0-0.2s0-0.2,0-0.2s0.1-0.2,0.1-0.2c0,0,0.1,0,0.1-0.1
		s0.1,0,0.1-0.1c0,0,0.1-0.1,0.1-0.2s0-0.1,0.1-0.2c0-0.1,0-0.2,0.1-0.3s0-0.2,0.1-0.3c0-0.2,0.1-0.3,0.1-0.5s0.1-0.2,0.2-0.3
		c0.1,0,0.2,0,0.2-0.1s0.2,0,0.3,0c0.1,0,0.1,0,0.1,0s0.1,0,0.1,0c0.1,0,0.2,0,0.2,0s0.1,0,0.1,0.2c0,0,0,0.1,0,0.2
		s-0.1,0.1-0.1,0.2c0,0-0.1,0-0.1,0.1s-0.1,0-0.1,0.1v0v0c0,0-0.1,0.1-0.1,0.2s-0.1,0.1-0.1,0.2c-0.1,0-0.1,0.2-0.1,0.2
		s-0.1,0.2-0.1,0.2c-0.1,0.1-0.1,0.2-0.1,0.3s-0.1,0.2-0.1,0.3s-0.1,0.2-0.1,0.3s0,0.2-0.1,0.3c0,0-0.1,0.1-0.1,0.2s0,0.1,0,0.2
		c-0.1,0-0.1,0.2-0.1,0.2s0.1,0.2,0.1,0.2c0.1,0,0.1,0.1,0.1,0.1s0.1,0.1,0.2,0.2s0.1,0,0.2,0.1s0.2,0,0.2,0c0.1,0,0.1,0,0.2,0
		s0.1,0,0.2-0.1s0.2-0.1,0.3-0.2s0.2-0.2,0.2-0.3c0,0,0.1-0.1,0.1-0.2s0-0.1,0-0.2s0-0.1,0-0.2s0-0.2,0.1-0.2s0.1-0.1,0.2-0.2
		s0.1-0.1,0.1-0.2c0,0,0,0,0-0.1s0,0,0-0.1c0-0.1,0-0.2,0.1-0.2s0.1-0.2,0.1-0.2s0.1-0.2,0.1-0.2s0.1-0.2,0.1-0.2s0-0.2,0-0.2
		s0-0.1,0-0.2s0-0.1,0.1-0.2s0.1-0.1,0.1-0.2c0.1,0,0.1-0.1,0.1-0.2s0.1-0.2,0.1-0.2c0,0,0,0,0-0.1s0-0.1,0.1-0.1
		c0,0,0.1-0.1,0.1-0.2s0.1,0,0.2,0S117.3,39.4,117.2,39.4C117.4,39.4,117.1,39.4,117.2,39.4z"/>
	<path class="st0" d="M122.6,39.7c0,0.1-0.1,0.2-0.1,0.2s-0.1,0-0.2,0.1s-0.1,0-0.1,0.1s-0.1,0.1-0.1,0.1c-0.1,0-0.1,0-0.2,0
		s-0.1,0.1-0.1,0.1c-0.1,0-0.2,0-0.3,0s-0.2,0-0.3,0c-0.1,0-0.1,0-0.2,0.1s-0.1,0-0.2,0.1c-0.1,0-0.1,0-0.1,0l-0.1,0l-0.1,0
		c0,0-0.1,0-0.1,0.1c-0.1,0-0.1,0.2-0.1,0.2s0,0.2-0.1,0.2c0,0-0.1,0.1-0.1,0.2s-0.1,0.2-0.1,0.2c0,0,0,0.1,0,0.2s0,0.1,0,0.2
		c0,0-0.1,0.1-0.1,0.2s-0.1,0.1-0.1,0.2c0,0,0,0,0,0.1s0,0,0,0.1c0,0.2-0.1,0.3-0.1,0.5s-0.1,0.3-0.1,0.5c-0.1,0.2-0.1,0.2-0.1,0.4
		s-0.1,0.2-0.1,0.3c-0.1,0-0.1,0-0.2,0s-0.1,0-0.2,0s-0.1,0-0.1,0s-0.1,0-0.1,0c-0.1,0-0.1,0.1-0.2,0.2s-0.1,0.1-0.2,0.1
		s-0.1,0-0.1,0s-0.1,0-0.1,0c-0.1,0-0.1,0-0.2,0s-0.1,0-0.2,0c0,0-0.1-0.1-0.1-0.2s0-0.2,0.1-0.2s0.1-0.2,0.1-0.2s0.1-0.1,0.1-0.2
		c0,0,0-0.1,0-0.2s0-0.1,0.1-0.2c0,0,0.1-0.1,0.1-0.2s0.1-0.1,0.1-0.2c0,0,0.1-0.2,0.1-0.2s0.1-0.2,0.1-0.2s0-0.2,0-0.2s0-0.2,0-0.2
		s0.1,0,0.1-0.1s0.1,0,0.1-0.1s0.1-0.2,0.1-0.2s0-0.2,0.1-0.2c0,0,0-0.2,0.1-0.2s0.1-0.1,0.1-0.2c0-0.1,0.1-0.2,0.1-0.2
		s0.1-0.2,0.1-0.2s0-0.2,0-0.2s0-0.2-0.1-0.2s-0.1-0.1-0.2-0.2s-0.1,0-0.2,0s-0.2,0-0.2,0s-0.2,0-0.2,0c-0.1,0-0.1,0-0.1-0.1
		s-0.1-0.1-0.1-0.1c-0.1,0-0.2,0-0.2,0s-0.2,0-0.2-0.1c-0.1-0.1-0.1-0.2,0-0.2s0.1-0.2,0.1-0.2c0.2,0,0.4,0,0.7,0s0.4,0,0.7,0
		c0.1,0,0.2,0,0.3,0s0.2,0,0.3,0c0.1,0,0.1,0,0.2,0s0.1,0,0.2,0s0.1,0,0.1,0s0.1,0,0.1,0c0.1,0,0.1,0,0.2,0s0.1,0,0.2,0s0.1,0,0.2,0
		s0.1,0,0.1,0h0.1c0,0,0.1,0,0.1,0c0.1,0,0.1,0,0.2,0s0.1,0,0.2,0c0.2,0,0.2,0,0.3,0s0.2,0,0.3,0c0.1,0,0.2,0,0.2,0
		S122.6,39.7,122.6,39.7z"/>
	<path class="st0" d="M125.5,39.8c0.1,0,0.1,0,0.2,0s0.1,0,0.2,0h0.1c0,0,0.1,0,0.1,0s0.1,0,0.1,0h0.1c0.2,0,0.2,0.1,0.3,0.2
		s0.2,0.2,0.2,0.2c0.1,0,0.1,0.2,0.2,0.2s0.1,0.2,0.2,0.2s0.1,0.2,0.1,0.3s0,0.2-0.1,0.3c0,0-0.1,0-0.1,0.1s-0.1,0.1-0.1,0.2
		c-0.1,0-0.1,0.2-0.2,0.2s-0.1,0.1-0.2,0.2c-0.1,0-0.1,0-0.1,0.1s-0.1,0-0.1,0c-0.1,0-0.2,0-0.2,0.2s-0.2,0.1-0.2,0.2
		c-0.1,0-0.1,0-0.1,0s-0.1,0-0.1,0c-0.1,0-0.1,0-0.1,0.1s-0.1,0-0.2,0.1c0.2,0,0.3,0.1,0.4,0.2s0.2,0.2,0.3,0.4
		c0.1,0.1,0.1,0.2,0.1,0.2s0.1,0.2,0.1,0.2c0.1,0,0.1,0.1,0.1,0.2s0.1,0.1,0.1,0.2s0.1,0.2,0.1,0.2s0.1,0.2,0.1,0.2
		c0.1,0.1,0.1,0.2,0.1,0.2s0.1,0.1,0.2,0.2s0.1,0.1,0.2,0.2s0.1,0.1,0.1,0.2h0.1h0.1c0.1,0,0.2,0.1,0.3,0.2s0.2,0,0.4,0.1
		c0.1,0,0.2,0,0.4,0s0.2,0,0.4,0c0.1,0,0.1,0,0.1,0s0.1,0,0.2,0s0.1,0,0.1,0s0.1,0,0.1,0.1s-0.1,0.1-0.1,0.2s-0.1,0.1-0.1,0.2
		c-0.1,0-0.2,0.2-0.4,0.2s-0.2,0-0.4,0.1s-0.3,0-0.4,0s-0.3,0-0.4,0c-0.1,0-0.2,0-0.2,0s-0.2,0-0.2,0c-0.1,0-0.2,0-0.3,0
		s-0.2,0-0.2-0.1s-0.2-0.1-0.2-0.2s-0.2-0.1-0.2-0.2c-0.2-0.2-0.3-0.2-0.4-0.4s-0.2-0.3-0.3-0.5c-0.1,0-0.1-0.1-0.1-0.2
		s-0.1-0.1-0.1-0.2c0,0-0.1-0.1-0.1-0.2s0-0.1,0-0.2c0,0-0.1-0.2-0.1-0.2s-0.1-0.2-0.1-0.2c0,0,0,0-0.1,0s0,0-0.1,0
		c0,0,0-0.1-0.1-0.2s-0.1-0.1-0.1-0.1c-0.1,0-0.1,0-0.2-0.1s-0.1,0-0.2,0s-0.2,0-0.2,0s-0.1-0.1-0.1-0.1c-0.1,0-0.2,0-0.2,0
		s-0.2,0-0.2,0c-0.1,0-0.2,0.1-0.2,0.2s-0.1,0.2-0.1,0.4s-0.1,0.2-0.1,0.4s-0.1,0.2-0.1,0.3s-0.1,0.2-0.1,0.2s-0.2,0-0.2,0
		c-0.1,0-0.1,0-0.1,0s-0.1,0-0.1,0c-0.1,0-0.1,0-0.2,0.1s-0.1,0-0.2,0.1c-0.2,0-0.3,0-0.3,0s0-0.2,0.1-0.4c0.1-0.1,0.1-0.2,0.2-0.3
		s0.1-0.2,0.2-0.3c0,0,0-0.1,0-0.2s0-0.1,0-0.2s0-0.1,0-0.1s0,0,0.1-0.1c0,0,0-0.1,0.1-0.2s0.1-0.1,0.1-0.2c0,0,0.1-0.1,0.1-0.2
		s0.1-0.2,0.1-0.2s0-0.2,0-0.2s0-0.2,0.1-0.2c0.1-0.1,0.1-0.2,0.1-0.2s0.1-0.2,0.1-0.2c0,0,0-0.1,0-0.2s0-0.1,0.1-0.2
		c0,0,0.1-0.1,0.1-0.1s0.1,0,0.1-0.1s0,0,0-0.1s0,0,0-0.1c0.1-0.1,0.1-0.2,0.1-0.3s-0.1-0.1-0.1-0.2s-0.1-0.1-0.1-0.2s0-0.1,0-0.2
		c0.1,0,0.1,0,0.1,0s0.1,0,0.1-0.1c0,0,0.1,0,0.2,0s0.2,0,0.2,0s0.2,0,0.2,0s0.2,0,0.2,0c0.1,0,0.1,0,0.2,0s0.2,0,0.2,0s0.2,0,0.2,0
		s0.1,0,0.2,0C124.4,39.7,125.5,39.7,125.5,39.8z M124.2,42c0.1,0,0.1,0,0.2,0s0.1,0,0.2,0c0.1,0,0.1,0,0.2,0s0.1,0,0.2,0
		c0.1,0,0.1,0,0.1,0s0.1,0,0.1,0c0.1,0,0.2-0.1,0.2-0.2s0.2-0.1,0.2-0.2c0.1,0,0.1-0.1,0.1-0.2s0.1-0.1,0.1-0.2
		c0.1-0.2,0.1-0.2,0-0.3s-0.1-0.2-0.2-0.2c-0.1-0.1-0.1-0.2-0.2-0.2s-0.2,0-0.2,0s-0.2,0-0.3,0s-0.2,0-0.3,0s-0.2,0-0.2,0
		s-0.2,0.1-0.2,0.2c-0.1,0.1-0.1,0.2-0.1,0.3s-0.1,0.2-0.1,0.3s-0.1,0.2-0.1,0.3s-0.1,0.2-0.1,0.3c0.1,0,0.2,0,0.2,0
		S124.1,42,124.2,42z"/>
	<path class="st0" d="M131.7,40.2c-0.1,0.1-0.3,0.1-0.4,0.1s-0.4,0-0.6,0c-0.1,0-0.1,0-0.1,0s-0.1,0-0.1,0c-0.3,0-0.5,0.2-0.7,0.3
		s-0.4,0.4-0.4,0.7c-0.1,0.1-0.1,0.2-0.1,0.2s0,0.2,0.1,0.2c0.1,0,0.1,0,0.2,0s0.1,0,0.2,0s0.1,0,0.2,0s0.1,0,0.2,0h0.1h0.1
		c0.1,0,0.2,0,0.3,0s0.2,0,0.3,0c0,0,0.1,0,0.1,0s0.1,0,0.1,0c0.1,0,0.1,0,0.2,0s0.2,0,0.2,0s0.1,0,0.1,0s0.1,0,0.1,0
		c0,0-0.1,0.1-0.1,0.1s-0.1,0-0.2,0s-0.1,0-0.1,0s-0.1,0-0.1,0c-0.1,0-0.1,0-0.2,0s-0.1,0-0.2,0c-0.1,0-0.2,0.1-0.3,0.2
		s-0.2,0.1-0.3,0.1s-0.1,0-0.2,0s-0.1,0-0.2,0c-0.1,0-0.1,0-0.1,0s-0.1,0-0.1,0c-0.1,0-0.1,0-0.1,0h-0.1l-0.1,0c0,0-0.1,0-0.1,0.1
		c-0.1,0.1-0.1,0.2-0.1,0.3s0,0.2-0.1,0.4c0.1,0,0.1,0.1,0.2,0.2s0.1,0,0.2,0c0.1,0,0.1,0,0.1,0s0.1,0,0.1,0c0.1,0,0.1,0,0.2,0
		s0.1,0,0.2,0c0.1,0,0.3,0,0.4,0s0.2,0,0.4,0c0.1,0,0.1,0,0.2,0s0.2,0,0.3,0s0.2,0,0.2,0s0.1,0,0.1,0c0,0,0,0-0.1,0.1
		s-0.1,0-0.1,0.1s-0.1,0-0.1,0.1s-0.1,0-0.1,0c-0.1,0-0.2,0-0.3,0s-0.2,0-0.3,0s-0.1,0-0.2,0s-0.1,0-0.2,0s-0.1,0-0.2,0.1
		s-0.1,0-0.2,0s-0.2,0-0.3,0s-0.2,0-0.3,0c-0.1,0-0.1,0-0.1,0s-0.1,0-0.1,0c-0.1,0-0.4,0-0.6,0s-0.4,0-0.7,0c-0.2,0-0.3,0-0.4,0
		s-0.2,0-0.3,0c-0.1,0-0.1,0-0.1,0s-0.1,0-0.1,0c0,0,0.1-0.1,0.1-0.1s0.1,0,0.1-0.1c0.1,0,0.1,0,0.1-0.1s0.1,0,0.1-0.1
		c0.1,0,0.1-0.1,0.1-0.2s0.1-0.2,0.1-0.2s0.1-0.2,0.1-0.2s0.1-0.1,0.1-0.2c-0.1-0.1-0.1-0.2,0-0.3s0.1-0.3,0.2-0.4c0,0,0,0,0-0.1
		s0,0,0-0.1s0.1-0.1,0.1-0.2s0.1-0.1,0.1-0.2c0,0,0,0,0-0.1s0,0,0-0.1c0-0.1,0.1-0.2,0.1-0.2c0.1-0.1,0.1-0.2,0.1-0.2s0-0.1,0-0.2
		s0-0.1,0-0.2c0-0.1,0.1-0.2,0.1-0.3s0.1-0.2,0.1-0.3c0,0,0-0.2-0.1-0.2s-0.1-0.2-0.1-0.2s-0.1,0-0.1-0.1s-0.1,0-0.1-0.1
		s-0.1,0-0.1-0.1s-0.1,0-0.1,0c0,0,0.1-0.1,0.1-0.1s0.1,0,0.2,0c0.2,0,0.4,0,0.6,0s0.4,0,0.6,0.1c0.1,0,0.1,0,0.2,0s0.1,0,0.2,0
		c0.1,0,0.2,0,0.4,0s0.3,0,0.4,0c0.2,0,0.4,0,0.6,0s0.4,0,0.6,0c0.1,0,0.1,0,0.1,0s0.1,0,0.2,0s0.1,0,0.2,0s0.1,0,0.1,0.1
		c0.1,0.1,0.1,0.2,0,0.2S132.1,40,132,40c0,0-0.1,0-0.1,0s-0.1,0-0.1,0s-0.1,0-0.1,0S131.7,40.2,131.7,40.2z"/>
	<path class="st0" d="M134,40.3c0.1-0.1,0.2-0.2,0.3-0.2s0.1-0.2,0.2-0.3c0.1,0,0.1,0,0.1,0s0.1,0,0.1,0c0.1,0,0.1,0,0.2,0
		s0.1,0,0.2,0s0.2,0,0.3-0.1s0.2,0,0.3,0c0.1,0,0.1,0,0.1,0s0.1,0,0.1,0s0.1,0,0.1,0s0.1,0,0.1,0c0.1,0,0.1,0,0.2,0.1
		s0.1,0.1,0.1,0.2c0.1,0.2,0.1,0.2,0,0.4s-0.1,0.2,0,0.4c0,0.1,0,0.2,0.1,0.2s0,0.2,0,0.2s0,0.2,0,0.2s0,0.2,0,0.2c0,0,0,0,0.1,0.1
		s0,0,0,0.1s-0.1,0.1-0.1,0.2s-0.1,0.1-0.1,0.2c0,0.1,0,0.2,0.1,0.2s0.1,0.2,0.1,0.2c0,0,0,0,0,0.1s0,0.1,0,0.1c0,0.2,0,0.2,0,0.5
		s0,0.3,0.1,0.5c0,0,0,0.1,0,0.2s0,0.1,0,0.1c0,0,0,0-0.1,0s-0.1,0-0.1,0c0,0,0,0,0,0.1s0,0.1,0,0.2c0,0,0,0.1,0,0.1s0,0,0,0.1v0v0
		c0,0-0.1,0.1-0.1,0.2s-0.1,0.1-0.2,0.1s-0.1,0-0.1-0.1s-0.1-0.1-0.1-0.1c-0.1,0-0.1-0.2-0.1-0.2s-0.1-0.2-0.1-0.2
		c0,0-0.1,0-0.1-0.1s-0.1,0-0.1-0.1s-0.1-0.2-0.1-0.2s0-0.2,0-0.2s0-0.2,0-0.2s0-0.2-0.1-0.2l-0.1,0l-0.1,0c-0.1,0-0.1-0.1-0.1-0.2
		s-0.1,0-0.1-0.1c-0.2,0-0.4,0-0.6,0s-0.4,0-0.6,0c-0.1,0-0.1,0-0.1,0s-0.1,0-0.1,0H134h-0.1c-0.1,0-0.1,0-0.2,0.1s-0.1,0.1-0.2,0.2
		c0,0-0.1,0.1-0.1,0.2s0,0.1-0.1,0.2s-0.1,0.1-0.1,0.2s-0.1,0.1-0.1,0.2c-0.1,0-0.1,0.1-0.1,0.2s-0.1,0.2-0.1,0.2s-0.1,0.2-0.1,0.2
		s-0.1,0.1-0.2,0.2c-0.1,0-0.1,0-0.1,0s-0.1,0-0.1,0s-0.1,0-0.1,0s0,0-0.1,0s-0.1,0-0.1-0.1s-0.1-0.2-0.2-0.2s-0.1,0-0.1-0.1
		s-0.1,0-0.1-0.1c-0.1-0.1-0.1-0.2-0.1-0.2s0.1-0.1,0.1-0.2c0.1-0.1,0.1-0.2,0.2-0.3s0.1-0.2,0.2-0.3c0.1,0,0.1-0.1,0.1-0.2
		s0.1-0.1,0.1-0.2c0.1,0,0.1-0.1,0.2-0.2s0.1-0.1,0.1-0.2c0,0,0,0,0-0.1s0,0,0-0.1c0.1-0.1,0.1-0.2,0.2-0.3s0.2-0.2,0.2-0.3
		c0,0,0,0,0-0.1s0,0,0-0.1c0.1-0.2,0.2-0.4,0.4-0.6S133.9,40.5,134,40.3z M135.2,40.3c-0.1,0-0.1,0.1-0.2,0.2s-0.1,0.1-0.2,0.2
		c0,0-0.1,0.1-0.1,0.2s-0.1,0.1-0.1,0.1c0,0.1-0.1,0.2-0.1,0.2s-0.1,0.2-0.1,0.2l-0.1,0c0,0-0.1,0-0.1,0.1c-0.1,0-0.1,0-0.1,0
		s-0.1,0-0.1,0c-0.1,0-0.1,0.1-0.1,0.2s-0.1,0.2-0.1,0.2c-0.1,0-0.1,0-0.1,0.1s-0.1,0-0.1,0.1s0.1,0.1,0.1,0.1s0.1,0,0.2,0
		s0.1,0,0.2,0s0.1,0,0.1,0c0.1,0,0.1,0,0.2,0s0.1,0,0.2,0s0.1,0,0.2,0s0.1,0,0.1-0.1c0.1-0.2,0.1-0.4,0.1-0.5s-0.1-0.4-0.1-0.5
		c0,0,0-0.1-0.1-0.2s0-0.1,0-0.2c0,0,0-0.1,0.1-0.2S135.3,40.4,135.2,40.3L135.2,40.3z"/>
	<path class="st0" d="M142.3,39.7c0,0,0,0.1-0.1,0.2s-0.1,0-0.1,0.1c0,0,0.1,0,0.1,0l0.1,0c-0.1,0.1-0.1,0.2-0.2,0.2
		s-0.2,0.1-0.4,0.1c-0.1,0-0.1,0-0.2,0s-0.1,0-0.2,0c-0.1,0-0.2,0-0.3-0.1s-0.1,0-0.2,0c0,0-0.1,0-0.1,0s-0.1,0-0.1,0
		c-0.1,0-0.1,0-0.2,0.1s-0.1,0-0.2,0.1c-0.1,0.1-0.2,0.2-0.4,0.3s-0.2,0.2-0.4,0.3c-0.1,0.1-0.1,0.2-0.1,0.3s-0.1,0.2-0.1,0.3
		c0,0-0.1,0.1-0.1,0.2s-0.1,0.1-0.1,0.2s0,0.1-0.1,0.2s0,0.2-0.1,0.2c0,0-0.1,0.1-0.1,0.1s-0.1,0.1-0.1,0.2c0,0,0.1,0.1,0.1,0.1
		s0.1,0,0.1,0.1v0c0,0,0,0,0,0.1c0,0.1,0.1,0.2,0.1,0.2s0.1,0.2,0.2,0.2c0.1,0,0.2,0,0.4,0s0.2,0,0.3,0c0.1,0,0.2-0.1,0.3-0.1
		s0.2,0,0.4-0.1c0.1,0,0.1,0,0.2-0.2s0.1-0.1,0.2-0.1h0.1h0.1c0.1,0,0.1,0,0.1,0s0.1,0,0.1-0.1s0.1,0,0.1,0s0.1,0,0.1,0
		c0.1,0.1,0.1,0.2,0.1,0.2s-0.1,0.1-0.1,0.2s-0.1,0.1-0.2,0.2s-0.1,0.2-0.1,0.2c-0.1,0-0.1,0.1-0.2,0.2s-0.1,0.1-0.2,0.2
		c-0.1,0-0.1,0-0.1,0s-0.1,0-0.1,0c-0.1,0-0.2,0.1-0.4,0.2s-0.2,0.1-0.4,0c-0.1,0-0.2,0-0.2,0c-0.1,0-0.1,0-0.2,0s-0.1,0-0.2,0
		c-0.1,0-0.1,0-0.2,0s-0.1,0-0.2,0s-0.1,0-0.2-0.1s-0.1-0.1-0.2-0.2c-0.1,0-0.1-0.1-0.2-0.1s-0.1,0-0.2-0.1c-0.1,0-0.1-0.1-0.2-0.2
		s-0.1-0.2-0.2-0.2c-0.1-0.1-0.1-0.2-0.1-0.3s0-0.2,0-0.3s0-0.2-0.1-0.3s-0.1-0.2-0.1-0.3c0,0,0.1-0.1,0.1-0.2s0.1-0.1,0.1-0.2
		c0-0.1,0-0.2,0.1-0.2s0.1-0.2,0.1-0.2s0.1-0.1,0.1-0.1s0.1,0,0.1-0.1s0.1,0,0.1-0.1s0.1-0.1,0.1-0.2c0.1,0,0.1-0.1,0.1-0.1
		s0.1,0,0.1-0.1s0.1,0,0.1-0.1s0,0,0.1-0.1s0.1,0,0.1-0.1s0.1-0.1,0.1-0.1c0.1,0,0.2-0.1,0.4-0.2s0.2-0.1,0.4-0.2c0.1,0,0.1,0,0.2,0
		s0.1,0,0.2,0s0.1,0,0.2-0.1s0.1,0,0.2,0s0.1,0,0.2,0s0.1,0,0.2,0c0.1,0,0.2,0,0.3,0s0.2,0,0.3,0c0.1,0,0.1,0,0.1,0s0.1,0,0.1,0
		c0.1,0,0.1,0,0.1,0s0.1,0,0.1,0c0.1,0,0.2,0,0.4,0S142.2,39.7,142.3,39.7z"/>
	<path class="st0" d="M148,39.5c0,0.2,0,0.4-0.1,0.5s-0.1,0.3-0.2,0.4c0,0-0.1,0-0.1,0s-0.1,0-0.1,0c-0.1,0-0.1,0.2-0.1,0.2
		s0,0.2-0.1,0.2c0,0.1,0,0.2-0.1,0.2s-0.1,0.2-0.1,0.2s-0.1,0.1-0.1,0.1s-0.1,0-0.1,0.1s-0.1,0-0.1,0.1s0,0.1,0,0.2c0,0,0,0,0,0.1
		s0,0,0,0c0,0.2-0.1,0.3-0.1,0.5s-0.1,0.3-0.2,0.5c0,0-0.1,0.1-0.1,0.2s0,0.1,0,0.2c0,0,0,0.1-0.1,0.2s-0.1,0.2-0.1,0.2
		s-0.1,0.2-0.1,0.2s-0.1,0.1-0.1,0.2c0,0-0.1,0-0.1,0s-0.1,0-0.1,0s-0.1,0-0.1,0s-0.1,0-0.1,0c-0.1,0-0.1,0-0.1,0.2
		s-0.1,0.1-0.1,0.2c-0.1,0-0.1,0-0.2,0s-0.1,0-0.2,0s-0.1,0-0.1,0s-0.1,0-0.1-0.1c0-0.1,0-0.2,0-0.3s0.1-0.2,0.1-0.2
		c0-0.2,0-0.3,0.1-0.4s0.1-0.2,0.1-0.3c-0.1,0-0.1-0.1-0.1-0.2s0.1-0.2,0.1-0.2s-0.1-0.1-0.1-0.2s-0.1,0-0.1-0.1s-0.1,0-0.2,0
		s-0.1,0-0.2,0c-0.1,0-0.2,0-0.2,0s-0.1,0-0.2,0c-0.1,0-0.2,0-0.2,0s-0.1,0-0.2,0s-0.1,0-0.2,0s-0.1,0-0.2,0c0,0,0,0.1-0.1,0.2
		s-0.1,0.1-0.1,0.1l-0.1,0.1c0,0-0.1,0.1-0.1,0.2v0v0c0,0.1-0.1,0.2-0.1,0.3s-0.1,0.2-0.1,0.3c0,0-0.1,0.2-0.1,0.2s-0.1,0.1-0.1,0.2
		c-0.1,0-0.1,0-0.1,0s-0.1,0-0.1,0s-0.1,0-0.1,0.1s-0.1,0-0.1,0c0,0-0.1,0-0.1,0s-0.1,0-0.1,0s-0.1,0-0.1,0h-0.1c0,0,0-0.1,0-0.1
		s0-0.1,0-0.2c0.1-0.1,0.1-0.2,0.1-0.2s0.1-0.2,0.1-0.3s0.1-0.2,0.1-0.3s0.1-0.2,0.1-0.2c0-0.1,0-0.2,0.1-0.2s0.1-0.2,0.1-0.2
		s0.1-0.1,0.1-0.2s0-0.2,0-0.2s-0.1-0.1-0.1-0.2s-0.1-0.1-0.1-0.2s-0.1-0.1-0.1-0.2s-0.1-0.1-0.1-0.2c0,0,0.1,0,0.1,0s0.1,0,0.1,0
		s0.1,0,0.1,0s0.1,0,0.1,0c0.1,0,0.1-0.2,0.1-0.2s0-0.2,0.1-0.2c0,0,0.1-0.1,0.1-0.2s0.1-0.1,0.1-0.2c0,0,0-0.1,0.1-0.2
		s0.1-0.1,0.1-0.2c0-0.1,0-0.2,0-0.2s0-0.2,0.1-0.2c0.1,0,0.2-0.1,0.4-0.2s0.2,0,0.4,0c0.1,0,0.1,0,0.1,0s0.1,0,0.1,0s0.1,0,0.1,0
		s0.1,0,0.1,0s0.1,0,0.1,0s0.1,0,0.1,0.1s0,0.1-0.1,0.1s-0.1,0-0.1,0.1s-0.1,0.2-0.1,0.2s-0.1,0.2-0.1,0.2l-0.1,0l-0.1,0
		c0,0,0,0.1,0,0.2s0,0.1,0,0.2c0,0.1-0.1,0.2-0.1,0.2s-0.1,0.2-0.1,0.3c0.1,0,0.1,0.1,0.1,0.1s0.1,0,0.2,0c0.1,0,0.2,0,0.4,0.1
		s0.3,0,0.5,0c0.1,0,0.2,0,0.2,0s0.1,0,0.2,0.1c0.1,0,0.2-0.2,0.2-0.2s0.1-0.2,0.1-0.3c0.1,0,0.1-0.1,0.1-0.2s0.1-0.2,0.1-0.2
		c0,0,0,0-0.1,0s-0.1,0-0.1-0.1v0l0.1,0c0.1-0.2,0.1-0.2,0.1-0.4s0.1-0.2,0.1-0.4c0.1-0.1,0.2-0.2,0.4-0.2s0.4,0,0.6,0
		c0.1,0,0.1-0.1,0.2-0.2s0.1-0.1,0.2-0.2c0.1,0,0.1,0,0.1,0S148,39.5,148,39.5z"/>
</g>
<g>
	<path class="st0" d="M6.7,10.9c-0.1,0.4-0.2,0.8-0.4,1.2S6,12.9,5.9,13.4c0,0.1,0,0.2,0,0.4S6,14.1,6,14.3c0,0.1,0,0.4-0.1,0.6
		c0,0.2-0.1,0.5,0,0.7c0,0.2,0.1,0.4,0.1,0.6c0.1,0.2,0.2,0.3,0.3,0.4c0.2,0,0.4,0.1,0.7,0c0.2,0,0.5,0,0.8-0.1
		c0.2,0,0.6-0.1,0.8-0.2c0.2,0,0.6-0.1,0.8,0c0.2,0,0.4,0,0.7,0.1c0.2,0,0.4,0,0.7,0c0.1,0,0.2,0,0.4-0.1c0.1,0,0.2,0,0.4-0.1
		c0.1,0,0.4,0,0.6,0s0.4,0,0.6,0c0.2,0,0.4,0,0.6-0.1c0.2,0,0.4-0.1,0.6-0.1c0.2,0,0.5,0,0.8,0c0.2,0,0.5,0.1,0.7,0.2
		c0.2,0,0.4,0.1,0.7,0.2s0.4,0,0.7,0c0.1,0,0.3,0,0.4-0.1c0.1,0,0.2,0,0.4,0.2c0,0.1-0.1,0.3-0.2,0.4s-0.1,0.2-0.2,0.3
		c-0.4,0.1-0.7,0.2-1,0.2c-0.3,0-0.6,0-1,0c-0.4,0-1,0.1-1.5,0.3c-0.6,0.1-1.1,0.3-1.5,0.4c-0.2,0.1-0.6,0.1-0.8,0.2
		c-0.3,0.1-0.6,0.2-0.9,0.2c-0.4,0.1-0.8,0.2-1.1,0.4s-0.8,0.2-1.1,0.4c-0.4,0.1-0.8,0.4-1.1,0.5c-0.3,0.2-0.8,0.4-1.2,0.4
		c-0.2,0.1-0.5,0.1-0.8,0.2c-0.2,0-0.5,0.1-0.8,0.1c-0.2,0-0.4,0-0.5,0c-0.2,0-0.4-0.1-0.5-0.2C3,20.2,2.9,20.2,2.7,20
		s-0.4-0.1-0.5-0.2C2.1,19.9,2,19.9,1.8,20s-0.3,0-0.4,0S1.1,20,1,19.9s-0.3-0.1-0.4-0.1c-0.1-0.1-0.2-0.2-0.3-0.4
		C0.2,19.3,0.1,19.1,0,19c-0.1-0.3,0-0.6,0.2-0.9s0.3-0.5,0.4-0.8c0.1-0.4,0.3-0.8,0.4-1.2c0.1-0.4,0.2-0.8,0.4-1.2
		c0-0.2,0-0.6,0-1.1s0-0.9,0.2-1.1l1-2.7c0-0.2-0.1-0.5,0-0.7c0-0.2,0-0.4,0.1-0.6c0-0.2,0.2-0.4,0.2-0.6C3,7.9,3.1,7.7,3.2,7.4
		c0.1-0.3,0.2-0.7,0.2-1s0.2-0.7,0.2-1.2c0-0.3,0-0.7,0-1S3.6,3.6,3.4,3.4c0-0.1-0.2-0.1-0.2-0.2C3,3.1,2.9,3,2.8,3
		C2.7,2.9,2.6,2.8,2.5,2.7C2.4,2.6,2.4,2.5,2.4,2.5c0-0.2,0-0.2,0.1-0.3C2.6,2.1,2.8,2.1,2.9,2s0.3,0,0.5,0s0.3,0,0.5,0
		c0.2,0,0.5,0,0.8,0.1c0.3,0,0.6,0.1,0.8,0.1c0.1,0,0.2,0,0.2,0s0.2,0,0.2,0s0.2,0,0.3,0.1s0.2,0,0.3,0c0.1,0,0.2,0,0.4,0
		s0.2,0,0.3,0c0.1,0,0.2,0,0.2,0c0.1,0,0.2,0,0.3,0.1c0.3,0,0.5,0,0.8,0s0.6,0,0.8-0.1s0.5,0,0.8-0.1c0.2,0,0.6,0,0.9,0
		c0,0.2-0.1,0.3-0.2,0.5C10.8,2.8,10.6,3,10.5,3c-0.1,0-0.1,0.1-0.2,0.2c-0.1,0-0.1,0.1-0.2,0.2C10,3.4,10,3.5,9.9,3.5
		S9.8,3.6,9.7,3.7C9.5,3.9,9.4,4.1,9.3,4.3C9.2,4.5,9.1,4.7,9,5C9,5.1,9,5.1,8.9,5.2C8.8,5.2,8.8,5.3,8.7,5.3
		C8.7,5.4,8.7,5.5,8.6,5.7c0,0.1-0.1,0.2-0.1,0.3C8.5,6.1,8.4,6.2,8.3,6.2S8.1,6.4,8,6.5C8,6.7,8.1,6.9,8,7.1C8,7.3,8,7.4,7.9,7.6
		C7.8,7.7,7.8,7.9,7.7,8.1S7.5,8.4,7.5,8.6L6.7,10.9z"/>
	<path class="st0" d="M24.4,3.9L24.4,3.9L24.5,4v0.1c-0.4,0.4-1.1,1.6-2.2,3.5h0.1l1.8-0.5l0.1,0.1c0.2-0.2,0.6-0.3,1.2-0.3V7
		c-0.1,0.4-0.4,0.8-0.9,1.3c-0.5,0.8-0.9,1.1-1,1.1c-0.4,0.5-1,1.2-2,2.2v0.1l1.1-0.2l0.1,0.1l0.3-0.1l0.1,0.2l-0.4,0.5h0
		c0.2-0.1,0.4-0.4,0.4-0.8h0.4l0.2,0.1c-0.2,0.6-0.6,1.6-1.4,2.9l-1.5,2.4c-0.4,0.4-1,1.4-2,3c-0.5,0.6-1,1.4-1.3,2.1
		c-0.1,0-0.4,0.5-0.8,1.3c-0.2,0.5-0.4,0.9-0.5,0.9l0,0v0l0,0h-0.4l-0.2-0.2l0.1,0v-0.1c-0.1,0-0.1,0-0.1-0.1l0,0l0,0h0.1
		c0,0,0-0.1-0.1-0.1l0,0v0l0,0l0-0.1h-0.1l0.1-0.1l0-0.1v-0.1L16,23h0l0.2,0.1l0-0.3l-0.1,0l0.1-0.2l0,0h0.1v-0.2h-0.1v-0.1l0.2,0
		l0-0.2l-0.1-0.1v-0.4c0,0,0.1-0.2,0.1-0.5c0.2-0.2,0.4-0.5,0.4-0.7c0.1,0,0.2-0.7,0.4-2.1c0.1-0.8,0.2-1.2,0.3-1.2l0,0l-0.4,2.2v0
		h0.1c0.2-0.9,0.4-1.2,0.5-1.2v-0.1c0.2-0.8,0.4-1.5,0.6-1.9h0l0,0h0l0-0.1l0-0.3l0.2-0.4l0,0.1l0-0.1h0l0-0.2v-0.1l0-0.1l-0.1-0.1
		c-0.2,0-0.4,0.1-0.5,0.2c0-0.1,0-0.1-0.2-0.1l-0.9,0.1l-0.1-0.1c0.9-1.8,1.5-3,1.9-3.6l0.3-0.6h0l-0.5,0.2l-0.1,0v-0.1l-2.4,0.6
		h-0.2v-0.1c0.2-0.5,0.4-0.8,0.4-0.8l0-0.1c0.2-0.6,0.6-1.6,1.2-2.9c0.2-0.6,0.4-1.1,0.6-1.3c0-0.2,0.1-0.3,0.3-0.3l-0.1-0.2
		c0.1-0.1,0.2-0.3,0.4-0.6L19.2,5c0,0.2-0.1,0.4-0.4,0.8v0.1h0.1L19.4,5l1.8-0.3h0.1c0.1-0.1,0.4-0.2,0.9-0.3l0,0.1h0
		c0.4-0.2,0.8-0.2,1.1-0.2v0.1h0.1V4.2h0.1L24.4,3.9z M16.1,22.8L16.1,22.8l0,0.2h0L16,22.9L16.1,22.8z M16.1,23.3L16.1,23.3l0.1,0
		v-0.1L16.1,23.3z M16.1,23.4L16.1,23.4l0.1,0v0H16.1z M16.1,23.5L16.1,23.5l0.1,0v0H16.1z M16.7,10.9V11h0.1L16.7,10.9z M16.7,22.4
		l0,0.2l0,0h0L16.7,22.4L16.7,22.4z M17.2,10.7L17.2,10.7L17.2,10.7c0-0.1,0.1-0.2,0.4-0.5v-0.1C17.5,10.1,17.4,10.3,17.2,10.7z
		 M17.3,19.4v0.1h0L17.3,19.4L17.3,19.4z M17.6,10.6L17.6,10.6l0.4-0.4v-0.1L17.6,10.6z M17.6,16.9h0.1V17h-0.1V16.9z M18.1,13.6
		c-0.3,0.6-0.4,0.9-0.4,1l0.2-0.1v-0.2C17.9,14.2,18,13.9,18.1,13.6L18.1,13.6L18.1,13.6z M17.8,18.7v0.1h0L17.8,18.7L17.8,18.7z
		 M18,18l-0.1,0.2v0l0.1,0V18L18,18L18,18z M18.2,15.6L18.2,15.6l0,0.1l0,0.2l0,0.1l-0.2,0.4l0,0.1L18,16.7l0,0l0,0v-0.5l0.2,0
		l0-0.2L18.2,15.6z M18,7.9L18,7.9L18,7.9c0-0.1,0.2-0.3,0.5-0.7c0.1-0.4,0.1-0.7,0.2-0.8V6.4h0C18.5,6.5,18.3,7,18,7.9z M18,9.6
		l0.3-0.4V9.2C18.1,9.4,18,9.5,18,9.6z M19.2,12.9c-0.2,0.4-0.4,0.7-0.5,0.8c-0.3,0.4-0.5,0.7-0.5,0.8v0.1h0.1
		c0-0.1,0.3-0.6,0.9-1.4L19.2,12.9L19.2,12.9z M18.4,13.1L18.4,13.1L18.4,13.1c0-0.1,0.5-0.9,1.5-2.6v-0.1
		C19.7,10.7,19.2,11.6,18.4,13.1z M18.5,9.2c0.1-0.1,0.5-0.4,1-1.1V8h0c-0.2,0-0.4,0.1-0.5,0.5C18.7,8.6,18.6,8.8,18.5,9.2z
		 M18.5,17.3l0,0.2C18.6,17.5,18.6,17.5,18.5,17.3L18.5,17.3L18.5,17.3z M18.5,10.4L18.5,10.4c1-1.1,1.8-1.8,2.2-2l0-0.1V8.3l0-0.1
		h0C19.5,9.2,18.8,10,18.5,10.4z M18.6,16.2v0.1h0L18.6,16.2L18.6,16.2z M18.8,7.9l-0.1,0.2v0.1C18.8,8.2,18.8,8.1,18.8,7.9
		L18.8,7.9L18.8,7.9z M19.1,13.9l-0.4,0.6h0.1c0,0,0.1-0.1,0.2-0.5V13.9L19.1,13.9L19.1,13.9z M18.7,19.5L18.7,19.5
		c0,0,0.2-0.1,0.4-0.5v0L18.7,19.5z M18.9,6L18.9,6L18.9,6h0.2V5.9L18.9,6z M19,9.1L19,9.1l0.6-0.6h0L19,9.1z M19,15.6v0.1l0.1-0.1
		v0H19z M20.1,5.3L20.1,5.3L20.1,5.3l-0.2,0.3h0.1v0.1l-1,1.7v0.1h0l1.4-2.2L20.1,5.3L20.1,5.3z M19.7,9.6l-0.6,0.7v0.1L19.7,9.6
		L19.7,9.6z M19.2,12.2l-0.1,0.2v0.1h0L19.2,12.2L19.2,12.2L19.2,12.2z M19.1,15.3v0.1l0.1-0.1H19.1z M19.2,5.9L19.2,5.9
		c0.4-0.1,0.5-0.2,0.5-0.4h0C19.4,5.5,19.2,5.6,19.2,5.9z M19.2,13.6v0.1h0L19.2,13.6L19.2,13.6z M19.5,18.4l-0.2,0.4l0,0h0
		L19.5,18.4L19.5,18.4L19.5,18.4z M19.3,11.9v0.1h0.1v-0.1H19.3z M19.3,14.9V15h0L19.3,14.9L19.3,14.9z M19.4,14.2v0.1h0l0.9-1.4
		v-0.1h0C20,13.2,19.7,13.7,19.4,14.2z M20.1,10.7l-0.5,1.1c0.2-0.2,0.5-0.6,0.6-1.1H20.1z M19.7,7.4c0.5-0.6,0.9-1.1,0.9-1.2
		l0.3-0.2h0l0-0.1l0,0c0.3-0.2,0.4-0.4,0.4-0.5V5.2c0.1,0,0.1-0.1,0.1-0.1V5h0C21,5.2,20.8,5.5,20.6,6C20.3,6.2,20,6.7,19.7,7.4z
		 M19.8,5.9l0,0.2v0.1h0V5.9L19.8,5.9L19.8,5.9z M19.9,9.4L19.9,9.4L19.9,9.4l0.7-0.6h0L19.9,9.4z M21.5,0c0.5,0.1,0.8,0.2,1,0.3
		c0.5,0.3,0.7,0.7,0.7,1.1l0,0v0l0.1,0.2c0,0.3-0.3,0.8-0.9,1.5l-0.7,0.3h-0.4c-0.5,0-0.8-0.3-1-0.8c-0.2-0.1-0.4-0.4-0.4-0.8
		c0-0.6,0.4-1.2,1-1.7L21.5,0z M19.9,12.2c0,0,0.1-0.1,0.2-0.4C20,11.9,20,11.9,19.9,12.2z M20,9.8L20,9.8c0.4-0.3,0.6-0.5,0.6-0.6
		C20.3,9.5,20.1,9.7,20,9.8z M20.1,11.8L20.1,11.8L20.1,11.8l0.3-0.4h0C20.2,11.4,20.1,11.6,20.1,11.8z M20.5,15.7l-0.2,0.4v0h0
		L20.5,15.7L20.5,15.7L20.5,15.7z M20.3,10.2L20.3,10.2L20.3,10.2c0-0.1,0.1-0.2,0.4-0.4V9.8C20.4,10,20.3,10.2,20.3,10.2z
		 M22.1,5.1L22.1,5.1L22.1,5.1V4.9h0l-0.4,0.3v0.4c-0.5,0.6-0.9,1.2-1.2,1.8h0c0,0,0.1-0.1,0.2-0.4c0.1,0,0.2-0.1,0.4-0.3l0,0.1v0
		L21,7l0,0.1c0.1,0,0.2-0.2,0.4-0.4c0.1,0,0.2-0.2,0.4-0.4l0.8-1c0.1,0,0.1-0.2,0.3-0.4h0c-0.1,0-0.4,0.1-0.6,0.4L22.1,5.1z
		 M22.9,12.9c-0.1,0.4-0.4,0.8-0.9,1.4l-0.8,1.2L20.4,17v0h0l1.5-2.2l0.8-1.3c0,0,0.1-0.1,0.2-0.2v0h0L22.9,12.9L22.9,12.9
		L22.9,12.9z M20.7,1.2l-0.2,0.6v0h0L20.7,1.2L20.7,1.2L20.7,1.2z M20.7,10.4l-0.2,0.3v0.1L20.7,10.4L20.7,10.4L20.7,10.4z
		 M20.6,12.6h0.1v-0.1L20.6,12.6z M20.6,13.2v0.1h0L20.6,13.2L20.6,13.2z M20.7,0.8l-0.1,0.1V1L20.7,0.8L20.7,0.8L20.7,0.8z
		 M20.6,2.2L20.6,2.2l0,0.3c0.1,0,0.1-0.1,0.1-0.3L20.6,2.2L20.6,2.2z M20.6,11v0.1l0.1-0.1H20.6z M20.7,7.2L20.7,7.2l0.1,0.1V7.2
		H20.7z M20.7,14.7L20.7,14.7L20.7,14.7l1.4-1.9v0c-0.8,0.8-1.2,1.4-1.3,1.8C20.7,14.6,20.7,14.6,20.7,14.7z M20.7,2.7v0.2
		c0,0.1,0.1,0.2,0.3,0.2V3C21,2.8,20.9,2.7,20.7,2.7z M20.8,10.4L20.8,10.4c0.2,0.1,0.5-0.3,0.8-1C21.3,9.5,21.1,9.7,21,10
		L20.8,10.4z M21,13.2l-0.1,0.2h0L21,13.2L21,13.2L21,13.2z M20.9,12.6v0.1H21c0-0.1,0.1-0.2,0.2-0.4h0C21.1,12.4,21,12.4,20.9,12.6
		z M21,0.8c0.1,0,0.2-0.1,0.4-0.3l0,0C21.2,0.6,21.1,0.7,21,0.8z M21,2.1L21,2.1L21,2.1l0.5-1h0C21.2,1.6,21,1.9,21,2.1z M21.2,7.4
		l0.1,0.1c0,0,0.1-0.1,0.1-0.2l0.1-0.2V7C21.4,7.1,21.3,7.2,21.2,7.4z M21.5,2.2l-0.3,0.6h0C21.3,2.8,21.4,2.7,21.5,2.2L21.5,2.2
		L21.5,2.2z M21.3,3L21.3,3l0.1,0V3L21.3,3z M21.4,12.4L21.4,12.4l0.2-0.1v-0.1h0L21.4,12.4z M21.7,1.2l-0.3,0.5v0h0L21.7,1.2
		L21.7,1.2L21.7,1.2z M21.6,7.9c0,0.1,0,0.2-0.1,0.4v0.1c0.2-0.1,0.3-0.1,0.4-0.2L21.6,7.9z M22.5,0.8c-0.4,0.7-0.6,1.2-0.8,1.8v0h0
		C22,2,22.3,1.5,22.6,1.1l0,0v0.2c-0.1,0.2-0.4,0.6-0.5,1.2l0.1-0.1h0v0l-0.7,0.7h0c0.5-0.2,0.8-0.3,0.8-0.5l0.1-0.3l0,0v0l0.3-0.5
		l-0.1-0.1c0-0.1,0.1-0.2,0.2-0.3h0l-0.1,0.8c0.1,0,0.1-0.2,0.2-0.7c0-0.5-0.1-0.7-0.4-0.7H22.5z M21.5,7L21.5,7L21.6,7V6.9L21.5,7z
		 M21.6,0.8l0.1,0.1V0.8l0-0.1l0.1-0.1l0,0h0C21.7,0.6,21.6,0.6,21.6,0.8z M21.6,2L21.6,2L21.6,2l0.6-1.1C22.2,0.8,22,1.2,21.6,2z
		 M21.6,7.3v0.1h0.1V7.2L21.6,7.3z M21.8,6.6L21.8,6.6h0.1H21.8z M21.9,1C22,1,22,0.9,22,0.7C21.9,0.8,21.9,0.8,21.9,1z M21.9,10.9
		L21.9,10.9l0.4-0.4v-0.1L21.9,10.9z M21.9,6.9v0.2h0L21.9,6.9L21.9,6.9z M22,9.9l0.2-0.4V9.5C22,9.7,22,9.8,22,9.9z M22.2,7.9
		l0.1,0.1l0-0.1V7.9H22.2z M22.2,6.5l0.1,0.1h0L22.2,6.5L22.2,6.5z M22.4,7L22.4,7l0.1-0.1V6.9L22.4,7z M22.4,7.9h0.1V7.8h0
		L22.4,7.9z M22.5,2.3L22.5,2.3L22.5,2.3L22.5,2.3L22.5,2.3z M22.5,8.8L22.5,8.8c0.1,0.1,0.2-0.1,0.4-0.4V8.4h0L22.5,8.8z
		 M22.5,12.1L22.5,12.1l0.2-0.2v-0.1C22.7,11.9,22.6,11.9,22.5,12.1z M22.6,10.1L22.6,10.1L23,9.6V9.6L22.6,10.1z M22.6,5.7
		L22.6,5.7l0.1,0.1V5.7H22.6z M22.6,12.2L22.6,12.2l0.1,0.1v-0.1H22.6z M22.9,8.9V9c0.3-0.2,0.5-0.4,0.5-0.4V8.5
		C23.1,8.8,23,8.9,22.9,8.9z M23,5h0.1V4.9L23,5z M23.2,4.7L23.2,4.7L23.2,4.7L23.2,4.7L23.2,4.7L23.2,4.7L23.2,4.7z M23.2,9.3
		L23.2,9.3l0.2-0.2V9.1h0L23.2,9.3z M23.4,8.4L23.4,8.4l0.2-0.2h0L23.4,8.4z M23.6,4.5L23.6,4.5l0.1,0.1l0,0.1v0.1h0L24,4.3h-0.1
		L23.6,4.5z M23.8,8.6v0.1h0L23.8,8.6L23.8,8.6z M23.8,8.1h0.1V8L23.8,8.1z M24.3,8.1L24.3,8.1c0,0.1,0.2-0.1,0.4-0.4V7.7L24.3,8.1z
		"/>
	<path class="st0" d="M32.4,7.1c-0.1,0.1-0.2,0.1-0.3,0.1c-0.1,0-0.2,0.1-0.3,0.1c0,0.2,0,0.3-0.1,0.4c0,0.1,0,0.2,0,0.4
		c-0.1,0.4-0.4,0.7-0.5,1.1c-0.2,0.4-0.5,0.7-0.6,0.9c-0.1,0.6-0.3,1.1-0.5,1.6c-0.1,0.5-0.2,1.1-0.2,1.8c0,0.1,0,0.1-0.1,0.2
		c0,0.1,0,0.2,0,0.4c0,0.1,0,0.2,0.1,0.2c0,0.1,0.1,0.1,0.1,0.2c0,0.1,0,0.3,0,0.4s-0.1,0.3-0.1,0.4c0,0.1,0,0.2,0,0.3
		c0,0.1,0,0.1,0,0.3c0.2,0.2,0.4,0.4,0.6,0.5c0.2,0.1,0.4,0.3,0.5,0.6c0,0,0.1,0,0.2,0.1c0.1,0,0.2,0.1,0.4,0.2
		c0.1,0,0.2,0.1,0.4,0.2c0.2,0,0.3,0.1,0.4,0.1c0.2,0,0.3,0,0.5,0s0.3,0,0.6-0.1c0.7-0.1,1.3-0.3,1.8-0.6s1-0.8,1.2-1.1
		c0-0.3,0-0.6,0.1-0.8s0.2-0.4,0.3-0.6c0.1-0.1,0.2-0.2,0.2-0.3c0.1-0.1,0.2-0.2,0.2-0.4c0-0.1,0-0.2,0-0.3s0-0.2,0-0.4
		s0-0.2-0.1-0.4s-0.2-0.2-0.2-0.3c0-0.1-0.2-0.2-0.3-0.4c-0.2-0.1-0.3-0.3-0.5-0.4c-0.1-0.1-0.2-0.1-0.3-0.2
		c-0.2-0.1-0.2-0.2-0.3-0.3s-0.1-0.2-0.1-0.3s0.1-0.2,0.3-0.2c0.3,0,0.7,0.1,1,0.1s0.8,0.1,1.2,0.1c0.4,0.1,0.8,0.1,1.2,0.1
		s0.8,0.1,1.1,0c0.2,0,0.4-0.1,0.5-0.1s0.2-0.1,0.3-0.1s0.2-0.1,0.3-0.1s0.3-0.1,0.5-0.1c0.1,0,0.2,0,0.3,0c0.1,0,0.2,0,0.2,0
		c0.1-0.1,0.2-0.1,0.3-0.1c0.1-0.1,0.2-0.1,0.3-0.1c0.2,0,0.3,0,0.4,0c0.1,0,0.2,0.1,0.3,0.1c0.1,0.1,0.2,0.1,0.3,0.1
		c0.1,0.1,0.2,0.1,0.5,0.1c0.3,0.1,0.5,0.1,0.7,0.1s0.2,0.1,0.2,0.4c0,0.1,0,0.2-0.2,0.3c-0.1,0.1-0.2,0.1-0.4,0.1
		c-0.2,0-0.3,0.1-0.5,0.1s-0.3,0-0.5,0.1s-0.2,0.1-0.3,0.1s-0.2,0.1-0.2,0.1s-0.1,0.1-0.2,0.1c0,0.1-0.1,0.1-0.2,0.1
		c-0.1,0.1-0.2,0.1-0.2,0.1c-0.1,0.1-0.2,0.1-0.2,0.1c-0.2,0.1-0.3,0.2-0.4,0.4c-0.1,0.1-0.2,0.4-0.3,0.6c-0.2,0.1-0.2,0.2-0.2,0.4
		s0,0.2-0.2,0.4c-0.2,0.2-0.3,0.6-0.5,0.9s-0.2,0.7-0.4,1c-0.2,0.5-0.3,1-0.4,1.6c0,0.5-0.2,1.1-0.3,1.6c0,0.1,0,0.4-0.1,0.5
		c0,0.2,0,0.4,0,0.5c0,0.1-0.1,0.2-0.2,0.4c0,0.1-0.1,0.2-0.1,0.4c0,0.1,0,0.3,0,0.4c0,0.1,0,0.2,0,0.4c-0.1,0-0.2,0-0.2,0.1
		c-0.1,0-0.2,0.1-0.2,0.1c-0.1,0.1-0.1,0.3-0.1,0.5s0,0.4-0.2,0.5c0,0.1-0.2,0.1-0.3,0.2c-0.2,0-0.2,0.1-0.3,0.1c-0.2,0-0.2,0-0.4,0
		c-0.2,0-0.3,0-0.5,0s-0.4,0.1-0.5,0.2c-0.2,0.1-0.3,0.2-0.5,0.4c-0.2,0.1-0.3,0.1-0.5,0.2c-0.2,0-0.4,0.1-0.5,0.2
		c-0.1,0-0.2,0.1-0.3,0.2c-0.1,0-0.2,0.1-0.3,0.1s-0.2,0-0.3,0s-0.2-0.1-0.3-0.2c-0.1-0.2-0.1-0.5,0-0.7s0.2-0.4,0.3-0.5
		s0.2-0.3,0.3-0.5c0.1-0.1,0.2-0.4,0.3-0.5c0.1-0.2,0.2-0.5,0.2-0.8s0-0.5,0.2-0.6c0.1-0.2,0.3-0.5,0.5-0.8s0.3-0.5,0.4-0.8
		c-0.2,0.1-0.5,0.2-0.8,0.4s-0.7,0.2-1,0.3c0,0-0.2,0-0.2,0s-0.2,0-0.2,0c-0.2,0-0.2,0-0.4,0.1c-0.2,0-0.2,0-0.4,0.1
		c-0.2,0-0.3,0-0.4,0c-0.1,0-0.2,0-0.3,0c-0.4,0-0.6,0-0.9,0.1c-0.2,0-0.5,0-0.8,0c-0.1,0-0.4-0.1-0.5-0.2c-0.2-0.1-0.4-0.2-0.5-0.2
		s-0.4-0.1-0.6-0.2c-0.2,0-0.4-0.1-0.5-0.2c-0.2-0.1-0.5-0.2-0.8-0.5c-0.2-0.1-0.5-0.3-0.9-0.4c-0.3-0.4-0.6-0.9-0.9-1.5
		s-0.5-1.1-0.5-1.7c0-0.1,0-0.3,0-0.4s0-0.3,0-0.4c0-0.1,0-0.1-0.1-0.2c0-0.1-0.1-0.1-0.1-0.2s-0.1-0.2-0.1-0.4s0-0.4-0.1-0.6
		c-0.1-0.6,0-1.3,0-1.9c0.1-0.6,0.2-1.2,0.5-1.8c0-0.1,0-0.1,0.1-0.1c0-0.1,0.1-0.1,0.1-0.1c0-0.1,0-0.1,0-0.2s0-0.1,0-0.2
		c0.1-0.1,0.1-0.4,0.2-0.6c0-0.2,0.1-0.4,0.3-0.6c0.1-0.2,0.2-0.5,0.4-0.8c0.1-0.2,0.2-0.4,0.5-0.6c0.1-0.1,0.2-0.1,0.4-0.2
		s0.2-0.1,0.4-0.2s0.2-0.1,0.3-0.2c0.1-0.1,0.1-0.2,0.2-0.3c0-0.1,0-0.2,0-0.2c0-0.1,0-0.2,0-0.2c0.5-0.6,1.1-1.1,1.9-1.5
		c0.1-0.1,0.1-0.1,0.2-0.1c0.1,0,0.1,0,0.2-0.1S30.7,3,30.8,3c0.1-0.1,0.2-0.2,0.4-0.2c0.2-0.1,0.5-0.2,0.9-0.2
		c0.3,0,0.6-0.2,0.9-0.2c0.1,0,0.2,0,0.3,0c0.1,0,0.2,0,0.3-0.1c0.2,0,0.4,0,0.7,0c0.3,0,0.6,0,0.9,0c0.3,0,0.7,0,1,0s0.5,0,0.7,0
		c0.1,0,0.2,0,0.3-0.1s0.2-0.1,0.3-0.1c0.2,0,0.5,0,0.7,0c0.2,0,0.5,0,0.8,0.1c0.2,0,0.4,0,0.6,0c0.2,0,0.4,0,0.6,0
		c0.2,0,0.5,0,0.8,0c0.3,0,0.5,0,0.8,0s0.5,0,0.8,0s0.5,0,0.7,0c0.2,0,0.2-0.1,0.4-0.2c0.1,0,0.2-0.1,0.4,0c0.1,0,0.2,0.1,0.4,0.2
		c0.2,0.1,0.2,0.2,0.2,0.3c0,0.2-0.1,0.3-0.3,0.5s-0.4,0.3-0.5,0.3c-0.5,0.2-1,0.3-1.5,0.5c-0.5,0.1-1.1,0.2-1.8,0.2
		c-0.2,0-0.4,0-0.6,0c-0.2,0-0.4,0-0.5,0.1C39.1,4.3,39,4.3,39,4.4c-0.1,0.1-0.2,0.1-0.2,0.1c-0.2,0.1-0.5,0.1-0.7,0.1
		s-0.5,0-0.7,0.1c-0.5,0.1-1,0.1-1.5,0.2s-1,0.2-1.2,0.5c-0.1,0.1-0.2,0.2-0.3,0.2c-0.2,0.1-0.3,0.2-0.4,0.2s-0.3,0.2-0.4,0.2
		c-0.2,0.1-0.2,0.2-0.3,0.2c-0.2,0.2-0.3,0.3-0.5,0.5C32.6,6.6,32.5,6.8,32.4,7.1z"/>
	<path class="st0" d="M53.9,1.8c0,0.1,0,0.2-0.1,0.3s-0.2,0.2-0.2,0.2c-0.1,0-0.2,0.2-0.2,0.2c-0.1,0.1-0.2,0.2-0.2,0.2
		c0,0,0,0.1,0,0.2c0,0,0,0.2,0,0.2c-0.1,0.2-0.2,0.5-0.3,0.7s-0.2,0.5-0.4,0.8c0,0.2-0.1,0.2-0.2,0.4c0,0.2-0.1,0.2-0.2,0.4
		c0,0.2-0.2,0.2-0.2,0.4c-0.1,0.2-0.2,0.2-0.2,0.3s0,0.2,0,0.2c0,0.1,0,0.2,0,0.2c0,0.2-0.1,0.3-0.2,0.5c0,0.2-0.1,0.4-0.2,0.5
		c0,0.2,0,0.4-0.1,0.6c0,0.2,0,0.4-0.1,0.5c-0.1,0.2-0.2,0.4-0.2,0.8s-0.2,0.6-0.2,0.9c0.5,0,1-0.1,1.6-0.2c0.5-0.1,1-0.3,1.5-0.4
		c0.1,0.1,0.2,0.1,0.5,0.1c0.2,0,0.5,0,0.7,0s0.5,0,0.8,0s0.5-0.1,0.7-0.1s0.4-0.1,0.7-0.1c0.2-0.1,0.5-0.1,0.5-0.2
		c0.1-0.1,0.2-0.4,0.2-0.8s0.1-0.6,0.2-0.9c0.1-0.2,0.2-0.5,0.3-0.8c0.1-0.2,0.2-0.5,0.2-0.8c0-0.1,0-0.2,0-0.3c0-0.1,0-0.2,0-0.3
		c0.1-0.2,0.2-0.5,0.3-0.8c0.2-0.2,0.2-0.4,0.3-0.7c0-0.2,0.1-0.4,0.1-0.6s0-0.3,0-0.5c0-0.2,0-0.3,0.1-0.5s0.1-0.3,0.2-0.4
		c0,0,0.1,0,0.2-0.1c0,0,0.1-0.1,0.2-0.2c0.2,0,0.4,0.1,0.5,0.1s0.3,0,0.5,0s0.3,0,0.5-0.1s0.3-0.1,0.5-0.2c0.2,0.2,0.2,0.2,0.3,0.4
		s0.2,0.2,0.5,0.2c0.1,0,0.2,0,0.3-0.1s0.2-0.1,0.3-0.2c0.2,0,0.5-0.2,0.8-0.2c0.3-0.1,0.6-0.2,0.8-0.2s0.5,0,0.8,0
		c0.2,0,0.4,0,0.8,0c0.1,0,0.1,0.2,0.2,0.2C67,2,67,2.1,66.9,2.2c-0.2,0.2-0.3,0.2-0.5,0.3c-0.2,0.1-0.3,0.2-0.5,0.2S65.6,3,65.5,3
		s-0.3,0.2-0.4,0.4c-0.2,0.2-0.4,0.6-0.6,0.9s-0.3,0.7-0.5,1c-0.1,0.1-0.2,0.2-0.2,0.3c-0.1,0.1-0.2,0.2-0.2,0.2
		c-0.1,0.2-0.2,0.5-0.2,0.8s-0.1,0.6-0.2,0.8c0,0.2-0.2,0.5-0.2,0.8C63,8.4,63,8.6,63,8.9C63.2,9,63.4,9,63.6,8.9
		c0.2-0.1,0.4-0.1,0.7-0.1c0.1,0,0.2,0.1,0.4,0.1C64.7,9,64.9,9,65,9c0.2,0,0.4,0,0.7,0s0.4-0.1,0.6,0c0.1,0,0.2,0,0.3,0
		C66.7,9,66.8,9,66.9,9c0.1,0.1,0.2,0.1,0.3,0.1c0.1,0.1,0.2,0.1,0.2,0.2c0,0.1-0.1,0.2-0.3,0.4c-0.2,0.1-0.4,0.2-0.6,0.3
		c-0.2,0.1-0.5,0.2-0.8,0.2s-0.6,0.1-0.9,0.1c-0.2,0.1-0.4,0.1-0.6,0.2s-0.4,0.2-0.7,0.2S63.2,10.9,63,11c-0.2,0-0.5,0.1-0.8,0.1
		c-0.3,0.4-0.5,0.9-0.6,1.4s-0.2,1.1-0.2,1.6c0,0.4-0.2,0.8-0.2,1.2c-0.1,0.4-0.2,0.8-0.3,1.1c0,0.2-0.2,0.4-0.2,0.5
		s-0.2,0.4-0.4,0.6C60,17.8,60,18,59.9,18.1s-0.2,0.3-0.2,0.4c-0.1,0.1-0.3,0.2-0.5,0.3c-0.2,0-0.4,0.1-0.5,0.2
		c-0.2,0.1-0.3,0.3-0.5,0.5s-0.3,0.3-0.5,0.4c-0.2,0-0.3,0-0.4,0c-0.1,0-0.2,0-0.2,0c-0.1,0-0.2,0-0.2-0.1s-0.2-0.1-0.2-0.2
		c0-0.1,0-0.2,0-0.2c0,0,0-0.1,0-0.2c-0.1,0-0.2,0-0.2,0.1s-0.2,0.1-0.2,0.1c-0.2,0-0.2,0-0.4-0.2c-0.2-0.1-0.2-0.3-0.2-0.5
		c0-0.1,0-0.2,0.1-0.4s0.1-0.3,0.2-0.5c0-0.1,0-0.3,0.1-0.5s0-0.3,0.1-0.5c0-0.1,0-0.1,0.1-0.2s0.1-0.1,0.1-0.2c0-0.2,0-0.5,0-0.7
		c0-0.2,0-0.4,0-0.6c0-0.1,0-0.1,0.1-0.2s0-0.1,0.1-0.2c0.1-0.2,0.2-0.5,0.3-0.8s0.2-0.5,0.2-0.8c0.1-0.2,0.2-0.6,0.2-0.8
		s0.2-0.5,0.1-0.8c-0.2,0-0.4,0-0.6,0.1s-0.4,0.1-0.5,0.1c-0.2,0.1-0.4,0.1-0.6,0.2c-0.2,0.1-0.4,0.1-0.7,0.1c-0.1,0-0.2,0-0.4,0
		c-0.2,0-0.3-0.1-0.5-0.1s-0.3,0-0.5,0s-0.3,0-0.5,0.1c-0.2,0.1-0.4,0.1-0.5,0.2c-0.2,0.1-0.4,0.1-0.6,0.2c-0.2,0.1-0.4,0.1-0.6,0.2
		c-0.2,0.1-0.3,0.1-0.5,0.1c-0.2,0.1-0.3,0.2-0.4,0.5c-0.1,0.2-0.2,0.4-0.2,0.6c0,0.2-0.2,0.4-0.2,0.6c-0.1,0.2-0.2,0.4-0.5,0.4
		c0.1,0.1,0.2,0.3,0.1,0.6c0,0.3,0,0.5-0.1,0.8c-0.1,0.4-0.2,0.8-0.3,1.2c-0.2,0.4-0.3,0.7-0.5,1c-0.2,0.1-0.5,0.2-0.7,0.4
		c-0.2,0.1-0.5,0.2-0.8,0.2c-0.1,0-0.2-0.1-0.2-0.2s0-0.2,0-0.2c-0.1,0.2-0.2,0.4-0.3,0.5c-0.2,0.1-0.3,0.2-0.5,0.3
		c-0.2,0.1-0.3,0.2-0.5,0.3c-0.2,0.1-0.2,0.2-0.3,0.4c-0.3,0-0.7,0-1,0s-0.5,0-0.8-0.2c-0.1-0.2-0.1-0.5,0-0.8s0.1-0.5,0.2-0.7
		c0-0.1,0-0.2,0-0.3c0-0.1,0-0.2,0-0.3c0-0.2,0.1-0.5,0.2-0.9c0.1-0.4,0.2-0.6,0.3-0.9c0-0.1,0.1-0.2,0.2-0.3
		c0.1-0.1,0.2-0.2,0.2-0.3c0-0.1,0.1-0.3,0.1-0.4c0-0.1,0-0.2,0.1-0.4s0.1-0.2,0.2-0.4s0.1-0.2,0.2-0.4c0-0.1,0-0.2,0-0.4
		c0-0.1,0-0.2,0-0.4c0-0.1,0-0.1,0.1-0.2s0.1-0.1,0.1-0.2c0-0.1,0-0.4-0.1-0.5s-0.2-0.3-0.2-0.5c-0.1-0.1-0.2-0.3-0.2-0.5
		c0-0.1,0-0.4,0.2-0.6c0.2-0.1,0.3-0.1,0.5-0.1c0.2-0.1,0.3-0.1,0.4-0.2c0.1-0.3,0.2-0.6,0.2-0.9c0-0.3,0.1-0.6,0.2-0.9
		c0-0.1,0.1-0.3,0.2-0.4S47,8,47.1,7.9c0-0.1,0-0.3,0-0.4c0-0.2,0-0.3,0-0.4s0.1-0.2,0.2-0.3c0.1-0.1,0.2-0.2,0.2-0.3
		c-0.2-0.2-0.2-0.4-0.2-0.7s0.1-0.6,0.2-0.9c0.1-0.3,0.2-0.7,0.3-1s0.2-0.7,0.2-1c0.1-0.3,0.2-0.6,0.2-0.9c-0.3,0.2-0.2,0.1,0.1,0
		c0.5,0,1.1,0,1.7-0.1c0.5-0.1,1.1-0.2,1.7-0.4c0.1,0,0.1,0,0.2,0.1c0,0,0,0.1,0.1,0.2c0.1-0.1,0.2-0.2,0.4-0.2s0.3-0.1,0.5,0
		c0.2,0,0.3,0,0.5,0.1C53.6,1.6,53.8,1.8,53.9,1.8z"/>
	<path class="st0" d="M81.9,1.5c0,0.1,0,0.2,0,0.2s0,0.2,0,0.2c-0.1,0.1-0.2,0.2-0.3,0.2c-0.1,0-0.2,0.1-0.2,0.2
		c-0.1,0.1-0.1,0.2-0.1,0.2s0,0.2-0.1,0.2C81.3,3,81.2,3.2,81,3.3c-0.2,0.1-0.3,0.2-0.4,0.2c-0.1,0.1-0.2,0.1-0.3,0.1
		c-0.1,0.1-0.2,0.1-0.3,0.1c-0.2,0.1-0.2,0.1-0.3,0.2s-0.2,0.1-0.2,0.1c-0.1,0-0.2,0-0.3,0C79,3.9,78.8,4,78.7,4
		c-0.1,0-0.1,0-0.1,0.1c0,0.1-0.1,0.1-0.1,0.1c-0.1,0.1-0.1,0.1-0.2,0.1s-0.3,0.1-0.5,0.1c-0.2,0-0.3,0.1-0.4,0.1s-0.2,0.1-0.4,0.1
		c-0.1,0.1-0.2,0.1-0.3,0.2c-0.1,0.1-0.2,0.1-0.3,0.2c-0.2,0.2-0.4,0.2-0.5,0.3s-0.2,0.2-0.2,0.3c-0.1,0.2-0.2,0.3-0.2,0.6
		c0,0.2-0.1,0.4-0.1,0.6C75.3,6.7,75.2,6.8,75,7c-0.2,0.2-0.2,0.3-0.3,0.5c0,0.1,0,0.1,0,0.2s0,0.2,0,0.3c-0.1,0.2-0.1,0.4-0.2,0.6
		s-0.2,0.4-0.3,0.6c-0.1,0.1-0.1,0.2-0.1,0.4s0,0.2-0.1,0.4c-0.1,0.3-0.1,0.6-0.2,0.9c-0.1,0.4-0.2,0.6-0.2,1
		c-0.1,0.2-0.1,0.4-0.1,0.6c0,0.2,0,0.4-0.1,0.5s-0.1,0.2-0.2,0.4s-0.2,0.2-0.2,0.4C73.1,14,73,14.1,73,14.2c0,0.1,0,0.3,0.1,0.5
		c-0.1,0.6-0.1,1.1-0.2,1.7c-0.1,0.6-0.2,1.1-0.4,1.7c-0.1,0.1-0.1,0.4-0.2,0.7s-0.2,0.5-0.3,0.5s-0.2,0.1-0.3,0.1s-0.3,0-0.4,0
		s-0.3-0.1-0.4-0.1s-0.2-0.1-0.2-0.3c-0.1,0-0.2,0.1-0.2,0.2s-0.2,0.2-0.3,0.2c-0.2,0.1-0.3,0.1-0.5,0.1s-0.3,0-0.5,0.1
		c-0.2,0-0.3,0.1-0.4,0.2s-0.2,0.1-0.4,0.2c-0.1,0-0.2,0-0.2,0s-0.2,0-0.2,0c-0.1,0-0.2,0.1-0.2,0.2s-0.1,0.2-0.2,0.2
		c-0.1,0-0.2,0-0.4,0s-0.2,0-0.3-0.1c-0.1-0.4,0.1-0.8,0.2-1s0.2-0.6,0.3-0.9c0.1-0.1,0.1-0.4,0.2-0.5c0-0.1,0.1-0.4,0.1-0.5
		c0.1-0.2,0.2-0.5,0.2-0.7s0.2-0.5,0.2-0.8c0.1-0.1,0.1-0.3,0.1-0.5c0-0.2,0.1-0.4,0.1-0.6c0.1-0.1,0.1-0.2,0.2-0.4
		c0.1-0.1,0.2-0.3,0.3-0.5c0.1-0.1,0.1-0.4,0.2-0.6c0.1-0.2,0.1-0.4,0.2-0.6c0.1-0.2,0.2-0.5,0.3-0.7s0.2-0.4,0.2-0.6
		c0-0.1,0-0.2-0.1-0.2s-0.1-0.1-0.1-0.2c0-0.1,0-0.3,0.1-0.5s0.1-0.4,0.2-0.6c0.1-0.4,0.2-0.6,0.2-0.9c0.1-0.2,0.2-0.6,0.2-0.8
		c0.1-0.1,0.1-0.2,0.1-0.4s0.1-0.2,0.1-0.3c0.1-0.1,0.1-0.2,0.2-0.3c0.1-0.1,0.1-0.2,0.2-0.2c0.1-0.1,0.1-0.2,0.1-0.4
		c0-0.2,0.1-0.3,0.1-0.4c0.1-0.1,0.1-0.2,0.2-0.3S71,5.8,71,5.7c0.1-0.2,0-0.4-0.1-0.6s-0.2-0.3-0.2-0.6c-0.2-0.1-0.4-0.2-0.6-0.2
		s-0.4-0.1-0.7,0c-0.2,0-0.4,0.1-0.6,0.1c-0.2,0-0.3,0-0.6,0.1c-0.3,0-0.7,0.1-0.9,0.1s-0.5,0.1-0.8,0.2s-0.5,0.1-0.8,0.1
		s-0.6,0.1-0.8,0C65,4.7,65,4.5,65,4.3c0-0.2,0.1-0.4,0.1-0.5c0.1-0.1,0.2-0.1,0.3-0.2c0.1,0,0.2,0,0.3-0.1
		c-0.1-0.1-0.1-0.2-0.1-0.2c0-0.1,0-0.2,0.1-0.2S65.7,3,65.8,3s0.1-0.2,0.1-0.2c0.1-0.2,0.1-0.3,0.1-0.5S66,2,66.1,1.9
		c0.2,0,0.4,0,0.6,0c0.2,0,0.3,0,0.5,0s0.3,0,0.5,0c0.2,0,0.3,0,0.6,0c0.5,0,0.9,0,1.2-0.1s0.7-0.1,1.2-0.1c0.3,0,0.7,0,0.9,0
		c0.3,0,0.6,0,0.8,0c0.3,0,0.5,0,0.6,0s0.2,0,0.3,0s0.2,0,0.3,0c0.1,0,0.3,0,0.6,0s0.5,0,0.8,0s0.5,0,0.8,0c0.3,0,0.5,0,0.6,0
		s0.2,0,0.3,0.1C76.9,2,76.9,2,77,2s0.2,0,0.5,0c0.2,0,0.3,0,0.3-0.1c0.1,0,0.2,0,0.3-0.1c0.2,0,0.3,0,0.4,0c0.2,0,0.3,0,0.5,0
		c0.4,0,0.9-0.2,1.4-0.2S81.4,1.5,81.9,1.5z"/>
	<path class="st0" d="M100.4,1.4c-0.2,0.2-0.3,0.5-0.5,0.6c-0.2,0.2-0.4,0.3-0.6,0.5s-0.4,0.3-0.7,0.5s-0.4,0.3-0.6,0.4
		c-0.3,0.3-0.6,0.8-0.8,1.3s-0.4,1.1-0.7,1.6c-0.1,0.2-0.2,0.2-0.2,0.4S96.1,6.8,96,7c-0.2,0.4-0.3,0.9-0.4,1.4s-0.2,0.9-0.3,1.4
		c-0.1,0.5-0.2,0.9-0.3,1.4c-0.1,0.5-0.2,0.9-0.4,1.4c-0.1,0.1-0.2,0.1-0.3,0.2C94.1,12.8,94,12.9,94,13c0,0.1,0.1,0.1,0.1,0.2
		s0.1,0.1,0.1,0.2c0,0.1,0,0.2-0.1,0.4S94,14.1,94,14.3c-0.1,0.4-0.2,0.9-0.3,1.5s-0.3,0.9-0.6,1.3c-0.2,0.5-0.2,1-0.4,1.5
		c-0.1,0.5-0.3,0.9-0.6,1.2c-0.2,0-0.2,0.1-0.4,0.2s-0.2,0.1-0.4,0.1c-0.1,0-0.2,0-0.2,0s-0.2-0.1-0.3-0.1c-0.1,0-0.2,0-0.4-0.1
		s-0.3,0-0.4-0.1c-0.2,0-0.3,0-0.4-0.1s-0.2,0-0.4,0s-0.3,0-0.6,0s-0.4,0-0.6,0c-0.1-0.1-0.1-0.3-0.2-0.5c-0.1-0.1-0.2-0.3-0.2-0.5
		c-0.1-0.1-0.2-0.3-0.2-0.5c-0.1-0.1-0.1-0.4-0.2-0.5c0-0.1,0-0.1,0-0.2s0.1-0.2,0-0.2c-0.1-0.1-0.1-0.2-0.2-0.4
		c-0.1-0.1-0.2-0.2-0.2-0.4c0-0.1,0-0.1,0-0.2s0-0.1,0-0.2s-0.1-0.2-0.1-0.2c-0.1,0-0.1-0.1-0.2-0.2c-0.1,0-0.1-0.1,0-0.1
		c0-0.1,0-0.1,0-0.1c-0.1-0.1-0.1-0.2-0.2-0.3s-0.1-0.2-0.2-0.3c-0.1-0.2-0.1-0.5-0.1-0.8c0-0.2,0-0.6-0.1-0.8
		c-0.1-0.2-0.1-0.4-0.2-0.6s0-0.4,0-0.7c0-0.1,0-0.2,0.1-0.4S86,11,86,10.9s0-0.2-0.1-0.4s-0.1-0.1-0.1-0.2
		c-0.1-0.1-0.1-0.2-0.2-0.2s-0.2-0.1-0.3-0.1c-0.1-0.4-0.3-0.9-0.5-1.6s-0.4-1.1-0.5-1.6c0-0.1,0,0-0.1,0.2c0,0.1-0.1,0.2-0.1,0.4
		c-0.1,0.1-0.1,0.4-0.2,0.6S84,8.3,83.9,8.4c0.1,0.2,0.2,0.5,0,0.8c-0.1,0.3-0.2,0.6-0.3,0.9c-0.1,0.4-0.2,0.9-0.3,1.4
		c-0.1,0.4-0.2,0.9-0.4,1.4c-0.1,0.1-0.1,0.2-0.1,0.3c-0.1,0.1-0.1,0.1-0.1,0.2c-0.1,0.1-0.1,0.3-0.1,0.5c0,0.1,0,0.4-0.1,0.5
		s-0.1,0.4-0.1,0.5c0,0.1-0.1,0.3-0.1,0.5c-0.1,0.3-0.1,0.6-0.2,0.9c-0.1,0.4-0.1,0.7-0.2,1s-0.2,0.6-0.3,0.9s-0.3,0.5-0.6,0.5
		c-0.2,0.1-0.3,0.1-0.4,0.1c-0.2,0-0.2-0.1-0.4-0.2c-0.1,0-0.1,0-0.2,0.1c0,0.1-0.1,0.1-0.1,0.2c-0.2,0-0.4,0-0.6,0.1
		s-0.3,0.1-0.4,0.2c-0.1,0-0.1,0-0.2,0s-0.1,0-0.2,0c-0.2,0-0.2,0.1-0.4,0.2s-0.2,0.1-0.3,0.2s-0.2,0.1-0.3,0.2s-0.2,0-0.3,0
		c-0.2,0-0.3-0.1-0.4-0.3s-0.2-0.3-0.3-0.4c0.1-0.2,0.1-0.5,0.2-0.8c0.1-0.2,0.2-0.5,0.2-0.8s0.2-0.5,0.2-0.8s0.2-0.5,0.2-0.7
		c0.1-0.1,0.1-0.3,0.2-0.5s0.1-0.3,0.2-0.5c0.1-0.1,0.1-0.3,0.2-0.4s0.2-0.3,0.2-0.4c0.1-0.1,0.1-0.4,0-0.5s0-0.4,0-0.5
		c0.1-0.1,0.1-0.4,0.2-0.5s0.2-0.4,0.2-0.6c0.2-0.6,0.3-1.1,0.5-1.6s0.4-0.9,0.8-1.3c0-0.2,0.1-0.4,0.1-0.6s0.1-0.4,0.2-0.6
		c0.1-0.1,0.1-0.4,0.1-0.5s0-0.4-0.1-0.6c0.1-0.3,0.2-0.6,0.2-0.8s0.2-0.6,0.2-0.8c0-0.1,0-0.2,0-0.2s0-0.2,0.1-0.2
		c0.1-0.2,0.1-0.3,0.2-0.4s0.2-0.3,0.3-0.5c0.1-0.2,0.2-0.3,0.3-0.5c0.1-0.2,0.2-0.3,0.2-0.4c0.2,0,0.3,0,0.5-0.1s0.3,0,0.6,0
		c0.1,0,0.2,0,0.3,0s0.2,0,0.3,0c0.2,0,0.3-0.1,0.4-0.2c0.1-0.1,0.2-0.2,0.3-0.3c0.2,0,0.4,0,0.7,0c0.2,0,0.4,0,0.6-0.1
		c0.1,0,0.2,0,0.3-0.1s0.2,0,0.3,0c0.2,0,0.3,0,0.4,0.2s0.2,0.3,0.3,0.5c0.1,0.2,0.2,0.4,0.2,0.6c0.1,0.2,0.2,0.3,0.2,0.4
		c0,0.5,0,0.9,0.1,1.3s0.1,0.8,0.1,1.3c0.1,0.6,0.2,1,0.2,1.4s0.2,0.9,0.3,1.4C88,9.5,88,9.7,88,9.9c0,0.2,0.1,0.4,0.2,0.6
		c0.1,0.3,0.2,0.6,0.4,0.9s0.2,0.6,0.2,0.9c0.1,0.4,0.1,0.7,0.1,1s0,0.6,0.1,0.9c0.1,0.2,0.2,0.4,0.2,0.6c0.1,0.1,0.2,0.4,0.4,0.6
		c0.2-0.2,0.2-0.4,0.3-0.7s0.1-0.5,0.1-0.8c0.1-0.2,0.1-0.5,0.2-0.8s0.2-0.5,0.2-0.8c0.1-0.4,0.2-0.8,0.3-1.1
		c0.2-0.4,0.2-0.8,0.4-1.1c0.1-0.1,0.1-0.2,0.2-0.3c0.1-0.1,0.2-0.2,0.2-0.4c0.1-0.1,0.1-0.4,0.1-0.6c-0.1-0.2-0.1-0.4-0.1-0.6
		c0.1-0.1,0.1-0.3,0.2-0.5c0.1-0.2,0.1-0.4,0.2-0.6C91.9,6.7,92,6.2,92,5.7s0.1-0.9,0.2-1.3c0.1-0.1,0.1-0.3,0.2-0.5
		c0.1-0.2,0.1-0.4,0.1-0.5c0-0.1-0.1-0.2-0.2-0.3c-0.1,0-0.2-0.2-0.2-0.3c0-0.1,0.1-0.2,0.2-0.3s0.2-0.2,0.4-0.2
		C93,2,93.2,2,93.3,1.9c0.2,0,0.3,0,0.4,0c0.2,0,0.2,0,0.4,0c0.1,0,0.2,0,0.3,0.1s0.2,0,0.3,0.1s0.3,0,0.4,0c0.2,0,0.6,0,0.9-0.1
		s0.7,0,0.9-0.1c0.2,0,0.3,0,0.4,0c0.2,0,0.3,0,0.4,0c0.2,0,0.3-0.1,0.4-0.2c0.2,0,0.3-0.1,0.6-0.2c0.2,0,0.3,0,0.6-0.2
		c0.2,0,0.3-0.1,0.4-0.1c0.1,0,0.1,0,0.2,0C100.3,1.3,100.3,1.3,100.4,1.4z"/>
	<path class="st0" d="M104.6,3.9L104.6,3.9l0.2,0.1v0.1c-0.3,0.4-1.1,1.6-2.2,3.5h0.2l1.8-0.5l0.1,0.1c0.2-0.2,0.7-0.3,1.2-0.3V7
		c-0.1,0.4-0.3,0.8-0.8,1.3c-0.6,0.8-0.9,1.1-0.9,1.1c-0.3,0.5-1,1.2-1.9,2.2v0.1l1.1-0.2l0.1,0.1l0.3-0.1l0.1,0.2l-0.3,0.4h0.1
		c0.2-0.1,0.3-0.4,0.4-0.8h0.4l0.2,0.1c-0.2,0.6-0.7,1.6-1.3,2.9l-1.5,2.4c-0.3,0.4-1,1.4-2.1,3c-0.5,0.6-0.9,1.4-1.3,2.1
		c-0.1,0-0.3,0.5-0.8,1.3c-0.2,0.5-0.3,0.9-0.4,0.9l0.1,0v0l-0.1,0h-0.4l-0.2-0.2l0.2,0l0,0c-0.1,0-0.2,0-0.2-0.1l0.1,0l0.1,0h0.1
		c0,0-0.1-0.1-0.2-0.1l-0.1,0v0l0.1,0l-0.1,0h-0.1l0.1-0.1l-0.1,0v-0.1l0.1-0.1h0.1l0.2,0.1l0.1-0.3l-0.2-0.1l0.2-0.2l0.1,0h0.1
		v-0.2h-0.2v-0.1l0.2,0l0.1-0.2l-0.1-0.1v-0.4c0.1,0,0.1-0.2,0.2-0.5c0.2-0.2,0.3-0.5,0.3-0.7c0.1,0,0.2-0.7,0.4-2.1
		c0.1-0.8,0.2-1.2,0.3-1.2l0.1,0l-0.4,2.2v0h0.1c0.2-0.9,0.4-1.2,0.5-1.2v-0.1c0.2-0.8,0.4-1.5,0.6-1.9h0.1l0.1,0h0.1l0.1-0.1
		l-0.1-0.3l0.2-0.4l-0.1-0.1l0.1-0.1h0.1l-0.1-0.2v-0.1l0.1-0.1l-0.1-0.1c-0.2,0-0.3,0.1-0.5,0.2c0-0.1-0.1-0.1-0.2-0.1l-0.8,0.1
		l-0.1-0.1c0.8-1.8,1.5-3,1.9-3.6l0.3-0.6h-0.1l-0.4,0.2l-0.1-0.1v-0.1l-2.3,0.6h-0.2v-0.1c0.2-0.5,0.3-0.8,0.4-0.8l-0.1-0.1
		c0.2-0.6,0.6-1.6,1.2-2.9c0.2-0.6,0.4-1.1,0.6-1.3c0-0.2,0.1-0.3,0.3-0.3l-0.1-0.2c0.2-0.1,0.2-0.3,0.3-0.6l0.2-0.1
		c0,0.2-0.1,0.4-0.4,0.8v0.1h0.1l0.4-0.8l1.8-0.3h0.2c0.1-0.1,0.4-0.2,0.9-0.3l0.1,0.1h0.1c0.4-0.2,0.8-0.2,1.1-0.2v0.1h0.2v0h0.2
		L104.6,3.9z M96.3,22.8L96.3,22.8l0.1,0.2h-0.1l-0.1-0.1L96.3,22.8z M96.3,23.3L96.3,23.3L96.3,23.3l0.1-0.1L96.3,23.3z M96.3,23.4
		L96.3,23.4L96.3,23.4L96.3,23.4L96.3,23.4z M96.3,23.5L96.3,23.5L96.3,23.5L96.3,23.5L96.3,23.5z M96.9,10.9V11H97L96.9,10.9z
		 M96.9,22.4l-0.1,0.2l0.1,0H97L96.9,22.4L96.9,22.4z M97.4,10.7L97.4,10.7L97.4,10.7c0.1-0.1,0.2-0.2,0.4-0.5v-0.1
		C97.7,10.1,97.6,10.3,97.4,10.7z M97.5,19.4v0.1h0.1L97.5,19.4L97.5,19.4z M97.8,10.6L97.8,10.6l0.4-0.4v-0.1L97.8,10.6z
		 M97.9,16.9L97.9,16.9L98,17h-0.1V16.9z M98.3,13.6c-0.3,0.6-0.4,0.9-0.4,1l0.2-0.1v-0.2C98.2,14.2,98.2,13.9,98.3,13.6L98.3,13.6
		L98.3,13.6z M98,18.7v0.1h0.1L98,18.7L98,18.7z M98.3,18l-0.2,0.2v0l0.2,0V18L98.3,18L98.3,18z M98.4,15.6L98.4,15.6l0.1,0.1
		l-0.1,0.2l0.1,0.1l-0.2,0.4l0.1,0.1l-0.2,0.1l-0.1,0l0.1,0v-0.5l0.2,0l-0.1-0.2L98.4,15.6z M98.2,7.9L98.2,7.9L98.2,7.9
		c0.1-0.1,0.2-0.3,0.4-0.7c0.1-0.4,0.2-0.7,0.2-0.8V6.4h-0.1C98.8,6.5,98.5,7,98.2,7.9z M98.3,9.6l0.3-0.4V9.2
		C98.3,9.4,98.3,9.5,98.3,9.6z M99.4,12.9c-0.2,0.4-0.4,0.7-0.4,0.8c-0.3,0.4-0.4,0.7-0.4,0.8v0.1h0.2c0-0.1,0.3-0.6,0.8-1.4
		L99.4,12.9L99.4,12.9z M98.7,13.1L98.7,13.1L98.7,13.1c0.1-0.1,0.6-0.9,1.6-2.6v-0.1C99.9,10.7,99.4,11.6,98.7,13.1z M98.7,9.2
		c0.1-0.1,0.4-0.4,0.9-1.1V8h-0.1c-0.2,0-0.3,0.1-0.6,0.5C98.9,8.6,98.8,8.8,98.7,9.2z M98.8,17.3l-0.1,0.2
		C98.8,17.5,98.8,17.5,98.8,17.3L98.8,17.3L98.8,17.3z M98.8,10.4L98.8,10.4c1-1.1,1.8-1.8,2.2-2l0.1-0.1V8.3L101,8.2h0
		C99.8,9.2,99,10,98.8,10.4z M98.8,16.2v0.1h0.1L98.8,16.2L98.8,16.2z M99,7.9l-0.1,0.2v0.1C99,8.2,99,8.1,99,7.9L99,7.9L99,7.9z
		 M99.3,13.9l-0.3,0.6H99c0.1,0,0.1-0.1,0.2-0.5V13.9L99.3,13.9L99.3,13.9z M99,19.5L99,19.5c0.1,0,0.2-0.1,0.4-0.5v0L99,19.5z
		 M99.1,6L99.1,6L99.1,6h0.2V5.9L99.1,6z M99.2,9.1L99.2,9.1l0.7-0.6h-0.1L99.2,9.1z M99.2,15.6v0.1V15.6L99.2,15.6L99.2,15.6z
		 M100.4,5.3L100.4,5.3L100.4,5.3l-0.2,0.3h0.2v0.1l-1,1.7v0.1h0.1l1.3-2.2h-0.2L100.4,5.3z M99.9,9.6l-0.6,0.6v0.1L99.9,9.6
		L99.9,9.6z M99.4,12.2l-0.1,0.2v0.1h0.1L99.4,12.2L99.4,12.2L99.4,12.2z M99.3,15.3v0.1l0.2-0.1H99.3z M99.4,5.9L99.4,5.9
		c0.3-0.1,0.5-0.2,0.5-0.4h-0.1C99.6,5.5,99.4,5.6,99.4,5.9z M99.4,13.6v0.1h0.1L99.4,13.6L99.4,13.6z M99.7,18.4l-0.2,0.4l0,0h0.1
		L99.7,18.4L99.7,18.4L99.7,18.4z M99.6,11.9v0.1h0.1L99.6,11.9L99.6,11.9z M99.6,14.9V15h0.1L99.6,14.9L99.6,14.9z M99.7,14.2v0.1
		h0.1l0.8-1.4v-0.1h-0.1C100.2,13.2,99.9,13.7,99.7,14.2z M100.3,10.7l-0.6,1.1C100,11.6,100.2,11.2,100.3,10.7L100.3,10.7z
		 M99.9,7.4c0.6-0.6,0.8-1.1,0.8-1.2l0.3-0.2h0.1L101,5.8l0,0c0.3-0.2,0.4-0.4,0.4-0.5V5.2c0.1,0,0.2-0.1,0.2-0.1V5h-0.1
		c-0.3,0.2-0.6,0.5-0.8,0.9C100.5,6.2,100.2,6.7,99.9,7.4z M100,5.9l-0.1,0.2v0.1h0.1V5.9L100,5.9L100,5.9z M100.1,9.4L100.1,9.4
		L100.1,9.4l0.7-0.6h-0.1L100.1,9.4z M101.7,0c0.4,0.1,0.8,0.2,1,0.3c0.4,0.3,0.7,0.7,0.7,1.1l-0.1,0v0l0.2,0.2
		c0,0.3-0.3,0.8-0.9,1.5l-0.7,0.3h-0.4c-0.4,0-0.8-0.3-1.1-0.8c-0.2-0.1-0.3-0.4-0.3-0.8c0-0.6,0.3-1.2,1.1-1.7L101.7,0z
		 M100.1,12.2c0.1,0,0.1-0.1,0.2-0.4C100.3,11.9,100.2,11.9,100.1,12.2z M100.3,9.8L100.3,9.8c0.4-0.3,0.6-0.5,0.6-0.6
		C100.5,9.5,100.3,9.7,100.3,9.8z M100.4,11.8L100.4,11.8L100.4,11.8l0.3-0.4h-0.1C100.4,11.4,100.4,11.6,100.4,11.8z M100.7,15.7
		l-0.2,0.4v0h0.1L100.7,15.7L100.7,15.7L100.7,15.7z M100.5,10.2L100.5,10.2L100.5,10.2c0.1-0.1,0.2-0.2,0.3-0.4V9.8
		C100.7,10,100.5,10.2,100.5,10.2z M102.3,5.1L102.3,5.1L102.3,5.1V4.9h-0.1l-0.4,0.3v0.4c-0.5,0.6-0.9,1.2-1.2,1.8h0.1
		c0.1,0,0.1-0.1,0.2-0.4c0.1,0,0.2-0.1,0.4-0.3l0.1,0.1v0L101.2,7l0.1,0.1c0.1,0,0.2-0.2,0.3-0.4c0.2,0,0.2-0.2,0.4-0.4l0.8-1
		c0.1,0,0.2-0.2,0.3-0.4h-0.1c-0.2,0-0.3,0.1-0.6,0.4L102.3,5.1z M103.1,12.9c-0.1,0.4-0.4,0.8-0.8,1.4l-0.8,1.2l-0.9,1.5v0h0.1
		l1.4-2.2l0.8-1.3c0.1,0,0.1-0.1,0.2-0.2l-0.1-0.1H103L103.1,12.9L103.1,12.9L103.1,12.9z M101,1.2l-0.2,0.6v0h0.1L101,1.2L101,1.2
		L101,1.2z M101,10.4l-0.2,0.3v0.1L101,10.4L101,10.4L101,10.4z M100.8,12.6L100.8,12.6l0.1-0.1L100.8,12.6z M100.8,13.2v0.1h0.1
		L100.8,13.2L100.8,13.2z M100.9,0.8l-0.1,0.1V1L100.9,0.8L100.9,0.8L100.9,0.8z M100.9,2.2L100.9,2.2l-0.1,0.3
		C100.9,2.5,101,2.5,100.9,2.2L100.9,2.2L100.9,2.2z M100.8,11v0.1V11L100.8,11z M100.9,7.2L100.9,7.2L100.9,7.2L100.9,7.2
		L100.9,7.2z M100.9,14.7L100.9,14.7L100.9,14.7l1.4-1.9v0c-0.8,0.8-1.2,1.4-1.3,1.8C101,14.6,100.9,14.6,100.9,14.7z M101,2.7v0.2
		c0.1,0.1,0.2,0.2,0.3,0.2V3C101.2,2.8,101.1,2.7,101,2.7z M101,10.4L101,10.4c0.2,0.1,0.5-0.3,0.8-1c-0.2,0.1-0.4,0.4-0.6,0.6
		L101,10.4z M101.2,13.2l-0.2,0.2h0.1L101.2,13.2L101.2,13.2L101.2,13.2z M101.1,12.6v0.1h0.1c0-0.1,0.1-0.2,0.2-0.4h-0.1
		C101.3,12.4,101.2,12.4,101.1,12.6z M101.2,0.8c0.2,0,0.2-0.1,0.3-0.3l0,0C101.4,0.6,101.3,0.7,101.2,0.8z M101.3,2.1L101.3,2.1
		L101.3,2.1l0.5-1h-0.1C101.4,1.6,101.3,1.9,101.3,2.1z M101.4,7.4l0.2,0.1c0.1,0,0.1-0.1,0.1-0.2l0.2-0.2V7
		C101.6,7.1,101.5,7.2,101.4,7.4z M101.7,2.2l-0.3,0.6h0.1C101.6,2.8,101.6,2.7,101.7,2.2L101.7,2.2L101.7,2.2z M101.5,3L101.5,3
		L101.5,3L101.5,3L101.5,3z M101.6,12.4L101.6,12.4l0.2-0.1v-0.1h-0.1L101.6,12.4z M102,1.2l-0.3,0.5v0h0.1L102,1.2L102,1.2L102,1.2
		z M101.9,7.9c0,0.1-0.1,0.2-0.2,0.4v0.1c0.2-0.1,0.3-0.1,0.3-0.2L101.9,7.9z M102.7,0.8c-0.3,0.7-0.6,1.2-0.8,1.8v0h0.1
		c0.2-0.7,0.6-1.2,0.8-1.5l0.1,0v0.2c-0.2,0.2-0.3,0.6-0.6,1.2l0.2-0.1h0.1v0l-0.7,0.7h0.1c0.5-0.2,0.8-0.3,0.8-0.5l0.1-0.3
		l-0.1-0.1v0l0.3-0.5l-0.2-0.1c0.1-0.1,0.1-0.2,0.2-0.3h0.1l-0.2,0.8c0.1,0,0.2-0.2,0.2-0.7C103.1,1,103,0.8,102.7,0.8L102.7,0.8z
		 M101.8,7L101.8,7L101.8,7L101.8,7L101.8,7z M101.8,0.8l0.2,0.1V0.8l-0.1-0.1l0.1-0.1l0,0H102C101.9,0.6,101.8,0.6,101.8,0.8z
		 M101.9,2L101.9,2L101.9,2l0.7-1.1C102.4,0.8,102.2,1.2,101.9,2z M101.9,7.3v0.1h0.1L101.9,7.3L101.9,7.3z M102,6.6L102,6.6
		L102,6.6L102,6.6z M102.1,1c0.1,0,0.2-0.1,0.2-0.3C102.1,0.8,102.1,0.8,102.1,1z M102.1,10.9L102.1,10.9l0.4-0.4v-0.1L102.1,10.9z
		 M102.1,6.9v0.2h0.1L102.1,6.9L102.1,6.9z M102.2,9.9l0.2-0.4V9.5C102.3,9.7,102.2,9.8,102.2,9.9z M102.4,7.9l0.1,0.1l0.1-0.1V7.9
		H102.4z M102.5,6.5L102.5,6.5l0.2,0.1L102.5,6.5L102.5,6.5z M102.7,7L102.7,7L102.7,7l0.1-0.1L102.7,7z M102.7,7.9h0.2V7.8h-0.1
		L102.7,7.9z M102.8,2.3L102.8,2.3L102.8,2.3L102.8,2.3L102.8,2.3z M102.8,8.8L102.8,8.8c0.1,0.1,0.2-0.1,0.4-0.4V8.4h-0.1
		L102.8,8.8z M102.8,12.1L102.8,12.1l0.2-0.2v-0.1C102.9,11.9,102.8,11.9,102.8,12.1z M102.8,10.1L102.8,10.1l0.4-0.4V9.6
		L102.8,10.1z M102.8,5.7L102.8,5.7L102.8,5.7L102.8,5.7L102.8,5.7z M102.8,12.2L102.8,12.2L102.8,12.2L102.8,12.2L102.8,12.2z
		 M103.1,8.9V9c0.3-0.2,0.4-0.4,0.4-0.4V8.5C103.3,8.8,103.2,8.9,103.1,8.9z M103.2,5L103.2,5L103.2,5L103.2,5z M103.4,4.7
		L103.4,4.7L103.4,4.7L103.4,4.7L103.4,4.7L103.4,4.7L103.4,4.7z M103.4,9.3L103.4,9.3l0.2-0.2V9.1h-0.1L103.4,9.3z M103.6,8.4
		L103.6,8.4l0.2-0.2h-0.1L103.6,8.4z M103.9,4.5L103.9,4.5l0.2,0.1L104,4.6v0.1h0.1l0.2-0.4h-0.1L103.9,4.5z M104,8.6v0.1h0.1
		L104,8.6L104,8.6z M104.1,8.1L104.1,8.1l0.1-0.1L104.1,8.1z M104.5,8.1L104.5,8.1c0.1,0.1,0.2-0.1,0.4-0.4V7.7L104.5,8.1z"/>
	<path class="st0" d="M127.4,1.4c-0.2,0.2-0.3,0.5-0.5,0.6c-0.2,0.2-0.4,0.3-0.6,0.5s-0.4,0.3-0.7,0.5s-0.4,0.3-0.6,0.4
		c-0.3,0.3-0.6,0.8-0.8,1.3s-0.4,1.1-0.7,1.6c-0.1,0.2-0.2,0.2-0.2,0.4S123,6.8,123,7c-0.2,0.4-0.3,0.9-0.4,1.4s-0.2,0.9-0.3,1.4
		c-0.1,0.5-0.2,0.9-0.3,1.4c-0.1,0.5-0.2,0.9-0.4,1.4c-0.1,0.1-0.2,0.1-0.3,0.2c-0.1,0.1-0.2,0.1-0.2,0.2c0,0.1,0.1,0.1,0.1,0.2
		s0.1,0.1,0.1,0.2c0,0.1,0,0.2-0.1,0.4s-0.1,0.2-0.2,0.4c-0.1,0.4-0.2,0.9-0.3,1.5s-0.3,0.9-0.6,1.3c-0.2,0.5-0.2,1-0.4,1.5
		c-0.1,0.5-0.3,0.9-0.6,1.2c-0.2,0-0.2,0.1-0.4,0.2s-0.2,0.1-0.4,0.1c-0.1,0-0.2,0-0.2,0s-0.2-0.1-0.3-0.1c-0.1,0-0.2,0-0.4-0.1
		s-0.3,0-0.4-0.1c-0.2,0-0.3,0-0.4-0.1s-0.2,0-0.4,0s-0.3,0-0.6,0s-0.4,0-0.6,0c-0.1-0.1-0.1-0.3-0.2-0.5c-0.1-0.1-0.2-0.3-0.2-0.5
		c-0.1-0.1-0.2-0.3-0.2-0.5c-0.1-0.1-0.1-0.4-0.2-0.5c0-0.1,0-0.1,0-0.2s0.1-0.2,0-0.2c-0.1-0.1-0.1-0.2-0.2-0.4
		c-0.1-0.1-0.2-0.2-0.2-0.4c0-0.1,0-0.1,0-0.2s0-0.1,0-0.2s-0.1-0.2-0.1-0.2c-0.1,0-0.1-0.1-0.2-0.2c-0.1,0-0.1-0.1,0-0.1
		c0-0.1,0-0.1,0-0.1c-0.1-0.1-0.1-0.2-0.2-0.3s-0.1-0.2-0.2-0.3c-0.1-0.2-0.1-0.5-0.1-0.8c0-0.2,0-0.6-0.1-0.8
		c-0.1-0.2-0.1-0.4-0.2-0.6s-0.1-0.4-0.1-0.6c0-0.1,0-0.2,0.1-0.4s0.1-0.2,0.1-0.3s0-0.2-0.1-0.4s-0.1-0.2-0.1-0.4
		c-0.1-0.1-0.1-0.2-0.2-0.2s-0.2-0.1-0.3-0.1c-0.1-0.4-0.3-0.9-0.5-1.6s-0.4-1.1-0.5-1.6c0-0.1,0,0-0.1,0.2c0,0.1-0.1,0.2-0.1,0.4
		c-0.1,0.1-0.1,0.4-0.2,0.6s-0.2,0.4-0.2,0.4c0.1,0.2,0.2,0.5,0,0.8c-0.1,0.3-0.2,0.6-0.3,0.9c-0.1,0.4-0.2,0.9-0.3,1.4
		c-0.1,0.4-0.2,0.9-0.4,1.4c-0.1,0.1-0.1,0.2-0.1,0.3c-0.1,0.1-0.1,0.1-0.1,0.2c-0.1,0.1-0.1,0.3-0.1,0.5c0,0.1,0,0.4-0.1,0.5
		s-0.1,0.4-0.1,0.5c0,0.1-0.1,0.3-0.1,0.4c-0.1,0.3-0.1,0.6-0.2,0.9c-0.1,0.4-0.1,0.7-0.2,1s-0.2,0.6-0.3,0.9s-0.3,0.5-0.6,0.5
		c-0.2,0.1-0.3,0.1-0.4,0.1c-0.2,0-0.2-0.1-0.4-0.2c-0.1,0-0.1,0-0.2,0.1c0,0.1-0.1,0.1-0.1,0.2c-0.2,0-0.4,0-0.6,0.1
		s-0.3,0.1-0.4,0.2c-0.1,0-0.1,0-0.2,0s-0.1,0-0.2,0c-0.2,0-0.2,0.1-0.4,0.2s-0.2,0.1-0.3,0.2s-0.2,0.1-0.3,0.2s-0.2,0-0.3,0
		c-0.2,0-0.3-0.1-0.4-0.3s-0.2-0.3-0.3-0.4c0.1-0.2,0.1-0.5,0.2-0.8c0.1-0.2,0.2-0.5,0.2-0.8s0.2-0.5,0.2-0.8s0.2-0.5,0.2-0.7
		c0.1-0.1,0.1-0.3,0.2-0.5s0.1-0.3,0.2-0.5c0.1-0.1,0.1-0.3,0.2-0.4s0.2-0.3,0.2-0.4c0.1-0.1,0.1-0.4,0-0.5s0-0.4,0-0.5
		c0.1-0.1,0.1-0.4,0.2-0.5s0.2-0.4,0.2-0.6c0.2-0.6,0.3-1.1,0.5-1.6s0.4-0.9,0.8-1.3c0-0.2,0.1-0.4,0.1-0.6s0.1-0.4,0.2-0.6
		C107,8,107,7.8,107,7.6s0-0.3-0.1-0.6c0.1-0.3,0.2-0.6,0.2-0.8s0.2-0.6,0.2-0.8c0-0.1,0-0.2,0-0.2s0-0.2,0.1-0.2
		c0.1-0.2,0.1-0.3,0.2-0.4s0.2-0.3,0.3-0.5c0.1-0.2,0.2-0.3,0.3-0.5c0.1-0.2,0.2-0.3,0.2-0.4c0.2,0,0.3,0,0.5-0.1s0.3,0,0.6,0
		c0.1,0,0.2,0,0.3,0s0.2,0,0.3,0c0.2,0,0.3-0.1,0.4-0.2c0.1-0.1,0.2-0.2,0.3-0.3c0.2,0,0.4,0,0.7,0c0.2,0,0.4,0,0.6-0.1
		c0.1,0,0.2,0,0.3-0.1s0.2,0,0.3,0c0.2,0,0.3,0,0.4,0.2s0.2,0.3,0.3,0.5c0.1,0.2,0.2,0.4,0.2,0.6c0.1,0.2,0.2,0.3,0.2,0.4
		c0,0.5,0,0.9,0.1,1.3s0.1,0.8,0.1,1.3c0.1,0.6,0.2,1,0.2,1.4s0.2,0.9,0.3,1.4c0.1,0.2,0.1,0.4,0.1,0.6c0,0.2,0.1,0.4,0.2,0.6
		c0.1,0.3,0.2,0.6,0.4,0.9s0.2,0.6,0.2,0.9c0.1,0.4,0.1,0.7,0.1,1s0,0.6,0.1,0.9c0.1,0.2,0.2,0.4,0.2,0.6c0.1,0.1,0.2,0.4,0.4,0.6
		c0.2-0.2,0.2-0.4,0.3-0.7s0.1-0.5,0.1-0.8c0.1-0.2,0.1-0.5,0.2-0.8s0.2-0.5,0.2-0.8c0.1-0.4,0.2-0.8,0.3-1.1
		c0.2-0.4,0.2-0.8,0.4-1.1c0.1-0.1,0.1-0.2,0.2-0.3c0.1-0.1,0.2-0.2,0.2-0.4c0.1-0.1,0.1-0.4,0.1-0.6c-0.1-0.2-0.1-0.4-0.1-0.6
		c0.1-0.1,0.1-0.3,0.2-0.5c0.1-0.2,0.1-0.3,0.2-0.6c0.1-0.4,0.2-0.9,0.2-1.4s0.1-0.9,0.2-1.3c0.1-0.1,0.1-0.3,0.2-0.5
		s0.1-0.4,0.1-0.5c0-0.1-0.1-0.2-0.2-0.3c-0.1,0-0.2-0.2-0.2-0.3c0-0.1,0.1-0.2,0.2-0.3s0.2-0.2,0.4-0.2c0.2,0,0.3-0.1,0.5-0.2
		c0.2,0,0.3,0,0.4,0c0.2,0,0.2,0,0.4,0c0.1,0,0.2,0,0.3,0.1s0.2,0,0.3,0.1s0.3,0,0.4,0c0.2,0,0.6,0,0.9-0.1s0.7,0,0.9-0.1
		c0.2,0,0.3,0,0.4,0c0.2,0,0.3,0,0.4,0c0.2,0,0.3-0.1,0.4-0.2c0.2,0,0.3-0.1,0.6-0.2c0.2,0,0.3,0,0.6-0.2c0.2,0,0.3-0.1,0.4-0.1
		c0.1,0,0.1,0,0.2,0C127.2,1.3,127.3,1.3,127.4,1.4z"/>
	<path class="st0" d="M131.6,7.1c-0.1,0.1-0.1,0.1-0.3,0.1c-0.1,0-0.2,0.1-0.3,0.1c-0.1,0.2-0.1,0.3-0.1,0.4c0,0.1,0,0.2,0,0.4
		c-0.1,0.4-0.4,0.7-0.6,1.1c-0.2,0.4-0.4,0.7-0.6,0.9c-0.1,0.6-0.3,1.1-0.4,1.6c-0.1,0.5-0.2,1.1-0.2,1.8c-0.1,0.1-0.1,0.1-0.1,0.2
		s-0.1,0.2-0.1,0.4c0,0.1,0.1,0.2,0.1,0.2c0.1,0.1,0.1,0.1,0.1,0.2c0.1,0.1,0,0.3-0.1,0.4s-0.1,0.3-0.1,0.4c0,0.1,0,0.2,0.1,0.3
		c0.1,0.1,0.1,0.1,0,0.3c0.2,0.2,0.4,0.4,0.6,0.5c0.2,0.1,0.4,0.3,0.6,0.6c0.1,0,0.1,0,0.2,0.1c0.1,0,0.2,0.1,0.4,0.2
		s0.2,0.1,0.4,0.2s0.3,0.1,0.4,0.1c0.2,0,0.4,0,0.5,0s0.4,0,0.6-0.1c0.7-0.1,1.3-0.3,1.9-0.6s0.9-0.8,1.2-1.1c0-0.3,0.1-0.6,0.1-0.8
		s0.1-0.4,0.3-0.6c0.1-0.1,0.1-0.2,0.2-0.3c0.1-0.1,0.1-0.2,0.1-0.4c0-0.1,0-0.2,0-0.3s0-0.2,0-0.4s0-0.2-0.1-0.4s-0.1-0.2-0.1-0.3
		c-0.1-0.1-0.1-0.2-0.4-0.4c-0.2-0.1-0.4-0.3-0.5-0.4c-0.1-0.1-0.2-0.1-0.4-0.2s-0.2-0.2-0.3-0.3s-0.1-0.2-0.1-0.3s0.1-0.2,0.3-0.2
		c0.4,0,0.7,0.1,1.1,0.1s0.8,0.1,1.1,0.1c0.4,0.1,0.8,0.1,1.2,0.1s0.8,0.1,1.1,0c0.2,0,0.4-0.1,0.5-0.1s0.2-0.1,0.4-0.1
		s0.2-0.1,0.3-0.1s0.3-0.1,0.5-0.1c0.1,0,0.2,0,0.3,0c0.1,0,0.1,0,0.2,0c0.1-0.1,0.2-0.1,0.4-0.1c0.1-0.1,0.2-0.1,0.4-0.1
		c0.1,0,0.3,0,0.4,0c0.1,0,0.2,0.1,0.4,0.1c0.1,0.1,0.2,0.1,0.4,0.1c0.1,0.1,0.2,0.1,0.4,0.1c0.3,0.1,0.5,0.1,0.6,0.1
		s0.2,0.1,0.2,0.4c0,0.1-0.1,0.2-0.1,0.3c-0.1,0.1-0.2,0.1-0.4,0.1s-0.3,0.1-0.4,0.1s-0.3,0-0.4,0.1s-0.2,0.1-0.4,0.1
		s-0.1,0.1-0.2,0.1s-0.1,0.1-0.1,0.1c-0.1,0.1-0.1,0.1-0.2,0.1c-0.1,0.1-0.2,0.1-0.2,0.1c-0.1,0.1-0.1,0.1-0.2,0.1
		c-0.2,0.1-0.4,0.2-0.4,0.4c-0.1,0.1-0.2,0.4-0.3,0.6c-0.1,0.1-0.2,0.2-0.2,0.4s-0.1,0.2-0.1,0.4c-0.1,0.2-0.3,0.6-0.4,0.9
		s-0.2,0.7-0.4,1c-0.2,0.5-0.3,1-0.4,1.6c-0.1,0.5-0.1,1.1-0.3,1.6c-0.1,0.1-0.1,0.4-0.1,0.5s-0.1,0.4-0.1,0.5
		c-0.1,0.1-0.1,0.2-0.1,0.4s-0.1,0.2-0.1,0.4c-0.1,0.1-0.1,0.3,0,0.4s0,0.2-0.1,0.4c-0.1,0-0.1,0-0.2,0.1s-0.1,0.1-0.2,0.1
		c-0.1,0.1-0.1,0.3-0.1,0.5s-0.1,0.4-0.1,0.5c-0.1,0.1-0.1,0.1-0.3,0.2s-0.2,0.1-0.4,0.1s-0.2,0-0.4,0s-0.3,0-0.5,0
		s-0.4,0.1-0.6,0.2s-0.4,0.2-0.6,0.4c-0.1,0.1-0.3,0.1-0.6,0.2s-0.4,0.1-0.6,0.2c-0.1,0-0.2,0.1-0.3,0.2s-0.2,0.1-0.3,0.1
		s-0.2,0-0.3,0s-0.2-0.1-0.3-0.2c-0.1-0.2-0.1-0.5,0-0.7s0.1-0.4,0.3-0.5s0.2-0.3,0.4-0.5s0.2-0.4,0.3-0.5c0.1-0.2,0.1-0.5,0.1-0.8
		s0.1-0.5,0.1-0.6c0.1-0.2,0.3-0.5,0.4-0.8s0.3-0.5,0.4-0.8c-0.2,0.1-0.6,0.2-0.9,0.4s-0.6,0.2-1.1,0.3c-0.1,0-0.1,0-0.2,0
		s-0.1,0-0.2,0c-0.1,0-0.2,0-0.4,0.1s-0.2,0-0.4,0.1c-0.1,0-0.3,0-0.4,0s-0.2,0-0.4,0c-0.4,0-0.6,0-0.9,0.1s-0.5,0-0.8,0
		c-0.1,0-0.4-0.1-0.6-0.2s-0.4-0.2-0.6-0.2s-0.4-0.1-0.6-0.2s-0.4-0.1-0.6-0.2c-0.2-0.1-0.6-0.2-0.8-0.5c-0.2-0.1-0.6-0.3-0.8-0.4
		c-0.3-0.4-0.6-0.9-0.9-1.5s-0.5-1.1-0.6-1.7c0-0.1,0-0.3,0-0.4s0-0.3,0-0.4c-0.1-0.1-0.1-0.1-0.2-0.2c-0.1-0.1-0.1-0.1-0.2-0.2
		s-0.1-0.2-0.2-0.4S124,13.2,124,13c-0.1-0.6-0.1-1.3,0-1.9c0.1-0.6,0.2-1.2,0.4-1.8c0-0.1,0.1-0.1,0.1-0.1c0.1-0.1,0.1-0.1,0.1-0.1
		c0.1-0.1,0.1-0.1,0.1-0.2s0-0.1,0.1-0.2c0.1-0.1,0.2-0.4,0.2-0.6s0.2-0.4,0.3-0.6c0.1-0.2,0.2-0.5,0.4-0.8s0.2-0.4,0.4-0.6
		c0.1-0.1,0.2-0.1,0.3-0.2s0.2-0.1,0.3-0.2s0.2-0.1,0.3-0.2c0.1-0.1,0.2-0.2,0.2-0.3c0-0.1,0-0.2-0.1-0.2c-0.1-0.1-0.1-0.2,0-0.2
		c0.5-0.6,1.1-1.1,1.9-1.5c0.1-0.1,0.1-0.1,0.2-0.1c0.1,0,0.1,0,0.2-0.1S129.9,3,130,3c0.1-0.1,0.2-0.2,0.4-0.2
		c0.2-0.1,0.6-0.2,0.9-0.2s0.6-0.2,0.9-0.2c0.1,0,0.2,0,0.4,0s0.2,0,0.3-0.1c0.1,0,0.4,0,0.6,0c0.3,0,0.6,0,0.9,0c0.3,0,0.6,0,0.9,0
		s0.6,0,0.7,0c0.1,0,0.2,0,0.3-0.1s0.2-0.1,0.4-0.1c0.2,0,0.5,0,0.6,0c0.2,0,0.4,0,0.8,0.1c0.2,0,0.4,0,0.6,0c0.2,0,0.4,0,0.6,0
		c0.2,0,0.6,0,0.8,0c0.3,0,0.6,0,0.8,0s0.6,0,0.8,0s0.5,0,0.7,0c0.1,0,0.2-0.1,0.4-0.2c0.1,0,0.2-0.1,0.4,0c0.1,0,0.2,0.1,0.4,0.2
		c0.1,0.1,0.2,0.2,0.2,0.3c0,0.2-0.1,0.3-0.3,0.5s-0.4,0.3-0.6,0.3c-0.4,0.2-0.9,0.3-1.5,0.5c-0.6,0.1-1.1,0.2-1.8,0.2
		c-0.2,0-0.4,0-0.6,0s-0.4,0-0.6,0.1c-0.1,0.1-0.2,0.1-0.2,0.1c-0.1,0.1-0.1,0.1-0.2,0.1c-0.2,0.1-0.4,0.1-0.7,0.1s-0.5,0-0.7,0.1
		c-0.4,0.1-0.9,0.1-1.5,0.2s-0.9,0.2-1.2,0.5c-0.1,0.1-0.2,0.2-0.4,0.2c-0.1,0.1-0.3,0.2-0.4,0.2s-0.3,0.2-0.4,0.2s-0.2,0.2-0.3,0.2
		c-0.2,0.2-0.4,0.3-0.5,0.5S131.7,6.8,131.6,7.1z"/>
	<path class="st0" d="M30.1,41.8c0.4,0.2,0.7,0.5,1,0.8c0.4,0.2,0.6,0.6,0.9,1c0,0.2,0,0.2,0,0.3s0.1,0.2,0.2,0.2s0.2,0.2,0.2,0.2
		s0.1,0.2,0.2,0.2c0,0.2,0,0.5,0,0.7s-0.2,0.5-0.2,0.8c0,0.1,0,0.2,0,0.4s0,0.2,0,0.4c0,0.3-0.1,0.7-0.2,1c0,0.3,0,0.6,0.1,1
		c0.1,0.2,0.2,0.5,0.4,0.8s0.4,0.5,0.6,0.6c0.1,0,0.2,0,0.2,0s0.1,0,0.2,0c0.1,0,0.2,0.1,0.2,0.2c0,0.1,0.2,0.2,0.3,0.2
		c0.2-0.2,0.5-0.2,0.8-0.1c0.2,0,0.5,0.1,0.8,0.1c0.1,0,0.2,0,0.2,0s0.1,0,0.2,0c0.3,0,0.8,0,1.1-0.1c0.4,0,0.8-0.1,1.1-0.2
		c0.2,0,0.3-0.2,0.5-0.2s0.4-0.2,0.5-0.3c0.2-0.2,0.5-0.3,0.8-0.5c0.2-0.2,0.5-0.2,0.9-0.1c0,0.3,0,0.5-0.2,0.7
		c-0.1,0.2-0.2,0.3-0.4,0.5c-0.2,0.2-0.3,0.2-0.5,0.4c-0.2,0.1-0.3,0.2-0.5,0.4c-0.3,0.1-0.5,0.2-0.7,0.3c-0.2,0.2-0.3,0.2-0.6,0.4
		c-0.2,0-0.2,0.1-0.3,0.2c-0.1,0-0.2,0.1-0.3,0.2c-0.2,0-0.2,0.2-0.3,0.2s-0.2,0.2-0.3,0.3c-0.2,0.1-0.2,0.2-0.5,0.2s-0.3,0-0.5,0.1
		c-0.4,0.1-0.8,0.2-1.3,0.3c-0.5,0.1-1,0.2-1.4,0.2c-0.5,0-1,0-1.4,0s-0.9-0.2-1.4-0.4c-0.2-0.1-0.5-0.2-0.5-0.3
		c-0.1-0.2-0.3-0.3-0.5-0.5c-0.2-0.2-0.4-0.3-0.6-0.6s-0.4-0.5-0.5-0.7c0-0.2-0.1-0.2-0.1-0.5c0-0.2-0.1-0.3-0.1-0.5
		s-0.1-0.3-0.2-0.5s-0.1-0.5-0.1-0.7c0-0.4,0-0.8,0.1-1.2s0.1-0.8,0.2-1.2S28,45.4,28,45s-0.1-0.7-0.2-1c0-0.1-0.1-0.2-0.2-0.2
		c-0.1-0.1-0.1-0.2-0.2-0.3c-0.1-0.2-0.4-0.4-0.5-0.6c-0.2-0.2-0.5-0.3-0.9-0.3c-0.2,0-0.5,0-0.9,0c-0.3,0-0.5,0.1-0.7,0.2
		C24.2,42.8,24,43,24,43.3s0,0.5-0.1,0.8c-0.1,0.3-0.2,0.7-0.3,1c-0.1,0.3-0.2,0.7-0.1,1c0,0.2,0.1,0.3,0.1,0.5s0.1,0.4,0.2,0.5
		c0,0.1,0.1,0.2,0.2,0.4c0.1,0.2,0.1,0.3,0,0.4c-0.1,0.1-0.2,0.2-0.5,0.2c-0.2,0-0.5,0-0.6,0c-0.2,0-0.5,0-0.6,0c-0.2,0-0.4,0-0.5,0
		s-0.3,0-0.5,0c-0.1,0-0.4,0-0.6,0.1c-0.1,0-0.2,0-0.3,0c0,0-0.1,0-0.2,0c0,0-0.1,0-0.1,0s-0.1,0-0.2,0.1s-0.2,0-0.2,0.2
		c-0.1,0-0.1,0.1-0.2,0.2c-0.2,0.1-0.5,0.2-0.9,0.2s-0.5-0.1-0.8-0.1c-0.2,0-0.5,0-0.8,0s-0.5,0-0.8-0.2c0-0.2,0.1-0.3,0.2-0.4
		c0.1,0,0.2-0.2,0.4-0.2c0.4-0.1,0.8-0.2,1.2-0.5c0.4-0.2,0.7-0.6,0.8-1c0-0.2,0.1-0.3,0.1-0.5s0-0.3,0-0.5c0.1-0.4,0.1-0.8,0.2-1.2
		c0.1-0.4,0.2-0.8,0.3-1.2c0-0.1,0-0.2,0.1-0.2s0.1-0.2,0.1-0.2c0.1-0.2,0.1-0.5,0.2-0.8s0-0.5,0.1-0.8c0.1-0.2,0.1-0.4,0.2-0.5
		c0.1-0.2,0.1-0.3,0.2-0.5c0-0.2,0.1-0.4,0.1-0.6c0-0.2,0.1-0.3,0.2-0.5c0-0.2,0-0.5,0.1-0.8c0-0.2,0-0.5,0-0.8
		c0.1-0.2,0.4-0.4,0.5-0.7s0.2-0.5,0.3-0.8c0-0.2,0-0.3,0-0.5s0-0.3,0-0.5c0-0.4,0-0.8,0.1-1.1c0-0.3,0.1-0.7,0.1-1.1
		c-0.1-0.3-0.3-0.5-0.5-0.5s-0.5-0.2-0.9-0.5c0,0-0.1,0-0.2-0.1s-0.1-0.1-0.2-0.1c-0.1,0-0.1-0.1-0.2-0.2c0,0-0.1-0.1-0.1-0.1
		c0-0.1,0.1-0.2,0.2-0.2s0.2-0.1,0.4-0.1c0.1,0,0.3,0,0.5,0c0.1,0,0.3,0,0.4,0c0.4,0.1,0.8,0.1,1.1,0.2S23,31,23.4,31
		c0.4,0,0.8,0.1,1.2,0.1c0.5,0,0.9,0,1.5,0c0.2,0,0.4,0,0.5-0.1c0.1,0,0.3,0,0.5-0.1c0.2,0,0.5,0,0.8-0.1s0.5,0,0.8,0
		c0.5,0,0.9,0,1.3,0s0.8,0,1.2,0c0.2,0,0.4,0.1,0.5,0.2c0.2,0.1,0.4,0.2,0.6,0.2c0.2,0.1,0.3,0.2,0.5,0.3c0.2,0,0.3,0.1,0.5,0.2
		c0.3,0.2,0.5,0.4,0.8,0.7s0.5,0.5,0.7,0.9c0.2,0.2,0.3,0.5,0.5,0.9c0.2,0.3,0.2,0.7,0.3,0.8c0.1,0.3,0.2,0.5,0.2,0.8
		c0,0.2,0,0.5-0.1,0.8c-0.2,0.5-0.3,0.8-0.5,1.2s-0.4,0.7-0.6,1c-0.2,0.3-0.5,0.7-0.7,1s-0.5,0.7-0.7,1c-0.2,0-0.2,0-0.3,0.1
		s-0.2,0-0.3,0.1c-0.2,0.1-0.3,0.2-0.5,0.3c-0.2,0.2-0.3,0.2-0.5,0.3c-0.1,0-0.1,0-0.2,0c-0.1,0-0.1,0-0.2,0c-0.1,0-0.4,0.1-0.5,0.2
		C30.5,41.8,30.3,41.8,30.1,41.8z M28.8,39.8c0.2-0.3,0.5-0.6,0.8-0.9c0.3-0.2,0.5-0.6,0.7-1c0.1-0.2,0.1-0.4,0.2-0.6
		c0-0.2,0.1-0.5,0.1-0.7c0.1-0.5,0.1-0.9,0-1.2c0-0.3-0.1-0.7-0.4-1c-0.1-0.3-0.4-0.5-0.6-0.8s-0.5-0.4-0.8-0.5
		c-0.2-0.1-0.5-0.2-0.6-0.4c-0.2-0.2-0.5-0.2-0.9-0.1c-0.2,0.2-0.5,0.3-0.5,0.7c-0.1,0.3-0.3,0.6-0.4,0.8c0,0.1-0.1,0.2-0.1,0.3
		c0,0.1-0.1,0.2-0.1,0.3c0,0.1,0,0.2,0,0.3c0,0.1,0,0.2,0,0.3c0,0.1-0.1,0.2-0.2,0.2c-0.1,0-0.2,0.1-0.2,0.2c0,0.1,0,0.2,0.1,0.3
		s0.1,0.2,0.1,0.3c0,0.2-0.1,0.4-0.2,0.7s-0.2,0.5-0.2,0.8c0,0.2-0.1,0.5-0.1,0.7s-0.1,0.5-0.2,0.7s-0.1,0.5-0.2,0.7
		c0,0.2,0,0.5,0,0.7c0.3,0,0.6,0.1,1,0c0.4,0,0.7,0,1-0.2c0.4-0.1,0.6-0.2,1-0.3S28.6,40,28.8,39.8z"/>
	<path class="st0" d="M51.1,30.9c0.4,0.4,0.8,0.6,1.2,0.9s0.8,0.7,1,1c0,0.1,0.1,0.2,0.2,0.2c0,0.1,0.1,0.2,0.2,0.2
		c0.1,0.2,0.2,0.3,0.4,0.5s0.2,0.5,0.3,0.7c0,0.2,0,0.4,0,0.6c0,0.2,0,0.5,0,0.7c0,0.1,0,0.2,0.2,0.2c0.1,0,0.2,0.2,0.2,0.2
		c0,0.2,0,0.5,0,0.7s-0.1,0.5,0,0.8c0,0.2,0,0.3,0.2,0.5c0.1,0.1,0.2,0.2,0.2,0.4c0,0.2,0,0.5,0,0.7s-0.1,0.4-0.2,0.6
		c-0.2,0.7-0.2,1.2-0.3,1.7s-0.3,0.9-0.5,1.4c-0.2,0.2-0.2,0.5-0.3,0.7S53.1,44,53,44.2c-0.3,0.5-0.7,1-1.1,1.3
		c-0.4,0.4-0.8,0.8-1.1,1.2c-0.6,0.2-1.2,0.5-1.7,0.8s-1.2,0.5-1.8,0.7c-0.2,0-0.3,0.1-0.5,0.2c-0.2,0-0.3,0.1-0.5,0.2
		c-0.2,0-0.4,0.1-0.7,0.1c-0.2,0-0.5,0-0.7,0c-0.2,0-0.3,0-0.5,0.2c-0.2,0-0.3,0.1-0.5,0.1c-0.2,0-0.3,0-0.5,0
		c-0.2,0-0.3-0.1-0.5-0.1c-0.2,0-0.2,0-0.4,0c-0.2,0-0.3,0-0.4,0c-0.1,0-0.2,0-0.2-0.1s-0.2-0.1-0.3-0.2c-0.1,0-0.2-0.1-0.3-0.1
		s-0.2,0-0.3,0c-0.2,0-0.2-0.1-0.3-0.2c-0.1,0-0.2-0.1-0.3-0.2c-0.1,0-0.2,0-0.3,0s-0.2,0-0.2,0c-0.1,0-0.2-0.1-0.3-0.2
		c-0.1-0.1-0.2-0.2-0.3-0.2c-0.2-0.1-0.2-0.2-0.4-0.2s-0.2-0.1-0.3-0.2c-0.2-0.2-0.5-0.4-0.7-0.7c-0.2-0.3-0.5-0.6-0.6-0.9
		c-0.2-0.3-0.3-0.5-0.5-0.8s-0.3-0.6-0.5-1c0-0.2,0-0.4,0-0.6c0-0.2,0-0.5,0-0.7c0-0.5,0-0.9,0-1.4s0-1,0.2-1.6
		c0-0.2,0.1-0.3,0.2-0.5c0.1-0.2,0.2-0.3,0.2-0.5c0-0.2,0.1-0.3,0.2-0.5c0-0.2,0.1-0.3,0.2-0.5c0.1-0.2,0.2-0.2,0.3-0.4
		s0.2-0.2,0.3-0.5s0-0.3,0-0.5c0-0.2,0-0.3,0-0.5c0-0.4,0.2-0.7,0.5-1s0.6-0.6,0.8-0.9c0.3-0.4,0.7-0.7,1-1c0.3-0.2,0.7-0.5,1.1-0.8
		c0,0,0.2,0,0.2-0.1s0.2-0.1,0.3-0.2c0.1,0,0.2-0.2,0.2-0.2s0.2-0.1,0.2-0.2c0.2,0,0.3,0,0.5,0c0.2,0,0.3,0,0.5,0
		c0.1,0,0.2-0.1,0.3-0.2s0.2-0.2,0.3-0.3c0.1-0.1,0.2-0.2,0.3-0.4c0.1-0.1,0.2-0.2,0.3-0.2c0,0,0.1,0,0.2,0s0.2,0,0.2,0
		c0.5-0.2,0.9-0.2,1.4-0.2s1,0.1,1.5,0.1c0.4,0,0.8,0,1.2,0.1c0.4,0,0.8,0.1,1,0.2c0.2,0,0.5,0.1,0.7,0.2
		C50.7,30.8,50.9,30.8,51.1,30.9z M47,45.4c0.1-0.1,0.2-0.2,0.3-0.5c0.1-0.2,0.2-0.3,0.3-0.5c0.2-0.4,0.5-0.8,0.7-1.3
		s0.5-0.9,0.7-1.3c0.2-0.5,0.4-1,0.5-1.5c0.2-0.5,0.3-1,0.5-1.5c0-0.2,0.2-0.3,0.3-0.5c0.2-0.2,0.2-0.4,0.2-0.5s0-0.2-0.1-0.3
		s-0.1-0.2-0.2-0.2c0-0.1,0-0.2,0-0.3s0-0.2,0-0.2c0-0.1,0-0.2,0-0.2c0-0.1,0-0.2-0.1-0.2c0-0.2,0-0.3,0-0.5s0-0.3,0-0.5
		c0-0.1,0-0.2,0-0.3s0-0.2,0-0.3c-0.1-0.4-0.2-0.7-0.5-1s-0.5-0.5-0.8-0.7c-0.1,0-0.2-0.2-0.2-0.2s-0.1-0.1-0.2-0.2
		c-0.1,0-0.2,0-0.3,0c-0.2,0-0.2,0-0.3,0c-0.3,0-0.7,0.1-1,0.2c-0.2,0.1-0.6,0.2-1,0.3c-0.5,0.3-1,0.7-1.6,1.1
		c-0.5,0.4-1,0.9-1.4,1.5c0,0.1-0.1,0.2-0.1,0.2s0,0.2-0.1,0.2c-0.1,0.1-0.2,0.2-0.2,0.3s-0.2,0.2-0.2,0.3c-0.2,0.2-0.3,0.5-0.4,0.8
		s-0.2,0.5-0.3,0.8c-0.1,0.3-0.2,0.7-0.2,1s0,0.7-0.1,1.1c0,0.5-0.1,0.8-0.2,1.3c0,0.4-0.1,0.8,0,1.2c0,0.1,0,0.2,0,0.3s0,0.2,0,0.3
		c0,0.4,0.1,0.8,0.2,1s0.2,0.5,0.4,0.8c0.1,0.1,0.2,0.2,0.3,0.2s0.2,0.2,0.3,0.2s0.2,0.2,0.2,0.2s0.1,0.2,0.2,0.2
		c0.5,0.4,1.2,0.6,2.2,0.6c0.3-0.2,0.7-0.4,1-0.5S46.7,45.7,47,45.4z"/>
	<path class="st0" d="M59.5,47.5c-0.3,0-0.5,0-0.7,0.2s-0.2,0.3-0.3,0.5c-0.2,0-0.4,0-0.7,0s-0.5,0-0.8,0.1s-0.5,0-0.7,0
		c-0.2,0-0.4,0-0.5-0.2c-0.1,0-0.2-0.1-0.2-0.2c0-0.1-0.1-0.2-0.2-0.2c0-0.1-0.2-0.2-0.2-0.2s-0.1-0.2-0.2-0.2c0-0.1,0-0.2,0-0.4
		c0.1-0.2,0.2-0.3,0.2-0.4c0,0,0.2-0.1,0.2-0.1c0.1,0,0.2-0.1,0.2-0.2c0.2-0.2,0.4-0.4,0.5-0.7s0.2-0.5,0.2-0.6
		c0.1-0.1,0.2-0.2,0.4-0.2s0.2-0.2,0.2-0.3c-0.2-0.1-0.3-0.1-0.5-0.1s-0.4,0-0.5,0c-0.3,0-0.6,0-1,0s-0.6-0.1-0.8-0.1
		c-0.4-0.1-0.8-0.2-1-0.5s-0.5-0.7-0.4-1.1c0.1,0,0.2,0,0.3,0c0.2,0,0.2,0,0.4,0s0.3,0,0.5,0s0.3,0,0.4,0c0.2,0.1,0.2,0.2,0.4,0.2
		s0.2,0,0.3,0s0.2-0.1,0.3-0.2s0.2-0.1,0.2-0.1c0.1,0,0.2,0,0.2,0s0.2,0,0.2,0c0.1,0,0.2,0,0.4,0c0.1,0,0.2,0,0.5-0.1
		c0.2,0,0.5,0,0.8,0s0.5,0,0.7-0.2c0.1,0,0.2-0.2,0.4-0.2s0.2-0.2,0.3-0.3s0-0.2,0-0.2s0-0.2,0-0.2c0.1-0.2,0.2-0.5,0.4-0.7
		s0.3-0.5,0.5-0.7c0-0.1,0.1-0.2,0.1-0.3s0-0.1,0-0.2s0-0.1,0-0.2s0-0.2,0.2-0.3c0.2-0.2,0.3-0.5,0.5-0.7s0.3-0.4,0.5-0.6
		c0-0.1,0-0.2,0-0.2s0-0.2,0.1-0.2c0.4-0.2,0.8-0.4,1-0.7s0.5-0.6,0.8-0.9c0-0.2,0-0.2,0.1-0.3s0.1-0.2,0.1-0.3c0-0.1,0-0.2-0.1-0.2
		s-0.1-0.2-0.1-0.3s0-0.2,0.2-0.4s0.2-0.2,0.2-0.3c0.1-0.1,0.2-0.2,0.3-0.4s0.2-0.2,0.2-0.3c0.1-0.2,0.2-0.2,0.4-0.4
		s0.2-0.2,0.4-0.4c0.1-0.1,0.1-0.2,0.2-0.3s0.1-0.2,0.2-0.2c0.2-0.1,0.3-0.1,0.6-0.1s0.5,0,0.8,0c0.3,0,0.6,0,0.9-0.1
		s0.7-0.1,1.1-0.2s0.7-0.1,1.1-0.2s0.7-0.1,0.9-0.1c0.3,0,0.6,0,0.8,0s0.4,0,0.6,0c0.2,0.2,0.4,0.4,0.7,0.5s0.4,0.4,0.7,0.6
		c0.1,0.3,0.1,0.6,0.2,0.8s0.1,0.5,0,0.8c-0.1,0.1-0.1,0.2-0.2,0.3s-0.1,0.2-0.1,0.4c0,0.2,0.1,0.5,0.2,0.7S74,35,74,35.3
		c0,0.1,0,0.2-0.1,0.3s-0.1,0.2-0.1,0.3s0,0.2,0,0.4s0.1,0.3,0.1,0.5c0,0.2,0,0.4,0,0.5s0,0.4,0,0.6s0.1,0.4,0.1,0.6
		s0.1,0.5,0.1,0.7c-0.1,0.2-0.1,0.4-0.2,0.6s-0.1,0.4-0.1,0.6c0,0.3,0,0.5,0.1,0.8s0.1,0.5-0.1,0.8c0.1,0.2,0.2,0.3,0.2,0.5
		s0,0.3-0.1,0.5s-0.1,0.3-0.1,0.5s0,0.3,0.1,0.5c0.1,0.1,0.1,0.2,0.2,0.3s0.2,0.2,0.2,0.3c0.1,0.2,0.1,0.3,0.1,0.5s0,0.5,0,0.7
		c0,0.5-0.1,1-0.2,1.3s-0.2,0.8-0.2,1.2c0,0.2,0,0.5,0,0.7s-0.1,0.5-0.2,0.6c-0.1,0.1-0.2,0.2-0.4,0.3c-0.2,0.1-0.3,0.2-0.4,0.2
		c-0.2,0-0.5,0-0.8-0.2s-0.6-0.3-0.7-0.5c-0.2-0.2-0.2-0.3-0.4-0.5s-0.2-0.4-0.3-0.6c-0.1-0.2-0.2-0.4-0.3-0.5s-0.2-0.3-0.4-0.5
		c-0.1,0-0.2-0.1-0.2-0.2s-0.2-0.1-0.2-0.2c-0.1-0.2-0.2-0.3-0.2-0.5s0-0.4,0-0.6s0.1-0.4,0.1-0.6s0-0.4-0.1-0.5s-0.1-0.3-0.2-0.3
		s-0.2-0.2-0.3-0.2s-0.2,0-0.4,0s-0.3,0-0.6,0c-0.8,0-1.5-0.1-2.2-0.2s-1.6,0-2.4,0c-0.2,0-0.3,0-0.4,0s-0.2,0-0.2,0s-0.1,0-0.2,0
		s-0.2,0-0.3,0c-0.3,0-0.6,0-0.8,0s-0.5,0.1-0.7,0.2c-0.1,0.1-0.2,0.2-0.3,0.5s-0.2,0.4-0.3,0.5C60.1,45.6,60,45.8,60,46
		s-0.1,0.4-0.2,0.6s-0.1,0.4-0.2,0.5C59.8,47.2,59.7,47.3,59.5,47.5z M65.5,41.3c0.6,0,1.1,0,1.6,0s0.9,0,1.4,0c0.1,0,0.1,0,0.2,0
		s0.2,0,0.2,0c0-0.1,0.1-0.1,0.1-0.2s0.2,0,0.2,0c0.1-0.1,0.1-0.2,0.1-0.2s0-0.2-0.1-0.2s-0.1-0.1-0.1-0.2s-0.1-0.2-0.1-0.3
		s0-0.2,0.1-0.4s0.1-0.2,0.1-0.4c0-0.1,0-0.2-0.1-0.3s-0.1-0.2-0.1-0.4c0-0.1,0.1-0.2,0.2-0.3s0.1-0.2,0.1-0.3c0,0,0-0.2-0.1-0.2
		s-0.1-0.2-0.1-0.2s0-0.2,0-0.3s0-0.2-0.1-0.3s-0.1-0.2-0.2-0.3s-0.2-0.2-0.2-0.3c-0.1-0.2-0.1-0.3,0-0.5s0.1-0.4,0.1-0.5
		c0-0.2-0.1-0.5-0.1-0.8s-0.1-0.5-0.2-0.7c-0.2-0.1-0.3-0.2-0.4-0.1s-0.2,0.1-0.2,0.2s-0.1,0.2-0.2,0.3s-0.1,0.2-0.2,0.3
		c-0.4,0.4-0.8,0.8-1,1.2s-0.5,0.8-0.8,1.2c-0.2,0.2-0.3,0.3-0.4,0.5s-0.3,0.3-0.4,0.5s-0.2,0.4-0.2,0.7s-0.1,0.5-0.1,0.8
		c-0.1,0.1-0.2,0.2-0.2,0.2s-0.1,0.1-0.2,0.2s-0.2,0.1-0.2,0.2s-0.2,0.2-0.2,0.2c-0.2,0.2-0.3,0.5-0.5,0.7s-0.3,0.5-0.4,0.8
		c0.3,0.1,0.5,0.1,0.8,0.1s0.4,0,0.6,0c0.2,0,0.4,0,0.6-0.1S65.2,41.3,65.5,41.3z"/>
	<path class="st0" d="M77.4,44.6c0.1-0.1,0.2-0.2,0.2-0.2s0.2-0.1,0.2-0.2c0.1-0.1,0-0.2,0-0.3s-0.1-0.2-0.1-0.3c0,0,0-0.2,0.1-0.2
		s0.1-0.2,0.1-0.2C78,43,78,42.8,78,42.6s0.1-0.4,0.1-0.5s0.1-0.3,0.2-0.5s0.2-0.3,0.3-0.4c0.1-0.3,0.1-0.5,0.2-0.8s0.2-0.5,0.2-0.8
		c0-0.1,0-0.2,0-0.2s0-0.2,0-0.2c0.1-0.2,0.1-0.3,0.2-0.5s0.1-0.3,0.2-0.5c0.1-0.4,0.2-0.8,0.3-1.2s0.2-0.8,0.2-1.1
		c0.1-0.2,0.1-0.3,0.1-0.5s0-0.3,0-0.5c0.1-0.3,0.1-0.6,0.2-0.9s0.1-0.5,0-0.8C80.1,33,80,32.9,80,32.8s-0.1-0.2-0.2-0.3
		c-0.1-0.1-0.1-0.2-0.1-0.2s0-0.2-0.1-0.2c-0.1-0.2-0.2-0.2-0.2-0.3s-0.2-0.2-0.3-0.2s-0.2-0.2-0.2-0.3s-0.1-0.3-0.1-0.5
		c0.1-0.1,0.2-0.2,0.4-0.2s0.3,0,0.5,0s0.3,0,0.6,0.1s0.3,0.1,0.6,0.1c0.2,0,0.5,0,0.8,0s0.6,0,0.8,0s0.6,0,0.8,0s0.6,0,0.8,0
		c0.1,0,0.2,0,0.2,0s0.1,0,0.2,0c0.1,0,0.2,0,0.3-0.1s0.2-0.1,0.3-0.1c0.6-0.1,1.2,0,1.7,0.1s1.1,0.2,1.6,0.3c0.5,0.1,1,0.1,1.5,0.2
		s0.9,0.1,1.2,0.4c0.2,0.1,0.3,0.2,0.4,0.4s0.3,0.2,0.4,0.3c0.2,0.2,0.6,0.2,0.8,0.3s0.6,0.2,0.8,0.3c0.1,0,0.2,0,0.2,0.2
		s0.2,0.1,0.2,0.2c0.1,0.1,0.2,0.2,0.3,0.2s0.2,0.1,0.3,0.2c0.1,0.1,0.2,0.2,0.2,0.3s0.2,0.2,0.2,0.4c0.2,0.2,0.3,0.4,0.4,0.5
		s0.3,0.3,0.4,0.7c0.1,0.2,0.1,0.3,0.1,0.4s0.1,0.2,0.1,0.4c0.1,0.3,0.2,0.8,0.3,1.2s0.1,1-0.1,1.5c-0.1,0.1-0.1,0.2-0.2,0.3
		s-0.1,0.2-0.2,0.3c-0.2,0.5-0.4,1.1-0.8,1.7s-0.7,1-1.2,1.5c-0.2,0-0.3,0-0.4,0.1c-0.1,0.2-0.2,0.3-0.2,0.5s-0.2,0.3-0.3,0.5
		c-0.1,0.1-0.2,0.2-0.2,0.2s-0.2,0.2-0.2,0.2c-0.3,0.4-0.7,0.8-1.1,1.2s-0.8,0.8-1.2,1c-0.1,0.1-0.2,0.2-0.4,0.2s-0.3,0.2-0.4,0.2
		s-0.2,0-0.2,0s-0.2,0-0.2,0c-0.2,0.1-0.3,0.2-0.4,0.3s-0.2,0.2-0.4,0.3c-0.3,0-0.7,0-0.9,0.1s-0.6,0.2-0.9,0.2c-0.5,0-1.1,0-1.7,0
		s-1.2,0-1.8,0.1c-0.2,0-0.4,0-0.7,0c-0.2,0-0.4,0-0.7,0c-0.4,0-0.8,0-1.2,0c-0.4,0-0.8,0-1.1,0c-0.4,0-0.8,0-1.2,0.1
		s-0.8,0.2-1.3,0.2c-0.3,0-0.6,0.1-0.9,0.2s-0.6,0.2-0.8,0.2c-0.1,0-0.2,0-0.2,0s-0.2,0-0.2-0.1s-0.2-0.1-0.2-0.2
		c-0.1,0-0.1-0.2-0.1-0.2c0,0,0.1-0.2,0.2-0.2s0.2-0.2,0.3-0.2s0.2-0.1,0.3-0.2s0.2-0.1,0.3-0.2c0.3-0.2,0.7-0.5,0.8-0.7
		s0.4-0.5,0.7-0.9c0.1-0.2,0.2-0.2,0.2-0.3s0.2-0.2,0.2-0.3s0.1-0.2,0.1-0.3S77.4,44.8,77.4,44.6z M84.3,46c0.2,0,0.3,0,0.4,0.1
		s0.2,0.1,0.4,0.1c0.3,0,0.6,0,0.8-0.2s0.4-0.3,0.6-0.4c0.2-0.1,0.3-0.2,0.4-0.2s0.3-0.1,0.4-0.2c0.3-0.2,0.7-0.5,0.9-0.8
		s0.6-0.7,0.8-1s0.4-0.8,0.7-1.2s0.4-0.8,0.6-1.2c0.1-0.2,0.2-0.5,0.3-0.7s0.2-0.4,0.3-0.6C91,39.5,91,39.3,91,39s0-0.5,0.1-0.7
		c0.1-0.1,0.1-0.2,0.2-0.2s0.2-0.2,0.2-0.3c0-0.2-0.1-0.2-0.2-0.3s-0.2-0.2-0.2-0.3c0-0.1,0-0.2,0-0.3s0.1-0.2,0.1-0.3
		c0-0.2-0.1-0.5-0.1-0.7s-0.2-0.5-0.2-0.7s-0.2-0.5-0.3-0.6s-0.3-0.3-0.4-0.5s-0.4-0.2-0.7-0.3s-0.6-0.2-0.9-0.2s-0.7-0.1-1-0.2
		s-0.6,0-0.8,0c-0.2,0.1-0.4,0.2-0.6,0.3s-0.2,0.3-0.3,0.5s-0.2,0.4-0.2,0.6s-0.2,0.4-0.3,0.5c-0.1,0-0.2,0.1-0.3,0.2
		s-0.2,0.2-0.2,0.2s0,0.2,0.1,0.3s0.1,0.2,0.1,0.3c0,0.2-0.1,0.2-0.1,0.3s-0.1,0.2-0.2,0.3c-0.1,0.2-0.2,0.5-0.2,0.8
		s-0.2,0.5-0.2,0.8c-0.1,0.2-0.2,0.5-0.3,0.8s-0.2,0.5-0.2,0.8c-0.1,0.5-0.2,1-0.2,1.5s-0.2,1-0.2,1.5c-0.1,0.3-0.2,0.6-0.3,0.9
		s-0.2,0.6-0.2,0.8c0,0.2,0.1,0.3,0.2,0.5s0.2,0.3,0.3,0.5c0.2,0,0.4,0,0.6,0S84.1,46,84.3,46z"/>
</g>
<g>
	<path class="st1" d="M149.9,42.7h-1.2c-0.8-0.2-1.6-0.5-2.3-0.8c-0.8-0.3-1.8-0.8-2.8-1.4c0,0.5,0.1,0.8,0.1,1s0.1,0.5,0.1,0.5
		s0,0.3,0,0.5c-0.6-1-1-1.8-1.2-2.4c-0.1-0.3-0.2-0.7-0.2-1l-1.7-1c-0.8-0.5-1.6-1.2-2.4-2c-0.4-1-0.9-1.8-1.6-2.7
		c-0.7-0.9-1.7-1.8-2.9-2.6c-0.6,0.7-1.1,2.1-1.4,4.3c-0.2,2.2-0.4,3.5-0.6,3.8c0-1.5,0.1-3,0.3-4.5c0.1-1,0.4-2,0.6-3l0.3-1.1
		c0-0.1-0.4-0.5-1.2-1.2l-1.2-1c-0.4-0.6-0.8-1.1-0.9-1.8l-0.3-1.8c-0.6-0.2-1.2-0.6-1.8-1.2c-0.6-0.5-1.1-1.5-1.6-2.6v-1.9
		c0.3,0.2,0.6,0.6,0.8,1.2l0.4,1.7l1.6,1.1l1.6,1.2c0.1,0.1,0,0.2,0,0.5l-0.1,0.5c0,0.4,0.1,0.6,0.4,1c0.3,0.4,0.9,0.8,1.6,1.1
		c1.1,0.5,2.2,1.1,3.1,1.8l0.6,0.4c0.4,0.1,0.9,0.2,1.5,0.4s1.4,0.1,2.1,0.1c1.6,0,2.6,0.1,3.1,0.2c-0.2,0-0.5,0-0.7,0.1l-0.5,0.1
		c2.1,1.2,3.7,2.2,4.9,2.8c1.4,0.7,2.2,1,2.2,1.1c-0.5-0.3-1.1-0.5-1.7-0.7v2.2l0.8,1.2l0.9,1.5c-0.7-0.8-1.1-1.5-1.4-2.2
		c-0.2-0.5-0.3-1.2-0.3-1.8v-0.5v-0.5c-1.1,0-2.1-0.2-2.8-0.7l-2-1.3c-1-0.5-2.4-0.7-4.4-0.7c-0.2,0-1.2-0.5-2.9-1.5
		c-0.8-0.5-1.6-0.7-2.4-0.7c0.9,0.9,1.4,1.4,1.7,1.6l1.9,1.3c0.4,0.2,1.1,1.2,2.1,2.8c0.6,1,1.4,1.8,2.2,2.7
		c1.8,1.7,3.4,2.8,4.9,3.5c0.8,0.2,1.6,0.4,2.7,0.4h0.5c0.2,0,0.4,0.1,0.6,0.2h-0.5c-0.2,0-0.5,0-0.9,0.2c0.5,0.2,0.9,0.4,1.2,0.6
		C149.3,42.1,149.6,42.3,149.9,42.7z"/>
</g>
</svg>
